G04 FreePCB version 1.359*
G04 C:\JPT\Projects\19\1908 - LED Light\FreePCB\Remote\CAM\bottom_silk.grb*
G04 bottom silk layer *
G04 Scale: 100 percent, Rotated: No, Reflected: No *
%FSLAX24Y24*%
%MOIN*%
%LN bottom silk *%
G04 Rounded Rectangle Macro, params: W/2, H/2, R *
%AMRNDREC*
21,1,$1+$1,$2+$2-$3-$3,0,0,0*
21,1,$1+$1-$3-$3,$2+$2,0,0,0*
1,1,$3+$3,$1-$3,$2-$3*
1,1,$3+$3,$3-$1,$2-$3*
1,1,$3+$3,$1-$3,$3-$2*
1,1,$3+$3,$3-$1,$3-$2*%
G04 Rectangular Thermal Macro, params: W/2, H/2, T/2 *
%AMRECTHERM*
$4=$3/2*
21,1,$1-$3,$2-$3,0-$1/2-$4,0-$2/2-$4,0*
21,1,$1-$3,$2-$3,0-$1/2-$4,$2/2+$4,0*
21,1,$1-$3,$2-$3,$1/2+$4,0-$2/2-$4,0*
21,1,$1-$3,$2-$3,$1/2+$4,$2/2+$4,0*%
%ADD10C,0.004000*%
%ADD11C,0.010000*%
%ADD12C,0.007000*%
G90*
G70D02*

G04 Step and Repeat for panelization *

G04 -------------- Draw Parts, Pads, Traces, Vias and Text (positive)*
%LPD*%
G04 Draw part U3*
G04 Draw part R3*
G04 Draw part U2*
G04 Draw part C3*
G04 Draw part C4*
G04 Draw part R5*
G04 Draw part U1*
G04 Draw part C2*
G04 Draw part R4*
G04 Draw part C5*
G04 Draw part R1*
G04 Draw part U4*
G04 Draw part R2*
G04 Draw part R6*
G04 Draw part J1*
G04 Draw part C1*
G04 Draw part R7*
G04 draw part outline for part R7*
G04 draw value for part R7*
G54D10*
G01X20444Y10315D02*
G01X20463Y10306D01*
G01X20417Y10342D02*
G01X20444Y10315D01*
G01X20417Y10342D02*
G01X20417Y10152D01*
G01X20290Y10342D02*
G01X20317Y10333D01*
G01X20317Y10333D02*
G01X20335Y10306D01*
G01X20335Y10306D02*
G01X20344Y10261D01*
G01X20344Y10261D02*
G01X20344Y10233D01*
G01X20344Y10233D02*
G01X20335Y10188D01*
G01X20335Y10188D02*
G01X20317Y10161D01*
G01X20317Y10161D02*
G01X20290Y10152D01*
G01X20272Y10152D02*
G01X20290Y10152D01*
G01X20244Y10161D02*
G01X20272Y10152D01*
G01X20226Y10188D02*
G01X20244Y10161D01*
G01X20217Y10233D02*
G01X20226Y10188D01*
G01X20217Y10261D02*
G01X20217Y10233D01*
G01X20226Y10306D02*
G01X20217Y10261D01*
G01X20244Y10333D02*
G01X20226Y10306D01*
G01X20272Y10342D02*
G01X20244Y10333D01*
G01X20290Y10342D02*
G01X20272Y10342D01*
G01X20144Y10342D02*
G01X20144Y10152D01*
G01X20053Y10279D02*
G01X20144Y10188D01*
G01X20108Y10224D02*
G01X20044Y10152D01*
G04 Draw part R8*
G04 draw part outline for part R8*
G04 draw value for part R8*
G01X19821Y10351D02*
G01X19921Y10351D01*
G01X19821Y10351D02*
G01X19876Y10279D01*
G01X19849Y10279D02*
G01X19876Y10279D01*
G01X19849Y10279D02*
G01X19830Y10270D01*
G01X19830Y10270D02*
G01X19821Y10261D01*
G01X19821Y10261D02*
G01X19812Y10233D01*
G01X19812Y10233D02*
G01X19812Y10215D01*
G01X19812Y10215D02*
G01X19821Y10188D01*
G01X19821Y10188D02*
G01X19840Y10170D01*
G01X19840Y10170D02*
G01X19867Y10161D01*
G01X19894Y10161D02*
G01X19867Y10161D01*
G01X19921Y10170D02*
G01X19894Y10161D01*
G01X19930Y10179D02*
G01X19921Y10170D01*
G01X19940Y10197D02*
G01X19930Y10179D01*
G01X19740Y10351D02*
G01X19740Y10161D01*
G01X19649Y10288D02*
G01X19740Y10197D01*
G01X19703Y10233D02*
G01X19640Y10161D01*
G01X19449Y10351D02*
G01X19549Y10351D01*
G01X19449Y10351D02*
G01X19503Y10279D01*
G01X19476Y10279D02*
G01X19503Y10279D01*
G01X19476Y10279D02*
G01X19458Y10270D01*
G01X19458Y10270D02*
G01X19449Y10261D01*
G01X19449Y10261D02*
G01X19440Y10233D01*
G01X19440Y10233D02*
G01X19440Y10215D01*
G01X19440Y10215D02*
G01X19449Y10188D01*
G01X19449Y10188D02*
G01X19467Y10170D01*
G01X19467Y10170D02*
G01X19494Y10161D01*
G01X19521Y10161D02*
G01X19494Y10161D01*
G01X19549Y10170D02*
G01X19521Y10161D01*
G01X19558Y10179D02*
G01X19549Y10170D01*
G01X19567Y10197D02*
G01X19558Y10179D01*
G04 Draw part R10*
G04 draw part outline for part R10*
G04 draw value for part R10*
G01X15829Y2649D02*
G01X15929Y2649D01*
G01X15829Y2649D02*
G01X15884Y2577D01*
G01X15857Y2577D02*
G01X15884Y2577D01*
G01X15857Y2577D02*
G01X15838Y2568D01*
G01X15838Y2568D02*
G01X15829Y2559D01*
G01X15829Y2559D02*
G01X15820Y2531D01*
G01X15820Y2531D02*
G01X15820Y2513D01*
G01X15820Y2513D02*
G01X15829Y2486D01*
G01X15829Y2486D02*
G01X15848Y2468D01*
G01X15848Y2468D02*
G01X15875Y2459D01*
G01X15902Y2459D02*
G01X15875Y2459D01*
G01X15929Y2468D02*
G01X15902Y2459D01*
G01X15938Y2477D02*
G01X15929Y2468D01*
G01X15948Y2495D02*
G01X15938Y2477D01*
G01X15748Y2649D02*
G01X15748Y2459D01*
G01X15657Y2586D02*
G01X15748Y2495D01*
G01X15711Y2531D02*
G01X15648Y2459D01*
G01X15457Y2649D02*
G01X15557Y2649D01*
G01X15457Y2649D02*
G01X15511Y2577D01*
G01X15484Y2577D02*
G01X15511Y2577D01*
G01X15484Y2577D02*
G01X15466Y2568D01*
G01X15466Y2568D02*
G01X15457Y2559D01*
G01X15457Y2559D02*
G01X15448Y2531D01*
G01X15448Y2531D02*
G01X15448Y2513D01*
G01X15448Y2513D02*
G01X15457Y2486D01*
G01X15457Y2486D02*
G01X15475Y2468D01*
G01X15475Y2468D02*
G01X15502Y2459D01*
G01X15529Y2459D02*
G01X15502Y2459D01*
G01X15557Y2468D02*
G01X15529Y2459D01*
G01X15566Y2477D02*
G01X15557Y2468D01*
G01X15575Y2495D02*
G01X15566Y2477D01*
G04 Draw part R12*
G04 draw part outline for part R12*
G04 draw value for part R12*
G01X15858Y13297D02*
G01X15958Y13297D01*
G01X15858Y13297D02*
G01X15913Y13225D01*
G01X15886Y13225D02*
G01X15913Y13225D01*
G01X15886Y13225D02*
G01X15867Y13216D01*
G01X15867Y13216D02*
G01X15858Y13207D01*
G01X15858Y13207D02*
G01X15849Y13179D01*
G01X15849Y13179D02*
G01X15849Y13161D01*
G01X15849Y13161D02*
G01X15858Y13134D01*
G01X15858Y13134D02*
G01X15877Y13116D01*
G01X15877Y13116D02*
G01X15904Y13107D01*
G01X15931Y13107D02*
G01X15904Y13107D01*
G01X15958Y13116D02*
G01X15931Y13107D01*
G01X15967Y13125D02*
G01X15958Y13116D01*
G01X15977Y13143D02*
G01X15967Y13125D01*
G01X15777Y13297D02*
G01X15777Y13107D01*
G01X15686Y13234D02*
G01X15777Y13143D01*
G01X15740Y13179D02*
G01X15677Y13107D01*
G01X15486Y13297D02*
G01X15586Y13297D01*
G01X15486Y13297D02*
G01X15540Y13225D01*
G01X15513Y13225D02*
G01X15540Y13225D01*
G01X15513Y13225D02*
G01X15495Y13216D01*
G01X15495Y13216D02*
G01X15486Y13207D01*
G01X15486Y13207D02*
G01X15477Y13179D01*
G01X15477Y13179D02*
G01X15477Y13161D01*
G01X15477Y13161D02*
G01X15486Y13134D01*
G01X15486Y13134D02*
G01X15504Y13116D01*
G01X15504Y13116D02*
G01X15531Y13107D01*
G01X15558Y13107D02*
G01X15531Y13107D01*
G01X15586Y13116D02*
G01X15558Y13107D01*
G01X15595Y13125D02*
G01X15586Y13116D01*
G01X15604Y13143D02*
G01X15595Y13125D01*
G04 Draw part R14*
G04 draw part outline for part R14*
G04 draw value for part R14*
G01X12680Y2649D02*
G01X12780Y2649D01*
G01X12680Y2649D02*
G01X12734Y2577D01*
G01X12707Y2577D02*
G01X12734Y2577D01*
G01X12707Y2577D02*
G01X12689Y2568D01*
G01X12689Y2568D02*
G01X12680Y2559D01*
G01X12680Y2559D02*
G01X12671Y2531D01*
G01X12671Y2531D02*
G01X12671Y2513D01*
G01X12671Y2513D02*
G01X12680Y2486D01*
G01X12680Y2486D02*
G01X12698Y2468D01*
G01X12698Y2468D02*
G01X12725Y2459D01*
G01X12752Y2459D02*
G01X12725Y2459D01*
G01X12780Y2468D02*
G01X12752Y2459D01*
G01X12789Y2477D02*
G01X12780Y2468D01*
G01X12798Y2495D02*
G01X12789Y2477D01*
G01X12598Y2649D02*
G01X12598Y2459D01*
G01X12507Y2586D02*
G01X12598Y2495D01*
G01X12562Y2531D02*
G01X12498Y2459D01*
G01X12307Y2649D02*
G01X12407Y2649D01*
G01X12307Y2649D02*
G01X12362Y2577D01*
G01X12334Y2577D02*
G01X12362Y2577D01*
G01X12334Y2577D02*
G01X12316Y2568D01*
G01X12316Y2568D02*
G01X12307Y2559D01*
G01X12307Y2559D02*
G01X12298Y2531D01*
G01X12298Y2531D02*
G01X12298Y2513D01*
G01X12298Y2513D02*
G01X12307Y2486D01*
G01X12307Y2486D02*
G01X12325Y2468D01*
G01X12325Y2468D02*
G01X12352Y2459D01*
G01X12380Y2459D02*
G01X12352Y2459D01*
G01X12407Y2468D02*
G01X12380Y2459D01*
G01X12416Y2477D02*
G01X12407Y2468D01*
G01X12425Y2495D02*
G01X12416Y2477D01*
G04 Draw part R16*
G04 draw part outline for part R16*
G04 draw value for part R16*
G01X12709Y13297D02*
G01X12809Y13297D01*
G01X12709Y13297D02*
G01X12764Y13225D01*
G01X12737Y13225D02*
G01X12764Y13225D01*
G01X12737Y13225D02*
G01X12718Y13216D01*
G01X12718Y13216D02*
G01X12709Y13207D01*
G01X12709Y13207D02*
G01X12700Y13179D01*
G01X12700Y13179D02*
G01X12700Y13161D01*
G01X12700Y13161D02*
G01X12709Y13134D01*
G01X12709Y13134D02*
G01X12728Y13116D01*
G01X12728Y13116D02*
G01X12755Y13107D01*
G01X12782Y13107D02*
G01X12755Y13107D01*
G01X12809Y13116D02*
G01X12782Y13107D01*
G01X12818Y13125D02*
G01X12809Y13116D01*
G01X12828Y13143D02*
G01X12818Y13125D01*
G01X12628Y13297D02*
G01X12628Y13107D01*
G01X12537Y13234D02*
G01X12628Y13143D01*
G01X12591Y13179D02*
G01X12528Y13107D01*
G01X12337Y13297D02*
G01X12437Y13297D01*
G01X12337Y13297D02*
G01X12391Y13225D01*
G01X12364Y13225D02*
G01X12391Y13225D01*
G01X12364Y13225D02*
G01X12346Y13216D01*
G01X12346Y13216D02*
G01X12337Y13207D01*
G01X12337Y13207D02*
G01X12328Y13179D01*
G01X12328Y13179D02*
G01X12328Y13161D01*
G01X12328Y13161D02*
G01X12337Y13134D01*
G01X12337Y13134D02*
G01X12355Y13116D01*
G01X12355Y13116D02*
G01X12382Y13107D01*
G01X12409Y13107D02*
G01X12382Y13107D01*
G01X12437Y13116D02*
G01X12409Y13107D01*
G01X12446Y13125D02*
G01X12437Y13116D01*
G01X12455Y13143D02*
G01X12446Y13125D01*
G04 Draw part R18*
G04 draw part outline for part R18*
G04 draw value for part R18*
G01X9530Y2649D02*
G01X9630Y2649D01*
G01X9530Y2649D02*
G01X9585Y2577D01*
G01X9557Y2577D02*
G01X9585Y2577D01*
G01X9557Y2577D02*
G01X9539Y2568D01*
G01X9539Y2568D02*
G01X9530Y2559D01*
G01X9530Y2559D02*
G01X9521Y2531D01*
G01X9521Y2531D02*
G01X9521Y2513D01*
G01X9521Y2513D02*
G01X9530Y2486D01*
G01X9530Y2486D02*
G01X9548Y2468D01*
G01X9548Y2468D02*
G01X9576Y2459D01*
G01X9603Y2459D02*
G01X9576Y2459D01*
G01X9630Y2468D02*
G01X9603Y2459D01*
G01X9639Y2477D02*
G01X9630Y2468D01*
G01X9648Y2495D02*
G01X9639Y2477D01*
G01X9448Y2649D02*
G01X9448Y2459D01*
G01X9357Y2586D02*
G01X9448Y2495D01*
G01X9412Y2531D02*
G01X9348Y2459D01*
G01X9157Y2649D02*
G01X9257Y2649D01*
G01X9157Y2649D02*
G01X9212Y2577D01*
G01X9185Y2577D02*
G01X9212Y2577D01*
G01X9185Y2577D02*
G01X9167Y2568D01*
G01X9167Y2568D02*
G01X9157Y2559D01*
G01X9157Y2559D02*
G01X9148Y2531D01*
G01X9148Y2531D02*
G01X9148Y2513D01*
G01X9148Y2513D02*
G01X9157Y2486D01*
G01X9157Y2486D02*
G01X9176Y2468D01*
G01X9176Y2468D02*
G01X9203Y2459D01*
G01X9230Y2459D02*
G01X9203Y2459D01*
G01X9257Y2468D02*
G01X9230Y2459D01*
G01X9267Y2477D02*
G01X9257Y2468D01*
G01X9276Y2495D02*
G01X9267Y2477D01*
G04 Draw part R20*
G04 draw part outline for part R20*
G04 draw value for part R20*
G01X9559Y13288D02*
G01X9659Y13288D01*
G01X9559Y13288D02*
G01X9614Y13216D01*
G01X9587Y13216D02*
G01X9614Y13216D01*
G01X9587Y13216D02*
G01X9568Y13207D01*
G01X9568Y13207D02*
G01X9559Y13198D01*
G01X9559Y13198D02*
G01X9550Y13170D01*
G01X9550Y13170D02*
G01X9550Y13152D01*
G01X9550Y13152D02*
G01X9559Y13125D01*
G01X9559Y13125D02*
G01X9578Y13107D01*
G01X9578Y13107D02*
G01X9605Y13098D01*
G01X9632Y13098D02*
G01X9605Y13098D01*
G01X9659Y13107D02*
G01X9632Y13098D01*
G01X9668Y13116D02*
G01X9659Y13107D01*
G01X9678Y13134D02*
G01X9668Y13116D01*
G01X9478Y13288D02*
G01X9478Y13098D01*
G01X9387Y13225D02*
G01X9478Y13134D01*
G01X9441Y13170D02*
G01X9378Y13098D01*
G01X9187Y13288D02*
G01X9287Y13288D01*
G01X9187Y13288D02*
G01X9241Y13216D01*
G01X9214Y13216D02*
G01X9241Y13216D01*
G01X9214Y13216D02*
G01X9196Y13207D01*
G01X9196Y13207D02*
G01X9187Y13198D01*
G01X9187Y13198D02*
G01X9178Y13170D01*
G01X9178Y13170D02*
G01X9178Y13152D01*
G01X9178Y13152D02*
G01X9187Y13125D01*
G01X9187Y13125D02*
G01X9205Y13107D01*
G01X9205Y13107D02*
G01X9232Y13098D01*
G01X9259Y13098D02*
G01X9232Y13098D01*
G01X9287Y13107D02*
G01X9259Y13098D01*
G01X9296Y13116D02*
G01X9287Y13107D01*
G01X9305Y13134D02*
G01X9296Y13116D01*
G04 Draw part R22*
G04 draw part outline for part R22*
G04 draw value for part R22*
G01X5635Y10345D02*
G01X5735Y10345D01*
G01X5635Y10345D02*
G01X5690Y10273D01*
G01X5663Y10273D02*
G01X5690Y10273D01*
G01X5663Y10273D02*
G01X5644Y10264D01*
G01X5644Y10264D02*
G01X5635Y10255D01*
G01X5635Y10255D02*
G01X5626Y10227D01*
G01X5626Y10227D02*
G01X5626Y10209D01*
G01X5626Y10209D02*
G01X5635Y10182D01*
G01X5635Y10182D02*
G01X5654Y10164D01*
G01X5654Y10164D02*
G01X5681Y10155D01*
G01X5708Y10155D02*
G01X5681Y10155D01*
G01X5735Y10164D02*
G01X5708Y10155D01*
G01X5744Y10173D02*
G01X5735Y10164D01*
G01X5754Y10191D02*
G01X5744Y10173D01*
G01X5554Y10345D02*
G01X5554Y10155D01*
G01X5463Y10282D02*
G01X5554Y10191D01*
G01X5517Y10227D02*
G01X5454Y10155D01*
G01X5263Y10345D02*
G01X5363Y10345D01*
G01X5263Y10345D02*
G01X5317Y10273D01*
G01X5290Y10273D02*
G01X5317Y10273D01*
G01X5290Y10273D02*
G01X5272Y10264D01*
G01X5272Y10264D02*
G01X5263Y10255D01*
G01X5263Y10255D02*
G01X5254Y10227D01*
G01X5254Y10227D02*
G01X5254Y10209D01*
G01X5254Y10209D02*
G01X5263Y10182D01*
G01X5263Y10182D02*
G01X5281Y10164D01*
G01X5281Y10164D02*
G01X5308Y10155D01*
G01X5335Y10155D02*
G01X5308Y10155D01*
G01X5363Y10164D02*
G01X5335Y10155D01*
G01X5372Y10173D02*
G01X5363Y10164D01*
G01X5381Y10191D02*
G01X5372Y10173D01*
G04 Draw part S1*
G04 draw part outline for part S1*
G54D11*
G01X18485Y6974D02*
G01X18485Y8774D01*
G01X19285Y9074D02*
G01X20085Y9074D01*
G01X20885Y8774D02*
G01X20885Y6974D01*
G01X20085Y6674D02*
G01X19285Y6674D01*
G01X19085Y7874D02*
G01X19086Y7834D01*
G01X19090Y7795D01*
G01X19096Y7756D01*
G01X19105Y7718D01*
G01X19116Y7681D01*
G01X19130Y7644D01*
G01X19146Y7608D01*
G01X19165Y7574D01*
G01X19186Y7540D01*
G01X19209Y7508D01*
G01X19233Y7478D01*
G01X19260Y7449D01*
G01X19289Y7422D01*
G01X19319Y7398D01*
G01X19351Y7375D01*
G01X19385Y7354D01*
G01X19419Y7335D01*
G01X19455Y7319D01*
G01X19492Y7305D01*
G01X19529Y7294D01*
G01X19567Y7285D01*
G01X19606Y7279D01*
G01X19645Y7275D01*
G01X19685Y7274D01*
G01X19685Y7274D02*
G01X19724Y7275D01*
G01X19763Y7279D01*
G01X19802Y7285D01*
G01X19840Y7294D01*
G01X19877Y7305D01*
G01X19914Y7319D01*
G01X19950Y7335D01*
G01X19985Y7354D01*
G01X20018Y7375D01*
G01X20050Y7398D01*
G01X20080Y7422D01*
G01X20109Y7449D01*
G01X20136Y7478D01*
G01X20161Y7508D01*
G01X20183Y7540D01*
G01X20204Y7574D01*
G01X20223Y7608D01*
G01X20239Y7644D01*
G01X20253Y7681D01*
G01X20264Y7718D01*
G01X20273Y7756D01*
G01X20279Y7795D01*
G01X20283Y7834D01*
G01X20285Y7874D01*
G01X20285Y7874D02*
G01X20283Y7913D01*
G01X20279Y7952D01*
G01X20273Y7991D01*
G01X20264Y8029D01*
G01X20253Y8066D01*
G01X20239Y8103D01*
G01X20223Y8139D01*
G01X20204Y8174D01*
G01X20183Y8207D01*
G01X20161Y8239D01*
G01X20136Y8269D01*
G01X20109Y8298D01*
G01X20080Y8325D01*
G01X20050Y8350D01*
G01X20018Y8372D01*
G01X19985Y8393D01*
G01X19950Y8412D01*
G01X19914Y8428D01*
G01X19877Y8442D01*
G01X19840Y8453D01*
G01X19802Y8462D01*
G01X19763Y8468D01*
G01X19724Y8472D01*
G01X19685Y8474D01*
G01X19685Y8474D02*
G01X19645Y8472D01*
G01X19606Y8468D01*
G01X19567Y8462D01*
G01X19529Y8453D01*
G01X19492Y8442D01*
G01X19455Y8428D01*
G01X19419Y8412D01*
G01X19385Y8393D01*
G01X19351Y8372D01*
G01X19319Y8350D01*
G01X19289Y8325D01*
G01X19260Y8298D01*
G01X19233Y8269D01*
G01X19209Y8239D01*
G01X19186Y8207D01*
G01X19165Y8174D01*
G01X19146Y8139D01*
G01X19130Y8103D01*
G01X19116Y8066D01*
G01X19105Y8029D01*
G01X19096Y7991D01*
G01X19090Y7952D01*
G01X19086Y7913D01*
G01X19085Y7874D01*
G04 draw value for part S1*
G54D10*
G01X19694Y7949D02*
G01X19676Y7931D01*
G01X19722Y7958D02*
G01X19694Y7949D01*
G01X19758Y7958D02*
G01X19722Y7958D01*
G01X19758Y7958D02*
G01X19785Y7949D01*
G01X19785Y7949D02*
G01X19804Y7931D01*
G01X19804Y7931D02*
G01X19804Y7913D01*
G01X19804Y7913D02*
G01X19794Y7895D01*
G01X19794Y7895D02*
G01X19785Y7886D01*
G01X19785Y7886D02*
G01X19767Y7877D01*
G01X19767Y7877D02*
G01X19713Y7858D01*
G01X19713Y7858D02*
G01X19694Y7849D01*
G01X19694Y7849D02*
G01X19685Y7840D01*
G01X19685Y7840D02*
G01X19676Y7822D01*
G01X19676Y7822D02*
G01X19676Y7795D01*
G01X19676Y7795D02*
G01X19694Y7777D01*
G01X19694Y7777D02*
G01X19722Y7768D01*
G01X19758Y7768D02*
G01X19722Y7768D01*
G01X19785Y7777D02*
G01X19758Y7768D01*
G01X19804Y7795D02*
G01X19785Y7777D01*
G01X19585Y7931D02*
G01X19604Y7922D01*
G01X19558Y7958D02*
G01X19585Y7931D01*
G01X19558Y7958D02*
G01X19558Y7768D01*
G04 Draw part S2*
G04 draw part outline for part S2*
G54D11*
G01X14548Y5005D02*
G01X14548Y6805D01*
G01X15348Y7105D02*
G01X16148Y7105D01*
G01X16948Y6805D02*
G01X16948Y5005D01*
G01X16148Y4705D02*
G01X15348Y4705D01*
G01X15148Y5905D02*
G01X15149Y5866D01*
G01X15153Y5827D01*
G01X15159Y5788D01*
G01X15168Y5750D01*
G01X15179Y5712D01*
G01X15193Y5675D01*
G01X15209Y5640D01*
G01X15228Y5605D01*
G01X15249Y5572D01*
G01X15272Y5540D01*
G01X15296Y5509D01*
G01X15323Y5481D01*
G01X15352Y5454D01*
G01X15382Y5429D01*
G01X15414Y5406D01*
G01X15448Y5385D01*
G01X15482Y5367D01*
G01X15518Y5351D01*
G01X15555Y5337D01*
G01X15592Y5325D01*
G01X15630Y5317D01*
G01X15669Y5310D01*
G01X15708Y5306D01*
G01X15748Y5305D01*
G01X15748Y5305D02*
G01X15787Y5306D01*
G01X15826Y5310D01*
G01X15865Y5317D01*
G01X15903Y5325D01*
G01X15940Y5337D01*
G01X15977Y5351D01*
G01X16013Y5367D01*
G01X16048Y5385D01*
G01X16081Y5406D01*
G01X16113Y5429D01*
G01X16143Y5454D01*
G01X16172Y5481D01*
G01X16199Y5509D01*
G01X16224Y5540D01*
G01X16246Y5572D01*
G01X16267Y5605D01*
G01X16286Y5640D01*
G01X16302Y5675D01*
G01X16316Y5712D01*
G01X16327Y5750D01*
G01X16336Y5788D01*
G01X16342Y5827D01*
G01X16346Y5866D01*
G01X16348Y5905D01*
G01X16348Y5905D02*
G01X16346Y5944D01*
G01X16342Y5983D01*
G01X16336Y6022D01*
G01X16327Y6060D01*
G01X16316Y6098D01*
G01X16302Y6135D01*
G01X16286Y6170D01*
G01X16267Y6205D01*
G01X16246Y6238D01*
G01X16224Y6270D01*
G01X16199Y6301D01*
G01X16172Y6329D01*
G01X16143Y6356D01*
G01X16113Y6381D01*
G01X16081Y6404D01*
G01X16048Y6425D01*
G01X16013Y6443D01*
G01X15977Y6459D01*
G01X15940Y6473D01*
G01X15903Y6485D01*
G01X15865Y6493D01*
G01X15826Y6500D01*
G01X15787Y6504D01*
G01X15748Y6505D01*
G01X15748Y6505D02*
G01X15708Y6504D01*
G01X15669Y6500D01*
G01X15630Y6493D01*
G01X15592Y6485D01*
G01X15555Y6473D01*
G01X15518Y6459D01*
G01X15482Y6443D01*
G01X15448Y6425D01*
G01X15414Y6404D01*
G01X15382Y6381D01*
G01X15352Y6356D01*
G01X15323Y6329D01*
G01X15296Y6301D01*
G01X15272Y6270D01*
G01X15249Y6238D01*
G01X15228Y6205D01*
G01X15209Y6170D01*
G01X15193Y6135D01*
G01X15179Y6098D01*
G01X15168Y6060D01*
G01X15159Y6022D01*
G01X15153Y5983D01*
G01X15149Y5944D01*
G01X15148Y5905D01*
G04 draw value for part S2*
G54D10*
G01X15794Y5977D02*
G01X15776Y5959D01*
G01X15822Y5986D02*
G01X15794Y5977D01*
G01X15858Y5986D02*
G01X15822Y5986D01*
G01X15858Y5986D02*
G01X15885Y5977D01*
G01X15885Y5977D02*
G01X15904Y5959D01*
G01X15904Y5959D02*
G01X15904Y5941D01*
G01X15904Y5941D02*
G01X15894Y5923D01*
G01X15894Y5923D02*
G01X15885Y5914D01*
G01X15885Y5914D02*
G01X15867Y5905D01*
G01X15867Y5905D02*
G01X15813Y5886D01*
G01X15813Y5886D02*
G01X15794Y5877D01*
G01X15794Y5877D02*
G01X15785Y5868D01*
G01X15785Y5868D02*
G01X15776Y5850D01*
G01X15776Y5850D02*
G01X15776Y5823D01*
G01X15776Y5823D02*
G01X15794Y5805D01*
G01X15794Y5805D02*
G01X15822Y5796D01*
G01X15858Y5796D02*
G01X15822Y5796D01*
G01X15885Y5805D02*
G01X15858Y5796D01*
G01X15904Y5823D02*
G01X15885Y5805D01*
G01X15694Y5950D02*
G01X15694Y5941D01*
G01X15685Y5968D02*
G01X15694Y5950D01*
G01X15676Y5977D02*
G01X15685Y5968D01*
G01X15658Y5986D02*
G01X15676Y5977D01*
G01X15622Y5986D02*
G01X15658Y5986D01*
G01X15622Y5986D02*
G01X15604Y5977D01*
G01X15604Y5977D02*
G01X15594Y5968D01*
G01X15594Y5968D02*
G01X15585Y5950D01*
G01X15585Y5950D02*
G01X15585Y5932D01*
G01X15585Y5932D02*
G01X15594Y5914D01*
G01X15594Y5914D02*
G01X15613Y5886D01*
G01X15613Y5886D02*
G01X15704Y5796D01*
G01X15576Y5796D02*
G01X15704Y5796D01*
G04 Draw part S3*
G04 draw part outline for part S3*
G54D11*
G01X14548Y8942D02*
G01X14548Y10742D01*
G01X15348Y11042D02*
G01X16148Y11042D01*
G01X16948Y10742D02*
G01X16948Y8942D01*
G01X16148Y8642D02*
G01X15348Y8642D01*
G01X15148Y9842D02*
G01X15149Y9803D01*
G01X15153Y9764D01*
G01X15159Y9725D01*
G01X15168Y9687D01*
G01X15179Y9649D01*
G01X15193Y9612D01*
G01X15209Y9577D01*
G01X15228Y9542D01*
G01X15249Y9509D01*
G01X15272Y9477D01*
G01X15296Y9446D01*
G01X15323Y9418D01*
G01X15352Y9391D01*
G01X15382Y9366D01*
G01X15414Y9343D01*
G01X15448Y9322D01*
G01X15482Y9304D01*
G01X15518Y9288D01*
G01X15555Y9274D01*
G01X15592Y9262D01*
G01X15630Y9254D01*
G01X15669Y9247D01*
G01X15708Y9243D01*
G01X15748Y9242D01*
G01X15748Y9242D02*
G01X15787Y9243D01*
G01X15826Y9247D01*
G01X15865Y9254D01*
G01X15903Y9262D01*
G01X15940Y9274D01*
G01X15977Y9288D01*
G01X16013Y9304D01*
G01X16048Y9322D01*
G01X16081Y9343D01*
G01X16113Y9366D01*
G01X16143Y9391D01*
G01X16172Y9418D01*
G01X16199Y9446D01*
G01X16224Y9477D01*
G01X16246Y9509D01*
G01X16267Y9542D01*
G01X16286Y9577D01*
G01X16302Y9612D01*
G01X16316Y9649D01*
G01X16327Y9687D01*
G01X16336Y9725D01*
G01X16342Y9764D01*
G01X16346Y9803D01*
G01X16348Y9842D01*
G01X16348Y9842D02*
G01X16346Y9881D01*
G01X16342Y9920D01*
G01X16336Y9959D01*
G01X16327Y9997D01*
G01X16316Y10035D01*
G01X16302Y10072D01*
G01X16286Y10107D01*
G01X16267Y10142D01*
G01X16246Y10175D01*
G01X16224Y10207D01*
G01X16199Y10238D01*
G01X16172Y10266D01*
G01X16143Y10293D01*
G01X16113Y10318D01*
G01X16081Y10341D01*
G01X16048Y10362D01*
G01X16013Y10380D01*
G01X15977Y10396D01*
G01X15940Y10410D01*
G01X15903Y10422D01*
G01X15865Y10430D01*
G01X15826Y10437D01*
G01X15787Y10441D01*
G01X15748Y10442D01*
G01X15748Y10442D02*
G01X15708Y10441D01*
G01X15669Y10437D01*
G01X15630Y10430D01*
G01X15592Y10422D01*
G01X15555Y10410D01*
G01X15518Y10396D01*
G01X15482Y10380D01*
G01X15448Y10362D01*
G01X15414Y10341D01*
G01X15382Y10318D01*
G01X15352Y10293D01*
G01X15323Y10266D01*
G01X15296Y10238D01*
G01X15272Y10207D01*
G01X15249Y10175D01*
G01X15228Y10142D01*
G01X15209Y10107D01*
G01X15193Y10072D01*
G01X15179Y10035D01*
G01X15168Y9997D01*
G01X15159Y9959D01*
G01X15153Y9920D01*
G01X15149Y9881D01*
G01X15148Y9842D01*
G04 draw value for part S3*
G54D10*
G01X15863Y9893D02*
G01X15845Y9875D01*
G01X15891Y9902D02*
G01X15863Y9893D01*
G01X15927Y9902D02*
G01X15891Y9902D01*
G01X15927Y9902D02*
G01X15954Y9893D01*
G01X15954Y9893D02*
G01X15973Y9875D01*
G01X15973Y9875D02*
G01X15973Y9857D01*
G01X15973Y9857D02*
G01X15963Y9839D01*
G01X15963Y9839D02*
G01X15954Y9830D01*
G01X15954Y9830D02*
G01X15936Y9821D01*
G01X15936Y9821D02*
G01X15882Y9802D01*
G01X15882Y9802D02*
G01X15863Y9793D01*
G01X15863Y9793D02*
G01X15854Y9784D01*
G01X15854Y9784D02*
G01X15845Y9766D01*
G01X15845Y9766D02*
G01X15845Y9739D01*
G01X15845Y9739D02*
G01X15863Y9721D01*
G01X15863Y9721D02*
G01X15891Y9712D01*
G01X15927Y9712D02*
G01X15891Y9712D01*
G01X15954Y9721D02*
G01X15927Y9712D01*
G01X15973Y9739D02*
G01X15954Y9721D01*
G01X15654Y9902D02*
G01X15754Y9902D01*
G01X15654Y9902D02*
G01X15709Y9830D01*
G01X15682Y9830D02*
G01X15709Y9830D01*
G01X15682Y9830D02*
G01X15663Y9821D01*
G01X15663Y9821D02*
G01X15654Y9812D01*
G01X15654Y9812D02*
G01X15645Y9784D01*
G01X15645Y9784D02*
G01X15645Y9766D01*
G01X15645Y9766D02*
G01X15654Y9739D01*
G01X15654Y9739D02*
G01X15673Y9721D01*
G01X15673Y9721D02*
G01X15700Y9712D01*
G01X15727Y9712D02*
G01X15700Y9712D01*
G01X15754Y9721D02*
G01X15727Y9712D01*
G01X15763Y9730D02*
G01X15754Y9721D01*
G01X15773Y9748D02*
G01X15763Y9730D01*
G04 Draw part S4*
G04 draw part outline for part S4*
G54D11*
G01X11398Y5005D02*
G01X11398Y6805D01*
G01X12198Y7105D02*
G01X12998Y7105D01*
G01X13798Y6805D02*
G01X13798Y5005D01*
G01X12998Y4705D02*
G01X12198Y4705D01*
G01X11998Y5905D02*
G01X11999Y5866D01*
G01X12003Y5827D01*
G01X12009Y5788D01*
G01X12018Y5750D01*
G01X12030Y5712D01*
G01X12044Y5675D01*
G01X12060Y5640D01*
G01X12078Y5605D01*
G01X12099Y5572D01*
G01X12122Y5540D01*
G01X12147Y5509D01*
G01X12174Y5481D01*
G01X12202Y5454D01*
G01X12233Y5429D01*
G01X12265Y5406D01*
G01X12298Y5385D01*
G01X12333Y5367D01*
G01X12368Y5351D01*
G01X12405Y5337D01*
G01X12443Y5325D01*
G01X12481Y5317D01*
G01X12520Y5310D01*
G01X12559Y5306D01*
G01X12598Y5305D01*
G01X12598Y5305D02*
G01X12637Y5306D01*
G01X12676Y5310D01*
G01X12715Y5317D01*
G01X12753Y5325D01*
G01X12791Y5337D01*
G01X12828Y5351D01*
G01X12863Y5367D01*
G01X12898Y5385D01*
G01X12931Y5406D01*
G01X12963Y5429D01*
G01X12994Y5454D01*
G01X13022Y5481D01*
G01X13049Y5509D01*
G01X13074Y5540D01*
G01X13097Y5572D01*
G01X13118Y5605D01*
G01X13136Y5640D01*
G01X13152Y5675D01*
G01X13166Y5712D01*
G01X13177Y5750D01*
G01X13186Y5788D01*
G01X13193Y5827D01*
G01X13197Y5866D01*
G01X13198Y5905D01*
G01X13198Y5905D02*
G01X13197Y5944D01*
G01X13193Y5983D01*
G01X13186Y6022D01*
G01X13177Y6060D01*
G01X13166Y6098D01*
G01X13152Y6135D01*
G01X13136Y6170D01*
G01X13118Y6205D01*
G01X13097Y6238D01*
G01X13074Y6270D01*
G01X13049Y6301D01*
G01X13022Y6329D01*
G01X12994Y6356D01*
G01X12963Y6381D01*
G01X12931Y6404D01*
G01X12898Y6425D01*
G01X12863Y6443D01*
G01X12828Y6459D01*
G01X12791Y6473D01*
G01X12753Y6485D01*
G01X12715Y6493D01*
G01X12676Y6500D01*
G01X12637Y6504D01*
G01X12598Y6505D01*
G01X12598Y6505D02*
G01X12559Y6504D01*
G01X12520Y6500D01*
G01X12481Y6493D01*
G01X12443Y6485D01*
G01X12405Y6473D01*
G01X12368Y6459D01*
G01X12333Y6443D01*
G01X12298Y6425D01*
G01X12265Y6404D01*
G01X12233Y6381D01*
G01X12202Y6356D01*
G01X12174Y6329D01*
G01X12147Y6301D01*
G01X12122Y6270D01*
G01X12099Y6238D01*
G01X12078Y6205D01*
G01X12060Y6170D01*
G01X12044Y6135D01*
G01X12030Y6098D01*
G01X12018Y6060D01*
G01X12009Y6022D01*
G01X12003Y5983D01*
G01X11999Y5944D01*
G01X11998Y5905D01*
G04 draw value for part S4*
G54D10*
G01X12684Y5987D02*
G01X12666Y5969D01*
G01X12712Y5996D02*
G01X12684Y5987D01*
G01X12748Y5996D02*
G01X12712Y5996D01*
G01X12748Y5996D02*
G01X12775Y5987D01*
G01X12775Y5987D02*
G01X12794Y5969D01*
G01X12794Y5969D02*
G01X12794Y5951D01*
G01X12794Y5951D02*
G01X12784Y5933D01*
G01X12784Y5933D02*
G01X12775Y5924D01*
G01X12775Y5924D02*
G01X12757Y5915D01*
G01X12757Y5915D02*
G01X12703Y5896D01*
G01X12703Y5896D02*
G01X12684Y5887D01*
G01X12684Y5887D02*
G01X12675Y5878D01*
G01X12675Y5878D02*
G01X12666Y5860D01*
G01X12666Y5860D02*
G01X12666Y5833D01*
G01X12666Y5833D02*
G01X12684Y5815D01*
G01X12684Y5815D02*
G01X12712Y5806D01*
G01X12748Y5806D02*
G01X12712Y5806D01*
G01X12775Y5815D02*
G01X12748Y5806D01*
G01X12794Y5833D02*
G01X12775Y5815D01*
G01X12503Y5996D02*
G01X12594Y5869D01*
G01X12457Y5869D02*
G01X12594Y5869D01*
G01X12503Y5996D02*
G01X12503Y5806D01*
G04 Draw part S5*
G04 draw part outline for part S5*
G54D11*
G01X11398Y8942D02*
G01X11398Y10742D01*
G01X12198Y11042D02*
G01X12998Y11042D01*
G01X13798Y10742D02*
G01X13798Y8942D01*
G01X12998Y8642D02*
G01X12198Y8642D01*
G01X11998Y9842D02*
G01X11999Y9803D01*
G01X12003Y9764D01*
G01X12009Y9725D01*
G01X12018Y9687D01*
G01X12030Y9649D01*
G01X12044Y9612D01*
G01X12060Y9577D01*
G01X12078Y9542D01*
G01X12099Y9509D01*
G01X12122Y9477D01*
G01X12147Y9446D01*
G01X12174Y9418D01*
G01X12202Y9391D01*
G01X12233Y9366D01*
G01X12265Y9343D01*
G01X12298Y9322D01*
G01X12333Y9304D01*
G01X12368Y9288D01*
G01X12405Y9274D01*
G01X12443Y9262D01*
G01X12481Y9254D01*
G01X12520Y9247D01*
G01X12559Y9243D01*
G01X12598Y9242D01*
G01X12598Y9242D02*
G01X12637Y9243D01*
G01X12676Y9247D01*
G01X12715Y9254D01*
G01X12753Y9262D01*
G01X12791Y9274D01*
G01X12828Y9288D01*
G01X12863Y9304D01*
G01X12898Y9322D01*
G01X12931Y9343D01*
G01X12963Y9366D01*
G01X12994Y9391D01*
G01X13022Y9418D01*
G01X13049Y9446D01*
G01X13074Y9477D01*
G01X13097Y9509D01*
G01X13118Y9542D01*
G01X13136Y9577D01*
G01X13152Y9612D01*
G01X13166Y9649D01*
G01X13177Y9687D01*
G01X13186Y9725D01*
G01X13193Y9764D01*
G01X13197Y9803D01*
G01X13198Y9842D01*
G01X13198Y9842D02*
G01X13197Y9881D01*
G01X13193Y9920D01*
G01X13186Y9959D01*
G01X13177Y9997D01*
G01X13166Y10035D01*
G01X13152Y10072D01*
G01X13136Y10107D01*
G01X13118Y10142D01*
G01X13097Y10175D01*
G01X13074Y10207D01*
G01X13049Y10238D01*
G01X13022Y10266D01*
G01X12994Y10293D01*
G01X12963Y10318D01*
G01X12931Y10341D01*
G01X12898Y10362D01*
G01X12863Y10380D01*
G01X12828Y10396D01*
G01X12791Y10410D01*
G01X12753Y10422D01*
G01X12715Y10430D01*
G01X12676Y10437D01*
G01X12637Y10441D01*
G01X12598Y10442D01*
G01X12598Y10442D02*
G01X12559Y10441D01*
G01X12520Y10437D01*
G01X12481Y10430D01*
G01X12443Y10422D01*
G01X12405Y10410D01*
G01X12368Y10396D01*
G01X12333Y10380D01*
G01X12298Y10362D01*
G01X12265Y10341D01*
G01X12233Y10318D01*
G01X12202Y10293D01*
G01X12174Y10266D01*
G01X12147Y10238D01*
G01X12122Y10207D01*
G01X12099Y10175D01*
G01X12078Y10142D01*
G01X12060Y10107D01*
G01X12044Y10072D01*
G01X12030Y10035D01*
G01X12018Y9997D01*
G01X12009Y9959D01*
G01X12003Y9920D01*
G01X11999Y9881D01*
G01X11998Y9842D01*
G04 draw value for part S5*
G54D10*
G01X12707Y9935D02*
G01X12689Y9917D01*
G01X12735Y9944D02*
G01X12707Y9935D01*
G01X12771Y9944D02*
G01X12735Y9944D01*
G01X12771Y9944D02*
G01X12798Y9935D01*
G01X12798Y9935D02*
G01X12817Y9917D01*
G01X12817Y9917D02*
G01X12817Y9899D01*
G01X12817Y9899D02*
G01X12807Y9881D01*
G01X12807Y9881D02*
G01X12798Y9872D01*
G01X12798Y9872D02*
G01X12780Y9863D01*
G01X12780Y9863D02*
G01X12726Y9844D01*
G01X12726Y9844D02*
G01X12707Y9835D01*
G01X12707Y9835D02*
G01X12698Y9826D01*
G01X12698Y9826D02*
G01X12689Y9808D01*
G01X12689Y9808D02*
G01X12689Y9781D01*
G01X12689Y9781D02*
G01X12707Y9763D01*
G01X12707Y9763D02*
G01X12735Y9754D01*
G01X12771Y9754D02*
G01X12735Y9754D01*
G01X12798Y9763D02*
G01X12771Y9754D01*
G01X12817Y9781D02*
G01X12798Y9763D01*
G01X12598Y9944D02*
G01X12507Y9944D01*
G01X12598Y9944D02*
G01X12607Y9863D01*
G01X12598Y9872D02*
G01X12607Y9863D01*
G01X12571Y9881D02*
G01X12598Y9872D01*
G01X12544Y9881D02*
G01X12571Y9881D01*
G01X12544Y9881D02*
G01X12517Y9872D01*
G01X12517Y9872D02*
G01X12498Y9854D01*
G01X12498Y9854D02*
G01X12489Y9826D01*
G01X12489Y9826D02*
G01X12489Y9808D01*
G01X12489Y9808D02*
G01X12498Y9781D01*
G01X12498Y9781D02*
G01X12517Y9763D01*
G01X12517Y9763D02*
G01X12544Y9754D01*
G01X12571Y9754D02*
G01X12544Y9754D01*
G01X12598Y9763D02*
G01X12571Y9754D01*
G01X12607Y9772D02*
G01X12598Y9763D01*
G01X12617Y9790D02*
G01X12607Y9772D01*
G04 Draw part S6*
G04 draw part outline for part S6*
G54D11*
G01X8248Y5005D02*
G01X8248Y6805D01*
G01X9048Y7105D02*
G01X9848Y7105D01*
G01X10648Y6805D02*
G01X10648Y5005D01*
G01X9848Y4705D02*
G01X9048Y4705D01*
G01X8848Y5905D02*
G01X8850Y5866D01*
G01X8853Y5827D01*
G01X8860Y5788D01*
G01X8869Y5750D01*
G01X8880Y5712D01*
G01X8894Y5675D01*
G01X8910Y5640D01*
G01X8929Y5605D01*
G01X8949Y5572D01*
G01X8972Y5540D01*
G01X8997Y5509D01*
G01X9024Y5481D01*
G01X9053Y5454D01*
G01X9083Y5429D01*
G01X9115Y5406D01*
G01X9148Y5385D01*
G01X9183Y5367D01*
G01X9219Y5351D01*
G01X9255Y5337D01*
G01X9293Y5325D01*
G01X9331Y5317D01*
G01X9370Y5310D01*
G01X9409Y5306D01*
G01X9448Y5305D01*
G01X9448Y5305D02*
G01X9488Y5306D01*
G01X9527Y5310D01*
G01X9565Y5317D01*
G01X9604Y5325D01*
G01X9641Y5337D01*
G01X9678Y5351D01*
G01X9714Y5367D01*
G01X9748Y5385D01*
G01X9782Y5406D01*
G01X9814Y5429D01*
G01X9844Y5454D01*
G01X9873Y5481D01*
G01X9899Y5509D01*
G01X9924Y5540D01*
G01X9947Y5572D01*
G01X9968Y5605D01*
G01X9986Y5640D01*
G01X10003Y5675D01*
G01X10016Y5712D01*
G01X10028Y5750D01*
G01X10037Y5788D01*
G01X10043Y5827D01*
G01X10047Y5866D01*
G01X10048Y5905D01*
G01X10048Y5905D02*
G01X10047Y5944D01*
G01X10043Y5983D01*
G01X10037Y6022D01*
G01X10028Y6060D01*
G01X10016Y6098D01*
G01X10003Y6135D01*
G01X9986Y6170D01*
G01X9968Y6205D01*
G01X9947Y6238D01*
G01X9924Y6270D01*
G01X9899Y6301D01*
G01X9873Y6329D01*
G01X9844Y6356D01*
G01X9814Y6381D01*
G01X9782Y6404D01*
G01X9748Y6425D01*
G01X9714Y6443D01*
G01X9678Y6459D01*
G01X9641Y6473D01*
G01X9604Y6485D01*
G01X9565Y6493D01*
G01X9527Y6500D01*
G01X9488Y6504D01*
G01X9448Y6505D01*
G01X9448Y6505D02*
G01X9409Y6504D01*
G01X9370Y6500D01*
G01X9331Y6493D01*
G01X9293Y6485D01*
G01X9255Y6473D01*
G01X9219Y6459D01*
G01X9183Y6443D01*
G01X9148Y6425D01*
G01X9115Y6404D01*
G01X9083Y6381D01*
G01X9053Y6356D01*
G01X9024Y6329D01*
G01X8997Y6301D01*
G01X8972Y6270D01*
G01X8949Y6238D01*
G01X8929Y6205D01*
G01X8910Y6170D01*
G01X8894Y6135D01*
G01X8880Y6098D01*
G01X8869Y6060D01*
G01X8860Y6022D01*
G01X8853Y5983D01*
G01X8850Y5944D01*
G01X8848Y5905D01*
G04 draw value for part S6*
G54D10*
G01X9486Y5996D02*
G01X9468Y5978D01*
G01X9514Y6005D02*
G01X9486Y5996D01*
G01X9550Y6005D02*
G01X9514Y6005D01*
G01X9550Y6005D02*
G01X9577Y5996D01*
G01X9577Y5996D02*
G01X9596Y5978D01*
G01X9596Y5978D02*
G01X9596Y5960D01*
G01X9596Y5960D02*
G01X9586Y5942D01*
G01X9586Y5942D02*
G01X9577Y5933D01*
G01X9577Y5933D02*
G01X9559Y5924D01*
G01X9559Y5924D02*
G01X9505Y5905D01*
G01X9505Y5905D02*
G01X9486Y5896D01*
G01X9486Y5896D02*
G01X9477Y5887D01*
G01X9477Y5887D02*
G01X9468Y5869D01*
G01X9468Y5869D02*
G01X9468Y5842D01*
G01X9468Y5842D02*
G01X9486Y5824D01*
G01X9486Y5824D02*
G01X9514Y5815D01*
G01X9550Y5815D02*
G01X9514Y5815D01*
G01X9577Y5824D02*
G01X9550Y5815D01*
G01X9596Y5842D02*
G01X9577Y5824D01*
G01X9296Y5996D02*
G01X9286Y5978D01*
G01X9323Y6005D02*
G01X9296Y5996D01*
G01X9341Y6005D02*
G01X9323Y6005D01*
G01X9341Y6005D02*
G01X9368Y5996D01*
G01X9368Y5996D02*
G01X9386Y5969D01*
G01X9386Y5969D02*
G01X9396Y5924D01*
G01X9396Y5924D02*
G01X9396Y5878D01*
G01X9396Y5878D02*
G01X9386Y5842D01*
G01X9386Y5842D02*
G01X9368Y5824D01*
G01X9368Y5824D02*
G01X9341Y5815D01*
G01X9332Y5815D02*
G01X9341Y5815D01*
G01X9305Y5824D02*
G01X9332Y5815D01*
G01X9286Y5842D02*
G01X9305Y5824D01*
G01X9277Y5869D02*
G01X9286Y5842D01*
G01X9277Y5878D02*
G01X9277Y5869D01*
G01X9286Y5905D02*
G01X9277Y5878D01*
G01X9305Y5924D02*
G01X9286Y5905D01*
G01X9332Y5933D02*
G01X9305Y5924D01*
G01X9341Y5933D02*
G01X9332Y5933D01*
G01X9341Y5933D02*
G01X9368Y5924D01*
G01X9368Y5924D02*
G01X9386Y5905D01*
G01X9386Y5905D02*
G01X9396Y5878D01*
G04 Draw part S7*
G04 draw part outline for part S7*
G54D11*
G01X8248Y8942D02*
G01X8248Y10742D01*
G01X9048Y11042D02*
G01X9848Y11042D01*
G01X10648Y10742D02*
G01X10648Y8942D01*
G01X9848Y8642D02*
G01X9048Y8642D01*
G01X8848Y9842D02*
G01X8850Y9803D01*
G01X8853Y9764D01*
G01X8860Y9725D01*
G01X8869Y9687D01*
G01X8880Y9649D01*
G01X8894Y9612D01*
G01X8910Y9577D01*
G01X8929Y9542D01*
G01X8949Y9509D01*
G01X8972Y9477D01*
G01X8997Y9446D01*
G01X9024Y9418D01*
G01X9053Y9391D01*
G01X9083Y9366D01*
G01X9115Y9343D01*
G01X9148Y9322D01*
G01X9183Y9304D01*
G01X9219Y9288D01*
G01X9255Y9274D01*
G01X9293Y9262D01*
G01X9331Y9254D01*
G01X9370Y9247D01*
G01X9409Y9243D01*
G01X9448Y9242D01*
G01X9448Y9242D02*
G01X9488Y9243D01*
G01X9527Y9247D01*
G01X9565Y9254D01*
G01X9604Y9262D01*
G01X9641Y9274D01*
G01X9678Y9288D01*
G01X9714Y9304D01*
G01X9748Y9322D01*
G01X9782Y9343D01*
G01X9814Y9366D01*
G01X9844Y9391D01*
G01X9873Y9418D01*
G01X9899Y9446D01*
G01X9924Y9477D01*
G01X9947Y9509D01*
G01X9968Y9542D01*
G01X9986Y9577D01*
G01X10003Y9612D01*
G01X10016Y9649D01*
G01X10028Y9687D01*
G01X10037Y9725D01*
G01X10043Y9764D01*
G01X10047Y9803D01*
G01X10048Y9842D01*
G01X10048Y9842D02*
G01X10047Y9881D01*
G01X10043Y9920D01*
G01X10037Y9959D01*
G01X10028Y9997D01*
G01X10016Y10035D01*
G01X10003Y10072D01*
G01X9986Y10107D01*
G01X9968Y10142D01*
G01X9947Y10175D01*
G01X9924Y10207D01*
G01X9899Y10238D01*
G01X9873Y10266D01*
G01X9844Y10293D01*
G01X9814Y10318D01*
G01X9782Y10341D01*
G01X9748Y10362D01*
G01X9714Y10380D01*
G01X9678Y10396D01*
G01X9641Y10410D01*
G01X9604Y10422D01*
G01X9565Y10430D01*
G01X9527Y10437D01*
G01X9488Y10441D01*
G01X9448Y10442D01*
G01X9448Y10442D02*
G01X9409Y10441D01*
G01X9370Y10437D01*
G01X9331Y10430D01*
G01X9293Y10422D01*
G01X9255Y10410D01*
G01X9219Y10396D01*
G01X9183Y10380D01*
G01X9148Y10362D01*
G01X9115Y10341D01*
G01X9083Y10318D01*
G01X9053Y10293D01*
G01X9024Y10266D01*
G01X8997Y10238D01*
G01X8972Y10207D01*
G01X8949Y10175D01*
G01X8929Y10142D01*
G01X8910Y10107D01*
G01X8894Y10072D01*
G01X8880Y10035D01*
G01X8869Y9997D01*
G01X8860Y9959D01*
G01X8853Y9920D01*
G01X8850Y9881D01*
G01X8848Y9842D01*
G04 draw value for part S7*
G54D10*
G01X9515Y9893D02*
G01X9497Y9875D01*
G01X9543Y9902D02*
G01X9515Y9893D01*
G01X9579Y9902D02*
G01X9543Y9902D01*
G01X9579Y9902D02*
G01X9606Y9893D01*
G01X9606Y9893D02*
G01X9625Y9875D01*
G01X9625Y9875D02*
G01X9625Y9857D01*
G01X9625Y9857D02*
G01X9615Y9839D01*
G01X9615Y9839D02*
G01X9606Y9830D01*
G01X9606Y9830D02*
G01X9588Y9821D01*
G01X9588Y9821D02*
G01X9534Y9802D01*
G01X9534Y9802D02*
G01X9515Y9793D01*
G01X9515Y9793D02*
G01X9506Y9784D01*
G01X9506Y9784D02*
G01X9497Y9766D01*
G01X9497Y9766D02*
G01X9497Y9739D01*
G01X9497Y9739D02*
G01X9515Y9721D01*
G01X9515Y9721D02*
G01X9543Y9712D01*
G01X9579Y9712D02*
G01X9543Y9712D01*
G01X9606Y9721D02*
G01X9579Y9712D01*
G01X9625Y9739D02*
G01X9606Y9721D01*
G01X9297Y9902D02*
G01X9388Y9712D01*
G01X9297Y9902D02*
G01X9425Y9902D01*
G04 Draw part S8*
G04 draw part outline for part S8*
G54D11*
G01X4311Y6974D02*
G01X4311Y8774D01*
G01X5111Y9074D02*
G01X5911Y9074D01*
G01X6711Y8774D02*
G01X6711Y6974D01*
G01X5911Y6674D02*
G01X5111Y6674D01*
G01X4911Y7874D02*
G01X4913Y7834D01*
G01X4916Y7795D01*
G01X4923Y7756D01*
G01X4932Y7718D01*
G01X4943Y7681D01*
G01X4957Y7644D01*
G01X4973Y7608D01*
G01X4992Y7574D01*
G01X5012Y7540D01*
G01X5035Y7508D01*
G01X5060Y7478D01*
G01X5087Y7449D01*
G01X5116Y7422D01*
G01X5146Y7398D01*
G01X5178Y7375D01*
G01X5211Y7354D01*
G01X5246Y7335D01*
G01X5282Y7319D01*
G01X5318Y7305D01*
G01X5356Y7294D01*
G01X5394Y7285D01*
G01X5433Y7279D01*
G01X5472Y7275D01*
G01X5511Y7274D01*
G01X5511Y7274D02*
G01X5551Y7275D01*
G01X5590Y7279D01*
G01X5628Y7285D01*
G01X5667Y7294D01*
G01X5704Y7305D01*
G01X5741Y7319D01*
G01X5777Y7335D01*
G01X5811Y7354D01*
G01X5845Y7375D01*
G01X5877Y7398D01*
G01X5907Y7422D01*
G01X5936Y7449D01*
G01X5962Y7478D01*
G01X5987Y7508D01*
G01X6010Y7540D01*
G01X6031Y7574D01*
G01X6049Y7608D01*
G01X6066Y7644D01*
G01X6079Y7681D01*
G01X6091Y7718D01*
G01X6100Y7756D01*
G01X6106Y7795D01*
G01X6110Y7834D01*
G01X6111Y7874D01*
G01X6111Y7874D02*
G01X6110Y7913D01*
G01X6106Y7952D01*
G01X6100Y7991D01*
G01X6091Y8029D01*
G01X6079Y8066D01*
G01X6066Y8103D01*
G01X6049Y8139D01*
G01X6031Y8174D01*
G01X6010Y8207D01*
G01X5987Y8239D01*
G01X5962Y8269D01*
G01X5936Y8298D01*
G01X5907Y8325D01*
G01X5877Y8350D01*
G01X5845Y8372D01*
G01X5811Y8393D01*
G01X5777Y8412D01*
G01X5741Y8428D01*
G01X5704Y8442D01*
G01X5667Y8453D01*
G01X5628Y8462D01*
G01X5590Y8468D01*
G01X5551Y8472D01*
G01X5511Y8474D01*
G01X5511Y8474D02*
G01X5472Y8472D01*
G01X5433Y8468D01*
G01X5394Y8462D01*
G01X5356Y8453D01*
G01X5318Y8442D01*
G01X5282Y8428D01*
G01X5246Y8412D01*
G01X5211Y8393D01*
G01X5178Y8372D01*
G01X5146Y8350D01*
G01X5116Y8325D01*
G01X5087Y8298D01*
G01X5060Y8269D01*
G01X5035Y8239D01*
G01X5012Y8207D01*
G01X4992Y8174D01*
G01X4973Y8139D01*
G01X4957Y8103D01*
G01X4943Y8066D01*
G01X4932Y8029D01*
G01X4923Y7991D01*
G01X4916Y7952D01*
G01X4913Y7913D01*
G01X4911Y7874D01*
G04 draw value for part S8*
G54D10*
G01X5598Y7927D02*
G01X5580Y7909D01*
G01X5626Y7936D02*
G01X5598Y7927D01*
G01X5662Y7936D02*
G01X5626Y7936D01*
G01X5662Y7936D02*
G01X5689Y7927D01*
G01X5689Y7927D02*
G01X5708Y7909D01*
G01X5708Y7909D02*
G01X5708Y7891D01*
G01X5708Y7891D02*
G01X5698Y7873D01*
G01X5698Y7873D02*
G01X5689Y7864D01*
G01X5689Y7864D02*
G01X5671Y7855D01*
G01X5671Y7855D02*
G01X5617Y7836D01*
G01X5617Y7836D02*
G01X5598Y7827D01*
G01X5598Y7827D02*
G01X5589Y7818D01*
G01X5589Y7818D02*
G01X5580Y7800D01*
G01X5580Y7800D02*
G01X5580Y7773D01*
G01X5580Y7773D02*
G01X5598Y7755D01*
G01X5598Y7755D02*
G01X5626Y7746D01*
G01X5662Y7746D02*
G01X5626Y7746D01*
G01X5689Y7755D02*
G01X5662Y7746D01*
G01X5708Y7773D02*
G01X5689Y7755D01*
G01X5462Y7936D02*
G01X5489Y7927D01*
G01X5489Y7927D02*
G01X5498Y7909D01*
G01X5498Y7909D02*
G01X5498Y7891D01*
G01X5498Y7891D02*
G01X5489Y7873D01*
G01X5489Y7873D02*
G01X5471Y7864D01*
G01X5471Y7864D02*
G01X5435Y7855D01*
G01X5435Y7855D02*
G01X5408Y7846D01*
G01X5408Y7846D02*
G01X5389Y7827D01*
G01X5389Y7827D02*
G01X5380Y7809D01*
G01X5380Y7809D02*
G01X5380Y7782D01*
G01X5380Y7782D02*
G01X5389Y7764D01*
G01X5389Y7764D02*
G01X5398Y7755D01*
G01X5398Y7755D02*
G01X5426Y7746D01*
G01X5462Y7746D02*
G01X5426Y7746D01*
G01X5489Y7755D02*
G01X5462Y7746D01*
G01X5498Y7764D02*
G01X5489Y7755D01*
G01X5508Y7782D02*
G01X5498Y7764D01*
G01X5508Y7809D02*
G01X5508Y7782D01*
G01X5498Y7827D02*
G01X5508Y7809D01*
G01X5480Y7846D02*
G01X5498Y7827D01*
G01X5453Y7855D02*
G01X5480Y7846D01*
G01X5417Y7864D02*
G01X5453Y7855D01*
G01X5398Y7873D02*
G01X5417Y7864D01*
G01X5389Y7891D02*
G01X5398Y7873D01*
G01X5389Y7909D02*
G01X5389Y7891D01*
G01X5398Y7927D02*
G01X5389Y7909D01*
G01X5426Y7936D02*
G01X5398Y7927D01*
G01X5462Y7936D02*
G01X5426Y7936D01*
G04 Draw part R9*
G04 draw part outline for part R9*
G04 draw value for part R9*
G01X16529Y2614D02*
G01X16548Y2605D01*
G01X16502Y2641D02*
G01X16529Y2614D01*
G01X16502Y2641D02*
G01X16502Y2451D01*
G01X16375Y2641D02*
G01X16402Y2632D01*
G01X16402Y2632D02*
G01X16420Y2605D01*
G01X16420Y2605D02*
G01X16429Y2560D01*
G01X16429Y2560D02*
G01X16429Y2532D01*
G01X16429Y2532D02*
G01X16420Y2487D01*
G01X16420Y2487D02*
G01X16402Y2460D01*
G01X16402Y2460D02*
G01X16375Y2451D01*
G01X16357Y2451D02*
G01X16375Y2451D01*
G01X16329Y2460D02*
G01X16357Y2451D01*
G01X16311Y2487D02*
G01X16329Y2460D01*
G01X16302Y2532D02*
G01X16311Y2487D01*
G01X16302Y2560D02*
G01X16302Y2532D01*
G01X16311Y2605D02*
G01X16302Y2560D01*
G01X16329Y2632D02*
G01X16311Y2605D01*
G01X16357Y2641D02*
G01X16329Y2632D01*
G01X16375Y2641D02*
G01X16357Y2641D01*
G01X16229Y2641D02*
G01X16229Y2451D01*
G01X16138Y2578D02*
G01X16229Y2487D01*
G01X16193Y2523D02*
G01X16129Y2451D01*
G04 Draw part R11*
G04 draw part outline for part R11*
G04 draw value for part R11*
G01X16520Y13252D02*
G01X16538Y13243D01*
G01X16493Y13279D02*
G01X16520Y13252D01*
G01X16493Y13279D02*
G01X16493Y13088D01*
G01X16365Y13279D02*
G01X16393Y13270D01*
G01X16393Y13270D02*
G01X16411Y13243D01*
G01X16411Y13243D02*
G01X16420Y13198D01*
G01X16420Y13198D02*
G01X16420Y13170D01*
G01X16420Y13170D02*
G01X16411Y13125D01*
G01X16411Y13125D02*
G01X16393Y13098D01*
G01X16393Y13098D02*
G01X16365Y13088D01*
G01X16347Y13088D02*
G01X16365Y13088D01*
G01X16320Y13098D02*
G01X16347Y13088D01*
G01X16302Y13125D02*
G01X16320Y13098D01*
G01X16293Y13170D02*
G01X16302Y13125D01*
G01X16293Y13198D02*
G01X16293Y13170D01*
G01X16302Y13243D02*
G01X16293Y13198D01*
G01X16320Y13270D02*
G01X16302Y13243D01*
G01X16347Y13279D02*
G01X16320Y13270D01*
G01X16365Y13279D02*
G01X16347Y13279D01*
G01X16220Y13279D02*
G01X16220Y13088D01*
G01X16129Y13216D02*
G01X16220Y13125D01*
G01X16184Y13161D02*
G01X16120Y13088D01*
G04 Draw part R13*
G04 draw part outline for part R13*
G04 draw value for part R13*
G01X13399Y2624D02*
G01X13418Y2615D01*
G01X13372Y2651D02*
G01X13399Y2624D01*
G01X13372Y2651D02*
G01X13372Y2461D01*
G01X13245Y2651D02*
G01X13272Y2642D01*
G01X13272Y2642D02*
G01X13290Y2615D01*
G01X13290Y2615D02*
G01X13299Y2570D01*
G01X13299Y2570D02*
G01X13299Y2542D01*
G01X13299Y2542D02*
G01X13290Y2497D01*
G01X13290Y2497D02*
G01X13272Y2470D01*
G01X13272Y2470D02*
G01X13245Y2461D01*
G01X13227Y2461D02*
G01X13245Y2461D01*
G01X13199Y2470D02*
G01X13227Y2461D01*
G01X13181Y2497D02*
G01X13199Y2470D01*
G01X13172Y2542D02*
G01X13181Y2497D01*
G01X13172Y2570D02*
G01X13172Y2542D01*
G01X13181Y2615D02*
G01X13172Y2570D01*
G01X13199Y2642D02*
G01X13181Y2615D01*
G01X13227Y2651D02*
G01X13199Y2642D01*
G01X13245Y2651D02*
G01X13227Y2651D01*
G01X13099Y2651D02*
G01X13099Y2461D01*
G01X13008Y2588D02*
G01X13099Y2497D01*
G01X13063Y2533D02*
G01X12999Y2461D01*
G04 Draw part R15*
G04 draw part outline for part R15*
G04 draw value for part R15*
G01X13370Y13252D02*
G01X13388Y13243D01*
G01X13343Y13279D02*
G01X13370Y13252D01*
G01X13343Y13279D02*
G01X13343Y13088D01*
G01X13216Y13279D02*
G01X13243Y13270D01*
G01X13243Y13270D02*
G01X13261Y13243D01*
G01X13261Y13243D02*
G01X13270Y13198D01*
G01X13270Y13198D02*
G01X13270Y13170D01*
G01X13270Y13170D02*
G01X13261Y13125D01*
G01X13261Y13125D02*
G01X13243Y13098D01*
G01X13243Y13098D02*
G01X13216Y13088D01*
G01X13198Y13088D02*
G01X13216Y13088D01*
G01X13170Y13098D02*
G01X13198Y13088D01*
G01X13152Y13125D02*
G01X13170Y13098D01*
G01X13143Y13170D02*
G01X13152Y13125D01*
G01X13143Y13198D02*
G01X13143Y13170D01*
G01X13152Y13243D02*
G01X13143Y13198D01*
G01X13170Y13270D02*
G01X13152Y13243D01*
G01X13198Y13279D02*
G01X13170Y13270D01*
G01X13216Y13279D02*
G01X13198Y13279D01*
G01X13070Y13279D02*
G01X13070Y13088D01*
G01X12979Y13216D02*
G01X13070Y13125D01*
G01X13034Y13161D02*
G01X12970Y13088D01*
G04 Draw part R17*
G04 draw part outline for part R17*
G04 draw value for part R17*
G01X10220Y2614D02*
G01X10239Y2605D01*
G01X10193Y2641D02*
G01X10220Y2614D01*
G01X10193Y2641D02*
G01X10193Y2451D01*
G01X10066Y2641D02*
G01X10093Y2632D01*
G01X10093Y2632D02*
G01X10111Y2605D01*
G01X10111Y2605D02*
G01X10120Y2560D01*
G01X10120Y2560D02*
G01X10120Y2532D01*
G01X10120Y2532D02*
G01X10111Y2487D01*
G01X10111Y2487D02*
G01X10093Y2460D01*
G01X10093Y2460D02*
G01X10066Y2451D01*
G01X10048Y2451D02*
G01X10066Y2451D01*
G01X10020Y2460D02*
G01X10048Y2451D01*
G01X10002Y2487D02*
G01X10020Y2460D01*
G01X9993Y2532D02*
G01X10002Y2487D01*
G01X9993Y2560D02*
G01X9993Y2532D01*
G01X10002Y2605D02*
G01X9993Y2560D01*
G01X10020Y2632D02*
G01X10002Y2605D01*
G01X10048Y2641D02*
G01X10020Y2632D01*
G01X10066Y2641D02*
G01X10048Y2641D01*
G01X9920Y2641D02*
G01X9920Y2451D01*
G01X9829Y2578D02*
G01X9920Y2487D01*
G01X9884Y2523D02*
G01X9820Y2451D01*
G04 Draw part R19*
G04 draw part outline for part R19*
G04 draw value for part R19*
G01X10221Y13252D02*
G01X10239Y13243D01*
G01X10193Y13279D02*
G01X10221Y13252D01*
G01X10193Y13279D02*
G01X10193Y13088D01*
G01X10066Y13279D02*
G01X10093Y13270D01*
G01X10093Y13270D02*
G01X10112Y13243D01*
G01X10112Y13243D02*
G01X10121Y13198D01*
G01X10121Y13198D02*
G01X10121Y13170D01*
G01X10121Y13170D02*
G01X10112Y13125D01*
G01X10112Y13125D02*
G01X10093Y13098D01*
G01X10093Y13098D02*
G01X10066Y13088D01*
G01X10048Y13088D02*
G01X10066Y13088D01*
G01X10021Y13098D02*
G01X10048Y13088D01*
G01X10003Y13125D02*
G01X10021Y13098D01*
G01X9993Y13170D02*
G01X10003Y13125D01*
G01X9993Y13198D02*
G01X9993Y13170D01*
G01X10003Y13243D02*
G01X9993Y13198D01*
G01X10021Y13270D02*
G01X10003Y13243D01*
G01X10048Y13279D02*
G01X10021Y13270D01*
G01X10066Y13279D02*
G01X10048Y13279D01*
G01X9921Y13279D02*
G01X9921Y13088D01*
G01X9830Y13216D02*
G01X9921Y13125D01*
G01X9884Y13161D02*
G01X9821Y13088D01*
G04 Draw part R21*
G04 draw part outline for part R21*
G04 draw value for part R21*
G01X6310Y10299D02*
G01X6329Y10290D01*
G01X6283Y10326D02*
G01X6310Y10299D01*
G01X6283Y10326D02*
G01X6283Y10136D01*
G01X6156Y10326D02*
G01X6183Y10317D01*
G01X6183Y10317D02*
G01X6201Y10290D01*
G01X6201Y10290D02*
G01X6210Y10245D01*
G01X6210Y10245D02*
G01X6210Y10217D01*
G01X6210Y10217D02*
G01X6201Y10172D01*
G01X6201Y10172D02*
G01X6183Y10145D01*
G01X6183Y10145D02*
G01X6156Y10136D01*
G01X6138Y10136D02*
G01X6156Y10136D01*
G01X6110Y10145D02*
G01X6138Y10136D01*
G01X6092Y10172D02*
G01X6110Y10145D01*
G01X6083Y10217D02*
G01X6092Y10172D01*
G01X6083Y10245D02*
G01X6083Y10217D01*
G01X6092Y10290D02*
G01X6083Y10245D01*
G01X6110Y10317D02*
G01X6092Y10290D01*
G01X6138Y10326D02*
G01X6110Y10317D01*
G01X6156Y10326D02*
G01X6138Y10326D01*
G01X6010Y10326D02*
G01X6010Y10136D01*
G01X5919Y10263D02*
G01X6010Y10172D01*
G01X5974Y10208D02*
G01X5910Y10136D01*
G04 Draw part R23*
G04 Draw part D1*
G04 draw part outline for part D1*
G01X19094Y5905D02*
G01X19094Y5118D01*
G04 draw value for part D1*
G01X20202Y5570D02*
G01X20221Y5561D01*
G01X20175Y5597D02*
G01X20202Y5570D01*
G01X20175Y5597D02*
G01X20175Y5407D01*
G01X20102Y5597D02*
G01X20102Y5407D01*
G01X20102Y5597D02*
G01X19975Y5407D01*
G01X19975Y5597D02*
G01X19975Y5407D01*
G01X19811Y5597D02*
G01X19902Y5470D01*
G01X19766Y5470D02*
G01X19902Y5470D01*
G01X19811Y5597D02*
G01X19811Y5407D01*
G01X19675Y5570D02*
G01X19693Y5561D01*
G01X19648Y5597D02*
G01X19675Y5570D01*
G01X19648Y5597D02*
G01X19648Y5407D01*
G01X19484Y5597D02*
G01X19575Y5470D01*
G01X19439Y5470D02*
G01X19575Y5470D01*
G01X19484Y5597D02*
G01X19484Y5407D01*
G01X19321Y5597D02*
G01X19348Y5588D01*
G01X19348Y5588D02*
G01X19357Y5570D01*
G01X19357Y5570D02*
G01X19357Y5552D01*
G01X19357Y5552D02*
G01X19348Y5534D01*
G01X19348Y5534D02*
G01X19330Y5525D01*
G01X19330Y5525D02*
G01X19293Y5516D01*
G01X19293Y5516D02*
G01X19266Y5507D01*
G01X19266Y5507D02*
G01X19248Y5488D01*
G01X19248Y5488D02*
G01X19239Y5470D01*
G01X19239Y5470D02*
G01X19239Y5443D01*
G01X19239Y5443D02*
G01X19248Y5425D01*
G01X19248Y5425D02*
G01X19257Y5416D01*
G01X19257Y5416D02*
G01X19284Y5407D01*
G01X19321Y5407D02*
G01X19284Y5407D01*
G01X19348Y5416D02*
G01X19321Y5407D01*
G01X19357Y5425D02*
G01X19348Y5416D01*
G01X19366Y5443D02*
G01X19357Y5425D01*
G01X19366Y5470D02*
G01X19366Y5443D01*
G01X19357Y5488D02*
G01X19366Y5470D01*
G01X19339Y5507D02*
G01X19357Y5488D01*
G01X19311Y5516D02*
G01X19339Y5507D01*
G01X19275Y5525D02*
G01X19311Y5516D01*
G01X19257Y5534D02*
G01X19275Y5525D01*
G01X19248Y5552D02*
G01X19257Y5534D01*
G01X19248Y5570D02*
G01X19248Y5552D01*
G01X19257Y5588D02*
G01X19248Y5570D01*
G01X19284Y5597D02*
G01X19257Y5588D01*
G01X19321Y5597D02*
G01X19284Y5597D01*
G04 Draw part D9*
G04 draw part outline for part D9*
G54D12*
G01X21289Y1377D02*
G01X21290Y1338D01*
G01X21293Y1298D01*
G01X21298Y1259D01*
G01X21305Y1220D01*
G01X21315Y1181D01*
G01X21326Y1143D01*
G01X21339Y1106D01*
G01X21354Y1069D01*
G01X21371Y1033D01*
G01X21390Y999D01*
G01X21411Y965D01*
G01X21434Y932D01*
G01X21458Y901D01*
G01X21484Y870D01*
G01X21511Y842D01*
G01X21540Y814D01*
G01X21570Y788D01*
G01X21601Y764D01*
G01X21634Y742D01*
G01X21668Y721D01*
G01X21703Y702D01*
G01X21738Y685D01*
G01X21775Y670D01*
G01X21813Y657D01*
G01X21851Y645D01*
G01X21889Y636D01*
G01X21928Y629D01*
G01X21968Y624D01*
G01X22007Y621D01*
G01X22047Y620D01*
G01X22047Y620D02*
G01X22086Y621D01*
G01X22126Y624D01*
G01X22165Y629D01*
G01X22204Y636D01*
G01X22243Y645D01*
G01X22281Y657D01*
G01X22318Y670D01*
G01X22355Y685D01*
G01X22391Y702D01*
G01X22426Y721D01*
G01X22460Y742D01*
G01X22492Y764D01*
G01X22524Y788D01*
G01X22554Y814D01*
G01X22583Y842D01*
G01X22610Y870D01*
G01X22636Y901D01*
G01X22660Y932D01*
G01X22682Y965D01*
G01X22703Y999D01*
G01X22722Y1033D01*
G01X22739Y1069D01*
G01X22754Y1106D01*
G01X22768Y1143D01*
G01X22779Y1181D01*
G01X22788Y1220D01*
G01X22795Y1259D01*
G01X22800Y1298D01*
G01X22804Y1338D01*
G01X22805Y1377D01*
G01X22805Y1377D02*
G01X22804Y1417D01*
G01X22800Y1457D01*
G01X22795Y1496D01*
G01X22788Y1535D01*
G01X22779Y1574D01*
G01X22768Y1612D01*
G01X22754Y1649D01*
G01X22739Y1686D01*
G01X22722Y1722D01*
G01X22703Y1756D01*
G01X22682Y1790D01*
G01X22660Y1823D01*
G01X22636Y1854D01*
G01X22610Y1885D01*
G01X22583Y1913D01*
G01X22554Y1941D01*
G01X22524Y1966D01*
G01X22492Y1991D01*
G01X22460Y2013D01*
G01X22426Y2034D01*
G01X22391Y2053D01*
G01X22355Y2070D01*
G01X22318Y2085D01*
G01X22281Y2098D01*
G01X22243Y2110D01*
G01X22204Y2119D01*
G01X22165Y2126D01*
G01X22126Y2131D01*
G01X22086Y2134D01*
G01X22047Y2135D01*
G01X22047Y2135D02*
G01X22007Y2134D01*
G01X21968Y2131D01*
G01X21928Y2126D01*
G01X21889Y2119D01*
G01X21851Y2110D01*
G01X21813Y2098D01*
G01X21775Y2085D01*
G01X21738Y2070D01*
G01X21703Y2053D01*
G01X21668Y2034D01*
G01X21634Y2013D01*
G01X21601Y1991D01*
G01X21570Y1966D01*
G01X21540Y1941D01*
G01X21511Y1913D01*
G01X21484Y1885D01*
G01X21458Y1854D01*
G01X21434Y1823D01*
G01X21411Y1790D01*
G01X21390Y1756D01*
G01X21371Y1722D01*
G01X21354Y1686D01*
G01X21339Y1649D01*
G01X21326Y1612D01*
G01X21315Y1574D01*
G01X21305Y1535D01*
G01X21298Y1496D01*
G01X21293Y1457D01*
G01X21290Y1417D01*
G01X21289Y1377D01*
G01X22952Y984D02*
G01X22952Y1771D01*
G04 draw value for part D9*
G54D10*
G01X22592Y2679D02*
G01X22592Y2298D01*
G01X22428Y2679D02*
G01X22592Y2679D01*
G01X22428Y2679D02*
G01X22373Y2661D01*
G01X22373Y2661D02*
G01X22355Y2643D01*
G01X22355Y2643D02*
G01X22337Y2607D01*
G01X22337Y2607D02*
G01X22337Y2570D01*
G01X22337Y2570D02*
G01X22355Y2534D01*
G01X22355Y2534D02*
G01X22373Y2516D01*
G01X22373Y2516D02*
G01X22428Y2498D01*
G01X22428Y2498D02*
G01X22592Y2498D01*
G01X22428Y2498D02*
G01X22373Y2479D01*
G01X22373Y2479D02*
G01X22355Y2461D01*
G01X22355Y2461D02*
G01X22337Y2425D01*
G01X22337Y2425D02*
G01X22337Y2370D01*
G01X22337Y2370D02*
G01X22355Y2334D01*
G01X22355Y2334D02*
G01X22373Y2316D01*
G01X22373Y2316D02*
G01X22428Y2298D01*
G01X22592Y2298D02*
G01X22428Y2298D01*
G01X22192Y2679D02*
G01X22192Y2298D01*
G01X22046Y2552D02*
G01X22046Y2370D01*
G01X22046Y2370D02*
G01X22028Y2316D01*
G01X22028Y2316D02*
G01X21992Y2298D01*
G01X21937Y2298D02*
G01X21992Y2298D01*
G01X21901Y2316D02*
G01X21937Y2298D01*
G01X21846Y2370D02*
G01X21901Y2316D01*
G01X21846Y2552D02*
G01X21846Y2298D01*
G01X21482Y2443D02*
G01X21701Y2443D01*
G01X21482Y2479D02*
G01X21482Y2443D01*
G01X21501Y2516D02*
G01X21482Y2479D01*
G01X21519Y2534D02*
G01X21501Y2516D01*
G01X21555Y2552D02*
G01X21519Y2534D01*
G01X21610Y2552D02*
G01X21555Y2552D01*
G01X21610Y2552D02*
G01X21646Y2534D01*
G01X21646Y2534D02*
G01X21682Y2498D01*
G01X21682Y2498D02*
G01X21701Y2443D01*
G01X21701Y2443D02*
G01X21701Y2407D01*
G01X21701Y2407D02*
G01X21682Y2352D01*
G01X21682Y2352D02*
G01X21646Y2316D01*
G01X21646Y2316D02*
G01X21610Y2298D01*
G01X21555Y2298D02*
G01X21610Y2298D01*
G01X21519Y2316D02*
G01X21555Y2298D01*
G01X21482Y2352D02*
G01X21519Y2316D01*
G04 Draw part D2*
G04 draw part outline for part D2*
G01X15157Y3937D02*
G01X15157Y3149D01*
G04 draw value for part D2*
G01X16246Y3580D02*
G01X16265Y3571D01*
G01X16219Y3607D02*
G01X16246Y3580D01*
G01X16219Y3607D02*
G01X16219Y3417D01*
G01X16146Y3607D02*
G01X16146Y3417D01*
G01X16146Y3607D02*
G01X16019Y3417D01*
G01X16019Y3607D02*
G01X16019Y3417D01*
G01X15855Y3607D02*
G01X15946Y3480D01*
G01X15810Y3480D02*
G01X15946Y3480D01*
G01X15855Y3607D02*
G01X15855Y3417D01*
G01X15719Y3580D02*
G01X15737Y3571D01*
G01X15692Y3607D02*
G01X15719Y3580D01*
G01X15692Y3607D02*
G01X15692Y3417D01*
G01X15528Y3607D02*
G01X15619Y3480D01*
G01X15483Y3480D02*
G01X15619Y3480D01*
G01X15528Y3607D02*
G01X15528Y3417D01*
G01X15365Y3607D02*
G01X15392Y3598D01*
G01X15392Y3598D02*
G01X15401Y3580D01*
G01X15401Y3580D02*
G01X15401Y3562D01*
G01X15401Y3562D02*
G01X15392Y3544D01*
G01X15392Y3544D02*
G01X15374Y3535D01*
G01X15374Y3535D02*
G01X15337Y3526D01*
G01X15337Y3526D02*
G01X15310Y3517D01*
G01X15310Y3517D02*
G01X15292Y3498D01*
G01X15292Y3498D02*
G01X15283Y3480D01*
G01X15283Y3480D02*
G01X15283Y3453D01*
G01X15283Y3453D02*
G01X15292Y3435D01*
G01X15292Y3435D02*
G01X15301Y3426D01*
G01X15301Y3426D02*
G01X15328Y3417D01*
G01X15365Y3417D02*
G01X15328Y3417D01*
G01X15392Y3426D02*
G01X15365Y3417D01*
G01X15401Y3435D02*
G01X15392Y3426D01*
G01X15410Y3453D02*
G01X15401Y3435D01*
G01X15410Y3480D02*
G01X15410Y3453D01*
G01X15401Y3498D02*
G01X15410Y3480D01*
G01X15383Y3517D02*
G01X15401Y3498D01*
G01X15355Y3526D02*
G01X15383Y3517D01*
G01X15319Y3535D02*
G01X15355Y3526D01*
G01X15301Y3544D02*
G01X15319Y3535D01*
G01X15292Y3562D02*
G01X15301Y3544D01*
G01X15292Y3580D02*
G01X15292Y3562D01*
G01X15301Y3598D02*
G01X15292Y3580D01*
G01X15328Y3607D02*
G01X15301Y3598D01*
G01X15365Y3607D02*
G01X15328Y3607D01*
G04 Draw part D3*
G04 draw part outline for part D3*
G01X15157Y12598D02*
G01X15157Y11811D01*
G04 draw value for part D3*
G01X16301Y12249D02*
G01X16320Y12240D01*
G01X16274Y12276D02*
G01X16301Y12249D01*
G01X16274Y12276D02*
G01X16274Y12086D01*
G01X16201Y12276D02*
G01X16201Y12086D01*
G01X16201Y12276D02*
G01X16074Y12086D01*
G01X16074Y12276D02*
G01X16074Y12086D01*
G01X15910Y12276D02*
G01X16001Y12149D01*
G01X15865Y12149D02*
G01X16001Y12149D01*
G01X15910Y12276D02*
G01X15910Y12086D01*
G01X15774Y12249D02*
G01X15792Y12240D01*
G01X15747Y12276D02*
G01X15774Y12249D01*
G01X15747Y12276D02*
G01X15747Y12086D01*
G01X15583Y12276D02*
G01X15674Y12149D01*
G01X15538Y12149D02*
G01X15674Y12149D01*
G01X15583Y12276D02*
G01X15583Y12086D01*
G01X15420Y12276D02*
G01X15447Y12267D01*
G01X15447Y12267D02*
G01X15456Y12249D01*
G01X15456Y12249D02*
G01X15456Y12231D01*
G01X15456Y12231D02*
G01X15447Y12213D01*
G01X15447Y12213D02*
G01X15429Y12204D01*
G01X15429Y12204D02*
G01X15392Y12195D01*
G01X15392Y12195D02*
G01X15365Y12186D01*
G01X15365Y12186D02*
G01X15347Y12167D01*
G01X15347Y12167D02*
G01X15338Y12149D01*
G01X15338Y12149D02*
G01X15338Y12122D01*
G01X15338Y12122D02*
G01X15347Y12104D01*
G01X15347Y12104D02*
G01X15356Y12095D01*
G01X15356Y12095D02*
G01X15383Y12086D01*
G01X15420Y12086D02*
G01X15383Y12086D01*
G01X15447Y12095D02*
G01X15420Y12086D01*
G01X15456Y12104D02*
G01X15447Y12095D01*
G01X15465Y12122D02*
G01X15456Y12104D01*
G01X15465Y12149D02*
G01X15465Y12122D01*
G01X15456Y12167D02*
G01X15465Y12149D01*
G01X15438Y12186D02*
G01X15456Y12167D01*
G01X15410Y12195D02*
G01X15438Y12186D01*
G01X15374Y12204D02*
G01X15410Y12195D01*
G01X15356Y12213D02*
G01X15374Y12204D01*
G01X15347Y12231D02*
G01X15356Y12213D01*
G01X15347Y12249D02*
G01X15347Y12231D01*
G01X15356Y12267D02*
G01X15347Y12249D01*
G01X15383Y12276D02*
G01X15356Y12267D01*
G01X15420Y12276D02*
G01X15383Y12276D01*
G04 Draw part D4*
G04 draw part outline for part D4*
G01X12007Y3937D02*
G01X12007Y3149D01*
G04 draw value for part D4*
G01X13155Y3609D02*
G01X13174Y3600D01*
G01X13128Y3636D02*
G01X13155Y3609D01*
G01X13128Y3636D02*
G01X13128Y3446D01*
G01X13055Y3636D02*
G01X13055Y3446D01*
G01X13055Y3636D02*
G01X12928Y3446D01*
G01X12928Y3636D02*
G01X12928Y3446D01*
G01X12764Y3636D02*
G01X12855Y3509D01*
G01X12719Y3509D02*
G01X12855Y3509D01*
G01X12764Y3636D02*
G01X12764Y3446D01*
G01X12628Y3609D02*
G01X12646Y3600D01*
G01X12601Y3636D02*
G01X12628Y3609D01*
G01X12601Y3636D02*
G01X12601Y3446D01*
G01X12437Y3636D02*
G01X12528Y3509D01*
G01X12392Y3509D02*
G01X12528Y3509D01*
G01X12437Y3636D02*
G01X12437Y3446D01*
G01X12274Y3636D02*
G01X12301Y3627D01*
G01X12301Y3627D02*
G01X12310Y3609D01*
G01X12310Y3609D02*
G01X12310Y3591D01*
G01X12310Y3591D02*
G01X12301Y3573D01*
G01X12301Y3573D02*
G01X12283Y3564D01*
G01X12283Y3564D02*
G01X12246Y3555D01*
G01X12246Y3555D02*
G01X12219Y3546D01*
G01X12219Y3546D02*
G01X12201Y3527D01*
G01X12201Y3527D02*
G01X12192Y3509D01*
G01X12192Y3509D02*
G01X12192Y3482D01*
G01X12192Y3482D02*
G01X12201Y3464D01*
G01X12201Y3464D02*
G01X12210Y3455D01*
G01X12210Y3455D02*
G01X12237Y3446D01*
G01X12274Y3446D02*
G01X12237Y3446D01*
G01X12301Y3455D02*
G01X12274Y3446D01*
G01X12310Y3464D02*
G01X12301Y3455D01*
G01X12319Y3482D02*
G01X12310Y3464D01*
G01X12319Y3509D02*
G01X12319Y3482D01*
G01X12310Y3527D02*
G01X12319Y3509D01*
G01X12292Y3546D02*
G01X12310Y3527D01*
G01X12264Y3555D02*
G01X12292Y3546D01*
G01X12228Y3564D02*
G01X12264Y3555D01*
G01X12210Y3573D02*
G01X12228Y3564D01*
G01X12201Y3591D02*
G01X12210Y3573D01*
G01X12201Y3609D02*
G01X12201Y3591D01*
G01X12210Y3627D02*
G01X12201Y3609D01*
G01X12237Y3636D02*
G01X12210Y3627D01*
G01X12274Y3636D02*
G01X12237Y3636D01*
G04 Draw part D5*
G04 draw part outline for part D5*
G01X12007Y12598D02*
G01X12007Y11811D01*
G04 draw value for part D5*
G01X13132Y12258D02*
G01X13151Y12249D01*
G01X13105Y12285D02*
G01X13132Y12258D01*
G01X13105Y12285D02*
G01X13105Y12095D01*
G01X13032Y12285D02*
G01X13032Y12095D01*
G01X13032Y12285D02*
G01X12905Y12095D01*
G01X12905Y12285D02*
G01X12905Y12095D01*
G01X12741Y12285D02*
G01X12832Y12158D01*
G01X12696Y12158D02*
G01X12832Y12158D01*
G01X12741Y12285D02*
G01X12741Y12095D01*
G01X12605Y12258D02*
G01X12623Y12249D01*
G01X12578Y12285D02*
G01X12605Y12258D01*
G01X12578Y12285D02*
G01X12578Y12095D01*
G01X12414Y12285D02*
G01X12505Y12158D01*
G01X12369Y12158D02*
G01X12505Y12158D01*
G01X12414Y12285D02*
G01X12414Y12095D01*
G01X12251Y12285D02*
G01X12278Y12276D01*
G01X12278Y12276D02*
G01X12287Y12258D01*
G01X12287Y12258D02*
G01X12287Y12240D01*
G01X12287Y12240D02*
G01X12278Y12222D01*
G01X12278Y12222D02*
G01X12260Y12213D01*
G01X12260Y12213D02*
G01X12223Y12204D01*
G01X12223Y12204D02*
G01X12196Y12195D01*
G01X12196Y12195D02*
G01X12178Y12176D01*
G01X12178Y12176D02*
G01X12169Y12158D01*
G01X12169Y12158D02*
G01X12169Y12131D01*
G01X12169Y12131D02*
G01X12178Y12113D01*
G01X12178Y12113D02*
G01X12187Y12104D01*
G01X12187Y12104D02*
G01X12214Y12095D01*
G01X12251Y12095D02*
G01X12214Y12095D01*
G01X12278Y12104D02*
G01X12251Y12095D01*
G01X12287Y12113D02*
G01X12278Y12104D01*
G01X12296Y12131D02*
G01X12287Y12113D01*
G01X12296Y12158D02*
G01X12296Y12131D01*
G01X12287Y12176D02*
G01X12296Y12158D01*
G01X12269Y12195D02*
G01X12287Y12176D01*
G01X12241Y12204D02*
G01X12269Y12195D01*
G01X12205Y12213D02*
G01X12241Y12204D01*
G01X12187Y12222D02*
G01X12205Y12213D01*
G01X12178Y12240D02*
G01X12187Y12222D01*
G01X12178Y12258D02*
G01X12178Y12240D01*
G01X12187Y12276D02*
G01X12178Y12258D01*
G01X12214Y12285D02*
G01X12187Y12276D01*
G01X12251Y12285D02*
G01X12214Y12285D01*
G04 Draw part D6*
G04 draw part outline for part D6*
G01X8858Y3937D02*
G01X8858Y3149D01*
G04 draw value for part D6*
G01X9996Y3599D02*
G01X10015Y3590D01*
G01X9969Y3626D02*
G01X9996Y3599D01*
G01X9969Y3626D02*
G01X9969Y3436D01*
G01X9896Y3626D02*
G01X9896Y3436D01*
G01X9896Y3626D02*
G01X9769Y3436D01*
G01X9769Y3626D02*
G01X9769Y3436D01*
G01X9605Y3626D02*
G01X9696Y3499D01*
G01X9560Y3499D02*
G01X9696Y3499D01*
G01X9605Y3626D02*
G01X9605Y3436D01*
G01X9469Y3599D02*
G01X9487Y3590D01*
G01X9442Y3626D02*
G01X9469Y3599D01*
G01X9442Y3626D02*
G01X9442Y3436D01*
G01X9278Y3626D02*
G01X9369Y3499D01*
G01X9233Y3499D02*
G01X9369Y3499D01*
G01X9278Y3626D02*
G01X9278Y3436D01*
G01X9115Y3626D02*
G01X9142Y3617D01*
G01X9142Y3617D02*
G01X9151Y3599D01*
G01X9151Y3599D02*
G01X9151Y3581D01*
G01X9151Y3581D02*
G01X9142Y3563D01*
G01X9142Y3563D02*
G01X9124Y3554D01*
G01X9124Y3554D02*
G01X9087Y3545D01*
G01X9087Y3545D02*
G01X9060Y3536D01*
G01X9060Y3536D02*
G01X9042Y3517D01*
G01X9042Y3517D02*
G01X9033Y3499D01*
G01X9033Y3499D02*
G01X9033Y3472D01*
G01X9033Y3472D02*
G01X9042Y3454D01*
G01X9042Y3454D02*
G01X9051Y3445D01*
G01X9051Y3445D02*
G01X9078Y3436D01*
G01X9115Y3436D02*
G01X9078Y3436D01*
G01X9142Y3445D02*
G01X9115Y3436D01*
G01X9151Y3454D02*
G01X9142Y3445D01*
G01X9160Y3472D02*
G01X9151Y3454D01*
G01X9160Y3499D02*
G01X9160Y3472D01*
G01X9151Y3517D02*
G01X9160Y3499D01*
G01X9133Y3536D02*
G01X9151Y3517D01*
G01X9105Y3545D02*
G01X9133Y3536D01*
G01X9069Y3554D02*
G01X9105Y3545D01*
G01X9051Y3563D02*
G01X9069Y3554D01*
G01X9042Y3581D02*
G01X9051Y3563D01*
G01X9042Y3599D02*
G01X9042Y3581D01*
G01X9051Y3617D02*
G01X9042Y3599D01*
G01X9078Y3626D02*
G01X9051Y3617D01*
G01X9115Y3626D02*
G01X9078Y3626D01*
G04 Draw part D7*
G04 draw part outline for part D7*
G01X8858Y12598D02*
G01X8858Y11811D01*
G04 draw value for part D7*
G01X9973Y12258D02*
G01X9992Y12249D01*
G01X9946Y12285D02*
G01X9973Y12258D01*
G01X9946Y12285D02*
G01X9946Y12095D01*
G01X9873Y12285D02*
G01X9873Y12095D01*
G01X9873Y12285D02*
G01X9746Y12095D01*
G01X9746Y12285D02*
G01X9746Y12095D01*
G01X9582Y12285D02*
G01X9673Y12158D01*
G01X9537Y12158D02*
G01X9673Y12158D01*
G01X9582Y12285D02*
G01X9582Y12095D01*
G01X9446Y12258D02*
G01X9464Y12249D01*
G01X9419Y12285D02*
G01X9446Y12258D01*
G01X9419Y12285D02*
G01X9419Y12095D01*
G01X9255Y12285D02*
G01X9346Y12158D01*
G01X9210Y12158D02*
G01X9346Y12158D01*
G01X9255Y12285D02*
G01X9255Y12095D01*
G01X9092Y12285D02*
G01X9119Y12276D01*
G01X9119Y12276D02*
G01X9128Y12258D01*
G01X9128Y12258D02*
G01X9128Y12240D01*
G01X9128Y12240D02*
G01X9119Y12222D01*
G01X9119Y12222D02*
G01X9101Y12213D01*
G01X9101Y12213D02*
G01X9064Y12204D01*
G01X9064Y12204D02*
G01X9037Y12195D01*
G01X9037Y12195D02*
G01X9019Y12176D01*
G01X9019Y12176D02*
G01X9010Y12158D01*
G01X9010Y12158D02*
G01X9010Y12131D01*
G01X9010Y12131D02*
G01X9019Y12113D01*
G01X9019Y12113D02*
G01X9028Y12104D01*
G01X9028Y12104D02*
G01X9055Y12095D01*
G01X9092Y12095D02*
G01X9055Y12095D01*
G01X9119Y12104D02*
G01X9092Y12095D01*
G01X9128Y12113D02*
G01X9119Y12104D01*
G01X9137Y12131D02*
G01X9128Y12113D01*
G01X9137Y12158D02*
G01X9137Y12131D01*
G01X9128Y12176D02*
G01X9137Y12158D01*
G01X9110Y12195D02*
G01X9128Y12176D01*
G01X9082Y12204D02*
G01X9110Y12195D01*
G01X9046Y12213D02*
G01X9082Y12204D01*
G01X9028Y12222D02*
G01X9046Y12213D01*
G01X9019Y12240D02*
G01X9028Y12222D01*
G01X9019Y12258D02*
G01X9019Y12240D01*
G01X9028Y12276D02*
G01X9019Y12258D01*
G01X9055Y12285D02*
G01X9028Y12276D01*
G01X9092Y12285D02*
G01X9055Y12285D01*
G04 Draw part D8*
G04 draw part outline for part D8*
G01X7874Y10433D02*
G01X7086Y10433D01*
G04 draw value for part D8*
G01X7422Y10276D02*
G01X7432Y10294D01*
G01X7395Y10249D02*
G01X7422Y10276D01*
G01X7395Y10249D02*
G01X7586Y10249D01*
G01X7395Y10176D02*
G01X7586Y10176D01*
G01X7395Y10176D02*
G01X7586Y10049D01*
G01X7395Y10049D02*
G01X7586Y10049D01*
G01X7395Y9885D02*
G01X7522Y9976D01*
G01X7522Y9839D02*
G01X7522Y9976D01*
G01X7395Y9885D02*
G01X7586Y9885D01*
G01X7422Y9749D02*
G01X7432Y9767D01*
G01X7395Y9721D02*
G01X7422Y9749D01*
G01X7395Y9721D02*
G01X7586Y9721D01*
G01X7395Y9558D02*
G01X7522Y9649D01*
G01X7522Y9512D02*
G01X7522Y9649D01*
G01X7395Y9558D02*
G01X7586Y9558D01*
G01X7395Y9394D02*
G01X7404Y9421D01*
G01X7404Y9421D02*
G01X7422Y9430D01*
G01X7422Y9430D02*
G01X7441Y9430D01*
G01X7441Y9430D02*
G01X7459Y9421D01*
G01X7459Y9421D02*
G01X7468Y9403D01*
G01X7468Y9403D02*
G01X7477Y9367D01*
G01X7477Y9367D02*
G01X7486Y9339D01*
G01X7486Y9339D02*
G01X7504Y9321D01*
G01X7504Y9321D02*
G01X7522Y9312D01*
G01X7522Y9312D02*
G01X7550Y9312D01*
G01X7550Y9312D02*
G01X7568Y9321D01*
G01X7568Y9321D02*
G01X7577Y9330D01*
G01X7577Y9330D02*
G01X7586Y9358D01*
G01X7586Y9394D02*
G01X7586Y9358D01*
G01X7577Y9421D02*
G01X7586Y9394D01*
G01X7568Y9430D02*
G01X7577Y9421D01*
G01X7550Y9439D02*
G01X7568Y9430D01*
G01X7522Y9439D02*
G01X7550Y9439D01*
G01X7504Y9430D02*
G01X7522Y9439D01*
G01X7486Y9412D02*
G01X7504Y9430D01*
G01X7477Y9385D02*
G01X7486Y9412D01*
G01X7468Y9349D02*
G01X7477Y9385D01*
G01X7459Y9330D02*
G01X7468Y9349D01*
G01X7441Y9321D02*
G01X7459Y9330D01*
G01X7422Y9321D02*
G01X7441Y9321D01*
G01X7404Y9330D02*
G01X7422Y9321D01*
G01X7395Y9358D02*
G01X7404Y9330D01*
G01X7395Y9394D02*
G01X7395Y9358D01*
G04 Draw part C6*
G04 Draw part J2*
G04 Draw part J3*
G04 Draw part J4*
G04 Draw part J5*
G04 Draw part R24*
G04 Draw part R25*
G04 Draw part D10*

G04 Draw traces*

G04 Draw Text*
M00*
M02*
