G04 FreePCB version 1.359*
G04 C:\JPT\Projects\19\1908 - LED Light\FreePCB\Remote\CAM\bottom_copper.grb*
G04 bottom copper layer *
G04 Scale: 100 percent, Rotated: No, Reflected: No *
%FSLAX24Y24*%
%MOIN*%
%LN bottom copper *%
G04 Rounded Rectangle Macro, params: W/2, H/2, R *
%AMRNDREC*
21,1,$1+$1,$2+$2-$3-$3,0,0,0*
21,1,$1+$1-$3-$3,$2+$2,0,0,0*
1,1,$3+$3,$1-$3,$2-$3*
1,1,$3+$3,$3-$1,$2-$3*
1,1,$3+$3,$1-$3,$3-$2*
1,1,$3+$3,$3-$1,$3-$2*%
G04 Rectangular Thermal Macro, params: W/2, H/2, T/2 *
%AMRECTHERM*
$4=$3/2*
21,1,$1-$3,$2-$3,0-$1/2-$4,0-$2/2-$4,0*
21,1,$1-$3,$2-$3,0-$1/2-$4,$2/2+$4,0*
21,1,$1-$3,$2-$3,$1/2+$4,0-$2/2-$4,0*
21,1,$1-$3,$2-$3,$1/2+$4,$2/2+$4,0*%
%AMTHERM10*7,0,0,0.090000,0.070000,0.020000,45.0*%
%ADD10THERM10*%
%ADD11C,0.001000*%
%ADD12C,0.090000*%
%AMTHERM13*7,0,0,0.177480,0.157480,0.020000,45.0*%
%ADD13THERM13*%
%ADD14C,0.177480*%
%ADD15R,0.050000X0.050000*%
%ADD16RECTHERM,0.025000X0.025000X0.010000*%
%ADD17C,0.100000*%
%ADD18R,0.090000X0.090000*%
%ADD19C,0.090866*%
%AMTHERM20*7,0,0,0.090866,0.070866,0.020000,45.0*%
%ADD20THERM20*%
%ADD21C,0.040000*%
%ADD22C,0.048000*%
%ADD23C,0.070000*%
%ADD24C,0.157480*%
%ADD25R,0.030000X0.030000*%
%ADD26C,0.080000*%
%ADD27R,0.070000X0.070000*%
%ADD28C,0.070866*%
%ADD29C,0.276000*%
%ADD30C,0.020000*%
%ADD31C,0.028000*%
G90*
G70D02*

G04 Step and Repeat for panelization *

G04 ----------------------- Draw copper area (positive)*
G36*
G01X23425Y196D02*
G01X196Y196D01*
G01X196Y15551D01*
G01X23425Y15551D01*
G01X23425Y196D01*
G37*

G04 -------------------- Draw copper area clearances (negative)*
%LPC*%

G04 Draw clearances for pads*
G54D10*
G01X21078Y4133D03*
G54D11*
G54D12*
G01X20078Y4133D03*
G01X19078Y4133D03*
G54D13*
G01X2362Y3149D03*
G54D11*
G54D13*
G01X2362Y5511D03*
G54D11*
G54D14*
G01X2362Y10236D03*
G01X2362Y12598D03*
G54D15*
G01X20275Y9936D03*
G01X20275Y10536D03*
G01X19685Y10536D03*
G54D16*
G01X19685Y9936D03*
G54D11*
G54D15*
G01X15748Y2859D03*
G54D16*
G01X15748Y2259D03*
G54D11*
G54D15*
G01X15748Y12888D03*
G54D16*
G01X15748Y13488D03*
G54D11*
G54D15*
G01X12598Y2859D03*
G54D16*
G01X12598Y2259D03*
G54D11*
G54D15*
G01X12598Y12888D03*
G54D16*
G01X12598Y13488D03*
G54D11*
G54D15*
G01X9448Y2859D03*
G54D16*
G01X9448Y2259D03*
G54D11*
G54D15*
G01X9448Y12888D03*
G54D16*
G01X9448Y13488D03*
G54D11*
G54D15*
G01X5511Y10536D03*
G54D16*
G01X5511Y9936D03*
G54D11*
G54D17*
G01X20565Y9154D03*
G01X20565Y6594D03*
G01X18805Y6594D03*
G01X18805Y9154D03*
G01X16628Y7185D03*
G01X16628Y4625D03*
G01X14868Y4625D03*
G01X14868Y7185D03*
G01X16628Y11122D03*
G01X16628Y8562D03*
G01X14868Y8562D03*
G01X14868Y11122D03*
G01X13478Y7185D03*
G01X13478Y4625D03*
G01X11718Y4625D03*
G01X11718Y7185D03*
G01X13478Y11122D03*
G01X13478Y8562D03*
G01X11718Y8562D03*
G01X11718Y11122D03*
G01X10328Y7185D03*
G01X10328Y4625D03*
G01X8568Y4625D03*
G01X8568Y7185D03*
G01X10328Y11122D03*
G01X10328Y8562D03*
G01X8568Y8562D03*
G01X8568Y11122D03*
G01X6391Y9154D03*
G01X6391Y6594D03*
G01X4631Y6594D03*
G01X4631Y9154D03*
G54D15*
G01X16338Y2259D03*
G01X16338Y2859D03*
G01X16338Y13488D03*
G01X16338Y12888D03*
G01X13188Y2259D03*
G01X13188Y2859D03*
G01X13188Y13488D03*
G01X13188Y12888D03*
G01X10039Y2259D03*
G01X10039Y2859D03*
G01X10039Y13488D03*
G01X10039Y12888D03*
G01X6102Y9936D03*
G01X6102Y10536D03*
G54D18*
G01X20685Y5511D03*
G54D12*
G01X18685Y5511D03*
G54D19*
G01X21547Y1377D03*
G54D20*
G01X22547Y1377D03*
G54D11*
G54D18*
G01X16748Y3543D03*
G54D12*
G01X14748Y3543D03*
G54D18*
G01X16748Y12204D03*
G54D12*
G01X14748Y12204D03*
G54D18*
G01X13598Y3543D03*
G54D12*
G01X11598Y3543D03*
G54D18*
G01X13598Y12204D03*
G54D12*
G01X11598Y12204D03*
G54D18*
G01X10448Y3543D03*
G54D12*
G01X8448Y3543D03*
G54D18*
G01X10448Y12204D03*
G54D12*
G01X8448Y12204D03*
G54D18*
G01X7480Y8842D03*
G54D12*
G01X7480Y10842D03*
G54D11*

G04 Draw clearances for traces*
G54D21*
G01X10448Y3543D02*
G01X10328Y3663D01*
G01X10328Y3663D02*
G01X10328Y4625D01*
G01X10039Y2259D02*
G01X10329Y2259D01*
G01X10329Y2259D02*
G01X10551Y2480D01*
G01X10551Y2480D02*
G01X10551Y3440D01*
G01X10551Y3440D02*
G01X10448Y3543D01*
G01X13598Y12204D02*
G01X13478Y12084D01*
G01X13478Y12084D02*
G01X13478Y11122D01*
G01X13188Y13488D02*
G01X13464Y13488D01*
G01X13464Y13488D02*
G01X13598Y13355D01*
G01X13598Y13355D02*
G01X13598Y12204D01*
G01X13188Y2859D02*
G01X12598Y2859D01*
G01X12598Y2859D02*
G01X11431Y2859D01*
G01X11431Y2859D02*
G01X11023Y3267D01*
G01X11023Y3267D02*
G01X11023Y5314D01*
G54D22*
G01X10811Y5526D03*
G54D21*
G01X11023Y5314D02*
G01X10811Y5526D01*
G01X13188Y12888D02*
G01X12598Y12888D01*
G54D22*
G01X11311Y10393D03*
G54D21*
G01X11311Y10393D02*
G01X12087Y10393D01*
G01X12087Y10393D02*
G01X12598Y10905D01*
G01X12598Y10905D02*
G01X12598Y12888D01*
G01X10039Y2859D02*
G01X9448Y2859D01*
G54D22*
G01X10311Y6102D03*
G54D21*
G01X10311Y6102D02*
G01X9448Y5240D01*
G01X9448Y5240D02*
G01X9448Y2859D01*
G01X10039Y12888D02*
G01X9448Y12888D01*
G54D22*
G01X10811Y9645D03*
G54D21*
G01X10811Y9645D02*
G01X9448Y11007D01*
G01X9448Y11007D02*
G01X9448Y12888D01*
G01X20275Y10536D02*
G01X19685Y10536D01*
G54D22*
G01X12811Y9566D03*
G54D21*
G01X12811Y9566D02*
G01X17166Y9566D01*
G01X17166Y9566D02*
G01X18135Y10536D01*
G01X18135Y10536D02*
G01X19685Y10536D01*
G01X16338Y2859D02*
G01X15748Y2859D01*
G54D22*
G01X11311Y6102D03*
G54D21*
G01X11311Y6102D02*
G01X11311Y5736D01*
G01X11311Y5736D02*
G01X11692Y5354D01*
G01X11692Y5354D02*
G01X15236Y5354D01*
G01X15236Y5354D02*
G01X15748Y4842D01*
G01X15748Y4842D02*
G01X15748Y2859D01*
G54D22*
G01X11811Y7874D03*
G01X14311Y1181D03*
G54D21*
G01X16338Y12888D02*
G01X15748Y12888D01*
G54D22*
G01X12311Y10000D03*
G54D21*
G01X12311Y10000D02*
G01X14764Y10000D01*
G01X14764Y10000D02*
G01X15748Y10984D01*
G01X15748Y10984D02*
G01X15748Y12888D01*
G01X20275Y9936D02*
G01X20565Y9646D01*
G01X20565Y9646D02*
G01X20565Y9154D01*
G01X10448Y12204D02*
G01X10328Y12084D01*
G01X10328Y12084D02*
G01X10328Y11122D01*
G01X10039Y13488D02*
G01X10275Y13488D01*
G01X10275Y13488D02*
G01X10448Y13315D01*
G01X10448Y13315D02*
G01X10448Y12204D01*
G01X16748Y3543D02*
G01X16628Y3663D01*
G01X16628Y3663D02*
G01X16628Y4625D01*
G01X16748Y3543D02*
G01X16889Y3401D01*
G01X16889Y3401D02*
G01X16889Y2519D01*
G01X16889Y2519D02*
G01X16629Y2259D01*
G01X16629Y2259D02*
G01X16338Y2259D01*
G01X6102Y9936D02*
G01X6102Y9448D01*
G01X6102Y9448D02*
G01X6377Y9173D01*
G01X6377Y9173D02*
G01X6391Y9154D01*
G01X7480Y8842D02*
G01X7168Y9154D01*
G01X7168Y9154D02*
G01X6391Y9154D01*
G54D22*
G01X11811Y5826D03*
G54D21*
G01X11811Y5826D02*
G01X17385Y5826D01*
G01X17385Y5826D02*
G01X19078Y4133D01*
G54D22*
G01X13311Y1181D03*
G01X14173Y8582D03*
G01X14448Y2440D03*
G01X8661Y1968D03*
G54D21*
G01X20685Y5511D02*
G01X20565Y5631D01*
G01X20565Y5631D02*
G01X20565Y6594D01*
G54D22*
G01X4724Y7730D03*
G54D21*
G01X2362Y12598D02*
G01X2362Y10236D01*
G01X8568Y7185D02*
G01X9257Y7874D01*
G01X9257Y7874D02*
G01X11029Y7874D01*
G01X11029Y7874D02*
G01X11718Y7185D01*
G01X11718Y8562D02*
G01X11029Y7874D01*
G01X8568Y8562D02*
G01X9257Y7874D01*
G01X11718Y8562D02*
G01X12406Y7874D01*
G01X12406Y7874D02*
G01X14179Y7874D01*
G01X14179Y7874D02*
G01X14868Y8562D01*
G01X14868Y7185D02*
G01X14179Y7874D01*
G01X11718Y7185D02*
G01X12406Y7874D01*
G01X18805Y6594D02*
G01X17525Y7874D01*
G01X17525Y7874D02*
G01X15556Y7874D01*
G01X15556Y7874D02*
G01X14868Y7185D01*
G01X14868Y8562D02*
G01X15556Y7874D01*
G01X4631Y9154D02*
G01X3549Y10236D01*
G01X3549Y10236D02*
G01X2362Y10236D01*
G01X4631Y9154D02*
G01X5911Y7874D01*
G01X5911Y7874D02*
G01X7880Y7874D01*
G01X7880Y7874D02*
G01X8568Y8562D01*
G01X8568Y7185D02*
G01X7880Y7874D01*
G01X13598Y3543D02*
G01X13478Y3663D01*
G01X13478Y3663D02*
G01X13478Y4625D01*
G01X13188Y2259D02*
G01X13479Y2259D01*
G01X13479Y2259D02*
G01X13700Y2480D01*
G01X13700Y2480D02*
G01X13700Y3440D01*
G01X13700Y3440D02*
G01X13598Y3543D01*
G01X6102Y10536D02*
G01X5511Y10536D01*
G54D22*
G01X7086Y9842D03*
G54D21*
G01X7086Y9842D02*
G01X6392Y10536D01*
G01X6392Y10536D02*
G01X6102Y10536D01*
G01X16748Y12204D02*
G01X16628Y12084D01*
G01X16628Y12084D02*
G01X16628Y11122D01*
G01X16338Y13488D02*
G01X16574Y13488D01*
G01X16574Y13488D02*
G01X16748Y13315D01*
G01X16748Y13315D02*
G01X16748Y12204D01*

G04 Draw clearances for text*

G04 -------------- Draw Parts, Pads, Traces, Vias and Text (positive)*
%LPD*%
G04 Draw part U3*
G04 Draw part R3*
G04 Draw part U2*
G04 Draw part C3*
G04 Draw part C4*
G04 Draw part R5*
G04 Draw part U1*
G04 Draw part C2*
G04 Draw part R4*
G04 Draw part C5*
G04 Draw part R1*
G04 Draw part U4*
G54D23*
G01X21078Y4133D03*
G01X20078Y4133D03*
G01X19078Y4133D03*
G04 Draw part R2*
G04 Draw part R6*
G04 Draw part J1*
G54D24*
G01X2362Y3149D03*
G01X2362Y5511D03*
G01X2362Y10236D03*
G01X2362Y12598D03*
G04 Draw part C1*
G04 Draw part R7*
G54D25*
G01X20275Y9936D03*
G01X20275Y10536D03*
G04 Draw part R8*
G01X19685Y10536D03*
G01X19685Y9936D03*
G04 Draw part R10*
G01X15748Y2859D03*
G01X15748Y2259D03*
G04 Draw part R12*
G01X15748Y12888D03*
G01X15748Y13488D03*
G04 Draw part R14*
G01X12598Y2859D03*
G01X12598Y2259D03*
G04 Draw part R16*
G01X12598Y12888D03*
G01X12598Y13488D03*
G04 Draw part R18*
G01X9448Y2859D03*
G01X9448Y2259D03*
G04 Draw part R20*
G01X9448Y12888D03*
G01X9448Y13488D03*
G04 Draw part R22*
G01X5511Y10536D03*
G01X5511Y9936D03*
G04 Draw part S1*
G54D26*
G01X20565Y9154D03*
G01X20565Y6594D03*
G01X18805Y6594D03*
G01X18805Y9154D03*
G04 Draw part S2*
G01X16628Y7185D03*
G01X16628Y4625D03*
G01X14868Y4625D03*
G01X14868Y7185D03*
G04 Draw part S3*
G01X16628Y11122D03*
G01X16628Y8562D03*
G01X14868Y8562D03*
G01X14868Y11122D03*
G04 Draw part S4*
G01X13478Y7185D03*
G01X13478Y4625D03*
G01X11718Y4625D03*
G01X11718Y7185D03*
G04 Draw part S5*
G01X13478Y11122D03*
G01X13478Y8562D03*
G01X11718Y8562D03*
G01X11718Y11122D03*
G04 Draw part S6*
G01X10328Y7185D03*
G01X10328Y4625D03*
G01X8568Y4625D03*
G01X8568Y7185D03*
G04 Draw part S7*
G01X10328Y11122D03*
G01X10328Y8562D03*
G01X8568Y8562D03*
G01X8568Y11122D03*
G04 Draw part S8*
G01X6391Y9154D03*
G01X6391Y6594D03*
G01X4631Y6594D03*
G01X4631Y9154D03*
G04 Draw part R9*
G54D25*
G01X16338Y2259D03*
G01X16338Y2859D03*
G04 Draw part R11*
G01X16338Y13488D03*
G01X16338Y12888D03*
G04 Draw part R13*
G01X13188Y2259D03*
G01X13188Y2859D03*
G04 Draw part R15*
G01X13188Y13488D03*
G01X13188Y12888D03*
G04 Draw part R17*
G01X10039Y2259D03*
G01X10039Y2859D03*
G04 Draw part R19*
G01X10039Y13488D03*
G01X10039Y12888D03*
G04 Draw part R21*
G01X6102Y9936D03*
G01X6102Y10536D03*
G04 Draw part R23*
G04 Draw part D1*
G54D27*
G01X20685Y5511D03*
G54D23*
G01X18685Y5511D03*
G04 Draw part D9*
G54D28*
G01X21547Y1377D03*
G01X22547Y1377D03*
G04 Draw part D2*
G54D27*
G01X16748Y3543D03*
G54D23*
G01X14748Y3543D03*
G04 Draw part D3*
G54D27*
G01X16748Y12204D03*
G54D23*
G01X14748Y12204D03*
G04 Draw part D4*
G54D27*
G01X13598Y3543D03*
G54D23*
G01X11598Y3543D03*
G04 Draw part D5*
G54D27*
G01X13598Y12204D03*
G54D23*
G01X11598Y12204D03*
G04 Draw part D6*
G54D27*
G01X10448Y3543D03*
G54D23*
G01X8448Y3543D03*
G04 Draw part D7*
G54D27*
G01X10448Y12204D03*
G54D23*
G01X8448Y12204D03*
G04 Draw part D8*
G54D27*
G01X7480Y8842D03*
G54D23*
G01X7480Y10842D03*
G04 Draw part C6*
G04 Draw part J2*
G54D29*
G01X18503Y1968D03*
G04 Draw part J3*
G01X5905Y1968D03*
G04 Draw part J4*
G01X5905Y13779D03*
G04 Draw part J5*
G01X21653Y13779D03*
G04 Draw part R24*
G04 Draw part R25*

G04 Draw traces*
G54D30*
G01X10448Y3543D02*
G01X10328Y3663D01*
G01X10328Y3663D02*
G01X10328Y4625D01*
G01X10039Y2259D02*
G01X10329Y2259D01*
G01X10329Y2259D02*
G01X10551Y2480D01*
G01X10551Y2480D02*
G01X10551Y3440D01*
G01X10551Y3440D02*
G01X10448Y3543D01*
G01X13598Y12204D02*
G01X13478Y12084D01*
G01X13478Y12084D02*
G01X13478Y11122D01*
G01X13188Y13488D02*
G01X13464Y13488D01*
G01X13464Y13488D02*
G01X13598Y13355D01*
G01X13598Y13355D02*
G01X13598Y12204D01*
G01X13188Y2859D02*
G01X12598Y2859D01*
G01X12598Y2859D02*
G01X11431Y2859D01*
G01X11431Y2859D02*
G01X11023Y3267D01*
G01X11023Y3267D02*
G01X11023Y5314D01*
G01X11023Y5314D02*
G01X10811Y5526D01*
G54D31*
G01X10811Y5526D03*
G54D30*
G01X13188Y12888D02*
G01X12598Y12888D01*
G54D31*
G01X11311Y10393D03*
G54D30*
G01X11311Y10393D02*
G01X12087Y10393D01*
G01X12087Y10393D02*
G01X12598Y10905D01*
G01X12598Y10905D02*
G01X12598Y12888D01*
G01X10039Y2859D02*
G01X9448Y2859D01*
G54D31*
G01X10311Y6102D03*
G54D30*
G01X10311Y6102D02*
G01X9448Y5240D01*
G01X9448Y5240D02*
G01X9448Y2859D01*
G01X10039Y12888D02*
G01X9448Y12888D01*
G54D31*
G01X10811Y9645D03*
G54D30*
G01X10811Y9645D02*
G01X9448Y11007D01*
G01X9448Y11007D02*
G01X9448Y12888D01*
G01X20275Y10536D02*
G01X19685Y10536D01*
G54D31*
G01X12811Y9566D03*
G54D30*
G01X12811Y9566D02*
G01X17166Y9566D01*
G01X17166Y9566D02*
G01X18135Y10536D01*
G01X18135Y10536D02*
G01X19685Y10536D01*
G54D31*
G01X12311Y1181D03*
G54D30*
G01X12311Y1181D02*
G01X12598Y1468D01*
G01X12598Y1468D02*
G01X12598Y2259D01*
G54D31*
G01X15748Y684D03*
G01X14448Y2913D03*
G01X8661Y2440D03*
G54D30*
G01X8661Y2440D02*
G01X8843Y2259D01*
G01X8843Y2259D02*
G01X9448Y2259D01*
G01X9448Y13488D02*
G01X9448Y13818D01*
G54D31*
G01X9448Y13818D03*
G54D30*
G01X12598Y13488D02*
G01X12598Y13818D01*
G54D31*
G01X12598Y13818D03*
G54D30*
G01X15748Y13488D02*
G01X15748Y13818D01*
G54D31*
G01X15748Y13818D03*
G54D30*
G01X19685Y9936D02*
G01X19685Y9566D01*
G54D31*
G01X19685Y9566D03*
G54D30*
G01X15748Y2259D02*
G01X15748Y1929D01*
G54D31*
G01X15748Y1929D03*
G01X13311Y6220D03*
G54D30*
G01X16338Y2859D02*
G01X15748Y2859D01*
G54D31*
G01X11311Y6102D03*
G54D30*
G01X11311Y6102D02*
G01X11311Y5736D01*
G01X11311Y5736D02*
G01X11692Y5354D01*
G01X11692Y5354D02*
G01X15236Y5354D01*
G01X15236Y5354D02*
G01X15748Y4842D01*
G01X15748Y4842D02*
G01X15748Y2859D01*
G54D31*
G01X11811Y7874D03*
G01X14311Y1181D03*
G54D30*
G01X16338Y12888D02*
G01X15748Y12888D01*
G54D31*
G01X12311Y10000D03*
G54D30*
G01X12311Y10000D02*
G01X14764Y10000D01*
G01X14764Y10000D02*
G01X15748Y10984D01*
G01X15748Y10984D02*
G01X15748Y12888D01*
G01X20275Y9936D02*
G01X20565Y9646D01*
G01X20565Y9646D02*
G01X20565Y9154D01*
G01X10448Y12204D02*
G01X10328Y12084D01*
G01X10328Y12084D02*
G01X10328Y11122D01*
G01X10039Y13488D02*
G01X10275Y13488D01*
G01X10275Y13488D02*
G01X10448Y13315D01*
G01X10448Y13315D02*
G01X10448Y12204D01*
G01X16748Y3543D02*
G01X16628Y3663D01*
G01X16628Y3663D02*
G01X16628Y4625D01*
G01X16748Y3543D02*
G01X16889Y3401D01*
G01X16889Y3401D02*
G01X16889Y2519D01*
G01X16889Y2519D02*
G01X16629Y2259D01*
G01X16629Y2259D02*
G01X16338Y2259D01*
G01X6102Y9936D02*
G01X6102Y9448D01*
G01X6102Y9448D02*
G01X6377Y9173D01*
G01X6377Y9173D02*
G01X6391Y9154D01*
G01X7480Y8842D02*
G01X7168Y9154D01*
G01X7168Y9154D02*
G01X6391Y9154D01*
G54D31*
G01X11811Y5826D03*
G54D30*
G01X11811Y5826D02*
G01X17385Y5826D01*
G01X17385Y5826D02*
G01X19078Y4133D01*
G54D31*
G01X13311Y1181D03*
G01X14173Y8582D03*
G01X14448Y2440D03*
G01X8661Y1968D03*
G54D30*
G01X20685Y5511D02*
G01X20565Y5631D01*
G01X20565Y5631D02*
G01X20565Y6594D01*
G54D31*
G01X4724Y7730D03*
G54D30*
G01X2362Y12598D02*
G01X2362Y10236D01*
G01X8568Y7185D02*
G01X9257Y7874D01*
G01X9257Y7874D02*
G01X11029Y7874D01*
G01X11029Y7874D02*
G01X11718Y7185D01*
G01X11718Y8562D02*
G01X11029Y7874D01*
G01X8568Y8562D02*
G01X9257Y7874D01*
G01X11718Y8562D02*
G01X12406Y7874D01*
G01X12406Y7874D02*
G01X14179Y7874D01*
G01X14179Y7874D02*
G01X14868Y8562D01*
G01X14868Y7185D02*
G01X14179Y7874D01*
G01X11718Y7185D02*
G01X12406Y7874D01*
G01X18805Y6594D02*
G01X17525Y7874D01*
G01X17525Y7874D02*
G01X15556Y7874D01*
G01X15556Y7874D02*
G01X14868Y7185D01*
G01X14868Y8562D02*
G01X15556Y7874D01*
G01X4631Y9154D02*
G01X3549Y10236D01*
G01X3549Y10236D02*
G01X2362Y10236D01*
G01X4631Y9154D02*
G01X5911Y7874D01*
G01X5911Y7874D02*
G01X7880Y7874D01*
G01X7880Y7874D02*
G01X8568Y8562D01*
G01X8568Y7185D02*
G01X7880Y7874D01*
G01X13598Y3543D02*
G01X13478Y3663D01*
G01X13478Y3663D02*
G01X13478Y4625D01*
G01X13188Y2259D02*
G01X13479Y2259D01*
G01X13479Y2259D02*
G01X13700Y2480D01*
G01X13700Y2480D02*
G01X13700Y3440D01*
G01X13700Y3440D02*
G01X13598Y3543D01*
G01X6102Y10536D02*
G01X5511Y10536D01*
G54D31*
G01X7086Y9842D03*
G54D30*
G01X7086Y9842D02*
G01X6392Y10536D01*
G01X6392Y10536D02*
G01X6102Y10536D01*
G01X16748Y12204D02*
G01X16628Y12084D01*
G01X16628Y12084D02*
G01X16628Y11122D01*
G01X16338Y13488D02*
G01X16574Y13488D01*
G01X16574Y13488D02*
G01X16748Y13315D01*
G01X16748Y13315D02*
G01X16748Y12204D01*

G04 Draw Text*
M00*
M02*
