;Holesize 1 =   32.0 PLATED MILS
;Holesize 2 =   70.0 PLATED MILS
;Holesize 3 =   40.0 PLATED MILS
;Holesize 4 =   31.0 PLATED MILS
;Holesize 5 =  138.0 PLATED MILS
;Holesize 6 =   12.0 PLATED MILS
M48
INCH,00.0000
T01C0.032
T02C0.070
T03C0.040
T04C0.031
T05C0.138
T06C0.012
%
G05
G90
T01
X021078Y004133
X020078Y004133
X019078Y004133
T02
X002362Y003149
X002362Y005511
X002362Y010236
X002362Y012598
T03
X020685Y005511
X018685Y005511
X016748Y003543
X014748Y003543
X016748Y012204
X014748Y012204
X013598Y003543
X011598Y003543
X013598Y012204
X011598Y012204
X010448Y003543
X008448Y003543
X010448Y012204
X008448Y012204
X007480Y008842
X007480Y010842
T04
X021547Y001377
X022547Y001377
T05
X018503Y001968
X005905Y001968
X005905Y013779
X021653Y013779
T06
X010811Y005526
X011311Y010393
X010311Y006102
X010811Y009645
X012811Y009566
X012311Y001181
X015157Y013976
X010039Y013976
X015748Y000684
X014448Y002913
X008661Y002440
X009448Y013818
X012598Y013818
X015748Y013818
X019685Y009566
X015748Y001929
X013311Y006220
X011311Y006102
X011811Y007874
X014311Y001181
X012311Y010000
X011811Y005826
X013311Y001181
X014173Y008582
X014448Y002440
X008661Y001968
X004724Y007730
X007086Y009842
M30
