%FSLAX24Y24*MOIN*%
%ADD11C,0.032*%
%ADD12C,0.070*%
%ADD13C,0.040*%
%ADD14C,0.031*%
%ADD15C,0.138*%
%ADD16C,0.012*%
%LPD*%
G01*
G01*
D11*
X21078Y4133D03*
X20078D03*
X19078D03*
D12*
X2362Y3149D03*
Y5511D03*
Y10236D03*
Y12598D03*
D13*
X20685Y5511D03*
X18685D03*
X16748Y3543D03*
X14748D03*
X16748Y12204D03*
X14748D03*
X13598Y3543D03*
X11598D03*
X13598Y12204D03*
X11598D03*
X10448Y3543D03*
X8448D03*
X10448Y12204D03*
X8448D03*
X7480Y8842D03*
Y10842D03*
X3362Y1181D03*
X1362D03*
D14*
X21547Y1377D03*
X22547D03*
D15*
X18503Y1968D03*
X5905D03*
Y13779D03*
X21653D03*
D16*
X10811Y5526D03*
X11311Y10393D03*
X10311Y6102D03*
X10811Y9645D03*
X12811Y9566D03*
X12311Y1181D03*
X15748Y684D03*
X14448Y2913D03*
X8661Y2440D03*
X9448Y13818D03*
X12598D03*
X15748D03*
X19685Y9566D03*
X15748Y1929D03*
X13311Y6220D03*
X6299Y8425D03*
X11311Y6102D03*
X11811Y7874D03*
X14311Y1181D03*
X12311Y10000D03*
X11811Y5826D03*
X13311Y1181D03*
X14173Y8582D03*
X14448Y2440D03*
X8661Y1968D03*
X4724Y7730D03*
X7086Y9842D03*
M02*
