G04 FreePCB version 1.359*
G04 C:\JPT\Projects\19\1908 - LED Light\FreePCB\Remote\CAM\top_solder_mask.grb*
G04 top solder mask layer *
G04 Scale: 100 percent, Rotated: No, Reflected: No *
%FSLAX24Y24*%
%MOIN*%
%LN top solder mask *%
G04 Rounded Rectangle Macro, params: W/2, H/2, R *
%AMRNDREC*
21,1,$1+$1,$2+$2-$3-$3,0,0,0*
21,1,$1+$1-$3-$3,$2+$2,0,0,0*
1,1,$3+$3,$1-$3,$2-$3*
1,1,$3+$3,$3-$1,$2-$3*
1,1,$3+$3,$1-$3,$3-$2*
1,1,$3+$3,$3-$1,$3-$2*%
G04 Rectangular Thermal Macro, params: W/2, H/2, T/2 *
%AMRECTHERM*
$4=$3/2*
21,1,$1-$3,$2-$3,0-$1/2-$4,0-$2/2-$4,0*
21,1,$1-$3,$2-$3,0-$1/2-$4,$2/2+$4,0*
21,1,$1-$3,$2-$3,$1/2+$4,0-$2/2-$4,0*
21,1,$1-$3,$2-$3,$1/2+$4,$2/2+$4,0*%
%ADD10R,0.052000X0.152000*%
%ADD11R,0.032000X0.032000*%
%ADD12R,0.021685X0.061055*%
%ADD13R,0.042000X0.062000*%
%ADD14R,0.252000X0.252000*%
%ADD15R,0.139795X0.041370*%
%ADD16R,0.072000X0.072000*%
%ADD17C,0.072000*%
%ADD18C,0.159480*%
%ADD19C,0.072866*%
%ADD20C,0.278000*%
%ADD21C,0.030000*%
G90*
G70D02*

G04 Step and Repeat for panelization *

G04 -------------- Draw Parts, Pads, Traces, Vias and Text (positive)*
%LPD*%
G04 Draw part U3*
G54D10*
G01X14311Y787D03*
G01X13311Y787D03*
G01X12311Y787D03*
G01X11311Y787D03*
G01X10311Y787D03*
G01X9311Y787D03*
G04 Draw part R3*
G54D11*
G01X14079Y2440D03*
G01X13479Y2440D03*
G04 Draw part U2*
G54D12*
G01X12311Y9055D03*
G01X11811Y9055D03*
G01X11311Y9055D03*
G01X10811Y9055D03*
G01X10811Y6692D03*
G01X11311Y6692D03*
G01X11811Y6692D03*
G01X12311Y6692D03*
G01X12811Y9055D03*
G01X12811Y6692D03*
G01X10311Y9055D03*
G01X10311Y6692D03*
G01X13311Y9055D03*
G01X13311Y6692D03*
G04 Draw part C3*
G54D11*
G01X13976Y8174D03*
G01X13976Y7574D03*
G04 Draw part C4*
G01X15354Y1284D03*
G01X15354Y684D03*
G04 Draw part R5*
G01X9700Y1968D03*
G01X10300Y1968D03*
G04 Draw part U1*
G54D13*
G01X7209Y7730D03*
G01X6299Y7730D03*
G01X5389Y7730D03*
G54D14*
G01X6299Y5025D03*
G04 Draw part C2*
G54D15*
G01X16732Y13976D03*
G01X14763Y13976D03*
G04 Draw part R4*
G54D11*
G01X13479Y2913D03*
G01X14079Y2913D03*
G04 Draw part C5*
G01X20251Y3267D03*
G01X20851Y3267D03*
G04 Draw part R1*
G01X13479Y1968D03*
G01X14079Y1968D03*
G04 Draw part U4*
G54D16*
G01X21078Y4133D03*
G54D17*
G01X20078Y4133D03*
G01X19078Y4133D03*
G04 Draw part R2*
G54D11*
G01X14660Y1968D03*
G01X15260Y1968D03*
G04 Draw part R6*
G01X10300Y2440D03*
G01X9700Y2440D03*
G04 Draw part J1*
G54D18*
G01X2362Y3149D03*
G01X2362Y5511D03*
G01X2362Y10236D03*
G01X2362Y12598D03*
G04 Draw part C1*
G54D15*
G01X8464Y13976D03*
G01X10433Y13976D03*
G04 Draw part R7*
G04 Draw part R8*
G04 Draw part R10*
G04 Draw part R12*
G04 Draw part R14*
G04 Draw part R16*
G04 Draw part R18*
G04 Draw part R20*
G04 Draw part R22*
G04 Draw part S1*
G04 Draw part S2*
G04 Draw part S3*
G04 Draw part S4*
G04 Draw part S5*
G04 Draw part S6*
G04 Draw part S7*
G04 Draw part S8*
G04 Draw part R9*
G04 Draw part R11*
G04 Draw part R13*
G04 Draw part R15*
G04 Draw part R17*
G04 Draw part R19*
G04 Draw part R21*
G04 Draw part R23*
G54D11*
G01X20251Y1377D03*
G01X20851Y1377D03*
G04 Draw part D1*
G54D16*
G01X20685Y5511D03*
G54D17*
G01X18685Y5511D03*
G04 Draw part D9*
G54D19*
G01X21547Y1377D03*
G01X22547Y1377D03*
G04 Draw part D2*
G54D16*
G01X16748Y3543D03*
G54D17*
G01X14748Y3543D03*
G04 Draw part D3*
G54D16*
G01X16748Y12204D03*
G54D17*
G01X14748Y12204D03*
G04 Draw part D4*
G54D16*
G01X13598Y3543D03*
G54D17*
G01X11598Y3543D03*
G04 Draw part D5*
G54D16*
G01X13598Y12204D03*
G54D17*
G01X11598Y12204D03*
G04 Draw part D6*
G54D16*
G01X10448Y3543D03*
G54D17*
G01X8448Y3543D03*
G04 Draw part D7*
G54D16*
G01X10448Y12204D03*
G54D17*
G01X8448Y12204D03*
G04 Draw part D8*
G54D16*
G01X7480Y8842D03*
G54D17*
G01X7480Y10842D03*
G04 Draw part C6*
G54D11*
G01X5511Y10536D03*
G01X5511Y9936D03*
G04 Draw part J2*
G54D20*
G01X18503Y1968D03*
G04 Draw part J3*
G01X5905Y1968D03*
G04 Draw part J4*
G01X5905Y13779D03*
G04 Draw part J5*
G01X21653Y13779D03*
G04 Draw part R24*
G54D11*
G01X7780Y12204D03*
G01X7180Y12204D03*
G04 Draw part R25*
G01X7874Y1481D03*
G01X7874Y881D03*

G04 Draw traces*
G54D21*
G01X10811Y5526D03*
G01X11311Y10393D03*
G01X10311Y6102D03*
G01X10811Y9645D03*
G01X12811Y9566D03*
G01X12311Y1181D03*
G01X15748Y684D03*
G01X14448Y2913D03*
G01X8661Y2440D03*
G01X9448Y13818D03*
G01X12598Y13818D03*
G01X15748Y13818D03*
G01X19685Y9566D03*
G01X15748Y1929D03*
G01X13311Y6220D03*
G01X11311Y6102D03*
G01X11811Y7874D03*
G01X14311Y1181D03*
G01X12311Y10000D03*
G01X11811Y5826D03*
G01X13311Y1181D03*
G01X14173Y8582D03*
G01X14448Y2440D03*
G01X8661Y1968D03*
G01X4724Y7730D03*
G01X7086Y9842D03*

G04 Draw Text*

G04 Draw solder mask cutouts*
M00*
M02*
