G04 FreePCB version 1.359*
G04 C:\JPT\Projects\19\1908 - LED Light\FreePCB\Remote\CAM\top_silk.grb*
G04 top silk layer *
G04 Scale: 100 percent, Rotated: No, Reflected: No *
%FSLAX24Y24*%
%MOIN*%
%LN top silk *%
G04 Rounded Rectangle Macro, params: W/2, H/2, R *
%AMRNDREC*
21,1,$1+$1,$2+$2-$3-$3,0,0,0*
21,1,$1+$1-$3-$3,$2+$2,0,0,0*
1,1,$3+$3,$1-$3,$2-$3*
1,1,$3+$3,$3-$1,$2-$3*
1,1,$3+$3,$1-$3,$3-$2*
1,1,$3+$3,$3-$1,$3-$2*%
G04 Rectangular Thermal Macro, params: W/2, H/2, T/2 *
%AMRECTHERM*
$4=$3/2*
21,1,$1-$3,$2-$3,0-$1/2-$4,0-$2/2-$4,0*
21,1,$1-$3,$2-$3,0-$1/2-$4,$2/2+$4,0*
21,1,$1-$3,$2-$3,$1/2+$4,0-$2/2-$4,0*
21,1,$1-$3,$2-$3,$1/2+$4,$2/2+$4,0*%
%ADD10C,0.008000*%
%ADD11C,0.004000*%
%ADD12C,0.007000*%
%ADD13C,0.010000*%
G90*
G70D02*

G04 Step and Repeat for panelization *

G04 -------------- Draw Parts, Pads, Traces, Vias and Text (positive)*
%LPD*%
G04 Draw part U3*
G04 draw part outline for part U3*
G54D10*
G01X14811Y87D02*
G01X14811Y1487D01*
G04 draw value for part U3*
G54D11*
G01X8594Y36D02*
G01X8881Y36D01*
G01X8594Y158D02*
G01X8594Y36D01*
G01X8594Y158D02*
G01X8608Y199D01*
G01X8608Y199D02*
G01X8621Y213D01*
G01X8621Y213D02*
G01X8649Y226D01*
G01X8649Y226D02*
G01X8690Y226D01*
G01X8690Y226D02*
G01X8717Y213D01*
G01X8717Y213D02*
G01X8731Y199D01*
G01X8731Y199D02*
G01X8744Y158D01*
G01X8744Y36D02*
G01X8744Y158D01*
G01X8594Y336D02*
G01X8881Y336D01*
G01X8635Y636D02*
G01X8662Y649D01*
G01X8608Y608D02*
G01X8635Y636D01*
G01X8594Y581D02*
G01X8608Y608D01*
G01X8594Y526D02*
G01X8594Y581D01*
G01X8594Y526D02*
G01X8608Y499D01*
G01X8608Y499D02*
G01X8635Y472D01*
G01X8635Y472D02*
G01X8662Y458D01*
G01X8662Y458D02*
G01X8703Y445D01*
G01X8703Y445D02*
G01X8771Y445D01*
G01X8771Y445D02*
G01X8812Y458D01*
G01X8812Y458D02*
G01X8840Y472D01*
G01X8840Y472D02*
G01X8867Y499D01*
G01X8867Y499D02*
G01X8881Y526D01*
G01X8881Y581D02*
G01X8881Y526D01*
G01X8867Y608D02*
G01X8881Y581D01*
G01X8840Y636D02*
G01X8867Y608D01*
G01X8812Y649D02*
G01X8840Y636D01*
G01X8594Y758D02*
G01X8881Y758D01*
G01X8690Y895D02*
G01X8826Y758D01*
G01X8771Y813D02*
G01X8881Y908D01*
G01X8594Y1017D02*
G01X8608Y1031D01*
G01X8594Y1045D02*
G01X8608Y1031D01*
G01X8581Y1031D02*
G01X8594Y1045D01*
G01X8581Y1031D02*
G01X8594Y1017D01*
G01X8690Y1031D02*
G01X8881Y1031D01*
G01X8594Y1195D02*
G01X8826Y1195D01*
G01X8826Y1195D02*
G01X8867Y1208D01*
G01X8867Y1208D02*
G01X8881Y1236D01*
G01X8881Y1263D02*
G01X8881Y1236D01*
G01X8690Y1249D02*
G01X8690Y1154D01*
G01X8594Y1549D02*
G01X8594Y1399D01*
G01X8594Y1549D02*
G01X8703Y1467D01*
G01X8703Y1508D02*
G01X8703Y1467D01*
G01X8703Y1508D02*
G01X8717Y1536D01*
G01X8717Y1536D02*
G01X8731Y1549D01*
G01X8731Y1549D02*
G01X8771Y1563D01*
G01X8771Y1563D02*
G01X8799Y1563D01*
G01X8799Y1563D02*
G01X8840Y1549D01*
G01X8840Y1549D02*
G01X8867Y1522D01*
G01X8867Y1522D02*
G01X8881Y1481D01*
G01X8881Y1440D02*
G01X8881Y1481D01*
G01X8867Y1399D02*
G01X8881Y1440D01*
G01X8853Y1386D02*
G01X8867Y1399D01*
G01X8826Y1372D02*
G01X8853Y1386D01*
G04 Draw part R3*
G04 draw part outline for part R3*
G04 draw value for part R3*
G01X13713Y2149D02*
G01X13722Y2131D01*
G01X13686Y2176D02*
G01X13713Y2149D01*
G01X13686Y2176D02*
G01X13877Y2176D01*
G01X13686Y2303D02*
G01X13695Y2276D01*
G01X13695Y2276D02*
G01X13722Y2258D01*
G01X13722Y2258D02*
G01X13767Y2249D01*
G01X13767Y2249D02*
G01X13795Y2249D01*
G01X13795Y2249D02*
G01X13840Y2258D01*
G01X13840Y2258D02*
G01X13867Y2276D01*
G01X13867Y2276D02*
G01X13877Y2303D01*
G01X13877Y2321D02*
G01X13877Y2303D01*
G01X13867Y2349D02*
G01X13877Y2321D01*
G01X13840Y2367D02*
G01X13867Y2349D01*
G01X13795Y2376D02*
G01X13840Y2367D01*
G01X13767Y2376D02*
G01X13795Y2376D01*
G01X13722Y2367D02*
G01X13767Y2376D01*
G01X13695Y2349D02*
G01X13722Y2367D01*
G01X13686Y2321D02*
G01X13695Y2349D01*
G01X13686Y2303D02*
G01X13686Y2321D01*
G01X13686Y2449D02*
G01X13877Y2449D01*
G01X13749Y2540D02*
G01X13840Y2449D01*
G01X13804Y2485D02*
G01X13877Y2549D01*
G04 Draw part U2*
G04 draw part outline for part U2*
G54D12*
G01X13545Y8661D02*
G01X10076Y8661D01*
G01X10076Y8661D02*
G01X10076Y7086D01*
G01X10076Y7086D02*
G01X13545Y7086D01*
G01X13545Y7086D02*
G01X13545Y7677D01*
G01X13545Y7677D02*
G01X13348Y7677D01*
G01X13348Y7677D02*
G01X13348Y8070D01*
G01X13348Y8070D02*
G01X13545Y8070D01*
G01X13545Y8070D02*
G01X13545Y8661D01*
G04 draw value for part U2*
G54D11*
G01X10740Y8410D02*
G01X10740Y8124D01*
G01X10862Y8410D02*
G01X10740Y8410D01*
G01X10862Y8410D02*
G01X10903Y8396D01*
G01X10903Y8396D02*
G01X10917Y8383D01*
G01X10917Y8383D02*
G01X10930Y8355D01*
G01X10930Y8355D02*
G01X10930Y8314D01*
G01X10930Y8314D02*
G01X10917Y8287D01*
G01X10917Y8287D02*
G01X10903Y8274D01*
G01X10903Y8274D02*
G01X10862Y8260D01*
G01X10740Y8260D02*
G01X10862Y8260D01*
G01X11040Y8410D02*
G01X11040Y8124D01*
G01X11340Y8369D02*
G01X11353Y8342D01*
G01X11312Y8396D02*
G01X11340Y8369D01*
G01X11285Y8410D02*
G01X11312Y8396D01*
G01X11230Y8410D02*
G01X11285Y8410D01*
G01X11230Y8410D02*
G01X11203Y8396D01*
G01X11203Y8396D02*
G01X11176Y8369D01*
G01X11176Y8369D02*
G01X11162Y8342D01*
G01X11162Y8342D02*
G01X11149Y8301D01*
G01X11149Y8301D02*
G01X11149Y8233D01*
G01X11149Y8233D02*
G01X11162Y8192D01*
G01X11162Y8192D02*
G01X11176Y8164D01*
G01X11176Y8164D02*
G01X11203Y8137D01*
G01X11203Y8137D02*
G01X11230Y8124D01*
G01X11285Y8124D02*
G01X11230Y8124D01*
G01X11312Y8137D02*
G01X11285Y8124D01*
G01X11340Y8164D02*
G01X11312Y8137D01*
G01X11353Y8192D02*
G01X11340Y8164D01*
G01X11490Y8369D02*
G01X11462Y8355D01*
G01X11530Y8410D02*
G01X11490Y8369D01*
G01X11530Y8410D02*
G01X11530Y8124D01*
G01X11790Y8396D02*
G01X11803Y8369D01*
G01X11749Y8410D02*
G01X11790Y8396D01*
G01X11721Y8410D02*
G01X11749Y8410D01*
G01X11721Y8410D02*
G01X11680Y8396D01*
G01X11680Y8396D02*
G01X11653Y8355D01*
G01X11653Y8355D02*
G01X11640Y8287D01*
G01X11640Y8287D02*
G01X11640Y8219D01*
G01X11640Y8219D02*
G01X11653Y8164D01*
G01X11653Y8164D02*
G01X11680Y8137D01*
G01X11680Y8137D02*
G01X11721Y8124D01*
G01X11735Y8124D02*
G01X11721Y8124D01*
G01X11776Y8137D02*
G01X11735Y8124D01*
G01X11803Y8164D02*
G01X11776Y8137D01*
G01X11817Y8205D02*
G01X11803Y8164D01*
G01X11817Y8219D02*
G01X11817Y8205D01*
G01X11803Y8260D02*
G01X11817Y8219D01*
G01X11776Y8287D02*
G01X11803Y8260D01*
G01X11735Y8301D02*
G01X11776Y8287D01*
G01X11721Y8301D02*
G01X11735Y8301D01*
G01X11721Y8301D02*
G01X11680Y8287D01*
G01X11680Y8287D02*
G01X11653Y8260D01*
G01X11653Y8260D02*
G01X11640Y8219D01*
G01X11926Y8410D02*
G01X11926Y8124D01*
G01X12103Y8410D02*
G01X11926Y8410D01*
G01X12035Y8274D02*
G01X11926Y8274D01*
G01X12362Y8396D02*
G01X12376Y8369D01*
G01X12321Y8410D02*
G01X12362Y8396D01*
G01X12294Y8410D02*
G01X12321Y8410D01*
G01X12294Y8410D02*
G01X12253Y8396D01*
G01X12253Y8396D02*
G01X12226Y8355D01*
G01X12226Y8355D02*
G01X12212Y8287D01*
G01X12212Y8287D02*
G01X12212Y8219D01*
G01X12212Y8219D02*
G01X12226Y8164D01*
G01X12226Y8164D02*
G01X12253Y8137D01*
G01X12253Y8137D02*
G01X12294Y8124D01*
G01X12308Y8124D02*
G01X12294Y8124D01*
G01X12349Y8137D02*
G01X12308Y8124D01*
G01X12376Y8164D02*
G01X12349Y8137D01*
G01X12390Y8205D02*
G01X12376Y8164D01*
G01X12390Y8219D02*
G01X12390Y8205D01*
G01X12376Y8260D02*
G01X12390Y8219D01*
G01X12349Y8287D02*
G01X12376Y8260D01*
G01X12308Y8301D02*
G01X12349Y8287D01*
G01X12294Y8301D02*
G01X12308Y8301D01*
G01X12294Y8301D02*
G01X12253Y8287D01*
G01X12253Y8287D02*
G01X12226Y8260D01*
G01X12226Y8260D02*
G01X12212Y8219D01*
G01X12690Y8410D02*
G01X12553Y8124D01*
G01X12690Y8410D02*
G01X12499Y8410D01*
G01X12949Y8396D02*
G01X12962Y8369D01*
G01X12908Y8410D02*
G01X12949Y8396D01*
G01X12880Y8410D02*
G01X12908Y8410D01*
G01X12880Y8410D02*
G01X12840Y8396D01*
G01X12840Y8396D02*
G01X12812Y8355D01*
G01X12812Y8355D02*
G01X12799Y8287D01*
G01X12799Y8287D02*
G01X12799Y8219D01*
G01X12799Y8219D02*
G01X12812Y8164D01*
G01X12812Y8164D02*
G01X12840Y8137D01*
G01X12840Y8137D02*
G01X12880Y8124D01*
G01X12894Y8124D02*
G01X12880Y8124D01*
G01X12935Y8137D02*
G01X12894Y8124D01*
G01X12962Y8164D02*
G01X12935Y8137D01*
G01X12976Y8205D02*
G01X12962Y8164D01*
G01X12976Y8219D02*
G01X12976Y8205D01*
G01X12962Y8260D02*
G01X12976Y8219D01*
G01X12935Y8287D02*
G01X12962Y8260D01*
G01X12894Y8301D02*
G01X12935Y8287D01*
G01X12880Y8301D02*
G01X12894Y8301D01*
G01X12880Y8301D02*
G01X12840Y8287D01*
G01X12840Y8287D02*
G01X12812Y8260D01*
G01X12812Y8260D02*
G01X12799Y8219D01*
G04 Draw part C3*
G04 draw part outline for part C3*
G04 draw value for part C3*
G01X13794Y7937D02*
G01X13776Y7928D01*
G01X13821Y7964D02*
G01X13794Y7937D01*
G01X13821Y7964D02*
G01X13821Y7774D01*
G01X13949Y7964D02*
G01X13921Y7955D01*
G01X13921Y7955D02*
G01X13903Y7928D01*
G01X13903Y7928D02*
G01X13894Y7883D01*
G01X13894Y7883D02*
G01X13894Y7855D01*
G01X13894Y7855D02*
G01X13903Y7810D01*
G01X13903Y7810D02*
G01X13921Y7783D01*
G01X13921Y7783D02*
G01X13949Y7774D01*
G01X13967Y7774D02*
G01X13949Y7774D01*
G01X13994Y7783D02*
G01X13967Y7774D01*
G01X14012Y7810D02*
G01X13994Y7783D01*
G01X14021Y7855D02*
G01X14012Y7810D01*
G01X14021Y7883D02*
G01X14021Y7855D01*
G01X14012Y7928D02*
G01X14021Y7883D01*
G01X13994Y7955D02*
G01X14012Y7928D01*
G01X13967Y7964D02*
G01X13994Y7955D01*
G01X13949Y7964D02*
G01X13967Y7964D01*
G01X14149Y7964D02*
G01X14121Y7955D01*
G01X14121Y7955D02*
G01X14103Y7928D01*
G01X14103Y7928D02*
G01X14094Y7883D01*
G01X14094Y7883D02*
G01X14094Y7855D01*
G01X14094Y7855D02*
G01X14103Y7810D01*
G01X14103Y7810D02*
G01X14121Y7783D01*
G01X14121Y7783D02*
G01X14149Y7774D01*
G01X14167Y7774D02*
G01X14149Y7774D01*
G01X14194Y7783D02*
G01X14167Y7774D01*
G01X14212Y7810D02*
G01X14194Y7783D01*
G01X14221Y7855D02*
G01X14212Y7810D01*
G01X14221Y7883D02*
G01X14221Y7855D01*
G01X14212Y7928D02*
G01X14221Y7883D01*
G01X14194Y7955D02*
G01X14212Y7928D01*
G01X14167Y7964D02*
G01X14194Y7955D01*
G01X14149Y7964D02*
G01X14167Y7964D01*
G01X14294Y7901D02*
G01X14294Y7774D01*
G01X14321Y7892D02*
G01X14294Y7864D01*
G01X14340Y7901D02*
G01X14321Y7892D01*
G01X14367Y7901D02*
G01X14340Y7901D01*
G01X14367Y7901D02*
G01X14385Y7892D01*
G01X14385Y7892D02*
G01X14394Y7864D01*
G01X14394Y7864D02*
G01X14394Y7774D01*
G04 Draw part C4*
G04 draw part outline for part C4*
G04 draw value for part C4*
G01X15078Y1052D02*
G01X15060Y1043D01*
G01X15105Y1079D02*
G01X15078Y1052D01*
G01X15105Y1079D02*
G01X15105Y889D01*
G01X15232Y1079D02*
G01X15205Y1070D01*
G01X15205Y1070D02*
G01X15187Y1043D01*
G01X15187Y1043D02*
G01X15178Y998D01*
G01X15178Y998D02*
G01X15178Y970D01*
G01X15178Y970D02*
G01X15187Y925D01*
G01X15187Y925D02*
G01X15205Y898D01*
G01X15205Y898D02*
G01X15232Y889D01*
G01X15250Y889D02*
G01X15232Y889D01*
G01X15278Y898D02*
G01X15250Y889D01*
G01X15296Y925D02*
G01X15278Y898D01*
G01X15305Y970D02*
G01X15296Y925D01*
G01X15305Y998D02*
G01X15305Y970D01*
G01X15296Y1043D02*
G01X15305Y998D01*
G01X15278Y1070D02*
G01X15296Y1043D01*
G01X15250Y1079D02*
G01X15278Y1070D01*
G01X15232Y1079D02*
G01X15250Y1079D01*
G01X15432Y1079D02*
G01X15405Y1070D01*
G01X15405Y1070D02*
G01X15387Y1043D01*
G01X15387Y1043D02*
G01X15378Y998D01*
G01X15378Y998D02*
G01X15378Y970D01*
G01X15378Y970D02*
G01X15387Y925D01*
G01X15387Y925D02*
G01X15405Y898D01*
G01X15405Y898D02*
G01X15432Y889D01*
G01X15450Y889D02*
G01X15432Y889D01*
G01X15478Y898D02*
G01X15450Y889D01*
G01X15496Y925D02*
G01X15478Y898D01*
G01X15505Y970D02*
G01X15496Y925D01*
G01X15505Y998D02*
G01X15505Y970D01*
G01X15496Y1043D02*
G01X15505Y998D01*
G01X15478Y1070D02*
G01X15496Y1043D01*
G01X15450Y1079D02*
G01X15478Y1070D01*
G01X15432Y1079D02*
G01X15450Y1079D01*
G01X15578Y1016D02*
G01X15578Y889D01*
G01X15605Y1007D02*
G01X15578Y979D01*
G01X15623Y1016D02*
G01X15605Y1007D01*
G01X15650Y1016D02*
G01X15623Y1016D01*
G01X15650Y1016D02*
G01X15669Y1007D01*
G01X15669Y1007D02*
G01X15678Y979D01*
G01X15678Y979D02*
G01X15678Y889D01*
G04 Draw part R5*
G04 draw part outline for part R5*
G04 draw value for part R5*
G01X9915Y1707D02*
G01X9924Y1689D01*
G01X9888Y1734D02*
G01X9915Y1707D01*
G01X9888Y1734D02*
G01X10079Y1734D01*
G01X9888Y1861D02*
G01X9897Y1834D01*
G01X9897Y1834D02*
G01X9924Y1816D01*
G01X9924Y1816D02*
G01X9969Y1807D01*
G01X9969Y1807D02*
G01X9997Y1807D01*
G01X9997Y1807D02*
G01X10042Y1816D01*
G01X10042Y1816D02*
G01X10069Y1834D01*
G01X10069Y1834D02*
G01X10079Y1861D01*
G01X10079Y1879D02*
G01X10079Y1861D01*
G01X10069Y1907D02*
G01X10079Y1879D01*
G01X10042Y1925D02*
G01X10069Y1907D01*
G01X9997Y1934D02*
G01X10042Y1925D01*
G01X9969Y1934D02*
G01X9997Y1934D01*
G01X9924Y1925D02*
G01X9969Y1934D01*
G01X9897Y1907D02*
G01X9924Y1925D01*
G01X9888Y1879D02*
G01X9897Y1907D01*
G01X9888Y1861D02*
G01X9888Y1879D01*
G01X9888Y2007D02*
G01X10079Y2007D01*
G01X9951Y2098D02*
G01X10042Y2007D01*
G01X10006Y2043D02*
G01X10079Y2107D01*
G04 Draw part U1*
G04 draw part outline for part U1*
G54D13*
G01X7599Y6330D02*
G01X7599Y7080D01*
G01X7599Y7080D02*
G01X4999Y7080D01*
G01X4999Y7080D02*
G01X4999Y6330D01*
G04 draw value for part U1*
G54D11*
G01X5312Y6774D02*
G01X5312Y6536D01*
G01X5392Y6774D02*
G01X5233Y6774D01*
G01X5483Y6774D02*
G01X5483Y6536D01*
G01X5619Y6536D02*
G01X5483Y6536D01*
G01X5710Y6774D02*
G01X5801Y6536D01*
G01X5892Y6774D02*
G01X5801Y6536D01*
G01X6005Y6740D02*
G01X5983Y6729D01*
G01X6039Y6774D02*
G01X6005Y6740D01*
G01X6039Y6774D02*
G01X6039Y6536D01*
G01X6153Y6740D02*
G01X6130Y6729D01*
G01X6187Y6774D02*
G01X6153Y6740D01*
G01X6187Y6774D02*
G01X6187Y6536D01*
G01X6301Y6740D02*
G01X6278Y6729D01*
G01X6335Y6774D02*
G01X6301Y6740D01*
G01X6335Y6774D02*
G01X6335Y6536D01*
G01X6585Y6774D02*
G01X6471Y6536D01*
G01X6585Y6774D02*
G01X6426Y6774D01*
G01X6880Y6638D02*
G01X6676Y6638D01*
G01X7119Y6774D02*
G01X6994Y6774D01*
G01X7119Y6774D02*
G01X7051Y6683D01*
G01X7085Y6683D02*
G01X7051Y6683D01*
G01X7085Y6683D02*
G01X7108Y6672D01*
G01X7108Y6672D02*
G01X7119Y6661D01*
G01X7119Y6661D02*
G01X7130Y6626D01*
G01X7130Y6626D02*
G01X7130Y6604D01*
G01X7130Y6604D02*
G01X7119Y6570D01*
G01X7119Y6570D02*
G01X7096Y6547D01*
G01X7096Y6547D02*
G01X7062Y6536D01*
G01X7028Y6536D02*
G01X7062Y6536D01*
G01X6994Y6547D02*
G01X7028Y6536D01*
G01X6983Y6558D02*
G01X6994Y6547D01*
G01X6971Y6581D02*
G01X6983Y6558D01*
G01X7369Y6774D02*
G01X7244Y6774D01*
G01X7369Y6774D02*
G01X7301Y6683D01*
G01X7335Y6683D02*
G01X7301Y6683D01*
G01X7335Y6683D02*
G01X7358Y6672D01*
G01X7358Y6672D02*
G01X7369Y6661D01*
G01X7369Y6661D02*
G01X7380Y6626D01*
G01X7380Y6626D02*
G01X7380Y6604D01*
G01X7380Y6604D02*
G01X7369Y6570D01*
G01X7369Y6570D02*
G01X7346Y6547D01*
G01X7346Y6547D02*
G01X7312Y6536D01*
G01X7278Y6536D02*
G01X7312Y6536D01*
G01X7244Y6547D02*
G01X7278Y6536D01*
G01X7233Y6558D02*
G01X7244Y6547D01*
G01X7221Y6581D02*
G01X7233Y6558D01*
G04 Draw part C2*
G04 draw part outline for part C2*
G54D13*
G01X17027Y13681D02*
G01X17027Y13287D01*
G01X17027Y13287D02*
G01X16437Y12696D01*
G01X16437Y12696D02*
G01X14468Y12696D01*
G01X14468Y12696D02*
G01X14468Y13681D01*
G01X17027Y14271D02*
G01X17027Y14665D01*
G01X17027Y14665D02*
G01X16437Y15255D01*
G01X16437Y15255D02*
G01X14468Y15255D01*
G01X14468Y15255D02*
G01X14468Y14271D01*
G04 draw value for part C2*
G54D11*
G01X15496Y14814D02*
G01X15360Y14623D01*
G01X15564Y14623D02*
G01X15360Y14623D01*
G01X15496Y14814D02*
G01X15496Y14528D01*
G01X15864Y14814D02*
G01X15728Y14528D01*
G01X15864Y14814D02*
G01X15673Y14814D01*
G01X15973Y14718D02*
G01X15973Y14582D01*
G01X15973Y14582D02*
G01X15987Y14541D01*
G01X15987Y14541D02*
G01X16014Y14528D01*
G01X16055Y14528D02*
G01X16014Y14528D01*
G01X16082Y14541D02*
G01X16055Y14528D01*
G01X16123Y14582D02*
G01X16082Y14541D01*
G01X16123Y14718D02*
G01X16123Y14528D01*
G04 Draw part R4*
G04 draw part outline for part R4*
G04 draw value for part R4*
G01X13681Y2628D02*
G01X13872Y2628D01*
G01X13681Y2691D02*
G01X13681Y2628D01*
G01X13681Y2691D02*
G01X13690Y2718D01*
G01X13690Y2718D02*
G01X13708Y2737D01*
G01X13708Y2737D02*
G01X13726Y2746D01*
G01X13726Y2746D02*
G01X13753Y2755D01*
G01X13753Y2755D02*
G01X13799Y2755D01*
G01X13799Y2755D02*
G01X13826Y2746D01*
G01X13826Y2746D02*
G01X13844Y2737D01*
G01X13844Y2737D02*
G01X13862Y2718D01*
G01X13862Y2718D02*
G01X13872Y2691D01*
G01X13872Y2628D02*
G01X13872Y2691D01*
G01X13681Y2828D02*
G01X13872Y2828D01*
G01X13681Y2828D02*
G01X13872Y2955D01*
G01X13681Y2955D02*
G01X13872Y2955D01*
G01X13681Y3028D02*
G01X13872Y3028D01*
G01X13681Y3109D02*
G01X13681Y3028D01*
G01X13681Y3109D02*
G01X13690Y3137D01*
G01X13690Y3137D02*
G01X13699Y3146D01*
G01X13699Y3146D02*
G01X13717Y3155D01*
G01X13717Y3155D02*
G01X13744Y3155D01*
G01X13744Y3155D02*
G01X13762Y3146D01*
G01X13762Y3146D02*
G01X13772Y3137D01*
G01X13772Y3137D02*
G01X13781Y3109D01*
G01X13781Y3028D02*
G01X13781Y3109D01*
G04 Draw part C5*
G04 draw part outline for part C5*
G04 draw value for part C5*
G01X20487Y2938D02*
G01X20496Y2920D01*
G01X20460Y2965D02*
G01X20487Y2938D01*
G01X20460Y2965D02*
G01X20651Y2965D01*
G01X20460Y3092D02*
G01X20469Y3065D01*
G01X20469Y3065D02*
G01X20496Y3047D01*
G01X20496Y3047D02*
G01X20541Y3038D01*
G01X20541Y3038D02*
G01X20569Y3038D01*
G01X20569Y3038D02*
G01X20614Y3047D01*
G01X20614Y3047D02*
G01X20641Y3065D01*
G01X20641Y3065D02*
G01X20651Y3092D01*
G01X20651Y3110D02*
G01X20651Y3092D01*
G01X20641Y3138D02*
G01X20651Y3110D01*
G01X20614Y3156D02*
G01X20641Y3138D01*
G01X20569Y3165D02*
G01X20614Y3156D01*
G01X20541Y3165D02*
G01X20569Y3165D01*
G01X20496Y3156D02*
G01X20541Y3165D01*
G01X20469Y3138D02*
G01X20496Y3156D01*
G01X20460Y3110D02*
G01X20469Y3138D01*
G01X20460Y3092D02*
G01X20460Y3110D01*
G01X20460Y3292D02*
G01X20469Y3265D01*
G01X20469Y3265D02*
G01X20496Y3247D01*
G01X20496Y3247D02*
G01X20541Y3238D01*
G01X20541Y3238D02*
G01X20569Y3238D01*
G01X20569Y3238D02*
G01X20614Y3247D01*
G01X20614Y3247D02*
G01X20641Y3265D01*
G01X20641Y3265D02*
G01X20651Y3292D01*
G01X20651Y3310D02*
G01X20651Y3292D01*
G01X20641Y3338D02*
G01X20651Y3310D01*
G01X20614Y3356D02*
G01X20641Y3338D01*
G01X20569Y3365D02*
G01X20614Y3356D01*
G01X20541Y3365D02*
G01X20569Y3365D01*
G01X20496Y3356D02*
G01X20541Y3365D01*
G01X20469Y3338D02*
G01X20496Y3356D01*
G01X20460Y3310D02*
G01X20469Y3338D01*
G01X20460Y3292D02*
G01X20460Y3310D01*
G01X20523Y3438D02*
G01X20651Y3438D01*
G01X20532Y3465D02*
G01X20560Y3438D01*
G01X20523Y3483D02*
G01X20532Y3465D01*
G01X20523Y3510D02*
G01X20523Y3483D01*
G01X20523Y3510D02*
G01X20532Y3529D01*
G01X20532Y3529D02*
G01X20560Y3538D01*
G01X20560Y3538D02*
G01X20651Y3538D01*
G04 Draw part R1*
G04 draw part outline for part R1*
G04 draw value for part R1*
G01X13703Y1676D02*
G01X13712Y1658D01*
G01X13676Y1703D02*
G01X13703Y1676D01*
G01X13676Y1703D02*
G01X13867Y1703D01*
G01X13676Y1830D02*
G01X13685Y1803D01*
G01X13685Y1803D02*
G01X13712Y1785D01*
G01X13712Y1785D02*
G01X13757Y1776D01*
G01X13757Y1776D02*
G01X13785Y1776D01*
G01X13785Y1776D02*
G01X13830Y1785D01*
G01X13830Y1785D02*
G01X13857Y1803D01*
G01X13857Y1803D02*
G01X13867Y1830D01*
G01X13867Y1848D02*
G01X13867Y1830D01*
G01X13857Y1876D02*
G01X13867Y1848D01*
G01X13830Y1894D02*
G01X13857Y1876D01*
G01X13785Y1903D02*
G01X13830Y1894D01*
G01X13757Y1903D02*
G01X13785Y1903D01*
G01X13712Y1894D02*
G01X13757Y1903D01*
G01X13685Y1876D02*
G01X13712Y1894D01*
G01X13676Y1848D02*
G01X13685Y1876D01*
G01X13676Y1830D02*
G01X13676Y1848D01*
G01X13676Y1976D02*
G01X13867Y1976D01*
G01X13739Y2067D02*
G01X13830Y1976D01*
G01X13794Y2012D02*
G01X13867Y2076D01*
G04 Draw part U4*
G04 draw part outline for part U4*
G54D13*
G01X16128Y3633D02*
G01X23628Y3633D01*
G01X23628Y3633D02*
G01X23628Y12133D01*
G01X23628Y12133D02*
G01X16128Y12133D01*
G01X16128Y12133D02*
G01X16128Y3633D01*
G01X18628Y9133D02*
G01X18668Y9133D01*
G01X18707Y9131D01*
G01X18746Y9129D01*
G01X18785Y9125D01*
G01X18824Y9121D01*
G01X18863Y9115D01*
G01X18902Y9108D01*
G01X18940Y9101D01*
G01X18978Y9092D01*
G01X19016Y9082D01*
G01X19054Y9072D01*
G01X19092Y9060D01*
G01X19129Y9047D01*
G01X19166Y9034D01*
G01X19202Y9019D01*
G01X19238Y9004D01*
G01X19274Y8987D01*
G01X19309Y8970D01*
G01X19344Y8952D01*
G01X19378Y8932D01*
G01X19412Y8912D01*
G01X19445Y8891D01*
G01X19478Y8870D01*
G01X19510Y8847D01*
G01X19541Y8823D01*
G01X19572Y8799D01*
G01X19602Y8774D01*
G01X19632Y8748D01*
G01X19661Y8721D01*
G01X19689Y8694D01*
G01X19716Y8666D01*
G01X19743Y8637D01*
G01X19769Y8608D01*
G01X19794Y8577D01*
G01X19818Y8547D01*
G01X19842Y8515D01*
G01X19864Y8483D01*
G01X19886Y8450D01*
G01X19907Y8417D01*
G01X19927Y8383D01*
G01X19946Y8349D01*
G01X19965Y8314D01*
G01X19982Y8279D01*
G01X19999Y8243D01*
G01X20014Y8207D01*
G01X20029Y8171D01*
G01X20042Y8134D01*
G01X20055Y8097D01*
G01X20066Y8059D01*
G01X20077Y8022D01*
G01X20087Y7984D01*
G01X20095Y7945D01*
G01X20103Y7907D01*
G01X20110Y7868D01*
G01X20115Y7829D01*
G01X20120Y7790D01*
G01X20124Y7751D01*
G01X20126Y7712D01*
G01X20128Y7673D01*
G01X20128Y7633D01*
G01X20128Y7633D02*
G01X20128Y7594D01*
G01X20126Y7555D01*
G01X20124Y7516D01*
G01X20120Y7477D01*
G01X20115Y7438D01*
G01X20110Y7399D01*
G01X20103Y7360D01*
G01X20095Y7321D01*
G01X20087Y7283D01*
G01X20077Y7245D01*
G01X20066Y7207D01*
G01X20055Y7170D01*
G01X20042Y7133D01*
G01X20029Y7096D01*
G01X20014Y7059D01*
G01X19999Y7023D01*
G01X19982Y6988D01*
G01X19965Y6952D01*
G01X19946Y6918D01*
G01X19927Y6883D01*
G01X19907Y6850D01*
G01X19886Y6816D01*
G01X19864Y6784D01*
G01X19842Y6752D01*
G01X19818Y6720D01*
G01X19794Y6689D01*
G01X19769Y6659D01*
G01X19743Y6630D01*
G01X19716Y6601D01*
G01X19689Y6573D01*
G01X19661Y6545D01*
G01X19632Y6519D01*
G01X19602Y6493D01*
G01X19572Y6468D01*
G01X19541Y6443D01*
G01X19510Y6420D01*
G01X19478Y6397D01*
G01X19445Y6375D01*
G01X19412Y6354D01*
G01X19378Y6334D01*
G01X19344Y6315D01*
G01X19309Y6297D01*
G01X19274Y6279D01*
G01X19238Y6263D01*
G01X19202Y6248D01*
G01X19166Y6233D01*
G01X19129Y6219D01*
G01X19092Y6207D01*
G01X19054Y6195D01*
G01X19016Y6184D01*
G01X18978Y6175D01*
G01X18940Y6166D01*
G01X18902Y6158D01*
G01X18863Y6152D01*
G01X18824Y6146D01*
G01X18785Y6142D01*
G01X18746Y6138D01*
G01X18707Y6135D01*
G01X18668Y6134D01*
G01X18628Y6133D01*
G01X18628Y6133D02*
G01X18589Y6134D01*
G01X18550Y6135D01*
G01X18511Y6138D01*
G01X18471Y6142D01*
G01X18432Y6146D01*
G01X18394Y6152D01*
G01X18355Y6158D01*
G01X18316Y6166D01*
G01X18278Y6175D01*
G01X18240Y6184D01*
G01X18202Y6195D01*
G01X18165Y6207D01*
G01X18128Y6219D01*
G01X18091Y6233D01*
G01X18054Y6248D01*
G01X18018Y6263D01*
G01X17982Y6279D01*
G01X17947Y6297D01*
G01X17913Y6315D01*
G01X17878Y6334D01*
G01X17844Y6354D01*
G01X17811Y6375D01*
G01X17779Y6397D01*
G01X17747Y6420D01*
G01X17715Y6443D01*
G01X17684Y6468D01*
G01X17654Y6493D01*
G01X17625Y6519D01*
G01X17596Y6545D01*
G01X17568Y6573D01*
G01X17540Y6601D01*
G01X17514Y6630D01*
G01X17488Y6659D01*
G01X17463Y6689D01*
G01X17438Y6720D01*
G01X17415Y6752D01*
G01X17392Y6784D01*
G01X17370Y6816D01*
G01X17349Y6850D01*
G01X17329Y6883D01*
G01X17310Y6918D01*
G01X17292Y6952D01*
G01X17274Y6988D01*
G01X17258Y7023D01*
G01X17242Y7059D01*
G01X17228Y7096D01*
G01X17214Y7133D01*
G01X17202Y7170D01*
G01X17190Y7207D01*
G01X17179Y7245D01*
G01X17170Y7283D01*
G01X17161Y7321D01*
G01X17153Y7360D01*
G01X17147Y7399D01*
G01X17141Y7438D01*
G01X17136Y7477D01*
G01X17133Y7516D01*
G01X17130Y7555D01*
G01X17129Y7594D01*
G01X17128Y7633D01*
G01X17128Y7633D02*
G01X17129Y7673D01*
G01X17130Y7712D01*
G01X17133Y7751D01*
G01X17136Y7790D01*
G01X17141Y7829D01*
G01X17147Y7868D01*
G01X17153Y7907D01*
G01X17161Y7945D01*
G01X17170Y7984D01*
G01X17179Y8022D01*
G01X17190Y8059D01*
G01X17202Y8097D01*
G01X17214Y8134D01*
G01X17228Y8171D01*
G01X17242Y8207D01*
G01X17258Y8243D01*
G01X17274Y8279D01*
G01X17292Y8314D01*
G01X17310Y8349D01*
G01X17329Y8383D01*
G01X17349Y8417D01*
G01X17370Y8450D01*
G01X17392Y8483D01*
G01X17415Y8515D01*
G01X17438Y8547D01*
G01X17463Y8577D01*
G01X17488Y8608D01*
G01X17514Y8637D01*
G01X17540Y8666D01*
G01X17568Y8694D01*
G01X17596Y8721D01*
G01X17625Y8748D01*
G01X17654Y8774D01*
G01X17684Y8799D01*
G01X17715Y8823D01*
G01X17747Y8847D01*
G01X17779Y8870D01*
G01X17811Y8891D01*
G01X17844Y8912D01*
G01X17878Y8932D01*
G01X17913Y8952D01*
G01X17947Y8970D01*
G01X17982Y8987D01*
G01X18018Y9004D01*
G01X18054Y9019D01*
G01X18091Y9034D01*
G01X18128Y9047D01*
G01X18165Y9060D01*
G01X18202Y9072D01*
G01X18240Y9082D01*
G01X18278Y9092D01*
G01X18316Y9101D01*
G01X18355Y9108D01*
G01X18394Y9115D01*
G01X18432Y9121D01*
G01X18471Y9125D01*
G01X18511Y9129D01*
G01X18550Y9131D01*
G01X18589Y9133D01*
G01X18628Y9133D01*
G01X20878Y5133D02*
G01X23128Y5133D01*
G01X23128Y5133D02*
G01X23128Y9133D01*
G01X23128Y9133D02*
G01X20878Y9133D01*
G01X20878Y9133D02*
G01X20878Y5133D01*
G04 draw value for part U4*
G54D11*
G01X19003Y4946D02*
G01X19003Y4660D01*
G01X19180Y4946D02*
G01X19003Y4946D01*
G01X19112Y4810D02*
G01X19003Y4810D01*
G01X19453Y4932D02*
G01X19480Y4905D01*
G01X19412Y4946D02*
G01X19453Y4932D01*
G01X19357Y4946D02*
G01X19412Y4946D01*
G01X19357Y4946D02*
G01X19316Y4932D01*
G01X19316Y4932D02*
G01X19289Y4905D01*
G01X19289Y4905D02*
G01X19289Y4878D01*
G01X19289Y4878D02*
G01X19303Y4850D01*
G01X19303Y4850D02*
G01X19316Y4837D01*
G01X19316Y4837D02*
G01X19343Y4823D01*
G01X19343Y4823D02*
G01X19425Y4796D01*
G01X19425Y4796D02*
G01X19453Y4782D01*
G01X19453Y4782D02*
G01X19466Y4769D01*
G01X19466Y4769D02*
G01X19480Y4741D01*
G01X19480Y4741D02*
G01X19480Y4700D01*
G01X19480Y4700D02*
G01X19453Y4673D01*
G01X19453Y4673D02*
G01X19412Y4660D01*
G01X19357Y4660D02*
G01X19412Y4660D01*
G01X19316Y4673D02*
G01X19357Y4660D01*
G01X19289Y4700D02*
G01X19316Y4673D01*
G01X19616Y4905D02*
G01X19589Y4891D01*
G01X19657Y4946D02*
G01X19616Y4905D01*
G01X19657Y4946D02*
G01X19657Y4660D01*
G01X19848Y4946D02*
G01X19807Y4932D01*
G01X19807Y4932D02*
G01X19780Y4891D01*
G01X19780Y4891D02*
G01X19766Y4823D01*
G01X19766Y4823D02*
G01X19766Y4782D01*
G01X19766Y4782D02*
G01X19780Y4714D01*
G01X19780Y4714D02*
G01X19807Y4673D01*
G01X19807Y4673D02*
G01X19848Y4660D01*
G01X19875Y4660D02*
G01X19848Y4660D01*
G01X19916Y4673D02*
G01X19875Y4660D01*
G01X19943Y4714D02*
G01X19916Y4673D01*
G01X19957Y4782D02*
G01X19943Y4714D01*
G01X19957Y4823D02*
G01X19957Y4782D01*
G01X19943Y4891D02*
G01X19957Y4823D01*
G01X19916Y4932D02*
G01X19943Y4891D01*
G01X19875Y4946D02*
G01X19916Y4932D01*
G01X19848Y4946D02*
G01X19875Y4946D01*
G01X20148Y4946D02*
G01X20107Y4932D01*
G01X20107Y4932D02*
G01X20080Y4891D01*
G01X20080Y4891D02*
G01X20066Y4823D01*
G01X20066Y4823D02*
G01X20066Y4782D01*
G01X20066Y4782D02*
G01X20080Y4714D01*
G01X20080Y4714D02*
G01X20107Y4673D01*
G01X20107Y4673D02*
G01X20148Y4660D01*
G01X20175Y4660D02*
G01X20148Y4660D01*
G01X20216Y4673D02*
G01X20175Y4660D01*
G01X20243Y4714D02*
G01X20216Y4673D01*
G01X20257Y4782D02*
G01X20243Y4714D01*
G01X20257Y4823D02*
G01X20257Y4782D01*
G01X20243Y4891D02*
G01X20257Y4823D01*
G01X20216Y4932D02*
G01X20243Y4891D01*
G01X20175Y4946D02*
G01X20216Y4932D01*
G01X20148Y4946D02*
G01X20175Y4946D01*
G01X20448Y4946D02*
G01X20407Y4932D01*
G01X20407Y4932D02*
G01X20380Y4891D01*
G01X20380Y4891D02*
G01X20366Y4823D01*
G01X20366Y4823D02*
G01X20366Y4782D01*
G01X20366Y4782D02*
G01X20380Y4714D01*
G01X20380Y4714D02*
G01X20407Y4673D01*
G01X20407Y4673D02*
G01X20448Y4660D01*
G01X20475Y4660D02*
G01X20448Y4660D01*
G01X20516Y4673D02*
G01X20475Y4660D01*
G01X20543Y4714D02*
G01X20516Y4673D01*
G01X20557Y4782D02*
G01X20543Y4714D01*
G01X20557Y4823D02*
G01X20557Y4782D01*
G01X20543Y4891D02*
G01X20557Y4823D01*
G01X20516Y4932D02*
G01X20543Y4891D01*
G01X20475Y4946D02*
G01X20516Y4932D01*
G01X20448Y4946D02*
G01X20475Y4946D01*
G01X20775Y4946D02*
G01X20666Y4660D01*
G01X20775Y4946D02*
G01X20884Y4660D01*
G01X20843Y4755D02*
G01X20707Y4755D01*
G04 Draw part R2*
G04 draw part outline for part R2*
G04 draw value for part R2*
G01X14865Y1693D02*
G01X14992Y1603D01*
G01X14992Y1739D02*
G01X14992Y1603D01*
G01X14865Y1693D02*
G01X15056Y1693D01*
G01X14865Y1939D02*
G01X15056Y1848D01*
G01X14865Y1939D02*
G01X14865Y1812D01*
G01X14865Y2066D02*
G01X14874Y2039D01*
G01X14874Y2039D02*
G01X14901Y2021D01*
G01X14901Y2021D02*
G01X14946Y2012D01*
G01X14946Y2012D02*
G01X14974Y2012D01*
G01X14974Y2012D02*
G01X15019Y2021D01*
G01X15019Y2021D02*
G01X15046Y2039D01*
G01X15046Y2039D02*
G01X15056Y2066D01*
G01X15056Y2084D02*
G01X15056Y2066D01*
G01X15046Y2112D02*
G01X15056Y2084D01*
G01X15019Y2130D02*
G01X15046Y2112D01*
G01X14974Y2139D02*
G01X15019Y2130D01*
G01X14946Y2139D02*
G01X14974Y2139D01*
G01X14901Y2130D02*
G01X14946Y2139D01*
G01X14874Y2112D02*
G01X14901Y2130D01*
G01X14865Y2084D02*
G01X14874Y2112D01*
G01X14865Y2066D02*
G01X14865Y2084D01*
G01X14983Y2321D02*
G01X14983Y2212D01*
G01X14965Y2321D02*
G01X14983Y2321D01*
G01X14946Y2312D02*
G01X14965Y2321D01*
G01X14937Y2303D02*
G01X14946Y2312D01*
G01X14928Y2284D02*
G01X14937Y2303D01*
G01X14928Y2257D02*
G01X14928Y2284D01*
G01X14928Y2257D02*
G01X14937Y2239D01*
G01X14937Y2239D02*
G01X14956Y2221D01*
G01X14956Y2221D02*
G01X14983Y2212D01*
G01X14983Y2212D02*
G01X15001Y2212D01*
G01X15001Y2212D02*
G01X15028Y2221D01*
G01X15028Y2221D02*
G01X15046Y2239D01*
G01X15046Y2239D02*
G01X15056Y2257D01*
G01X15056Y2284D02*
G01X15056Y2257D01*
G01X15046Y2303D02*
G01X15056Y2284D01*
G01X15028Y2321D02*
G01X15046Y2303D01*
G04 Draw part R6*
G04 draw part outline for part R6*
G04 draw value for part R6*
G01X9906Y2293D02*
G01X10097Y2293D01*
G01X9906Y2356D02*
G01X9906Y2293D01*
G01X9906Y2356D02*
G01X9915Y2383D01*
G01X9915Y2383D02*
G01X9933Y2402D01*
G01X9933Y2402D02*
G01X9951Y2411D01*
G01X9951Y2411D02*
G01X9978Y2420D01*
G01X9978Y2420D02*
G01X10024Y2420D01*
G01X10024Y2420D02*
G01X10051Y2411D01*
G01X10051Y2411D02*
G01X10069Y2402D01*
G01X10069Y2402D02*
G01X10087Y2383D01*
G01X10087Y2383D02*
G01X10097Y2356D01*
G01X10097Y2293D02*
G01X10097Y2356D01*
G01X9906Y2493D02*
G01X10097Y2493D01*
G01X9906Y2493D02*
G01X10097Y2620D01*
G01X9906Y2620D02*
G01X10097Y2620D01*
G01X9906Y2693D02*
G01X10097Y2693D01*
G01X9906Y2774D02*
G01X9906Y2693D01*
G01X9906Y2774D02*
G01X9915Y2802D01*
G01X9915Y2802D02*
G01X9924Y2811D01*
G01X9924Y2811D02*
G01X9942Y2820D01*
G01X9942Y2820D02*
G01X9969Y2820D01*
G01X9969Y2820D02*
G01X9987Y2811D01*
G01X9987Y2811D02*
G01X9997Y2802D01*
G01X9997Y2802D02*
G01X10006Y2774D01*
G01X10006Y2693D02*
G01X10006Y2774D01*
G04 Draw part J1*
G04 draw part outline for part J1*
G54D13*
G01X3346Y5511D02*
G01X4527Y5511D01*
G01X4527Y5511D02*
G01X4527Y3149D01*
G01X4527Y3149D02*
G01X3937Y3149D01*
G01X3937Y3149D02*
G01X3937Y1968D01*
G01X3937Y1968D02*
G01X787Y1968D01*
G01X787Y1968D02*
G01X787Y3149D01*
G01X787Y3149D02*
G01X196Y3149D01*
G01X196Y3149D02*
G01X196Y5511D01*
G01X196Y5511D02*
G01X1377Y5511D01*
G01X787Y2755D02*
G01X1574Y2755D01*
G01X3149Y2755D02*
G01X3937Y2755D01*
G01X3346Y10236D02*
G01X4527Y10236D01*
G01X4527Y10236D02*
G01X4527Y12598D01*
G01X4527Y12598D02*
G01X3937Y12598D01*
G01X3937Y12598D02*
G01X3937Y13779D01*
G01X3937Y13779D02*
G01X787Y13779D01*
G01X787Y13779D02*
G01X787Y12598D01*
G01X787Y12598D02*
G01X196Y12598D01*
G01X196Y12598D02*
G01X196Y10236D01*
G01X196Y10236D02*
G01X1377Y10236D01*
G01X787Y12992D02*
G01X1574Y12992D01*
G01X3149Y12992D02*
G01X3937Y12992D01*
G01X393Y5905D02*
G01X393Y9055D01*
G01X393Y9055D02*
G01X1574Y9055D01*
G01X1574Y9055D02*
G01X1574Y9448D01*
G01X1574Y9448D02*
G01X1968Y9448D01*
G01X2755Y9448D02*
G01X3149Y9448D01*
G01X3149Y9448D02*
G01X3149Y9055D01*
G01X3149Y9055D02*
G01X4330Y9055D01*
G01X4330Y9055D02*
G01X4330Y5905D01*
G01X2362Y9251D02*
G01X2362Y8464D01*
G01X1968Y8858D02*
G01X2755Y8858D01*
G01X2755Y6496D02*
G01X1968Y6496D01*
G04 draw value for part J1*
G54D11*
G01X1480Y7522D02*
G01X1371Y7236D01*
G01X1480Y7522D02*
G01X1589Y7236D01*
G01X1548Y7331D02*
G01X1411Y7331D01*
G01X1711Y7467D02*
G01X1711Y7454D01*
G01X1725Y7495D02*
G01X1711Y7467D01*
G01X1739Y7508D02*
G01X1725Y7495D01*
G01X1766Y7522D02*
G01X1739Y7508D01*
G01X1821Y7522D02*
G01X1766Y7522D01*
G01X1821Y7522D02*
G01X1848Y7508D01*
G01X1848Y7508D02*
G01X1861Y7495D01*
G01X1861Y7495D02*
G01X1875Y7467D01*
G01X1875Y7467D02*
G01X1875Y7440D01*
G01X1875Y7440D02*
G01X1861Y7413D01*
G01X1861Y7413D02*
G01X1834Y7372D01*
G01X1834Y7372D02*
G01X1698Y7236D01*
G01X1889Y7236D02*
G01X1698Y7236D01*
G01X2175Y7522D02*
G01X2025Y7522D01*
G01X2175Y7522D02*
G01X2093Y7413D01*
G01X2134Y7413D02*
G01X2093Y7413D01*
G01X2134Y7413D02*
G01X2161Y7399D01*
G01X2161Y7399D02*
G01X2175Y7386D01*
G01X2175Y7386D02*
G01X2189Y7345D01*
G01X2189Y7345D02*
G01X2189Y7317D01*
G01X2189Y7317D02*
G01X2175Y7276D01*
G01X2175Y7276D02*
G01X2148Y7249D01*
G01X2148Y7249D02*
G01X2107Y7236D01*
G01X2066Y7236D02*
G01X2107Y7236D01*
G01X2025Y7249D02*
G01X2066Y7236D01*
G01X2011Y7263D02*
G01X2025Y7249D01*
G01X1998Y7290D02*
G01X2011Y7263D01*
G01X2543Y7358D02*
G01X2298Y7358D01*
G01X2680Y7481D02*
G01X2652Y7467D01*
G01X2721Y7522D02*
G01X2680Y7481D01*
G01X2721Y7522D02*
G01X2721Y7236D01*
G01X2843Y7467D02*
G01X2843Y7454D01*
G01X2857Y7495D02*
G01X2843Y7467D01*
G01X2871Y7508D02*
G01X2857Y7495D01*
G01X2898Y7522D02*
G01X2871Y7508D01*
G01X2952Y7522D02*
G01X2898Y7522D01*
G01X2952Y7522D02*
G01X2980Y7508D01*
G01X2980Y7508D02*
G01X2993Y7495D01*
G01X2993Y7495D02*
G01X3007Y7467D01*
G01X3007Y7467D02*
G01X3007Y7440D01*
G01X3007Y7440D02*
G01X2993Y7413D01*
G01X2993Y7413D02*
G01X2966Y7372D01*
G01X2966Y7372D02*
G01X2830Y7236D01*
G01X3021Y7236D02*
G01X2830Y7236D01*
G01X3130Y7522D02*
G01X3239Y7236D01*
G01X3348Y7522D02*
G01X3239Y7236D01*
G04 Draw part C1*
G04 draw part outline for part C1*
G54D13*
G01X8169Y14271D02*
G01X8169Y14665D01*
G01X8169Y14665D02*
G01X8759Y15255D01*
G01X8759Y15255D02*
G01X10728Y15255D01*
G01X10728Y15255D02*
G01X10728Y14271D01*
G01X8169Y13681D02*
G01X8169Y13287D01*
G01X8169Y13287D02*
G01X8759Y12696D01*
G01X8759Y12696D02*
G01X10728Y12696D01*
G01X10728Y12696D02*
G01X10728Y13681D01*
G04 draw value for part C1*
G54D11*
G01X9216Y14787D02*
G01X9080Y14596D01*
G01X9284Y14596D02*
G01X9080Y14596D01*
G01X9216Y14787D02*
G01X9216Y14501D01*
G01X9584Y14787D02*
G01X9448Y14501D01*
G01X9584Y14787D02*
G01X9393Y14787D01*
G01X9693Y14691D02*
G01X9693Y14555D01*
G01X9693Y14555D02*
G01X9707Y14514D01*
G01X9707Y14514D02*
G01X9734Y14501D01*
G01X9775Y14501D02*
G01X9734Y14501D01*
G01X9802Y14514D02*
G01X9775Y14501D01*
G01X9843Y14555D02*
G01X9802Y14514D01*
G01X9843Y14691D02*
G01X9843Y14501D01*
G04 Draw part R7*
G04 Draw part R8*
G04 Draw part R10*
G04 Draw part R12*
G04 Draw part R14*
G04 Draw part R16*
G04 Draw part R18*
G04 Draw part R20*
G04 Draw part R22*
G04 Draw part S1*
G04 Draw part S2*
G04 Draw part S3*
G04 Draw part S4*
G04 Draw part S5*
G04 Draw part S6*
G04 Draw part S7*
G04 Draw part S8*
G04 Draw part R9*
G04 Draw part R11*
G04 Draw part R13*
G04 Draw part R15*
G04 Draw part R17*
G04 Draw part R19*
G04 Draw part R21*
G04 Draw part R23*
G04 draw part outline for part R23*
G04 draw value for part R23*
G01X20473Y1180D02*
G01X20482Y1162D01*
G01X20446Y1207D02*
G01X20473Y1180D01*
G01X20446Y1207D02*
G01X20637Y1207D01*
G01X20446Y1334D02*
G01X20455Y1307D01*
G01X20455Y1307D02*
G01X20482Y1289D01*
G01X20482Y1289D02*
G01X20527Y1280D01*
G01X20527Y1280D02*
G01X20555Y1280D01*
G01X20555Y1280D02*
G01X20600Y1289D01*
G01X20600Y1289D02*
G01X20627Y1307D01*
G01X20627Y1307D02*
G01X20637Y1334D01*
G01X20637Y1352D02*
G01X20637Y1334D01*
G01X20627Y1380D02*
G01X20637Y1352D01*
G01X20600Y1398D02*
G01X20627Y1380D01*
G01X20555Y1407D02*
G01X20600Y1398D01*
G01X20527Y1407D02*
G01X20555Y1407D01*
G01X20482Y1398D02*
G01X20527Y1407D01*
G01X20455Y1380D02*
G01X20482Y1398D01*
G01X20446Y1352D02*
G01X20455Y1380D01*
G01X20446Y1334D02*
G01X20446Y1352D01*
G01X20446Y1480D02*
G01X20637Y1480D01*
G01X20509Y1571D02*
G01X20600Y1480D01*
G01X20564Y1516D02*
G01X20637Y1580D01*
G04 Draw part D1*
G04 Draw part D9*
G04 Draw part D2*
G04 Draw part D3*
G04 Draw part D4*
G04 Draw part D5*
G04 Draw part D6*
G04 Draw part D7*
G04 Draw part D8*
G04 Draw part C6*
G04 draw part outline for part C6*
G04 draw value for part C6*
G01X5329Y10299D02*
G01X5311Y10290D01*
G01X5357Y10327D02*
G01X5329Y10299D01*
G01X5357Y10327D02*
G01X5357Y10136D01*
G01X5484Y10327D02*
G01X5457Y10318D01*
G01X5457Y10318D02*
G01X5439Y10290D01*
G01X5439Y10290D02*
G01X5429Y10245D01*
G01X5429Y10245D02*
G01X5429Y10218D01*
G01X5429Y10218D02*
G01X5439Y10172D01*
G01X5439Y10172D02*
G01X5457Y10145D01*
G01X5457Y10145D02*
G01X5484Y10136D01*
G01X5502Y10136D02*
G01X5484Y10136D01*
G01X5529Y10145D02*
G01X5502Y10136D01*
G01X5548Y10172D02*
G01X5529Y10145D01*
G01X5557Y10218D02*
G01X5548Y10172D01*
G01X5557Y10245D02*
G01X5557Y10218D01*
G01X5548Y10290D02*
G01X5557Y10245D01*
G01X5529Y10318D02*
G01X5548Y10290D01*
G01X5502Y10327D02*
G01X5529Y10318D01*
G01X5484Y10327D02*
G01X5502Y10327D01*
G01X5684Y10327D02*
G01X5657Y10318D01*
G01X5657Y10318D02*
G01X5639Y10290D01*
G01X5639Y10290D02*
G01X5629Y10245D01*
G01X5629Y10245D02*
G01X5629Y10218D01*
G01X5629Y10218D02*
G01X5639Y10172D01*
G01X5639Y10172D02*
G01X5657Y10145D01*
G01X5657Y10145D02*
G01X5684Y10136D01*
G01X5702Y10136D02*
G01X5684Y10136D01*
G01X5729Y10145D02*
G01X5702Y10136D01*
G01X5748Y10172D02*
G01X5729Y10145D01*
G01X5757Y10218D02*
G01X5748Y10172D01*
G01X5757Y10245D02*
G01X5757Y10218D01*
G01X5748Y10290D02*
G01X5757Y10245D01*
G01X5729Y10318D02*
G01X5748Y10290D01*
G01X5702Y10327D02*
G01X5729Y10318D01*
G01X5684Y10327D02*
G01X5702Y10327D01*
G01X5829Y10263D02*
G01X5829Y10136D01*
G01X5857Y10254D02*
G01X5829Y10227D01*
G01X5875Y10263D02*
G01X5857Y10254D01*
G01X5902Y10263D02*
G01X5875Y10263D01*
G01X5902Y10263D02*
G01X5920Y10254D01*
G01X5920Y10254D02*
G01X5929Y10227D01*
G01X5929Y10227D02*
G01X5929Y10136D01*
G04 Draw part J2*
G04 draw part outline for part J2*
G04 Draw part J3*
G04 draw part outline for part J3*
G04 Draw part J4*
G04 draw part outline for part J4*
G04 Draw part J5*
G04 draw part outline for part J5*
G04 Draw part R24*
G04 draw part outline for part R24*
G04 draw value for part R24*
G01X7416Y12002D02*
G01X7425Y11984D01*
G01X7389Y12029D02*
G01X7416Y12002D01*
G01X7389Y12029D02*
G01X7580Y12029D01*
G01X7389Y12156D02*
G01X7398Y12129D01*
G01X7398Y12129D02*
G01X7425Y12111D01*
G01X7425Y12111D02*
G01X7470Y12102D01*
G01X7470Y12102D02*
G01X7498Y12102D01*
G01X7498Y12102D02*
G01X7543Y12111D01*
G01X7543Y12111D02*
G01X7570Y12129D01*
G01X7570Y12129D02*
G01X7580Y12156D01*
G01X7580Y12174D02*
G01X7580Y12156D01*
G01X7570Y12202D02*
G01X7580Y12174D01*
G01X7543Y12220D02*
G01X7570Y12202D01*
G01X7498Y12229D02*
G01X7543Y12220D01*
G01X7470Y12229D02*
G01X7498Y12229D01*
G01X7425Y12220D02*
G01X7470Y12229D01*
G01X7398Y12202D02*
G01X7425Y12220D01*
G01X7389Y12174D02*
G01X7398Y12202D01*
G01X7389Y12156D02*
G01X7389Y12174D01*
G01X7389Y12302D02*
G01X7580Y12302D01*
G01X7452Y12393D02*
G01X7543Y12302D01*
G01X7507Y12338D02*
G01X7580Y12402D01*
G04 Draw part R25*
G04 draw part outline for part R25*
G04 draw value for part R25*
G01X7692Y1244D02*
G01X7674Y1235D01*
G01X7719Y1272D02*
G01X7692Y1244D01*
G01X7719Y1272D02*
G01X7719Y1081D01*
G01X7846Y1272D02*
G01X7819Y1262D01*
G01X7819Y1262D02*
G01X7801Y1235D01*
G01X7801Y1235D02*
G01X7792Y1190D01*
G01X7792Y1190D02*
G01X7792Y1162D01*
G01X7792Y1162D02*
G01X7801Y1117D01*
G01X7801Y1117D02*
G01X7819Y1090D01*
G01X7819Y1090D02*
G01X7846Y1081D01*
G01X7864Y1081D02*
G01X7846Y1081D01*
G01X7892Y1090D02*
G01X7864Y1081D01*
G01X7910Y1117D02*
G01X7892Y1090D01*
G01X7919Y1162D02*
G01X7910Y1117D01*
G01X7919Y1190D02*
G01X7919Y1162D01*
G01X7910Y1235D02*
G01X7919Y1190D01*
G01X7892Y1262D02*
G01X7910Y1235D01*
G01X7864Y1272D02*
G01X7892Y1262D01*
G01X7846Y1272D02*
G01X7864Y1272D01*
G01X7992Y1272D02*
G01X7992Y1081D01*
G01X8083Y1208D02*
G01X7992Y1117D01*
G01X8028Y1153D02*
G01X8092Y1081D01*
G04 Draw part D10*
G04 draw part outline for part D10*
G01X1771Y787D02*
G01X1771Y1574D01*
G04 draw value for part D10*
G01X2888Y1141D02*
G01X2906Y1150D01*
G01X2860Y1114D02*
G01X2888Y1141D01*
G01X2860Y1114D02*
G01X2860Y1305D01*
G01X2788Y1114D02*
G01X2788Y1305D01*
G01X2788Y1114D02*
G01X2660Y1305D01*
G01X2660Y1114D02*
G01X2660Y1305D01*
G01X2497Y1114D02*
G01X2588Y1241D01*
G01X2451Y1241D02*
G01X2588Y1241D01*
G01X2497Y1114D02*
G01X2497Y1305D01*
G01X2360Y1141D02*
G01X2378Y1150D01*
G01X2333Y1114D02*
G01X2360Y1141D01*
G01X2333Y1114D02*
G01X2333Y1305D01*
G01X2169Y1114D02*
G01X2260Y1241D01*
G01X2124Y1241D02*
G01X2260Y1241D01*
G01X2169Y1114D02*
G01X2169Y1305D01*
G01X2006Y1114D02*
G01X2033Y1123D01*
G01X2033Y1123D02*
G01X2042Y1141D01*
G01X2042Y1141D02*
G01X2042Y1160D01*
G01X2042Y1160D02*
G01X2033Y1178D01*
G01X2033Y1178D02*
G01X2015Y1187D01*
G01X2015Y1187D02*
G01X1978Y1196D01*
G01X1978Y1196D02*
G01X1951Y1205D01*
G01X1951Y1205D02*
G01X1933Y1223D01*
G01X1933Y1223D02*
G01X1924Y1241D01*
G01X1924Y1241D02*
G01X1924Y1269D01*
G01X1924Y1269D02*
G01X1933Y1287D01*
G01X1933Y1287D02*
G01X1942Y1296D01*
G01X1942Y1296D02*
G01X1969Y1305D01*
G01X2006Y1305D02*
G01X1969Y1305D01*
G01X2033Y1296D02*
G01X2006Y1305D01*
G01X2042Y1287D02*
G01X2033Y1296D01*
G01X2051Y1269D02*
G01X2042Y1287D01*
G01X2051Y1241D02*
G01X2051Y1269D01*
G01X2042Y1223D02*
G01X2051Y1241D01*
G01X2024Y1205D02*
G01X2042Y1223D01*
G01X1997Y1196D02*
G01X2024Y1205D01*
G01X1960Y1187D02*
G01X1997Y1196D01*
G01X1942Y1178D02*
G01X1960Y1187D01*
G01X1933Y1160D02*
G01X1942Y1178D01*
G01X1933Y1141D02*
G01X1933Y1160D01*
G01X1942Y1123D02*
G01X1933Y1141D01*
G01X1969Y1114D02*
G01X1942Y1123D01*
G01X2006Y1114D02*
G01X1969Y1114D01*

G04 Draw traces*

G04 Draw Text*
G01X17519Y13278D02*
G01X17519Y12992D01*
G01X17519Y12992D02*
G01X17683Y12992D01*
G01X17792Y13278D02*
G01X17792Y12992D01*
G01X17792Y13278D02*
G01X17969Y13278D01*
G01X17792Y13142D02*
G01X17901Y13142D01*
G01X17792Y12992D02*
G01X17969Y12992D01*
G01X18078Y13278D02*
G01X18078Y12992D01*
G01X18078Y13278D02*
G01X18174Y13278D01*
G01X18174Y13278D02*
G01X18215Y13264D01*
G01X18215Y13264D02*
G01X18242Y13237D01*
G01X18242Y13237D02*
G01X18256Y13210D01*
G01X18256Y13210D02*
G01X18269Y13169D01*
G01X18269Y13169D02*
G01X18269Y13101D01*
G01X18269Y13101D02*
G01X18256Y13060D01*
G01X18256Y13060D02*
G01X18242Y13033D01*
G01X18242Y13033D02*
G01X18215Y13005D01*
G01X18215Y13005D02*
G01X18174Y12992D01*
G01X18174Y12992D02*
G01X18078Y12992D01*
G01X18596Y13278D02*
G01X18596Y12992D01*
G01X18596Y13278D02*
G01X18719Y13278D01*
G01X18719Y13278D02*
G01X18760Y13264D01*
G01X18760Y13264D02*
G01X18774Y13251D01*
G01X18774Y13251D02*
G01X18787Y13223D01*
G01X18787Y13223D02*
G01X18787Y13196D01*
G01X18787Y13196D02*
G01X18774Y13169D01*
G01X18774Y13169D02*
G01X18760Y13155D01*
G01X18760Y13155D02*
G01X18719Y13142D01*
G01X18719Y13142D02*
G01X18596Y13142D01*
G01X18692Y13142D02*
G01X18787Y12992D01*
G01X18896Y13101D02*
G01X19060Y13101D01*
G01X19060Y13101D02*
G01X19060Y13128D01*
G01X19060Y13128D02*
G01X19046Y13155D01*
G01X19046Y13155D02*
G01X19033Y13169D01*
G01X19033Y13169D02*
G01X19006Y13183D01*
G01X19006Y13183D02*
G01X18965Y13183D01*
G01X18965Y13183D02*
G01X18937Y13169D01*
G01X18937Y13169D02*
G01X18910Y13142D01*
G01X18910Y13142D02*
G01X18896Y13101D01*
G01X18896Y13101D02*
G01X18896Y13073D01*
G01X18896Y13073D02*
G01X18910Y13033D01*
G01X18910Y13033D02*
G01X18937Y13005D01*
G01X18937Y13005D02*
G01X18965Y12992D01*
G01X18965Y12992D02*
G01X19006Y12992D01*
G01X19006Y12992D02*
G01X19033Y13005D01*
G01X19033Y13005D02*
G01X19060Y13033D01*
G01X19169Y13183D02*
G01X19169Y12992D01*
G01X19169Y13128D02*
G01X19210Y13169D01*
G01X19210Y13169D02*
G01X19237Y13183D01*
G01X19237Y13183D02*
G01X19278Y13183D01*
G01X19278Y13183D02*
G01X19306Y13169D01*
G01X19306Y13169D02*
G01X19319Y13128D01*
G01X19319Y13128D02*
G01X19319Y12992D01*
G01X19319Y13128D02*
G01X19360Y13169D01*
G01X19360Y13169D02*
G01X19387Y13183D01*
G01X19387Y13183D02*
G01X19428Y13183D01*
G01X19428Y13183D02*
G01X19456Y13169D01*
G01X19456Y13169D02*
G01X19469Y13128D01*
G01X19469Y13128D02*
G01X19469Y12992D01*
G01X19646Y13183D02*
G01X19619Y13169D01*
G01X19619Y13169D02*
G01X19592Y13142D01*
G01X19592Y13142D02*
G01X19578Y13101D01*
G01X19578Y13101D02*
G01X19578Y13073D01*
G01X19578Y13073D02*
G01X19592Y13033D01*
G01X19592Y13033D02*
G01X19619Y13005D01*
G01X19619Y13005D02*
G01X19646Y12992D01*
G01X19646Y12992D02*
G01X19687Y12992D01*
G01X19687Y12992D02*
G01X19715Y13005D01*
G01X19715Y13005D02*
G01X19742Y13033D01*
G01X19742Y13033D02*
G01X19756Y13073D01*
G01X19756Y13073D02*
G01X19756Y13101D01*
G01X19756Y13101D02*
G01X19742Y13142D01*
G01X19742Y13142D02*
G01X19715Y13169D01*
G01X19715Y13169D02*
G01X19687Y13183D01*
G01X19687Y13183D02*
G01X19646Y13183D01*
G01X19906Y13278D02*
G01X19906Y13046D01*
G01X19906Y13046D02*
G01X19919Y13005D01*
G01X19919Y13005D02*
G01X19946Y12992D01*
G01X19946Y12992D02*
G01X19974Y12992D01*
G01X19865Y13183D02*
G01X19960Y13183D01*
G01X20083Y13101D02*
G01X20246Y13101D01*
G01X20246Y13101D02*
G01X20246Y13128D01*
G01X20246Y13128D02*
G01X20233Y13155D01*
G01X20233Y13155D02*
G01X20219Y13169D01*
G01X20219Y13169D02*
G01X20192Y13183D01*
G01X20192Y13183D02*
G01X20151Y13183D01*
G01X20151Y13183D02*
G01X20124Y13169D01*
G01X20124Y13169D02*
G01X20096Y13142D01*
G01X20096Y13142D02*
G01X20083Y13101D01*
G01X20083Y13101D02*
G01X20083Y13073D01*
G01X20083Y13073D02*
G01X20096Y13033D01*
G01X20096Y13033D02*
G01X20124Y13005D01*
G01X20124Y13005D02*
G01X20151Y12992D01*
G01X20151Y12992D02*
G01X20192Y12992D01*
G01X20192Y12992D02*
G01X20219Y13005D01*
G01X20219Y13005D02*
G01X20246Y13033D01*
G01X17656Y13869D02*
G01X17656Y13650D01*
G01X17656Y13650D02*
G01X17642Y13609D01*
G01X17642Y13609D02*
G01X17628Y13596D01*
G01X17628Y13596D02*
G01X17601Y13582D01*
G01X17601Y13582D02*
G01X17574Y13582D01*
G01X17574Y13582D02*
G01X17546Y13596D01*
G01X17546Y13596D02*
G01X17533Y13609D01*
G01X17533Y13609D02*
G01X17519Y13650D01*
G01X17519Y13650D02*
G01X17519Y13678D01*
G01X18078Y13869D02*
G01X18078Y13582D01*
G01X17983Y13869D02*
G01X18174Y13869D01*
G01X18446Y13773D02*
G01X18446Y13582D01*
G01X18446Y13732D02*
G01X18419Y13759D01*
G01X18419Y13759D02*
G01X18392Y13773D01*
G01X18392Y13773D02*
G01X18351Y13773D01*
G01X18351Y13773D02*
G01X18324Y13759D01*
G01X18324Y13759D02*
G01X18296Y13732D01*
G01X18296Y13732D02*
G01X18283Y13691D01*
G01X18283Y13691D02*
G01X18283Y13664D01*
G01X18283Y13664D02*
G01X18296Y13623D01*
G01X18296Y13623D02*
G01X18324Y13596D01*
G01X18324Y13596D02*
G01X18351Y13582D01*
G01X18351Y13582D02*
G01X18392Y13582D01*
G01X18392Y13582D02*
G01X18419Y13596D01*
G01X18419Y13596D02*
G01X18446Y13623D01*
G01X18569Y13773D02*
G01X18651Y13582D01*
G01X18733Y13773D02*
G01X18651Y13582D01*
G01X18651Y13582D02*
G01X18624Y13528D01*
G01X18624Y13528D02*
G01X18596Y13500D01*
G01X18596Y13500D02*
G01X18569Y13487D01*
G01X18569Y13487D02*
G01X18556Y13487D01*
G01X18842Y13869D02*
G01X18842Y13582D01*
G01X19019Y13773D02*
G01X18992Y13759D01*
G01X18992Y13759D02*
G01X18965Y13732D01*
G01X18965Y13732D02*
G01X18951Y13691D01*
G01X18951Y13691D02*
G01X18951Y13664D01*
G01X18951Y13664D02*
G01X18965Y13623D01*
G01X18965Y13623D02*
G01X18992Y13596D01*
G01X18992Y13596D02*
G01X19019Y13582D01*
G01X19019Y13582D02*
G01X19060Y13582D01*
G01X19060Y13582D02*
G01X19087Y13596D01*
G01X19087Y13596D02*
G01X19115Y13623D01*
G01X19115Y13623D02*
G01X19128Y13664D01*
G01X19128Y13664D02*
G01X19128Y13691D01*
G01X19128Y13691D02*
G01X19115Y13732D01*
G01X19115Y13732D02*
G01X19087Y13759D01*
G01X19087Y13759D02*
G01X19060Y13773D01*
G01X19060Y13773D02*
G01X19019Y13773D01*
G01X19237Y13773D02*
G01X19237Y13582D01*
G01X19237Y13691D02*
G01X19251Y13732D01*
G01X19251Y13732D02*
G01X19278Y13759D01*
G01X19278Y13759D02*
G01X19306Y13773D01*
G01X19306Y13773D02*
G01X19346Y13773D01*
G01X17533Y12619D02*
G01X17533Y12633D01*
G01X17533Y12633D02*
G01X17546Y12660D01*
G01X17546Y12660D02*
G01X17560Y12674D01*
G01X17560Y12674D02*
G01X17587Y12687D01*
G01X17587Y12687D02*
G01X17642Y12687D01*
G01X17642Y12687D02*
G01X17669Y12674D01*
G01X17669Y12674D02*
G01X17683Y12660D01*
G01X17683Y12660D02*
G01X17696Y12633D01*
G01X17696Y12633D02*
G01X17696Y12606D01*
G01X17696Y12606D02*
G01X17683Y12578D01*
G01X17683Y12578D02*
G01X17656Y12537D01*
G01X17656Y12537D02*
G01X17519Y12401D01*
G01X17519Y12401D02*
G01X17710Y12401D01*
G01X17901Y12687D02*
G01X17860Y12674D01*
G01X17860Y12674D02*
G01X17833Y12633D01*
G01X17833Y12633D02*
G01X17819Y12565D01*
G01X17819Y12565D02*
G01X17819Y12524D01*
G01X17819Y12524D02*
G01X17833Y12456D01*
G01X17833Y12456D02*
G01X17860Y12415D01*
G01X17860Y12415D02*
G01X17901Y12401D01*
G01X17901Y12401D02*
G01X17928Y12401D01*
G01X17928Y12401D02*
G01X17969Y12415D01*
G01X17969Y12415D02*
G01X17996Y12456D01*
G01X17996Y12456D02*
G01X18010Y12524D01*
G01X18010Y12524D02*
G01X18010Y12565D01*
G01X18010Y12565D02*
G01X17996Y12633D01*
G01X17996Y12633D02*
G01X17969Y12674D01*
G01X17969Y12674D02*
G01X17928Y12687D01*
G01X17928Y12687D02*
G01X17901Y12687D01*
G01X18119Y12633D02*
G01X18146Y12647D01*
G01X18146Y12647D02*
G01X18187Y12687D01*
G01X18187Y12687D02*
G01X18187Y12401D01*
G01X18474Y12592D02*
G01X18460Y12551D01*
G01X18460Y12551D02*
G01X18433Y12524D01*
G01X18433Y12524D02*
G01X18392Y12510D01*
G01X18392Y12510D02*
G01X18378Y12510D01*
G01X18378Y12510D02*
G01X18337Y12524D01*
G01X18337Y12524D02*
G01X18310Y12551D01*
G01X18310Y12551D02*
G01X18296Y12592D01*
G01X18296Y12592D02*
G01X18296Y12606D01*
G01X18296Y12606D02*
G01X18310Y12647D01*
G01X18310Y12647D02*
G01X18337Y12674D01*
G01X18337Y12674D02*
G01X18378Y12687D01*
G01X18378Y12687D02*
G01X18392Y12687D01*
G01X18392Y12687D02*
G01X18433Y12674D01*
G01X18433Y12674D02*
G01X18460Y12647D01*
G01X18460Y12647D02*
G01X18474Y12592D01*
G01X18474Y12592D02*
G01X18474Y12524D01*
G01X18474Y12524D02*
G01X18460Y12456D01*
G01X18460Y12456D02*
G01X18433Y12415D01*
G01X18433Y12415D02*
G01X18392Y12401D01*
G01X18392Y12401D02*
G01X18365Y12401D01*
G01X18365Y12401D02*
G01X18324Y12415D01*
G01X18324Y12415D02*
G01X18310Y12442D01*
G01X18583Y12524D02*
G01X18828Y12524D01*
G01X18937Y12633D02*
G01X18965Y12647D01*
G01X18965Y12647D02*
G01X19006Y12687D01*
G01X19006Y12687D02*
G01X19006Y12401D01*
G01X19196Y12687D02*
G01X19156Y12674D01*
G01X19156Y12674D02*
G01X19128Y12633D01*
G01X19128Y12633D02*
G01X19115Y12565D01*
G01X19115Y12565D02*
G01X19115Y12524D01*
G01X19115Y12524D02*
G01X19128Y12456D01*
G01X19128Y12456D02*
G01X19156Y12415D01*
G01X19156Y12415D02*
G01X19196Y12401D01*
G01X19196Y12401D02*
G01X19224Y12401D01*
G01X19224Y12401D02*
G01X19265Y12415D01*
G01X19265Y12415D02*
G01X19292Y12456D01*
G01X19292Y12456D02*
G01X19306Y12524D01*
G01X19306Y12524D02*
G01X19306Y12565D01*
G01X19306Y12565D02*
G01X19292Y12633D01*
G01X19292Y12633D02*
G01X19265Y12674D01*
G01X19265Y12674D02*
G01X19224Y12687D01*
G01X19224Y12687D02*
G01X19196Y12687D01*
G01X19415Y12524D02*
G01X19660Y12524D01*
G01X19783Y12619D02*
G01X19783Y12633D01*
G01X19783Y12633D02*
G01X19796Y12660D01*
G01X19796Y12660D02*
G01X19810Y12674D01*
G01X19810Y12674D02*
G01X19837Y12687D01*
G01X19837Y12687D02*
G01X19892Y12687D01*
G01X19892Y12687D02*
G01X19919Y12674D01*
G01X19919Y12674D02*
G01X19933Y12660D01*
G01X19933Y12660D02*
G01X19946Y12633D01*
G01X19946Y12633D02*
G01X19946Y12606D01*
G01X19946Y12606D02*
G01X19933Y12578D01*
G01X19933Y12578D02*
G01X19906Y12537D01*
G01X19906Y12537D02*
G01X19769Y12401D01*
G01X19769Y12401D02*
G01X19960Y12401D01*
G01X20260Y12687D02*
G01X20124Y12401D01*
G01X20069Y12687D02*
G01X20260Y12687D01*
M00*
M02*
