G04 FreePCB version 1.359*
G04 C:\JPT\Projects\19\1908 - LED Light\FreePCB\Remote\CAM\top_copper.grb*
G04 top copper layer *
G04 Scale: 100 percent, Rotated: No, Reflected: No *
%FSLAX24Y24*%
%MOIN*%
%LN top copper *%
G04 Rounded Rectangle Macro, params: W/2, H/2, R *
%AMRNDREC*
21,1,$1+$1,$2+$2-$3-$3,0,0,0*
21,1,$1+$1-$3-$3,$2+$2,0,0,0*
1,1,$3+$3,$1-$3,$2-$3*
1,1,$3+$3,$3-$1,$2-$3*
1,1,$3+$3,$1-$3,$3-$2*
1,1,$3+$3,$3-$1,$3-$2*%
G04 Rectangular Thermal Macro, params: W/2, H/2, T/2 *
%AMRECTHERM*
$4=$3/2*
21,1,$1-$3,$2-$3,0-$1/2-$4,0-$2/2-$4,0*
21,1,$1-$3,$2-$3,0-$1/2-$4,$2/2+$4,0*
21,1,$1-$3,$2-$3,$1/2+$4,0-$2/2-$4,0*
21,1,$1-$3,$2-$3,$1/2+$4,$2/2+$4,0*%
%ADD10R,0.070000X0.170000*%
%ADD11RECTHERM,0.035000X0.085000X0.010000*%
%ADD12C,0.001000*%
%ADD13R,0.050000X0.050000*%
%ADD14R,0.039685X0.079055*%
%ADD15RECTHERM,0.019843X0.039528X0.010000*%
%ADD16RECTHERM,0.025000X0.025000X0.010000*%
%ADD17RECTHERM,0.030000X0.040000X0.010000*%
%ADD18R,0.060000X0.080000*%
%ADD19R,0.270000X0.270000*%
%ADD20R,0.157795X0.059370*%
%ADD21RECTHERM,0.078898X0.029685X0.010000*%
%ADD22RECTHERM,0.045000X0.045000X0.010000*%
%ADD23C,0.090000*%
%AMTHERM24*7,0,0,0.177480,0.157480,0.020000,45.0*%
%ADD24THERM24*%
%ADD25C,0.177480*%
%ADD26R,0.090000X0.090000*%
%ADD27C,0.090866*%
%AMTHERM28*7,0,0,0.090866,0.070866,0.020000,45.0*%
%ADD28THERM28*%
%ADD29C,0.048000*%
%ADD30C,0.040000*%
%ADD31R,0.050000X0.150000*%
%ADD32R,0.030000X0.030000*%
%ADD33R,0.019685X0.059055*%
%ADD34R,0.040000X0.060000*%
%ADD35R,0.250000X0.250000*%
%ADD36R,0.137795X0.039370*%
%ADD37R,0.070000X0.070000*%
%ADD38C,0.070000*%
%ADD39C,0.157480*%
%ADD40C,0.070866*%
%ADD41C,0.276000*%
%ADD42C,0.028000*%
%ADD43C,0.020000*%
G90*
G70D02*

G04 Step and Repeat for panelization *

G04 ----------------------- Draw copper area (positive)*
G36*
G01X23425Y196D02*
G01X196Y196D01*
G01X196Y15551D01*
G01X23425Y15551D01*
G01X23425Y196D01*
G37*

G04 -------------------- Draw copper area clearances (negative)*
%LPC*%

G04 Draw clearances for pads*
G54D10*
G01X14311Y787D03*
G01X13311Y787D03*
G54D11*
G01X12311Y787D03*
G54D12*
G54D10*
G01X11311Y787D03*
G01X10311Y787D03*
G01X9311Y787D03*
G54D13*
G01X14079Y2440D03*
G01X13479Y2440D03*
G54D14*
G01X12311Y9055D03*
G01X11811Y9055D03*
G01X11311Y9055D03*
G01X10811Y9055D03*
G01X10811Y6692D03*
G01X11311Y6692D03*
G01X11811Y6692D03*
G01X12311Y6692D03*
G01X12811Y9055D03*
G01X12811Y6692D03*
G01X10311Y9055D03*
G01X10311Y6692D03*
G01X13311Y9055D03*
G54D15*
G01X13311Y6692D03*
G54D12*
G54D13*
G01X13976Y8174D03*
G54D16*
G01X13976Y7574D03*
G54D12*
G54D13*
G01X15354Y1284D03*
G54D16*
G01X15354Y684D03*
G54D12*
G54D13*
G01X9700Y1968D03*
G01X10300Y1968D03*
G54D17*
G01X7209Y7730D03*
G54D12*
G54D18*
G01X6299Y7730D03*
G01X5389Y7730D03*
G54D19*
G01X6299Y5025D03*
G54D20*
G01X16732Y13976D03*
G54D21*
G01X14763Y13976D03*
G54D12*
G54D13*
G01X13479Y2913D03*
G54D16*
G01X14079Y2913D03*
G54D12*
G54D13*
G01X20251Y3267D03*
G54D16*
G01X20851Y3267D03*
G54D12*
G54D13*
G01X13479Y1968D03*
G01X14079Y1968D03*
G54D22*
G01X21078Y4133D03*
G54D12*
G54D23*
G01X20078Y4133D03*
G01X19078Y4133D03*
G54D13*
G01X14660Y1968D03*
G01X15260Y1968D03*
G01X10300Y2440D03*
G54D16*
G01X9700Y2440D03*
G54D12*
G54D24*
G01X2362Y3149D03*
G54D12*
G54D24*
G01X2362Y5511D03*
G54D12*
G54D25*
G01X2362Y10236D03*
G01X2362Y12598D03*
G54D20*
G01X8464Y13976D03*
G54D21*
G01X10433Y13976D03*
G54D12*
G54D13*
G01X20251Y1377D03*
G01X20851Y1377D03*
G54D26*
G01X20685Y5511D03*
G54D23*
G01X18685Y5511D03*
G54D27*
G01X21547Y1377D03*
G54D28*
G01X22547Y1377D03*
G54D12*
G54D26*
G01X16748Y3543D03*
G54D23*
G01X14748Y3543D03*
G54D26*
G01X16748Y12204D03*
G54D23*
G01X14748Y12204D03*
G54D26*
G01X13598Y3543D03*
G54D23*
G01X11598Y3543D03*
G54D26*
G01X13598Y12204D03*
G54D23*
G01X11598Y12204D03*
G54D26*
G01X10448Y3543D03*
G54D23*
G01X8448Y3543D03*
G54D26*
G01X10448Y12204D03*
G54D23*
G01X8448Y12204D03*
G54D26*
G01X7480Y8842D03*
G54D23*
G01X7480Y10842D03*
G54D13*
G01X5511Y10536D03*
G54D16*
G01X5511Y9936D03*
G54D12*
G54D13*
G01X7780Y12204D03*
G54D16*
G01X7180Y12204D03*
G54D12*
G54D13*
G01X7874Y1481D03*
G54D16*
G01X7874Y881D03*
G54D12*

G04 Draw clearances for traces*
G54D29*
G01X10811Y5526D03*
G54D30*
G01X10811Y5526D02*
G01X10811Y6692D01*
G54D29*
G01X11311Y10393D03*
G54D30*
G01X11311Y9055D02*
G01X11311Y10393D01*
G54D29*
G01X10311Y6102D03*
G54D30*
G01X10311Y6692D02*
G01X10311Y6102D01*
G54D29*
G01X10811Y9645D03*
G54D30*
G01X10811Y9055D02*
G01X10811Y9645D01*
G54D29*
G01X12811Y9566D03*
G54D30*
G01X12811Y9055D02*
G01X12811Y9566D01*
G01X15354Y1284D02*
G01X15354Y1874D01*
G01X15354Y1874D02*
G01X15260Y1968D01*
G54D29*
G01X11311Y6102D03*
G54D30*
G01X11311Y6692D02*
G01X11311Y6102D01*
G01X14079Y1968D02*
G01X14094Y1968D01*
G01X14094Y1968D02*
G01X14311Y1751D01*
G01X14311Y1751D02*
G01X14311Y787D01*
G01X14660Y1968D02*
G01X14527Y1968D01*
G01X14527Y1968D02*
G01X14311Y1751D01*
G54D29*
G01X11811Y7874D03*
G54D30*
G01X11811Y9055D02*
G01X11811Y7874D01*
G54D29*
G01X14311Y1181D03*
G54D30*
G01X14311Y1181D02*
G01X14311Y787D01*
G54D29*
G01X12311Y10000D03*
G54D30*
G01X12311Y9055D02*
G01X12311Y10000D01*
G01X21547Y1377D02*
G01X20851Y1377D01*
G01X10300Y2440D02*
G01X10300Y1968D01*
G01X10311Y787D02*
G01X10300Y798D01*
G01X10300Y798D02*
G01X10300Y1968D01*
G01X12311Y6692D02*
G01X12311Y3188D01*
G01X12311Y3188D02*
G01X11562Y2440D01*
G01X11562Y2440D02*
G01X10300Y2440D01*
G01X11311Y787D02*
G01X11311Y1452D01*
G01X11311Y1452D02*
G01X12811Y2952D01*
G01X12811Y2952D02*
G01X12811Y6692D01*
G01X13479Y2440D02*
G01X13479Y2913D01*
G01X13479Y2913D02*
G01X13440Y2952D01*
G01X13440Y2952D02*
G01X12811Y2952D01*
G54D29*
G01X11811Y5826D03*
G54D30*
G01X11811Y6692D02*
G01X11811Y5826D01*
G01X13311Y9055D02*
G01X13311Y8839D01*
G01X13311Y8839D02*
G01X13976Y8174D01*
G54D29*
G01X13311Y1181D03*
G54D30*
G01X13311Y787D02*
G01X13311Y1181D01*
G54D29*
G01X14173Y8582D03*
G54D30*
G01X14173Y8582D02*
G01X14173Y8370D01*
G01X14173Y8370D02*
G01X13976Y8174D01*
G01X16732Y13976D02*
G01X15708Y12952D01*
G01X15708Y12952D02*
G01X15708Y10118D01*
G01X15708Y10118D02*
G01X14173Y8582D01*
G01X13311Y787D02*
G01X13311Y1800D01*
G01X13311Y1800D02*
G01X13479Y1968D01*
G54D29*
G01X14448Y2440D03*
G54D30*
G01X14079Y2440D02*
G01X14448Y2440D01*
G54D29*
G01X8661Y1968D03*
G54D30*
G01X9700Y1968D02*
G01X8661Y1968D01*
G01X6299Y5025D02*
G01X6299Y7730D01*
G01X6299Y5025D02*
G01X6299Y5000D01*
G01X6299Y5000D02*
G01X7480Y3818D01*
G01X7480Y3818D02*
G01X7480Y2795D01*
G01X7480Y2795D02*
G01X8307Y1968D01*
G01X8307Y1968D02*
G01X8661Y1968D01*
G01X7874Y1481D02*
G01X7874Y1535D01*
G01X7874Y1535D02*
G01X8307Y1968D01*
G01X8448Y12204D02*
G01X8448Y13976D01*
G01X8448Y13976D02*
G01X8464Y13976D01*
G01X20251Y3267D02*
G01X20251Y3961D01*
G01X20251Y3961D02*
G01X20078Y4133D01*
G01X20251Y1377D02*
G01X20251Y3267D01*
G54D29*
G01X4724Y7730D03*
G54D30*
G01X5389Y7730D02*
G01X4724Y7730D01*
G01X5511Y10536D02*
G01X7174Y10536D01*
G01X7174Y10536D02*
G01X7480Y10842D01*
G01X7780Y12204D02*
G01X8448Y12204D01*
G01X10311Y9055D02*
G01X10311Y9409D01*
G01X10311Y9409D02*
G01X9877Y9842D01*
G54D29*
G01X7086Y9842D03*
G54D30*
G01X9877Y9842D02*
G01X7086Y9842D01*

G04 Draw clearances for text*

G04 -------------- Draw Parts, Pads, Traces, Vias and Text (positive)*
%LPD*%
G04 Draw part U3*
G54D31*
G01X14311Y787D03*
G01X13311Y787D03*
G01X12311Y787D03*
G01X11311Y787D03*
G01X10311Y787D03*
G01X9311Y787D03*
G04 Draw part R3*
G54D32*
G01X14079Y2440D03*
G01X13479Y2440D03*
G04 Draw part U2*
G54D33*
G01X12311Y9055D03*
G01X11811Y9055D03*
G01X11311Y9055D03*
G01X10811Y9055D03*
G01X10811Y6692D03*
G01X11311Y6692D03*
G01X11811Y6692D03*
G01X12311Y6692D03*
G01X12811Y9055D03*
G01X12811Y6692D03*
G01X10311Y9055D03*
G01X10311Y6692D03*
G01X13311Y9055D03*
G01X13311Y6692D03*
G04 Draw part C3*
G54D32*
G01X13976Y8174D03*
G01X13976Y7574D03*
G04 Draw part C4*
G01X15354Y1284D03*
G01X15354Y684D03*
G04 Draw part R5*
G01X9700Y1968D03*
G01X10300Y1968D03*
G04 Draw part U1*
G54D34*
G01X7209Y7730D03*
G01X6299Y7730D03*
G01X5389Y7730D03*
G54D35*
G01X6299Y5025D03*
G04 Draw part C2*
G54D36*
G01X16732Y13976D03*
G01X14763Y13976D03*
G04 Draw part R4*
G54D32*
G01X13479Y2913D03*
G01X14079Y2913D03*
G04 Draw part C5*
G01X20251Y3267D03*
G01X20851Y3267D03*
G04 Draw part R1*
G01X13479Y1968D03*
G01X14079Y1968D03*
G04 Draw part U4*
G54D37*
G01X21078Y4133D03*
G54D38*
G01X20078Y4133D03*
G01X19078Y4133D03*
G04 Draw part R2*
G54D32*
G01X14660Y1968D03*
G01X15260Y1968D03*
G04 Draw part R6*
G01X10300Y2440D03*
G01X9700Y2440D03*
G04 Draw part J1*
G54D39*
G01X2362Y3149D03*
G01X2362Y5511D03*
G01X2362Y10236D03*
G01X2362Y12598D03*
G04 Draw part C1*
G54D36*
G01X8464Y13976D03*
G01X10433Y13976D03*
G04 Draw part R7*
G04 Draw part R8*
G04 Draw part R10*
G04 Draw part R12*
G04 Draw part R14*
G04 Draw part R16*
G04 Draw part R18*
G04 Draw part R20*
G04 Draw part R22*
G04 Draw part S1*
G04 Draw part S2*
G04 Draw part S3*
G04 Draw part S4*
G04 Draw part S5*
G04 Draw part S6*
G04 Draw part S7*
G04 Draw part S8*
G04 Draw part R9*
G04 Draw part R11*
G04 Draw part R13*
G04 Draw part R15*
G04 Draw part R17*
G04 Draw part R19*
G04 Draw part R21*
G04 Draw part R23*
G54D32*
G01X20251Y1377D03*
G01X20851Y1377D03*
G04 Draw part D1*
G54D37*
G01X20685Y5511D03*
G54D38*
G01X18685Y5511D03*
G04 Draw part D9*
G54D40*
G01X21547Y1377D03*
G01X22547Y1377D03*
G04 Draw part D2*
G54D37*
G01X16748Y3543D03*
G54D38*
G01X14748Y3543D03*
G04 Draw part D3*
G54D37*
G01X16748Y12204D03*
G54D38*
G01X14748Y12204D03*
G04 Draw part D4*
G54D37*
G01X13598Y3543D03*
G54D38*
G01X11598Y3543D03*
G04 Draw part D5*
G54D37*
G01X13598Y12204D03*
G54D38*
G01X11598Y12204D03*
G04 Draw part D6*
G54D37*
G01X10448Y3543D03*
G54D38*
G01X8448Y3543D03*
G04 Draw part D7*
G54D37*
G01X10448Y12204D03*
G54D38*
G01X8448Y12204D03*
G04 Draw part D8*
G54D37*
G01X7480Y8842D03*
G54D38*
G01X7480Y10842D03*
G04 Draw part C6*
G54D32*
G01X5511Y10536D03*
G01X5511Y9936D03*
G04 Draw part J2*
G54D41*
G01X18503Y1968D03*
G04 Draw part J3*
G01X5905Y1968D03*
G04 Draw part J4*
G01X5905Y13779D03*
G04 Draw part J5*
G01X21653Y13779D03*
G04 Draw part R24*
G54D32*
G01X7780Y12204D03*
G01X7180Y12204D03*
G04 Draw part R25*
G01X7874Y1481D03*
G01X7874Y881D03*

G04 Draw traces*
G54D42*
G01X10811Y5526D03*
G54D43*
G01X10811Y5526D02*
G01X10811Y6692D01*
G01X11311Y9055D02*
G01X11311Y10393D01*
G54D42*
G01X11311Y10393D03*
G54D43*
G01X10311Y6692D02*
G01X10311Y6102D01*
G54D42*
G01X10311Y6102D03*
G54D43*
G01X10811Y9055D02*
G01X10811Y9645D01*
G54D42*
G01X10811Y9645D03*
G54D43*
G01X12811Y9055D02*
G01X12811Y9566D01*
G54D42*
G01X12811Y9566D03*
G54D43*
G01X12311Y787D02*
G01X12311Y1181D01*
G54D42*
G01X12311Y1181D03*
G54D43*
G01X14763Y13976D02*
G01X15157Y13976D01*
G54D42*
G01X15157Y13976D03*
G54D43*
G01X10433Y13976D02*
G01X10039Y13976D01*
G54D42*
G01X10039Y13976D03*
G54D43*
G01X15354Y684D02*
G01X15748Y684D01*
G54D42*
G01X15748Y684D03*
G54D43*
G01X14079Y2913D02*
G01X14448Y2913D01*
G54D42*
G01X14448Y2913D03*
G54D43*
G01X9700Y2440D02*
G01X8661Y2440D01*
G54D42*
G01X8661Y2440D03*
G01X9448Y13818D03*
G01X12598Y13818D03*
G01X15748Y13818D03*
G01X19685Y9566D03*
G01X15748Y1929D03*
G54D43*
G01X13311Y6692D02*
G01X13311Y6220D01*
G54D42*
G01X13311Y6220D03*
G54D43*
G01X7209Y7730D02*
G01X6514Y8425D01*
G01X6514Y8425D02*
G01X6299Y8425D01*
G01X15354Y1284D02*
G01X15354Y1874D01*
G01X15354Y1874D02*
G01X15260Y1968D01*
G01X11311Y6692D02*
G01X11311Y6102D01*
G54D42*
G01X11311Y6102D03*
G54D43*
G01X14079Y1968D02*
G01X14094Y1968D01*
G01X14094Y1968D02*
G01X14311Y1751D01*
G01X14311Y1751D02*
G01X14311Y787D01*
G01X14660Y1968D02*
G01X14527Y1968D01*
G01X14527Y1968D02*
G01X14311Y1751D01*
G01X11811Y9055D02*
G01X11811Y7874D01*
G54D42*
G01X11811Y7874D03*
G01X14311Y1181D03*
G54D43*
G01X14311Y1181D02*
G01X14311Y787D01*
G01X12311Y9055D02*
G01X12311Y10000D01*
G54D42*
G01X12311Y10000D03*
G54D43*
G01X21547Y1377D02*
G01X20851Y1377D01*
G01X10300Y2440D02*
G01X10300Y1968D01*
G01X10311Y787D02*
G01X10300Y798D01*
G01X10300Y798D02*
G01X10300Y1968D01*
G01X12311Y6692D02*
G01X12311Y3188D01*
G01X12311Y3188D02*
G01X11562Y2440D01*
G01X11562Y2440D02*
G01X10300Y2440D01*
G01X11311Y787D02*
G01X11311Y1452D01*
G01X11311Y1452D02*
G01X12811Y2952D01*
G01X12811Y2952D02*
G01X12811Y6692D01*
G01X13479Y2440D02*
G01X13479Y2913D01*
G01X13479Y2913D02*
G01X13440Y2952D01*
G01X13440Y2952D02*
G01X12811Y2952D01*
G01X11811Y6692D02*
G01X11811Y5826D01*
G54D42*
G01X11811Y5826D03*
G54D43*
G01X13311Y9055D02*
G01X13311Y8839D01*
G01X13311Y8839D02*
G01X13976Y8174D01*
G01X13311Y787D02*
G01X13311Y1181D01*
G54D42*
G01X13311Y1181D03*
G01X14173Y8582D03*
G54D43*
G01X14173Y8582D02*
G01X14173Y8370D01*
G01X14173Y8370D02*
G01X13976Y8174D01*
G01X16732Y13976D02*
G01X15708Y12952D01*
G01X15708Y12952D02*
G01X15708Y10118D01*
G01X15708Y10118D02*
G01X14173Y8582D01*
G01X13311Y787D02*
G01X13311Y1800D01*
G01X13311Y1800D02*
G01X13479Y1968D01*
G01X14079Y2440D02*
G01X14448Y2440D01*
G54D42*
G01X14448Y2440D03*
G54D43*
G01X9700Y1968D02*
G01X8661Y1968D01*
G54D42*
G01X8661Y1968D03*
G54D43*
G01X6299Y5025D02*
G01X6299Y7730D01*
G01X6299Y5025D02*
G01X6299Y5000D01*
G01X6299Y5000D02*
G01X7480Y3818D01*
G01X7480Y3818D02*
G01X7480Y2795D01*
G01X7480Y2795D02*
G01X8307Y1968D01*
G01X8307Y1968D02*
G01X8661Y1968D01*
G01X7874Y1481D02*
G01X7874Y1535D01*
G01X7874Y1535D02*
G01X8307Y1968D01*
G01X8448Y12204D02*
G01X8448Y13976D01*
G01X8448Y13976D02*
G01X8464Y13976D01*
G01X20251Y3267D02*
G01X20251Y3961D01*
G01X20251Y3961D02*
G01X20078Y4133D01*
G01X20251Y1377D02*
G01X20251Y3267D01*
G01X5389Y7730D02*
G01X4724Y7730D01*
G54D42*
G01X4724Y7730D03*
G54D43*
G01X5511Y10536D02*
G01X7174Y10536D01*
G01X7174Y10536D02*
G01X7480Y10842D01*
G01X7780Y12204D02*
G01X8448Y12204D01*
G01X10311Y9055D02*
G01X10311Y9409D01*
G01X10311Y9409D02*
G01X9877Y9842D01*
G01X9877Y9842D02*
G01X7086Y9842D01*
G54D42*
G01X7086Y9842D03*

G04 Draw Text*
M00*
M02*
