;Holesize 1 =  138.0 PLATED MILS
;Holesize 2 =   32.0 PLATED MILS
;Holesize 3 =   48.0 PLATED MILS
;Holesize 4 =   59.0 PLATED MILS
;Holesize 5 =   40.0 PLATED MILS
;Holesize 6 =   12.0 PLATED MILS
M48
INCH,00.0000
T01C0.138
T02C0.032
T03C0.048
T04C0.059
T05C0.040
T06C0.012
%
G05
G90
T01
X001968Y001968
X001968Y021653
X013779Y001968
X013779Y021653
T02
X004527Y001771
X004527Y002771
X004527Y003771
X004527Y004771
T03
X001574Y019110
X001574Y017110
X014173Y005811
X014173Y007811
X014173Y009811
X014173Y011811
X014173Y013811
X014173Y015811
X014173Y017811
T04
X010039Y000787
X011417Y000787
T05
X000968Y004133
X002968Y004133
T06
X006574Y013385
X005078Y015748
X009055Y007420
X009055Y009428
X009055Y011436
X009055Y013443
X009055Y015451
X009055Y017420
X004133Y014118
X007229Y021259
X004133Y013518
X008385Y020669
X009370Y020669
X006629Y021259
X012086Y018031
X012086Y016062
X012086Y014055
X012086Y012047
X012086Y010039
X012086Y008031
M30
