;Holesize 1 =  138.0 PLATED MILS
;Holesize 2 =   32.0 PLATED MILS
;Holesize 3 =   98.0 PLATED MILS
;Holesize 4 =  118.0 PLATED MILS
;Holesize 5 =  128.0 PLATED MILS
;Holesize 6 =   40.0 PLATED MILS
;Holesize 7 =   59.0 PLATED MILS
;Holesize 8 =   12.0 PLATED MILS
M48
INCH,00.0000
T01C0.138
T02C0.032
T03C0.098
T04C0.118
T05C0.128
T06C0.040
T07C0.059
T08C0.012
%
G05
G90
T01
X005905Y013779
X021653Y013779
X001968Y001968
X021653Y001968
T02
X012992Y009842
X013992Y009842
X014992Y009842
X015992Y009842
T03
X000984Y012598
X002165Y010629
T04
X003346Y012598
T05
X001968Y008942
X001968Y004442
T06
X004468Y008442
X004468Y007442
X004468Y006442
X004468Y005442
X005468Y007942
X005468Y006942
X005468Y005942
X005468Y004942
X019094Y012779
X019094Y014779
T07
X014803Y011299
X012362Y011299
T08
X012362Y004842
X019704Y001377
X016704Y001377
X013661Y001244
X014803Y002810
X012862Y002559
X015704Y001377
X014803Y003410
X018488Y002480
X013661Y000644
X007298Y010472
X007298Y008464
X007298Y006456
X007298Y004448
X007298Y002440
X007007Y000787
M30
