G04 FreePCB version 1.359*
G04 C:\JPT\Projects\19\1908 - LED Light\FreePCB\Driver\CAM\top_copper.grb*
G04 top copper layer *
G04 Scale: 100 percent, Rotated: No, Reflected: No *
%FSLAX24Y24*%
%MOIN*%
%LN top copper *%
G04 Rounded Rectangle Macro, params: W/2, H/2, R *
%AMRNDREC*
21,1,$1+$1,$2+$2-$3-$3,0,0,0*
21,1,$1+$1-$3-$3,$2+$2,0,0,0*
1,1,$3+$3,$1-$3,$2-$3*
1,1,$3+$3,$3-$1,$2-$3*
1,1,$3+$3,$1-$3,$3-$2*
1,1,$3+$3,$3-$1,$3-$2*%
G04 Rectangular Thermal Macro, params: W/2, H/2, T/2 *
%AMRECTHERM*
$4=$3/2*
21,1,$1-$3,$2-$3,0-$1/2-$4,0-$2/2-$4,0*
21,1,$1-$3,$2-$3,0-$1/2-$4,$2/2+$4,0*
21,1,$1-$3,$2-$3,$1/2+$4,0-$2/2-$4,0*
21,1,$1-$3,$2-$3,$1/2+$4,$2/2+$4,0*%
%ADD10R,0.070000X0.170000*%
%ADD11RECTHERM,0.035000X0.085000X0.010000*%
%ADD12C,0.001000*%
%ADD13R,0.050000X0.050000*%
%ADD14R,0.039685X0.079055*%
%ADD15RECTHERM,0.019843X0.039528X0.010000*%
%ADD16RECTHERM,0.025000X0.025000X0.010000*%
%ADD17R,0.070000X0.040000*%
%ADD18RECTHERM,0.035000X0.020000X0.010000*%
%ADD19RECTHERM,0.030000X0.040000X0.010000*%
%ADD20R,0.060000X0.080000*%
%ADD21R,0.270000X0.270000*%
%ADD22R,0.157795X0.059370*%
%ADD23RECTHERM,0.078898X0.029685X0.010000*%
%ADD24RECTHERM,0.045000X0.045000X0.010000*%
%ADD25C,0.090000*%
%AMTHERM26*7,0,0,0.090000,0.070000,0.020000,45.0*%
%ADD26THERM26*%
%ADD27C,0.040000*%
%ADD28C,0.048000*%
%ADD29C,0.060000*%
%ADD30R,0.050000X0.150000*%
%ADD31R,0.030000X0.030000*%
%ADD32C,0.276000*%
%ADD33R,0.019685X0.059055*%
%ADD34R,0.050000X0.020000*%
%ADD35R,0.040000X0.060000*%
%ADD36R,0.250000X0.250000*%
%ADD37R,0.137795X0.039370*%
%ADD38R,0.070000X0.070000*%
%ADD39C,0.070000*%
%ADD40C,0.020000*%
%ADD41C,0.028000*%
G90*
G70D02*

G04 Step and Repeat for panelization *

G04 ----------------------- Draw copper area (positive)*
G36*
G01X15551Y196D02*
G01X196Y196D01*
G01X196Y23425D01*
G01X15551Y23425D01*
G01X15551Y196D01*
G37*

G04 -------------------- Draw copper area clearances (negative)*
%LPC*%

G04 Draw clearances for pads*
G54D10*
G01X5374Y22755D03*
G01X6374Y22755D03*
G54D11*
G01X7374Y22755D03*
G54D12*
G54D10*
G01X8374Y22755D03*
G01X9374Y22755D03*
G01X10374Y22755D03*
G54D13*
G01X6166Y21535D03*
G01X5566Y21535D03*
G54D12*
G54D14*
G01X6074Y12637D03*
G01X6574Y12637D03*
G01X7074Y12637D03*
G01X7574Y12637D03*
G01X7574Y15000D03*
G01X7074Y15000D03*
G01X6574Y15000D03*
G01X6074Y15000D03*
G01X5574Y12637D03*
G01X5574Y15000D03*
G01X8074Y12637D03*
G01X8074Y15000D03*
G01X5074Y12637D03*
G54D15*
G01X5074Y15000D03*
G54D12*
G54D13*
G01X4448Y13518D03*
G54D16*
G01X4448Y14118D03*
G54D12*
G54D13*
G01X6629Y21535D03*
G54D16*
G01X7229Y21535D03*
G54D12*
G54D13*
G01X8385Y20959D03*
G01X8385Y21559D03*
G01X9370Y20959D03*
G01X9370Y21559D03*
G54D17*
G01X9618Y12186D03*
G01X10618Y11806D03*
G54D18*
G01X9618Y11436D03*
G54D12*
G54D13*
G01X11796Y12047D03*
G01X11196Y12047D03*
G01X11196Y11574D03*
G01X11796Y11574D03*
G54D12*
G54D17*
G01X9618Y10178D03*
G01X10618Y9798D03*
G54D18*
G01X9618Y9428D03*
G54D12*
G54D13*
G01X11796Y10039D03*
G01X11196Y10039D03*
G01X11196Y9566D03*
G01X11796Y9566D03*
G54D17*
G01X9618Y8170D03*
G01X10618Y7790D03*
G54D18*
G01X9618Y7420D03*
G54D12*
G54D13*
G01X11796Y8031D03*
G01X11196Y8031D03*
G01X11196Y7559D03*
G01X11796Y7559D03*
G54D17*
G01X9618Y18170D03*
G01X10618Y17790D03*
G54D18*
G01X9618Y17420D03*
G54D12*
G54D13*
G01X11796Y18031D03*
G01X11196Y18031D03*
G01X11196Y17559D03*
G01X11796Y17559D03*
G54D17*
G01X9618Y16201D03*
G01X10618Y15821D03*
G54D18*
G01X9618Y15451D03*
G54D12*
G54D13*
G01X11796Y16062D03*
G01X11196Y16062D03*
G01X11196Y15590D03*
G01X11796Y15590D03*
G54D17*
G01X9618Y14193D03*
G01X10618Y13813D03*
G54D18*
G01X9618Y13443D03*
G54D12*
G54D13*
G01X11796Y14055D03*
G01X11196Y14055D03*
G01X11196Y13582D03*
G01X11796Y13582D03*
G54D19*
G01X2878Y11667D03*
G54D12*
G54D20*
G01X1968Y11667D03*
G01X1058Y11667D03*
G54D21*
G01X1968Y8962D03*
G54D22*
G01X984Y5511D03*
G54D23*
G01X2952Y5511D03*
G54D12*
G54D22*
G01X984Y13976D03*
G54D23*
G01X2952Y13976D03*
G54D12*
G54D24*
G01X4527Y1771D03*
G54D12*
G54D25*
G01X4527Y2771D03*
G01X4527Y3771D03*
G01X4527Y4771D03*
G54D13*
G01X9700Y3267D03*
G01X10300Y3267D03*
G01X10300Y3779D03*
G54D16*
G01X9700Y3779D03*
G54D12*
G54D13*
G01X5575Y20944D03*
G01X4975Y20944D03*
G01X4985Y21535D03*
G54D16*
G01X4385Y21535D03*
G54D12*
G54D25*
G01X1574Y19110D03*
G54D26*
G01X1574Y17110D03*
G54D12*
G54D25*
G01X14173Y5811D03*
G01X14173Y7811D03*
G01X14173Y9811D03*
G01X14173Y11811D03*
G01X14173Y13811D03*
G01X14173Y15811D03*
G01X14173Y17811D03*

G04 Draw clearances for traces*
G54D27*
G01X10300Y3779D02*
G01X10300Y3267D01*
G54D28*
G01X6574Y14291D03*
G54D27*
G01X6574Y15000D02*
G01X6574Y14291D01*
G54D28*
G01X9685Y5590D03*
G54D27*
G01X9685Y5590D02*
G01X10300Y4975D01*
G01X10300Y4975D02*
G01X10300Y3779D01*
G01X11196Y13582D02*
G01X11196Y14055D01*
G01X7574Y12637D02*
G01X7574Y11855D01*
G01X7574Y11855D02*
G01X9251Y10178D01*
G01X9251Y10178D02*
G01X9618Y10178D01*
G01X7074Y12637D02*
G01X7074Y10347D01*
G01X7074Y10347D02*
G01X9251Y8170D01*
G01X9251Y8170D02*
G01X9618Y8170D01*
G01X7074Y15000D02*
G01X7074Y16050D01*
G01X7074Y16050D02*
G01X9194Y18170D01*
G01X9194Y18170D02*
G01X9618Y18170D01*
G01X7574Y15000D02*
G01X7574Y15331D01*
G01X7574Y15331D02*
G01X8445Y16201D01*
G01X8445Y16201D02*
G01X9618Y16201D01*
G01X8374Y22755D02*
G01X8385Y22744D01*
G01X8385Y22744D02*
G01X8385Y21559D01*
G01X8385Y21559D02*
G01X8149Y21559D01*
G01X8149Y21559D02*
G01X5574Y18985D01*
G01X5574Y18985D02*
G01X5574Y15000D01*
G01X8074Y15000D02*
G01X8880Y14193D01*
G01X8880Y14193D02*
G01X9618Y14193D01*
G01X9370Y21559D02*
G01X9370Y22755D01*
G01X9370Y22755D02*
G01X9374Y22755D01*
G01X6074Y15000D02*
G01X6074Y17767D01*
G01X6074Y17767D02*
G01X8897Y20590D01*
G01X8897Y20590D02*
G01X8897Y21323D01*
G01X8897Y21323D02*
G01X9133Y21559D01*
G01X9133Y21559D02*
G01X9370Y21559D01*
G01X8074Y12637D02*
G01X8526Y12186D01*
G01X8526Y12186D02*
G01X9618Y12186D01*
G01X4527Y2771D02*
G01X5023Y3267D01*
G01X5023Y3267D02*
G01X9700Y3267D01*
G01X4527Y3771D02*
G01X5023Y3267D01*
G01X11196Y11574D02*
G01X11196Y12047D01*
G01X11796Y15590D02*
G01X11796Y15340D01*
G01X11796Y15340D02*
G01X11573Y15118D01*
G01X11573Y15118D02*
G01X10944Y15118D01*
G01X10944Y15118D02*
G01X10618Y15444D01*
G01X10618Y15444D02*
G01X10618Y15821D01*
G01X14173Y15811D02*
G01X13952Y15590D01*
G01X13952Y15590D02*
G01X11796Y15590D01*
G01X5566Y21535D02*
G01X5566Y22563D01*
G01X5566Y22563D02*
G01X5374Y22755D01*
G01X5566Y21535D02*
G01X5575Y21525D01*
G01X5575Y21525D02*
G01X5575Y20944D01*
G54D28*
G01X6574Y13346D03*
G54D27*
G01X6574Y12637D02*
G01X6574Y13346D01*
G54D28*
G01X5575Y20472D03*
G54D27*
G01X5575Y20472D02*
G01X5575Y20944D01*
G01X10618Y17790D02*
G01X10618Y17334D01*
G01X10618Y17334D02*
G01X10866Y17086D01*
G01X10866Y17086D02*
G01X11559Y17086D01*
G01X11559Y17086D02*
G01X11796Y17322D01*
G01X11796Y17322D02*
G01X11796Y17559D01*
G01X14173Y17811D02*
G01X13921Y17559D01*
G01X13921Y17559D02*
G01X11796Y17559D01*
G01X11196Y7559D02*
G01X11196Y8031D01*
G01X4985Y21535D02*
G01X4985Y20944D01*
G01X4985Y20944D02*
G01X4975Y20944D01*
G01X11196Y9566D02*
G01X11196Y10039D01*
G54D28*
G01X12086Y18031D03*
G54D27*
G01X11796Y18031D02*
G01X12086Y18031D01*
G54D28*
G01X12086Y16062D03*
G54D27*
G01X11796Y16062D02*
G01X12086Y16062D01*
G54D28*
G01X12086Y14055D03*
G54D27*
G01X11796Y14055D02*
G01X12086Y14055D01*
G54D28*
G01X12086Y12047D03*
G54D27*
G01X11796Y12047D02*
G01X12086Y12047D01*
G54D28*
G01X12086Y10039D03*
G54D27*
G01X11796Y10039D02*
G01X12086Y10039D01*
G54D28*
G01X12086Y8031D03*
G54D27*
G01X11796Y8031D02*
G01X12086Y8031D01*
G01X984Y13976D02*
G01X1058Y13902D01*
G01X1058Y13902D02*
G01X1058Y11667D01*
G01X984Y13976D02*
G01X629Y14330D01*
G01X629Y14330D02*
G01X629Y18149D01*
G01X629Y18149D02*
G01X1574Y19094D01*
G01X1574Y19094D02*
G01X1574Y19110D01*
G54D28*
G01X4133Y13518D03*
G54D27*
G01X4448Y13518D02*
G01X4133Y13518D01*
G01X5074Y12637D02*
G01X5074Y12892D01*
G01X5074Y12892D02*
G01X4448Y13518D01*
G54D28*
G01X8385Y20669D03*
G54D27*
G01X8385Y20959D02*
G01X8385Y20669D01*
G54D28*
G01X9370Y20669D03*
G54D27*
G01X9370Y20959D02*
G01X9370Y20669D01*
G01X6374Y22755D02*
G01X6166Y22548D01*
G01X6166Y22548D02*
G01X6166Y21535D01*
G54D28*
G01X6629Y21259D03*
G54D27*
G01X6629Y21535D02*
G01X6629Y21259D01*
G01X6629Y21535D02*
G01X6166Y21535D01*
G01X1968Y8962D02*
G01X1968Y11667D01*
G54D29*
G01X1968Y12204D03*
G54D27*
G01X1968Y11667D02*
G01X1968Y12204D01*
G01X984Y5511D02*
G01X984Y7952D01*
G01X984Y7952D02*
G01X1968Y8937D01*
G01X1968Y8937D02*
G01X1968Y8962D01*
G01X11796Y11574D02*
G01X11796Y11323D01*
G01X11796Y11323D02*
G01X11575Y11102D01*
G01X11575Y11102D02*
G01X10905Y11102D01*
G01X10905Y11102D02*
G01X10618Y11390D01*
G01X10618Y11390D02*
G01X10618Y11806D01*
G01X14173Y11811D02*
G01X13937Y11574D01*
G01X13937Y11574D02*
G01X11796Y11574D01*
G01X11796Y13582D02*
G01X11796Y13331D01*
G01X11796Y13331D02*
G01X11575Y13110D01*
G01X11575Y13110D02*
G01X10905Y13110D01*
G01X10905Y13110D02*
G01X10618Y13397D01*
G01X10618Y13397D02*
G01X10618Y13813D01*
G01X14173Y13811D02*
G01X13944Y13582D01*
G01X13944Y13582D02*
G01X11796Y13582D01*
G01X11196Y15590D02*
G01X11196Y16062D01*
G01X11796Y7559D02*
G01X11796Y7307D01*
G01X11796Y7307D02*
G01X11536Y7047D01*
G01X11536Y7047D02*
G01X10905Y7047D01*
G01X10905Y7047D02*
G01X10618Y7334D01*
G01X10618Y7334D02*
G01X10618Y7790D01*
G01X14173Y7811D02*
G01X13921Y7559D01*
G01X13921Y7559D02*
G01X11796Y7559D01*
G01X11196Y17559D02*
G01X11196Y18031D01*
G01X11796Y9566D02*
G01X11796Y9316D01*
G01X11796Y9316D02*
G01X11574Y9094D01*
G01X11574Y9094D02*
G01X10944Y9094D01*
G01X10944Y9094D02*
G01X10618Y9421D01*
G01X10618Y9421D02*
G01X10618Y9798D01*
G01X14173Y9811D02*
G01X13929Y9566D01*
G01X13929Y9566D02*
G01X11796Y9566D01*

G04 Draw clearances for text*

G04 -------------- Draw Parts, Pads, Traces, Vias and Text (positive)*
%LPD*%
G04 Draw part U3*
G54D30*
G01X5374Y22755D03*
G01X6374Y22755D03*
G01X7374Y22755D03*
G01X8374Y22755D03*
G01X9374Y22755D03*
G01X10374Y22755D03*
G04 Draw part R1*
G54D31*
G01X6166Y21535D03*
G01X5566Y21535D03*
G04 Draw part J5*
G54D32*
G01X1968Y1968D03*
G04 Draw part J6*
G01X1968Y21653D03*
G04 Draw part U2*
G54D33*
G01X6074Y12637D03*
G01X6574Y12637D03*
G01X7074Y12637D03*
G01X7574Y12637D03*
G01X7574Y15000D03*
G01X7074Y15000D03*
G01X6574Y15000D03*
G01X6074Y15000D03*
G01X5574Y12637D03*
G01X5574Y15000D03*
G01X8074Y12637D03*
G01X8074Y15000D03*
G01X5074Y12637D03*
G01X5074Y15000D03*
G04 Draw part C3*
G54D31*
G01X4448Y13518D03*
G01X4448Y14118D03*
G04 Draw part C4*
G01X6629Y21535D03*
G01X7229Y21535D03*
G04 Draw part R3*
G01X8385Y20959D03*
G01X8385Y21559D03*
G04 Draw part R4*
G01X9370Y20959D03*
G01X9370Y21559D03*
G04 Draw part Q4*
G54D34*
G01X9618Y12186D03*
G01X10618Y11806D03*
G01X9618Y11436D03*
G04 Draw part R8*
G54D31*
G01X11796Y12047D03*
G01X11196Y12047D03*
G04 Draw part D4*
G01X11196Y11574D03*
G01X11796Y11574D03*
G04 Draw part J3*
G54D32*
G01X13779Y1968D03*
G04 Draw part J4*
G01X13779Y21653D03*
G04 Draw part Q5*
G54D34*
G01X9618Y10178D03*
G01X10618Y9798D03*
G01X9618Y9428D03*
G04 Draw part R9*
G54D31*
G01X11796Y10039D03*
G01X11196Y10039D03*
G04 Draw part D5*
G01X11196Y9566D03*
G01X11796Y9566D03*
G04 Draw part Q6*
G54D34*
G01X9618Y8170D03*
G01X10618Y7790D03*
G01X9618Y7420D03*
G04 Draw part R10*
G54D31*
G01X11796Y8031D03*
G01X11196Y8031D03*
G04 Draw part D6*
G01X11196Y7559D03*
G01X11796Y7559D03*
G04 Draw part Q1*
G54D34*
G01X9618Y18170D03*
G01X10618Y17790D03*
G01X9618Y17420D03*
G04 Draw part R5*
G54D31*
G01X11796Y18031D03*
G01X11196Y18031D03*
G04 Draw part D1*
G01X11196Y17559D03*
G01X11796Y17559D03*
G04 Draw part Q2*
G54D34*
G01X9618Y16201D03*
G01X10618Y15821D03*
G01X9618Y15451D03*
G04 Draw part R6*
G54D31*
G01X11796Y16062D03*
G01X11196Y16062D03*
G04 Draw part D2*
G01X11196Y15590D03*
G01X11796Y15590D03*
G04 Draw part Q3*
G54D34*
G01X9618Y14193D03*
G01X10618Y13813D03*
G01X9618Y13443D03*
G04 Draw part R7*
G54D31*
G01X11796Y14055D03*
G01X11196Y14055D03*
G04 Draw part D3*
G01X11196Y13582D03*
G01X11796Y13582D03*
G04 Draw part U1*
G54D35*
G01X2878Y11667D03*
G01X1968Y11667D03*
G01X1058Y11667D03*
G54D36*
G01X1968Y8962D03*
G04 Draw part C2*
G54D37*
G01X984Y5511D03*
G01X2952Y5511D03*
G04 Draw part C1*
G01X984Y13976D03*
G01X2952Y13976D03*
G04 Draw part U4*
G54D38*
G01X4527Y1771D03*
G54D39*
G01X4527Y2771D03*
G01X4527Y3771D03*
G01X4527Y4771D03*
G04 Draw part R11*
G54D31*
G01X9700Y3267D03*
G01X10300Y3267D03*
G04 Draw part C6*
G01X10300Y3779D03*
G01X9700Y3779D03*
G04 Draw part R2*
G01X5575Y20944D03*
G01X4975Y20944D03*
G04 Draw part C5*
G01X4985Y21535D03*
G01X4385Y21535D03*
G04 Draw part J1*
G54D39*
G01X1574Y19110D03*
G01X1574Y17110D03*
G04 Draw part J2*
G01X14173Y5811D03*
G01X14173Y7811D03*
G01X14173Y9811D03*
G01X14173Y11811D03*
G01X14173Y13811D03*
G01X14173Y15811D03*
G01X14173Y17811D03*

G04 Draw traces*
G54D40*
G01X10300Y3779D02*
G01X10300Y3267D01*
G01X6574Y15000D02*
G01X6574Y14291D01*
G54D41*
G01X6574Y14291D03*
G01X9685Y5590D03*
G54D40*
G01X9685Y5590D02*
G01X10300Y4975D01*
G01X10300Y4975D02*
G01X10300Y3779D01*
G01X11196Y13582D02*
G01X11196Y14055D01*
G01X7574Y12637D02*
G01X7574Y11855D01*
G01X7574Y11855D02*
G01X9251Y10178D01*
G01X9251Y10178D02*
G01X9618Y10178D01*
G01X7074Y12637D02*
G01X7074Y10347D01*
G01X7074Y10347D02*
G01X9251Y8170D01*
G01X9251Y8170D02*
G01X9618Y8170D01*
G01X7074Y15000D02*
G01X7074Y16050D01*
G01X7074Y16050D02*
G01X9194Y18170D01*
G01X9194Y18170D02*
G01X9618Y18170D01*
G01X7574Y15000D02*
G01X7574Y15331D01*
G01X7574Y15331D02*
G01X8445Y16201D01*
G01X8445Y16201D02*
G01X9618Y16201D01*
G01X9618Y7420D02*
G01X9055Y7420D01*
G54D41*
G01X9055Y7420D03*
G54D40*
G01X9618Y9428D02*
G01X9055Y9428D01*
G54D41*
G01X9055Y9428D03*
G54D40*
G01X9618Y11436D02*
G01X9055Y11436D01*
G54D41*
G01X9055Y11436D03*
G54D40*
G01X9618Y13443D02*
G01X9055Y13443D01*
G54D41*
G01X9055Y13443D03*
G54D40*
G01X9618Y15451D02*
G01X9055Y15451D01*
G54D41*
G01X9055Y15451D03*
G54D40*
G01X9618Y17420D02*
G01X9055Y17420D01*
G54D41*
G01X9055Y17420D03*
G54D40*
G01X4448Y14118D02*
G01X4133Y14118D01*
G54D41*
G01X4133Y14118D03*
G54D40*
G01X5074Y15000D02*
G01X5074Y14744D01*
G01X5074Y14744D02*
G01X4448Y14118D01*
G01X7374Y22755D02*
G01X7374Y21680D01*
G01X7374Y21680D02*
G01X7229Y21535D01*
G01X7229Y21535D02*
G01X7229Y21259D01*
G54D41*
G01X7229Y21259D03*
G54D40*
G01X4385Y21535D02*
G01X2086Y21535D01*
G01X2086Y21535D02*
G01X1968Y21653D01*
G01X2952Y13976D02*
G01X2952Y15732D01*
G01X2952Y15732D02*
G01X1574Y17110D01*
G01X2878Y11667D02*
G01X2878Y13902D01*
G01X2878Y13902D02*
G01X2952Y13976D01*
G01X8374Y22755D02*
G01X8385Y22744D01*
G01X8385Y22744D02*
G01X8385Y21559D01*
G01X8385Y21559D02*
G01X8149Y21559D01*
G01X8149Y21559D02*
G01X5574Y18985D01*
G01X5574Y18985D02*
G01X5574Y15000D01*
G01X8074Y15000D02*
G01X8880Y14193D01*
G01X8880Y14193D02*
G01X9618Y14193D01*
G01X9370Y21559D02*
G01X9370Y22755D01*
G01X9370Y22755D02*
G01X9374Y22755D01*
G01X6074Y15000D02*
G01X6074Y17767D01*
G01X6074Y17767D02*
G01X8897Y20590D01*
G01X8897Y20590D02*
G01X8897Y21323D01*
G01X8897Y21323D02*
G01X9133Y21559D01*
G01X9133Y21559D02*
G01X9370Y21559D01*
G01X8074Y12637D02*
G01X8526Y12186D01*
G01X8526Y12186D02*
G01X9618Y12186D01*
G01X4527Y2771D02*
G01X5023Y3267D01*
G01X5023Y3267D02*
G01X9700Y3267D01*
G01X4527Y3771D02*
G01X5023Y3267D01*
G01X11196Y11574D02*
G01X11196Y12047D01*
G01X11796Y15590D02*
G01X11796Y15340D01*
G01X11796Y15340D02*
G01X11573Y15118D01*
G01X11573Y15118D02*
G01X10944Y15118D01*
G01X10944Y15118D02*
G01X10618Y15444D01*
G01X10618Y15444D02*
G01X10618Y15821D01*
G01X14173Y15811D02*
G01X13952Y15590D01*
G01X13952Y15590D02*
G01X11796Y15590D01*
G01X5566Y21535D02*
G01X5566Y22563D01*
G01X5566Y22563D02*
G01X5374Y22755D01*
G01X5566Y21535D02*
G01X5575Y21525D01*
G01X5575Y21525D02*
G01X5575Y20944D01*
G01X6574Y12637D02*
G01X6574Y13346D01*
G54D41*
G01X6574Y13346D03*
G01X5575Y20472D03*
G54D40*
G01X5575Y20472D02*
G01X5575Y20944D01*
G01X10618Y17790D02*
G01X10618Y17334D01*
G01X10618Y17334D02*
G01X10866Y17086D01*
G01X10866Y17086D02*
G01X11559Y17086D01*
G01X11559Y17086D02*
G01X11796Y17322D01*
G01X11796Y17322D02*
G01X11796Y17559D01*
G01X14173Y17811D02*
G01X13921Y17559D01*
G01X13921Y17559D02*
G01X11796Y17559D01*
G01X11196Y7559D02*
G01X11196Y8031D01*
G01X4985Y21535D02*
G01X4985Y20944D01*
G01X4985Y20944D02*
G01X4975Y20944D01*
G01X11196Y9566D02*
G01X11196Y10039D01*
G01X11796Y18031D02*
G01X12086Y18031D01*
G54D41*
G01X12086Y18031D03*
G54D40*
G01X11796Y16062D02*
G01X12086Y16062D01*
G54D41*
G01X12086Y16062D03*
G54D40*
G01X11796Y14055D02*
G01X12086Y14055D01*
G54D41*
G01X12086Y14055D03*
G54D40*
G01X11796Y12047D02*
G01X12086Y12047D01*
G54D41*
G01X12086Y12047D03*
G54D40*
G01X11796Y10039D02*
G01X12086Y10039D01*
G54D41*
G01X12086Y10039D03*
G54D40*
G01X11796Y8031D02*
G01X12086Y8031D01*
G54D41*
G01X12086Y8031D03*
G54D40*
G01X984Y13976D02*
G01X1058Y13902D01*
G01X1058Y13902D02*
G01X1058Y11667D01*
G01X984Y13976D02*
G01X629Y14330D01*
G01X629Y14330D02*
G01X629Y18149D01*
G01X629Y18149D02*
G01X1574Y19094D01*
G01X1574Y19094D02*
G01X1574Y19110D01*
G01X4448Y13518D02*
G01X4133Y13518D01*
G54D41*
G01X4133Y13518D03*
G54D40*
G01X5074Y12637D02*
G01X5074Y12892D01*
G01X5074Y12892D02*
G01X4448Y13518D01*
G01X8385Y20959D02*
G01X8385Y20669D01*
G54D41*
G01X8385Y20669D03*
G54D40*
G01X9370Y20959D02*
G01X9370Y20669D01*
G54D41*
G01X9370Y20669D03*
G54D40*
G01X6374Y22755D02*
G01X6166Y22548D01*
G01X6166Y22548D02*
G01X6166Y21535D01*
G01X6629Y21535D02*
G01X6629Y21259D01*
G54D41*
G01X6629Y21259D03*
G54D40*
G01X6629Y21535D02*
G01X6166Y21535D01*
G01X1968Y8962D02*
G01X1968Y11667D01*
G01X1968Y11667D02*
G01X1968Y12204D01*
G54D27*
G01X1968Y12204D03*
G54D40*
G01X984Y5511D02*
G01X984Y7952D01*
G01X984Y7952D02*
G01X1968Y8937D01*
G01X1968Y8937D02*
G01X1968Y8962D01*
G01X11796Y11574D02*
G01X11796Y11323D01*
G01X11796Y11323D02*
G01X11575Y11102D01*
G01X11575Y11102D02*
G01X10905Y11102D01*
G01X10905Y11102D02*
G01X10618Y11390D01*
G01X10618Y11390D02*
G01X10618Y11806D01*
G01X14173Y11811D02*
G01X13937Y11574D01*
G01X13937Y11574D02*
G01X11796Y11574D01*
G01X11796Y13582D02*
G01X11796Y13331D01*
G01X11796Y13331D02*
G01X11575Y13110D01*
G01X11575Y13110D02*
G01X10905Y13110D01*
G01X10905Y13110D02*
G01X10618Y13397D01*
G01X10618Y13397D02*
G01X10618Y13813D01*
G01X14173Y13811D02*
G01X13944Y13582D01*
G01X13944Y13582D02*
G01X11796Y13582D01*
G01X11196Y15590D02*
G01X11196Y16062D01*
G01X11796Y7559D02*
G01X11796Y7307D01*
G01X11796Y7307D02*
G01X11536Y7047D01*
G01X11536Y7047D02*
G01X10905Y7047D01*
G01X10905Y7047D02*
G01X10618Y7334D01*
G01X10618Y7334D02*
G01X10618Y7790D01*
G01X14173Y7811D02*
G01X13921Y7559D01*
G01X13921Y7559D02*
G01X11796Y7559D01*
G01X11196Y17559D02*
G01X11196Y18031D01*
G01X11796Y9566D02*
G01X11796Y9316D01*
G01X11796Y9316D02*
G01X11574Y9094D01*
G01X11574Y9094D02*
G01X10944Y9094D01*
G01X10944Y9094D02*
G01X10618Y9421D01*
G01X10618Y9421D02*
G01X10618Y9798D01*
G01X14173Y9811D02*
G01X13929Y9566D01*
G01X13929Y9566D02*
G01X11796Y9566D01*

G04 Draw Text*
M00*
M02*
