G04 FreePCB version 1.359*
G04 C:\JPT\Projects\19\1908 - LED Light\FreePCB\Driver\CAM\top_solder_mask.grb*
G04 top solder mask layer *
G04 Scale: 100 percent, Rotated: No, Reflected: No *
%FSLAX24Y24*%
%MOIN*%
%LN top solder mask *%
G04 Rounded Rectangle Macro, params: W/2, H/2, R *
%AMRNDREC*
21,1,$1+$1,$2+$2-$3-$3,0,0,0*
21,1,$1+$1-$3-$3,$2+$2,0,0,0*
1,1,$3+$3,$1-$3,$2-$3*
1,1,$3+$3,$3-$1,$2-$3*
1,1,$3+$3,$1-$3,$3-$2*
1,1,$3+$3,$3-$1,$3-$2*%
G04 Rectangular Thermal Macro, params: W/2, H/2, T/2 *
%AMRECTHERM*
$4=$3/2*
21,1,$1-$3,$2-$3,0-$1/2-$4,0-$2/2-$4,0*
21,1,$1-$3,$2-$3,0-$1/2-$4,$2/2+$4,0*
21,1,$1-$3,$2-$3,$1/2+$4,0-$2/2-$4,0*
21,1,$1-$3,$2-$3,$1/2+$4,$2/2+$4,0*%
%ADD10R,0.052000X0.152000*%
%ADD11R,0.032000X0.032000*%
%ADD12C,0.278000*%
%ADD13R,0.021685X0.061055*%
%ADD14R,0.052000X0.022000*%
%ADD15R,0.062000X0.042000*%
%ADD16R,0.252000X0.252000*%
%ADD17R,0.041370X0.139795*%
%ADD18R,0.072000X0.072000*%
%ADD19C,0.072000*%
%ADD20C,0.139795*%
%ADD21C,0.159480*%
%ADD22C,0.172000*%
%ADD23C,0.062000*%
%ADD24C,0.100425*%
%ADD25C,0.030000*%
G90*
G70D02*

G04 Step and Repeat for panelization *

G04 -------------- Draw Parts, Pads, Traces, Vias and Text (positive)*
%LPD*%
G04 Draw part U3*
G54D10*
G01X19704Y944D03*
G01X18704Y944D03*
G01X17704Y944D03*
G01X16704Y944D03*
G01X15704Y944D03*
G01X14704Y944D03*
G04 Draw part R1*
G54D11*
G01X18912Y2165D03*
G01X19512Y2165D03*
G04 Draw part J5*
G54D12*
G01X5905Y13779D03*
G04 Draw part J6*
G01X21653Y13779D03*
G04 Draw part U2*
G54D13*
G01X12862Y4291D03*
G01X12362Y4291D03*
G01X11862Y4291D03*
G01X11362Y4291D03*
G01X11362Y1929D03*
G01X11862Y1929D03*
G01X12362Y1929D03*
G01X12862Y1929D03*
G01X13362Y4291D03*
G01X13362Y1929D03*
G01X10862Y4291D03*
G01X10862Y1929D03*
G01X13862Y4291D03*
G01X13862Y1929D03*
G04 Draw part C3*
G54D11*
G01X14488Y3410D03*
G01X14488Y2810D03*
G04 Draw part C4*
G01X18488Y2165D03*
G01X17888Y2165D03*
G04 Draw part R3*
G01X13346Y644D03*
G01X13346Y1244D03*
G04 Draw part R4*
G01X12874Y644D03*
G01X12874Y1244D03*
G04 Draw part Q4*
G54D14*
G01X9476Y6632D03*
G01X8476Y7012D03*
G01X9476Y7382D03*
G04 Draw part R8*
G54D11*
G01X7298Y6771D03*
G01X7898Y6771D03*
G04 Draw part D4*
G01X7898Y7244D03*
G01X7298Y7244D03*
G04 Draw part J3*
G54D12*
G01X1968Y1968D03*
G04 Draw part J4*
G01X21653Y1968D03*
G04 Draw part Q5*
G54D14*
G01X9476Y8640D03*
G01X8476Y9020D03*
G01X9476Y9390D03*
G04 Draw part R9*
G54D11*
G01X7298Y8779D03*
G01X7898Y8779D03*
G04 Draw part D5*
G01X7898Y9251D03*
G01X7298Y9251D03*
G04 Draw part Q6*
G54D14*
G01X9476Y10648D03*
G01X8476Y11028D03*
G01X9476Y11398D03*
G04 Draw part R10*
G54D11*
G01X7298Y10787D03*
G01X7898Y10787D03*
G04 Draw part D6*
G01X7898Y11259D03*
G01X7298Y11259D03*
G04 Draw part Q1*
G54D14*
G01X9476Y648D03*
G01X8476Y1028D03*
G01X9476Y1398D03*
G04 Draw part R5*
G54D11*
G01X7298Y787D03*
G01X7898Y787D03*
G04 Draw part D1*
G01X7898Y1259D03*
G01X7298Y1259D03*
G04 Draw part Q2*
G54D14*
G01X9476Y2617D03*
G01X8476Y2997D03*
G01X9476Y3367D03*
G04 Draw part R6*
G54D11*
G01X7298Y2755D03*
G01X7898Y2755D03*
G04 Draw part D2*
G01X7898Y3228D03*
G01X7298Y3228D03*
G04 Draw part Q3*
G54D14*
G01X9476Y4625D03*
G01X8476Y5005D03*
G01X9476Y5375D03*
G04 Draw part R7*
G54D11*
G01X7298Y4763D03*
G01X7898Y4763D03*
G04 Draw part D3*
G01X7898Y5236D03*
G01X7298Y5236D03*
G04 Draw part U1*
G54D15*
G01X11560Y14689D03*
G01X11560Y13779D03*
G01X11560Y12869D03*
G54D16*
G01X14265Y13779D03*
G04 Draw part C2*
G54D17*
G01X17125Y12795D03*
G01X17125Y14763D03*
G04 Draw part C1*
G01X9251Y12795D03*
G01X9251Y14763D03*
G04 Draw part U4*
G54D18*
G01X12992Y9842D03*
G54D19*
G01X13992Y9842D03*
G01X14992Y9842D03*
G01X15992Y9842D03*
G04 Draw part R11*
G54D11*
G01X13882Y11023D03*
G01X13282Y11023D03*
G04 Draw part C6*
G01X13282Y11574D03*
G01X13882Y11574D03*
G04 Draw part R2*
G01X19512Y2755D03*
G01X18912Y2755D03*
G04 Draw part C5*
G01X18912Y3346D03*
G01X19512Y3346D03*
G04 Draw part J1*
G54D20*
G01X984Y12598D03*
G54D21*
G01X3346Y12598D03*
G54D20*
G01X2165Y10629D03*
G04 Draw part J2*
G54D22*
G01X1968Y8942D03*
G01X1968Y4442D03*
G54D23*
G01X4468Y8442D03*
G01X4468Y7442D03*
G01X4468Y6442D03*
G01X4468Y5442D03*
G01X5468Y7942D03*
G01X5468Y6942D03*
G01X5468Y5942D03*
G01X5468Y4942D03*
G04 Draw part J7*
G54D24*
G01X14803Y11299D03*
G04 Draw part J8*
G01X12362Y11299D03*
G04 Draw part D7*
G54D18*
G01X19094Y12779D03*
G54D19*
G01X19094Y14779D03*

G04 Draw traces*
G54D25*
G01X12362Y4842D03*
G01X19704Y1377D03*
G01X16704Y1377D03*
G01X13661Y1244D03*
G01X14803Y2810D03*
G01X12862Y2559D03*
G01X15704Y1377D03*
G01X14803Y3410D03*
G01X18488Y2480D03*
G01X13661Y644D03*
G01X7298Y10472D03*
G01X7298Y8464D03*
G01X7298Y6456D03*
G01X7298Y4448D03*
G01X7298Y2440D03*
G01X7007Y787D03*

G04 Draw Text*

G04 Draw solder mask cutouts*
M00*
M02*
