G04 FreePCB version 1.359*
G04 C:\JPT\Projects\19\1908 - LED Light\FreePCB\Driver\CAM\top_copper.grb*
G04 top copper layer *
G04 Scale: 100 percent, Rotated: No, Reflected: No *
%FSLAX24Y24*%
%MOIN*%
%LN top copper *%
G04 Rounded Rectangle Macro, params: W/2, H/2, R *
%AMRNDREC*
21,1,$1+$1,$2+$2-$3-$3,0,0,0*
21,1,$1+$1-$3-$3,$2+$2,0,0,0*
1,1,$3+$3,$1-$3,$2-$3*
1,1,$3+$3,$3-$1,$2-$3*
1,1,$3+$3,$1-$3,$3-$2*
1,1,$3+$3,$3-$1,$3-$2*%
G04 Rectangular Thermal Macro, params: W/2, H/2, T/2 *
%AMRECTHERM*
$4=$3/2*
21,1,$1-$3,$2-$3,0-$1/2-$4,0-$2/2-$4,0*
21,1,$1-$3,$2-$3,0-$1/2-$4,$2/2+$4,0*
21,1,$1-$3,$2-$3,$1/2+$4,0-$2/2-$4,0*
21,1,$1-$3,$2-$3,$1/2+$4,$2/2+$4,0*%
%ADD10R,0.070000X0.170000*%
%ADD11C,0.001000*%
%ADD12R,0.050000X0.050000*%
%ADD13R,0.039685X0.079055*%
%ADD14R,0.070000X0.040000*%
%ADD15R,0.080000X0.060000*%
%ADD16R,0.270000X0.270000*%
%ADD17R,0.059370X0.157795*%
%ADD18C,0.090000*%
%ADD19C,0.177480*%
%ADD20C,0.080000*%
%ADD21C,0.118425*%
%ADD22R,0.090000X0.090000*%
%ADD23C,0.040000*%
%ADD24C,0.048000*%
%ADD25R,0.050000X0.150000*%
%ADD26R,0.030000X0.030000*%
%ADD27C,0.276000*%
%ADD28R,0.019685X0.059055*%
%ADD29R,0.050000X0.020000*%
%ADD30R,0.060000X0.040000*%
%ADD31R,0.250000X0.250000*%
%ADD32R,0.039370X0.137795*%
%ADD33R,0.070000X0.070000*%
%ADD34C,0.070000*%
%ADD35C,0.137795*%
%ADD36C,0.157480*%
%ADD37C,0.170000*%
%ADD38C,0.060000*%
%ADD39C,0.098425*%
%ADD40C,0.020000*%
%ADD41C,0.028000*%
G90*
G70D02*

G04 Step and Repeat for panelization *

G04 ----------------------- Draw copper area (positive)*
G36*
G01X23425Y196D02*
G01X196Y196D01*
G01X196Y15551D01*
G01X23425Y15551D01*
G01X23425Y196D01*
G37*

G04 -------------------- Draw copper area clearances (negative)*
%LPC*%

G04 Draw clearances for pads*
G54D10*
G01X19704Y944D03*
G01X18704Y944D03*
G54D11*
G54D10*
G01X16704Y944D03*
G01X15704Y944D03*
G01X14704Y944D03*
G54D12*
G01X18912Y2165D03*
G01X19512Y2165D03*
G54D11*
G54D13*
G01X12862Y4291D03*
G01X12362Y4291D03*
G01X11862Y4291D03*
G01X11362Y4291D03*
G01X11362Y1929D03*
G01X11862Y1929D03*
G01X12362Y1929D03*
G01X12862Y1929D03*
G01X13362Y4291D03*
G01X13362Y1929D03*
G01X10862Y4291D03*
G01X10862Y1929D03*
G01X13862Y4291D03*
G54D11*
G54D12*
G01X14488Y3410D03*
G54D11*
G54D12*
G01X18488Y2165D03*
G54D11*
G54D12*
G01X13346Y644D03*
G01X13346Y1244D03*
G01X12874Y644D03*
G01X12874Y1244D03*
G54D14*
G01X9476Y6632D03*
G01X8476Y7012D03*
G54D11*
G54D12*
G01X7298Y6771D03*
G01X7898Y6771D03*
G01X7898Y7244D03*
G01X7298Y7244D03*
G54D11*
G54D14*
G01X9476Y8640D03*
G01X8476Y9020D03*
G54D11*
G54D12*
G01X7298Y8779D03*
G01X7898Y8779D03*
G01X7898Y9251D03*
G01X7298Y9251D03*
G54D14*
G01X9476Y10648D03*
G01X8476Y11028D03*
G54D11*
G54D12*
G01X7298Y10787D03*
G01X7898Y10787D03*
G01X7898Y11259D03*
G01X7298Y11259D03*
G54D14*
G01X9476Y648D03*
G01X8476Y1028D03*
G54D11*
G54D12*
G01X7298Y787D03*
G01X7898Y787D03*
G01X7898Y1259D03*
G01X7298Y1259D03*
G54D14*
G01X9476Y2617D03*
G01X8476Y2997D03*
G54D11*
G54D12*
G01X7298Y2755D03*
G01X7898Y2755D03*
G01X7898Y3228D03*
G01X7298Y3228D03*
G54D14*
G01X9476Y4625D03*
G01X8476Y5005D03*
G54D11*
G54D12*
G01X7298Y4763D03*
G01X7898Y4763D03*
G01X7898Y5236D03*
G01X7298Y5236D03*
G54D11*
G54D15*
G01X11560Y13779D03*
G01X11560Y12869D03*
G54D16*
G01X14265Y13779D03*
G54D17*
G01X17125Y12795D03*
G54D11*
G54D17*
G01X9251Y12795D03*
G54D11*
G54D18*
G01X13992Y9842D03*
G01X14992Y9842D03*
G01X15992Y9842D03*
G54D12*
G01X13882Y11023D03*
G01X13282Y11023D03*
G01X13282Y11574D03*
G54D11*
G54D12*
G01X19512Y2755D03*
G01X18912Y2755D03*
G01X18912Y3346D03*
G54D11*
G54D19*
G01X3346Y12598D03*
G54D11*
G54D20*
G01X4468Y8442D03*
G01X4468Y7442D03*
G01X4468Y6442D03*
G01X4468Y5442D03*
G01X5468Y7942D03*
G01X5468Y6942D03*
G01X5468Y5942D03*
G01X5468Y4942D03*
G54D21*
G01X14803Y11299D03*
G01X12362Y11299D03*
G54D22*
G01X19094Y12779D03*
G54D18*
G01X19094Y14779D03*

G04 Draw clearances for traces*
G54D23*
G01X19512Y2165D02*
G01X19512Y2755D01*
G01X19512Y2165D02*
G01X19704Y1973D01*
G01X19704Y1973D02*
G01X19704Y944D01*
G54D24*
G01X12362Y4842D03*
G54D23*
G01X12362Y4291D02*
G01X12362Y4842D01*
G54D24*
G01X19704Y1377D03*
G54D23*
G01X19704Y1377D02*
G01X19704Y944D01*
G01X14803Y11299D02*
G01X14527Y11023D01*
G01X14527Y11023D02*
G01X13882Y11023D01*
G01X14992Y9842D02*
G01X13992Y9842D01*
G01X13992Y9842D02*
G01X13992Y10914D01*
G01X13992Y10914D02*
G01X13882Y11023D01*
G01X11362Y4291D02*
G01X11362Y4622D01*
G01X11362Y4622D02*
G01X10511Y5473D01*
G01X10511Y5473D02*
G01X10511Y7605D01*
G01X10511Y7605D02*
G01X9476Y8640D01*
G01X11862Y4291D02*
G01X11862Y4870D01*
G01X11862Y4870D02*
G01X10944Y5788D01*
G01X10944Y5788D02*
G01X10944Y9180D01*
G01X10944Y9180D02*
G01X9476Y10648D01*
G01X11862Y1929D02*
G01X11862Y1456D01*
G01X11862Y1456D02*
G01X11054Y648D01*
G01X11054Y648D02*
G01X9476Y648D01*
G01X11362Y1929D02*
G01X11362Y1496D01*
G01X11362Y1496D02*
G01X11204Y1338D01*
G01X11204Y1338D02*
G01X10354Y1338D01*
G01X10354Y1338D02*
G01X9476Y2216D01*
G01X9476Y2216D02*
G01X9476Y2617D01*
G01X10862Y1929D02*
G01X10196Y2594D01*
G01X10196Y2594D02*
G01X10196Y3904D01*
G01X10196Y3904D02*
G01X9476Y4625D01*
G01X13346Y1244D02*
G01X13362Y1260D01*
G01X13362Y1260D02*
G01X13362Y1929D01*
G54D24*
G01X16704Y1377D03*
G54D23*
G01X16704Y944D02*
G01X16704Y1377D01*
G54D24*
G01X13661Y1244D03*
G54D23*
G01X13661Y1244D02*
G01X13346Y1244D01*
G01X10862Y4291D02*
G01X10078Y5075D01*
G01X10078Y5075D02*
G01X10078Y6031D01*
G01X10078Y6031D02*
G01X9476Y6632D01*
G01X12862Y1929D02*
G01X12862Y1256D01*
G01X12862Y1256D02*
G01X12874Y1244D01*
G54D24*
G01X12862Y2559D03*
G54D23*
G01X12862Y1929D02*
G01X12862Y2559D01*
G54D24*
G01X15704Y1377D03*
G54D23*
G01X15704Y1377D02*
G01X15704Y944D01*
G01X7898Y9251D02*
G01X7898Y8779D01*
G01X18912Y3346D02*
G01X18912Y2755D01*
G01X7298Y3228D02*
G01X7652Y3582D01*
G01X7652Y3582D02*
G01X8161Y3582D01*
G01X8161Y3582D02*
G01X8476Y3267D01*
G01X8476Y3267D02*
G01X8476Y2997D01*
G01X4468Y5442D02*
G01X5738Y5442D01*
G01X5738Y5442D02*
G01X6259Y4921D01*
G01X6259Y4921D02*
G01X6259Y4266D01*
G01X6259Y4266D02*
G01X7298Y3228D01*
G01X7898Y7244D02*
G01X7898Y6771D01*
G01X13282Y11574D02*
G01X13007Y11299D01*
G01X13007Y11299D02*
G01X12362Y11299D01*
G01X13282Y11023D02*
G01X13007Y11299D01*
G01X13007Y11299D02*
G01X12362Y11299D01*
G01X13362Y4291D02*
G01X13362Y4724D01*
G01X13362Y4724D02*
G01X12362Y5724D01*
G01X12362Y5724D02*
G01X12362Y11299D01*
G01X7898Y1259D02*
G01X7898Y787D01*
G01X8476Y1028D02*
G01X8476Y1338D01*
G01X8476Y1338D02*
G01X8200Y1614D01*
G01X8200Y1614D02*
G01X7652Y1614D01*
G01X7652Y1614D02*
G01X7298Y1259D01*
G01X5468Y4942D02*
G01X5468Y3089D01*
G01X5468Y3089D02*
G01X7298Y1259D01*
G01X7298Y7244D02*
G01X7652Y7598D01*
G01X7652Y7598D02*
G01X8161Y7598D01*
G01X8161Y7598D02*
G01X8476Y7283D01*
G01X8476Y7283D02*
G01X8476Y7012D01*
G01X4468Y6442D02*
G01X6088Y6442D01*
G01X6088Y6442D02*
G01X6889Y7244D01*
G01X6889Y7244D02*
G01X7298Y7244D01*
G01X19094Y12779D02*
G01X19078Y12795D01*
G01X19078Y12795D02*
G01X17125Y12795D01*
G01X14265Y13779D02*
G01X11560Y13779D01*
G01X17125Y12795D02*
G01X15250Y12795D01*
G01X15250Y12795D02*
G01X14265Y13779D01*
G01X18704Y944D02*
G01X18704Y1957D01*
G01X18704Y1957D02*
G01X18912Y2165D01*
G01X18488Y2165D02*
G01X18704Y1949D01*
G01X18704Y1949D02*
G01X18704Y944D01*
G01X12874Y644D02*
G01X13346Y644D01*
G01X13862Y4291D02*
G01X14488Y3665D01*
G01X14488Y3665D02*
G01X14488Y3410D01*
G54D24*
G01X14803Y3410D03*
G54D23*
G01X14488Y3410D02*
G01X14803Y3410D01*
G54D24*
G01X18488Y2480D03*
G54D23*
G01X18488Y2165D02*
G01X18488Y2480D01*
G54D24*
G01X13661Y644D03*
G54D23*
G01X13346Y644D02*
G01X13661Y644D01*
G01X9251Y12795D02*
G01X9326Y12869D01*
G01X9326Y12869D02*
G01X11560Y12869D01*
G01X9251Y12795D02*
G01X8504Y12047D01*
G01X8504Y12047D02*
G01X3897Y12047D01*
G01X3897Y12047D02*
G01X3346Y12598D01*
G54D24*
G01X7298Y10472D03*
G54D23*
G01X7298Y10787D02*
G01X7298Y10472D01*
G54D24*
G01X7298Y8464D03*
G54D23*
G01X7298Y8779D02*
G01X7298Y8464D01*
G54D24*
G01X7298Y6456D03*
G54D23*
G01X7298Y6771D02*
G01X7298Y6456D01*
G54D24*
G01X7298Y4448D03*
G54D23*
G01X7298Y4763D02*
G01X7298Y4448D01*
G54D24*
G01X7298Y2440D03*
G54D23*
G01X7298Y2755D02*
G01X7298Y2440D01*
G54D24*
G01X7007Y787D03*
G54D23*
G01X7298Y787D02*
G01X7007Y787D01*
G01X7898Y11259D02*
G01X7898Y10787D01*
G01X7898Y5236D02*
G01X7898Y4763D01*
G01X7298Y5236D02*
G01X7652Y5590D01*
G01X7652Y5590D02*
G01X8161Y5590D01*
G01X8161Y5590D02*
G01X8476Y5275D01*
G01X8476Y5275D02*
G01X8476Y5005D01*
G01X5468Y5942D02*
G01X6591Y5942D01*
G01X6591Y5942D02*
G01X7298Y5236D01*
G01X7898Y3228D02*
G01X7898Y2755D01*
G01X7298Y11259D02*
G01X7652Y11614D01*
G01X7652Y11614D02*
G01X8161Y11614D01*
G01X8161Y11614D02*
G01X8476Y11299D01*
G01X8476Y11299D02*
G01X8476Y11028D01*
G01X4468Y7442D02*
G01X3779Y8131D01*
G01X3779Y8131D02*
G01X3779Y9763D01*
G01X3779Y9763D02*
G01X5275Y11259D01*
G01X5275Y11259D02*
G01X7298Y11259D01*
G01X7298Y9251D02*
G01X7652Y9606D01*
G01X7652Y9606D02*
G01X8161Y9606D01*
G01X8161Y9606D02*
G01X8476Y9291D01*
G01X8476Y9291D02*
G01X8476Y9020D01*
G01X5468Y6942D02*
G01X6535Y8009D01*
G01X6535Y8009D02*
G01X6535Y8818D01*
G01X6535Y8818D02*
G01X6968Y9251D01*
G01X6968Y9251D02*
G01X7298Y9251D01*

G04 Draw clearances for text*

G04 -------------- Draw Parts, Pads, Traces, Vias and Text (positive)*
%LPD*%
G04 Draw part U3*
G54D25*
G01X19704Y944D03*
G01X18704Y944D03*
G01X17704Y944D03*
G01X16704Y944D03*
G01X15704Y944D03*
G01X14704Y944D03*
G04 Draw part R1*
G54D26*
G01X18912Y2165D03*
G01X19512Y2165D03*
G04 Draw part J5*
G54D27*
G01X5905Y13779D03*
G04 Draw part J6*
G01X21653Y13779D03*
G04 Draw part U2*
G54D28*
G01X12862Y4291D03*
G01X12362Y4291D03*
G01X11862Y4291D03*
G01X11362Y4291D03*
G01X11362Y1929D03*
G01X11862Y1929D03*
G01X12362Y1929D03*
G01X12862Y1929D03*
G01X13362Y4291D03*
G01X13362Y1929D03*
G01X10862Y4291D03*
G01X10862Y1929D03*
G01X13862Y4291D03*
G01X13862Y1929D03*
G04 Draw part C3*
G54D26*
G01X14488Y3410D03*
G01X14488Y2810D03*
G04 Draw part C4*
G01X18488Y2165D03*
G01X17888Y2165D03*
G04 Draw part R3*
G01X13346Y644D03*
G01X13346Y1244D03*
G04 Draw part R4*
G01X12874Y644D03*
G01X12874Y1244D03*
G04 Draw part Q4*
G54D29*
G01X9476Y6632D03*
G01X8476Y7012D03*
G01X9476Y7382D03*
G04 Draw part R8*
G54D26*
G01X7298Y6771D03*
G01X7898Y6771D03*
G04 Draw part D4*
G01X7898Y7244D03*
G01X7298Y7244D03*
G04 Draw part J3*
G54D27*
G01X1968Y1968D03*
G04 Draw part J4*
G01X21653Y1968D03*
G04 Draw part Q5*
G54D29*
G01X9476Y8640D03*
G01X8476Y9020D03*
G01X9476Y9390D03*
G04 Draw part R9*
G54D26*
G01X7298Y8779D03*
G01X7898Y8779D03*
G04 Draw part D5*
G01X7898Y9251D03*
G01X7298Y9251D03*
G04 Draw part Q6*
G54D29*
G01X9476Y10648D03*
G01X8476Y11028D03*
G01X9476Y11398D03*
G04 Draw part R10*
G54D26*
G01X7298Y10787D03*
G01X7898Y10787D03*
G04 Draw part D6*
G01X7898Y11259D03*
G01X7298Y11259D03*
G04 Draw part Q1*
G54D29*
G01X9476Y648D03*
G01X8476Y1028D03*
G01X9476Y1398D03*
G04 Draw part R5*
G54D26*
G01X7298Y787D03*
G01X7898Y787D03*
G04 Draw part D1*
G01X7898Y1259D03*
G01X7298Y1259D03*
G04 Draw part Q2*
G54D29*
G01X9476Y2617D03*
G01X8476Y2997D03*
G01X9476Y3367D03*
G04 Draw part R6*
G54D26*
G01X7298Y2755D03*
G01X7898Y2755D03*
G04 Draw part D2*
G01X7898Y3228D03*
G01X7298Y3228D03*
G04 Draw part Q3*
G54D29*
G01X9476Y4625D03*
G01X8476Y5005D03*
G01X9476Y5375D03*
G04 Draw part R7*
G54D26*
G01X7298Y4763D03*
G01X7898Y4763D03*
G04 Draw part D3*
G01X7898Y5236D03*
G01X7298Y5236D03*
G04 Draw part U1*
G54D30*
G01X11560Y14689D03*
G01X11560Y13779D03*
G01X11560Y12869D03*
G54D31*
G01X14265Y13779D03*
G04 Draw part C2*
G54D32*
G01X17125Y12795D03*
G01X17125Y14763D03*
G04 Draw part C1*
G01X9251Y12795D03*
G01X9251Y14763D03*
G04 Draw part U4*
G54D33*
G01X12992Y9842D03*
G54D34*
G01X13992Y9842D03*
G01X14992Y9842D03*
G01X15992Y9842D03*
G04 Draw part R11*
G54D26*
G01X13882Y11023D03*
G01X13282Y11023D03*
G04 Draw part C6*
G01X13282Y11574D03*
G01X13882Y11574D03*
G04 Draw part R2*
G01X19512Y2755D03*
G01X18912Y2755D03*
G04 Draw part C5*
G01X18912Y3346D03*
G01X19512Y3346D03*
G04 Draw part J1*
G54D35*
G01X984Y12598D03*
G54D36*
G01X3346Y12598D03*
G54D35*
G01X2165Y10629D03*
G04 Draw part J2*
G54D37*
G01X1968Y8942D03*
G01X1968Y4442D03*
G54D38*
G01X4468Y8442D03*
G01X4468Y7442D03*
G01X4468Y6442D03*
G01X4468Y5442D03*
G01X5468Y7942D03*
G01X5468Y6942D03*
G01X5468Y5942D03*
G01X5468Y4942D03*
G04 Draw part J7*
G54D39*
G01X14803Y11299D03*
G04 Draw part J8*
G01X12362Y11299D03*
G04 Draw part D7*
G54D33*
G01X19094Y12779D03*
G54D34*
G01X19094Y14779D03*

G04 Draw traces*
G54D40*
G01X19512Y2165D02*
G01X19512Y2755D01*
G01X19512Y2165D02*
G01X19704Y1973D01*
G01X19704Y1973D02*
G01X19704Y944D01*
G01X12362Y4291D02*
G01X12362Y4842D01*
G54D41*
G01X12362Y4842D03*
G01X19704Y1377D03*
G54D40*
G01X19704Y1377D02*
G01X19704Y944D01*
G01X14803Y11299D02*
G01X14527Y11023D01*
G01X14527Y11023D02*
G01X13882Y11023D01*
G01X14992Y9842D02*
G01X13992Y9842D01*
G01X13992Y9842D02*
G01X13992Y10914D01*
G01X13992Y10914D02*
G01X13882Y11023D01*
G01X11362Y4291D02*
G01X11362Y4622D01*
G01X11362Y4622D02*
G01X10511Y5473D01*
G01X10511Y5473D02*
G01X10511Y7605D01*
G01X10511Y7605D02*
G01X9476Y8640D01*
G01X11862Y4291D02*
G01X11862Y4870D01*
G01X11862Y4870D02*
G01X10944Y5788D01*
G01X10944Y5788D02*
G01X10944Y9180D01*
G01X10944Y9180D02*
G01X9476Y10648D01*
G01X11862Y1929D02*
G01X11862Y1456D01*
G01X11862Y1456D02*
G01X11054Y648D01*
G01X11054Y648D02*
G01X9476Y648D01*
G01X11362Y1929D02*
G01X11362Y1496D01*
G01X11362Y1496D02*
G01X11204Y1338D01*
G01X11204Y1338D02*
G01X10354Y1338D01*
G01X10354Y1338D02*
G01X9476Y2216D01*
G01X9476Y2216D02*
G01X9476Y2617D01*
G01X10862Y1929D02*
G01X10196Y2594D01*
G01X10196Y2594D02*
G01X10196Y3904D01*
G01X10196Y3904D02*
G01X9476Y4625D01*
G01X13346Y1244D02*
G01X13362Y1260D01*
G01X13362Y1260D02*
G01X13362Y1929D01*
G01X16704Y944D02*
G01X16704Y1377D01*
G54D41*
G01X16704Y1377D03*
G01X13661Y1244D03*
G54D40*
G01X13661Y1244D02*
G01X13346Y1244D01*
G01X14488Y2810D02*
G01X14803Y2810D01*
G54D41*
G01X14803Y2810D03*
G54D40*
G01X10862Y4291D02*
G01X10078Y5075D01*
G01X10078Y5075D02*
G01X10078Y6031D01*
G01X10078Y6031D02*
G01X9476Y6632D01*
G01X12862Y1929D02*
G01X12862Y1256D01*
G01X12862Y1256D02*
G01X12874Y1244D01*
G01X12862Y1929D02*
G01X12862Y2559D01*
G54D41*
G01X12862Y2559D03*
G01X15704Y1377D03*
G54D40*
G01X15704Y1377D02*
G01X15704Y944D01*
G01X7898Y9251D02*
G01X7898Y8779D01*
G01X18912Y3346D02*
G01X18912Y2755D01*
G01X7298Y3228D02*
G01X7652Y3582D01*
G01X7652Y3582D02*
G01X8161Y3582D01*
G01X8161Y3582D02*
G01X8476Y3267D01*
G01X8476Y3267D02*
G01X8476Y2997D01*
G01X4468Y5442D02*
G01X5738Y5442D01*
G01X5738Y5442D02*
G01X6259Y4921D01*
G01X6259Y4921D02*
G01X6259Y4266D01*
G01X6259Y4266D02*
G01X7298Y3228D01*
G01X7898Y7244D02*
G01X7898Y6771D01*
G01X13282Y11574D02*
G01X13007Y11299D01*
G01X13007Y11299D02*
G01X12362Y11299D01*
G01X13282Y11023D02*
G01X13007Y11299D01*
G01X13007Y11299D02*
G01X12362Y11299D01*
G01X13362Y4291D02*
G01X13362Y4724D01*
G01X13362Y4724D02*
G01X12362Y5724D01*
G01X12362Y5724D02*
G01X12362Y11299D01*
G01X7898Y1259D02*
G01X7898Y787D01*
G01X8476Y1028D02*
G01X8476Y1338D01*
G01X8476Y1338D02*
G01X8200Y1614D01*
G01X8200Y1614D02*
G01X7652Y1614D01*
G01X7652Y1614D02*
G01X7298Y1259D01*
G01X5468Y4942D02*
G01X5468Y3089D01*
G01X5468Y3089D02*
G01X7298Y1259D01*
G01X7298Y7244D02*
G01X7652Y7598D01*
G01X7652Y7598D02*
G01X8161Y7598D01*
G01X8161Y7598D02*
G01X8476Y7283D01*
G01X8476Y7283D02*
G01X8476Y7012D01*
G01X4468Y6442D02*
G01X6088Y6442D01*
G01X6088Y6442D02*
G01X6889Y7244D01*
G01X6889Y7244D02*
G01X7298Y7244D01*
G01X19094Y12779D02*
G01X19078Y12795D01*
G01X19078Y12795D02*
G01X17125Y12795D01*
G01X14265Y13779D02*
G01X11560Y13779D01*
G01X17125Y12795D02*
G01X15250Y12795D01*
G01X15250Y12795D02*
G01X14265Y13779D01*
G01X18704Y944D02*
G01X18704Y1957D01*
G01X18704Y1957D02*
G01X18912Y2165D01*
G01X18488Y2165D02*
G01X18704Y1949D01*
G01X18704Y1949D02*
G01X18704Y944D01*
G01X12874Y644D02*
G01X13346Y644D01*
G01X13862Y4291D02*
G01X14488Y3665D01*
G01X14488Y3665D02*
G01X14488Y3410D01*
G01X14488Y3410D02*
G01X14803Y3410D01*
G54D41*
G01X14803Y3410D03*
G54D40*
G01X18488Y2165D02*
G01X18488Y2480D01*
G54D41*
G01X18488Y2480D03*
G54D40*
G01X13346Y644D02*
G01X13661Y644D01*
G54D41*
G01X13661Y644D03*
G54D40*
G01X9251Y12795D02*
G01X9326Y12869D01*
G01X9326Y12869D02*
G01X11560Y12869D01*
G01X9251Y12795D02*
G01X8504Y12047D01*
G01X8504Y12047D02*
G01X3897Y12047D01*
G01X3897Y12047D02*
G01X3346Y12598D01*
G01X7298Y10787D02*
G01X7298Y10472D01*
G54D41*
G01X7298Y10472D03*
G54D40*
G01X7298Y8779D02*
G01X7298Y8464D01*
G54D41*
G01X7298Y8464D03*
G54D40*
G01X7298Y6771D02*
G01X7298Y6456D01*
G54D41*
G01X7298Y6456D03*
G54D40*
G01X7298Y4763D02*
G01X7298Y4448D01*
G54D41*
G01X7298Y4448D03*
G54D40*
G01X7298Y2755D02*
G01X7298Y2440D01*
G54D41*
G01X7298Y2440D03*
G54D40*
G01X7298Y787D02*
G01X7007Y787D01*
G54D41*
G01X7007Y787D03*
G54D40*
G01X7898Y11259D02*
G01X7898Y10787D01*
G01X7898Y5236D02*
G01X7898Y4763D01*
G01X7298Y5236D02*
G01X7652Y5590D01*
G01X7652Y5590D02*
G01X8161Y5590D01*
G01X8161Y5590D02*
G01X8476Y5275D01*
G01X8476Y5275D02*
G01X8476Y5005D01*
G01X5468Y5942D02*
G01X6591Y5942D01*
G01X6591Y5942D02*
G01X7298Y5236D01*
G01X7898Y3228D02*
G01X7898Y2755D01*
G01X7298Y11259D02*
G01X7652Y11614D01*
G01X7652Y11614D02*
G01X8161Y11614D01*
G01X8161Y11614D02*
G01X8476Y11299D01*
G01X8476Y11299D02*
G01X8476Y11028D01*
G01X4468Y7442D02*
G01X3779Y8131D01*
G01X3779Y8131D02*
G01X3779Y9763D01*
G01X3779Y9763D02*
G01X5275Y11259D01*
G01X5275Y11259D02*
G01X7298Y11259D01*
G01X7298Y9251D02*
G01X7652Y9606D01*
G01X7652Y9606D02*
G01X8161Y9606D01*
G01X8161Y9606D02*
G01X8476Y9291D01*
G01X8476Y9291D02*
G01X8476Y9020D01*
G01X5468Y6942D02*
G01X6535Y8009D01*
G01X6535Y8009D02*
G01X6535Y8818D01*
G01X6535Y8818D02*
G01X6968Y9251D01*
G01X6968Y9251D02*
G01X7298Y9251D01*

G04 Draw Text*
M00*
M02*
