G04 FreePCB version 1.359*
G04 C:\JPT\Projects\19\1908 - LED Light\FreePCB\Driver\CAM\top_silk.grb*
G04 top silk layer *
G04 Scale: 100 percent, Rotated: No, Reflected: No *
%FSLAX24Y24*%
%MOIN*%
%LN top silk *%
G04 Rounded Rectangle Macro, params: W/2, H/2, R *
%AMRNDREC*
21,1,$1+$1,$2+$2-$3-$3,0,0,0*
21,1,$1+$1-$3-$3,$2+$2,0,0,0*
1,1,$3+$3,$1-$3,$2-$3*
1,1,$3+$3,$3-$1,$2-$3*
1,1,$3+$3,$1-$3,$3-$2*
1,1,$3+$3,$3-$1,$3-$2*%
G04 Rectangular Thermal Macro, params: W/2, H/2, T/2 *
%AMRECTHERM*
$4=$3/2*
21,1,$1-$3,$2-$3,0-$1/2-$4,0-$2/2-$4,0*
21,1,$1-$3,$2-$3,0-$1/2-$4,$2/2+$4,0*
21,1,$1-$3,$2-$3,$1/2+$4,0-$2/2-$4,0*
21,1,$1-$3,$2-$3,$1/2+$4,$2/2+$4,0*%
%ADD10C,0.008000*%
%ADD11C,0.004000*%
%ADD12C,0.007000*%
%ADD13C,0.010000*%
G90*
G70D02*

G04 Step and Repeat for panelization *

G04 -------------- Draw Parts, Pads, Traces, Vias and Text (positive)*
%LPD*%
G04 Draw part U3*
G04 draw part outline for part U3*
G54D10*
G01X20204Y244D02*
G01X20204Y1644D01*
G04 draw value for part U3*
G54D11*
G01X20351Y469D02*
G01X20351Y183D01*
G01X20473Y469D02*
G01X20351Y469D01*
G01X20473Y469D02*
G01X20514Y455D01*
G01X20514Y455D02*
G01X20528Y442D01*
G01X20528Y442D02*
G01X20541Y414D01*
G01X20541Y414D02*
G01X20541Y373D01*
G01X20541Y373D02*
G01X20528Y346D01*
G01X20528Y346D02*
G01X20514Y333D01*
G01X20514Y333D02*
G01X20473Y319D01*
G01X20351Y319D02*
G01X20473Y319D01*
G01X20651Y469D02*
G01X20651Y183D01*
G01X20951Y428D02*
G01X20964Y401D01*
G01X20923Y455D02*
G01X20951Y428D01*
G01X20896Y469D02*
G01X20923Y455D01*
G01X20841Y469D02*
G01X20896Y469D01*
G01X20841Y469D02*
G01X20814Y455D01*
G01X20814Y455D02*
G01X20787Y428D01*
G01X20787Y428D02*
G01X20773Y401D01*
G01X20773Y401D02*
G01X20760Y360D01*
G01X20760Y360D02*
G01X20760Y292D01*
G01X20760Y292D02*
G01X20773Y251D01*
G01X20773Y251D02*
G01X20787Y223D01*
G01X20787Y223D02*
G01X20814Y196D01*
G01X20814Y196D02*
G01X20841Y183D01*
G01X20896Y183D02*
G01X20841Y183D01*
G01X20923Y196D02*
G01X20896Y183D01*
G01X20951Y223D02*
G01X20923Y196D01*
G01X20964Y251D02*
G01X20951Y223D01*
G01X21073Y469D02*
G01X21073Y183D01*
G01X21210Y373D02*
G01X21073Y237D01*
G01X21128Y292D02*
G01X21223Y183D01*
G01X21332Y469D02*
G01X21346Y455D01*
G01X21360Y469D02*
G01X21346Y455D01*
G01X21346Y483D02*
G01X21360Y469D01*
G01X21346Y483D02*
G01X21332Y469D01*
G01X21346Y373D02*
G01X21346Y183D01*
G01X21510Y469D02*
G01X21510Y237D01*
G01X21510Y237D02*
G01X21523Y196D01*
G01X21523Y196D02*
G01X21551Y183D01*
G01X21578Y183D02*
G01X21551Y183D01*
G01X21564Y373D02*
G01X21469Y373D01*
G01X21864Y469D02*
G01X21714Y469D01*
G01X21864Y469D02*
G01X21782Y360D01*
G01X21823Y360D02*
G01X21782Y360D01*
G01X21823Y360D02*
G01X21851Y346D01*
G01X21851Y346D02*
G01X21864Y333D01*
G01X21864Y333D02*
G01X21878Y292D01*
G01X21878Y292D02*
G01X21878Y264D01*
G01X21878Y264D02*
G01X21864Y223D01*
G01X21864Y223D02*
G01X21837Y196D01*
G01X21837Y196D02*
G01X21796Y183D01*
G01X21755Y183D02*
G01X21796Y183D01*
G01X21714Y196D02*
G01X21755Y183D01*
G01X21701Y210D02*
G01X21714Y196D01*
G01X21687Y237D02*
G01X21701Y210D01*
G04 Draw part R1*
G04 draw part outline for part R1*
G04 draw value for part R1*
G01X19147Y1785D02*
G01X19156Y1767D01*
G01X19120Y1812D02*
G01X19147Y1785D01*
G01X19120Y1812D02*
G01X19311Y1812D01*
G01X19120Y1939D02*
G01X19129Y1912D01*
G01X19129Y1912D02*
G01X19156Y1894D01*
G01X19156Y1894D02*
G01X19201Y1885D01*
G01X19201Y1885D02*
G01X19229Y1885D01*
G01X19229Y1885D02*
G01X19274Y1894D01*
G01X19274Y1894D02*
G01X19301Y1912D01*
G01X19301Y1912D02*
G01X19311Y1939D01*
G01X19311Y1957D02*
G01X19311Y1939D01*
G01X19301Y1985D02*
G01X19311Y1957D01*
G01X19274Y2003D02*
G01X19301Y1985D01*
G01X19229Y2012D02*
G01X19274Y2003D01*
G01X19201Y2012D02*
G01X19229Y2012D01*
G01X19156Y2003D02*
G01X19201Y2012D01*
G01X19129Y1985D02*
G01X19156Y2003D01*
G01X19120Y1957D02*
G01X19129Y1985D01*
G01X19120Y1939D02*
G01X19120Y1957D01*
G01X19120Y2085D02*
G01X19311Y2085D01*
G01X19183Y2176D02*
G01X19274Y2085D01*
G01X19238Y2121D02*
G01X19311Y2185D01*
G04 Draw part J5*
G04 draw part outline for part J5*
G04 Draw part J6*
G04 draw part outline for part J6*
G04 Draw part U2*
G04 draw part outline for part U2*
G54D12*
G01X14096Y3897D02*
G01X10627Y3897D01*
G01X10627Y3897D02*
G01X10627Y2322D01*
G01X10627Y2322D02*
G01X14096Y2322D01*
G01X14096Y2322D02*
G01X14096Y2913D01*
G01X14096Y2913D02*
G01X13899Y2913D01*
G01X13899Y2913D02*
G01X13899Y3307D01*
G01X13899Y3307D02*
G01X14096Y3307D01*
G01X14096Y3307D02*
G01X14096Y3897D01*
G04 draw value for part U2*
G54D11*
G01X11214Y3255D02*
G01X11214Y2969D01*
G01X11336Y3255D02*
G01X11214Y3255D01*
G01X11336Y3255D02*
G01X11377Y3241D01*
G01X11377Y3241D02*
G01X11391Y3228D01*
G01X11391Y3228D02*
G01X11404Y3200D01*
G01X11404Y3200D02*
G01X11404Y3159D01*
G01X11404Y3159D02*
G01X11391Y3132D01*
G01X11391Y3132D02*
G01X11377Y3119D01*
G01X11377Y3119D02*
G01X11336Y3105D01*
G01X11214Y3105D02*
G01X11336Y3105D01*
G01X11514Y3255D02*
G01X11514Y2969D01*
G01X11814Y3214D02*
G01X11827Y3187D01*
G01X11786Y3241D02*
G01X11814Y3214D01*
G01X11759Y3255D02*
G01X11786Y3241D01*
G01X11704Y3255D02*
G01X11759Y3255D01*
G01X11704Y3255D02*
G01X11677Y3241D01*
G01X11677Y3241D02*
G01X11650Y3214D01*
G01X11650Y3214D02*
G01X11636Y3187D01*
G01X11636Y3187D02*
G01X11623Y3146D01*
G01X11623Y3146D02*
G01X11623Y3078D01*
G01X11623Y3078D02*
G01X11636Y3037D01*
G01X11636Y3037D02*
G01X11650Y3009D01*
G01X11650Y3009D02*
G01X11677Y2982D01*
G01X11677Y2982D02*
G01X11704Y2969D01*
G01X11759Y2969D02*
G01X11704Y2969D01*
G01X11786Y2982D02*
G01X11759Y2969D01*
G01X11814Y3009D02*
G01X11786Y2982D01*
G01X11827Y3037D02*
G01X11814Y3009D01*
G01X11964Y3214D02*
G01X11936Y3200D01*
G01X12004Y3255D02*
G01X11964Y3214D01*
G01X12004Y3255D02*
G01X12004Y2969D01*
G01X12264Y3241D02*
G01X12277Y3214D01*
G01X12223Y3255D02*
G01X12264Y3241D01*
G01X12195Y3255D02*
G01X12223Y3255D01*
G01X12195Y3255D02*
G01X12154Y3241D01*
G01X12154Y3241D02*
G01X12127Y3200D01*
G01X12127Y3200D02*
G01X12114Y3132D01*
G01X12114Y3132D02*
G01X12114Y3064D01*
G01X12114Y3064D02*
G01X12127Y3009D01*
G01X12127Y3009D02*
G01X12154Y2982D01*
G01X12154Y2982D02*
G01X12195Y2969D01*
G01X12209Y2969D02*
G01X12195Y2969D01*
G01X12250Y2982D02*
G01X12209Y2969D01*
G01X12277Y3009D02*
G01X12250Y2982D01*
G01X12291Y3050D02*
G01X12277Y3009D01*
G01X12291Y3064D02*
G01X12291Y3050D01*
G01X12277Y3105D02*
G01X12291Y3064D01*
G01X12250Y3132D02*
G01X12277Y3105D01*
G01X12209Y3146D02*
G01X12250Y3132D01*
G01X12195Y3146D02*
G01X12209Y3146D01*
G01X12195Y3146D02*
G01X12154Y3132D01*
G01X12154Y3132D02*
G01X12127Y3105D01*
G01X12127Y3105D02*
G01X12114Y3064D01*
G01X12400Y3255D02*
G01X12400Y2969D01*
G01X12577Y3255D02*
G01X12400Y3255D01*
G01X12509Y3119D02*
G01X12400Y3119D01*
G01X12836Y3241D02*
G01X12850Y3214D01*
G01X12795Y3255D02*
G01X12836Y3241D01*
G01X12768Y3255D02*
G01X12795Y3255D01*
G01X12768Y3255D02*
G01X12727Y3241D01*
G01X12727Y3241D02*
G01X12700Y3200D01*
G01X12700Y3200D02*
G01X12686Y3132D01*
G01X12686Y3132D02*
G01X12686Y3064D01*
G01X12686Y3064D02*
G01X12700Y3009D01*
G01X12700Y3009D02*
G01X12727Y2982D01*
G01X12727Y2982D02*
G01X12768Y2969D01*
G01X12782Y2969D02*
G01X12768Y2969D01*
G01X12823Y2982D02*
G01X12782Y2969D01*
G01X12850Y3009D02*
G01X12823Y2982D01*
G01X12864Y3050D02*
G01X12850Y3009D01*
G01X12864Y3064D02*
G01X12864Y3050D01*
G01X12850Y3105D02*
G01X12864Y3064D01*
G01X12823Y3132D02*
G01X12850Y3105D01*
G01X12782Y3146D02*
G01X12823Y3132D01*
G01X12768Y3146D02*
G01X12782Y3146D01*
G01X12768Y3146D02*
G01X12727Y3132D01*
G01X12727Y3132D02*
G01X12700Y3105D01*
G01X12700Y3105D02*
G01X12686Y3064D01*
G01X13164Y3255D02*
G01X13027Y2969D01*
G01X13164Y3255D02*
G01X12973Y3255D01*
G01X13423Y3241D02*
G01X13436Y3214D01*
G01X13382Y3255D02*
G01X13423Y3241D01*
G01X13354Y3255D02*
G01X13382Y3255D01*
G01X13354Y3255D02*
G01X13314Y3241D01*
G01X13314Y3241D02*
G01X13286Y3200D01*
G01X13286Y3200D02*
G01X13273Y3132D01*
G01X13273Y3132D02*
G01X13273Y3064D01*
G01X13273Y3064D02*
G01X13286Y3009D01*
G01X13286Y3009D02*
G01X13314Y2982D01*
G01X13314Y2982D02*
G01X13354Y2969D01*
G01X13368Y2969D02*
G01X13354Y2969D01*
G01X13409Y2982D02*
G01X13368Y2969D01*
G01X13436Y3009D02*
G01X13409Y2982D01*
G01X13450Y3050D02*
G01X13436Y3009D01*
G01X13450Y3064D02*
G01X13450Y3050D01*
G01X13436Y3105D02*
G01X13450Y3064D01*
G01X13409Y3132D02*
G01X13436Y3105D01*
G01X13368Y3146D02*
G01X13409Y3132D01*
G01X13354Y3146D02*
G01X13368Y3146D01*
G01X13354Y3146D02*
G01X13314Y3132D01*
G01X13314Y3132D02*
G01X13286Y3105D01*
G01X13286Y3105D02*
G01X13273Y3064D01*
G04 Draw part C3*
G04 draw part outline for part C3*
G04 draw value for part C3*
G01X14194Y3201D02*
G01X14176Y3192D01*
G01X14221Y3228D02*
G01X14194Y3201D01*
G01X14221Y3228D02*
G01X14221Y3038D01*
G01X14348Y3228D02*
G01X14321Y3219D01*
G01X14321Y3219D02*
G01X14303Y3192D01*
G01X14303Y3192D02*
G01X14294Y3147D01*
G01X14294Y3147D02*
G01X14294Y3119D01*
G01X14294Y3119D02*
G01X14303Y3074D01*
G01X14303Y3074D02*
G01X14321Y3047D01*
G01X14321Y3047D02*
G01X14348Y3038D01*
G01X14366Y3038D02*
G01X14348Y3038D01*
G01X14394Y3047D02*
G01X14366Y3038D01*
G01X14412Y3074D02*
G01X14394Y3047D01*
G01X14421Y3119D02*
G01X14412Y3074D01*
G01X14421Y3147D02*
G01X14421Y3119D01*
G01X14412Y3192D02*
G01X14421Y3147D01*
G01X14394Y3219D02*
G01X14412Y3192D01*
G01X14366Y3228D02*
G01X14394Y3219D01*
G01X14348Y3228D02*
G01X14366Y3228D01*
G01X14548Y3228D02*
G01X14521Y3219D01*
G01X14521Y3219D02*
G01X14503Y3192D01*
G01X14503Y3192D02*
G01X14494Y3147D01*
G01X14494Y3147D02*
G01X14494Y3119D01*
G01X14494Y3119D02*
G01X14503Y3074D01*
G01X14503Y3074D02*
G01X14521Y3047D01*
G01X14521Y3047D02*
G01X14548Y3038D01*
G01X14566Y3038D02*
G01X14548Y3038D01*
G01X14594Y3047D02*
G01X14566Y3038D01*
G01X14612Y3074D02*
G01X14594Y3047D01*
G01X14621Y3119D02*
G01X14612Y3074D01*
G01X14621Y3147D02*
G01X14621Y3119D01*
G01X14612Y3192D02*
G01X14621Y3147D01*
G01X14594Y3219D02*
G01X14612Y3192D01*
G01X14566Y3228D02*
G01X14594Y3219D01*
G01X14548Y3228D02*
G01X14566Y3228D01*
G01X14694Y3165D02*
G01X14694Y3038D01*
G01X14721Y3156D02*
G01X14694Y3128D01*
G01X14739Y3165D02*
G01X14721Y3156D01*
G01X14766Y3165D02*
G01X14739Y3165D01*
G01X14766Y3165D02*
G01X14785Y3156D01*
G01X14785Y3156D02*
G01X14794Y3128D01*
G01X14794Y3128D02*
G01X14794Y3038D01*
G04 Draw part C4*
G04 draw part outline for part C4*
G04 draw value for part C4*
G01X18109Y1869D02*
G01X18118Y1851D01*
G01X18082Y1896D02*
G01X18109Y1869D01*
G01X18082Y1896D02*
G01X18273Y1896D01*
G01X18082Y2023D02*
G01X18091Y1996D01*
G01X18091Y1996D02*
G01X18118Y1978D01*
G01X18118Y1978D02*
G01X18163Y1969D01*
G01X18163Y1969D02*
G01X18191Y1969D01*
G01X18191Y1969D02*
G01X18236Y1978D01*
G01X18236Y1978D02*
G01X18263Y1996D01*
G01X18263Y1996D02*
G01X18273Y2023D01*
G01X18273Y2041D02*
G01X18273Y2023D01*
G01X18263Y2069D02*
G01X18273Y2041D01*
G01X18236Y2087D02*
G01X18263Y2069D01*
G01X18191Y2096D02*
G01X18236Y2087D01*
G01X18163Y2096D02*
G01X18191Y2096D01*
G01X18118Y2087D02*
G01X18163Y2096D01*
G01X18091Y2069D02*
G01X18118Y2087D01*
G01X18082Y2041D02*
G01X18091Y2069D01*
G01X18082Y2023D02*
G01X18082Y2041D01*
G01X18082Y2223D02*
G01X18091Y2196D01*
G01X18091Y2196D02*
G01X18118Y2178D01*
G01X18118Y2178D02*
G01X18163Y2169D01*
G01X18163Y2169D02*
G01X18191Y2169D01*
G01X18191Y2169D02*
G01X18236Y2178D01*
G01X18236Y2178D02*
G01X18263Y2196D01*
G01X18263Y2196D02*
G01X18273Y2223D01*
G01X18273Y2241D02*
G01X18273Y2223D01*
G01X18263Y2269D02*
G01X18273Y2241D01*
G01X18236Y2287D02*
G01X18263Y2269D01*
G01X18191Y2296D02*
G01X18236Y2287D01*
G01X18163Y2296D02*
G01X18191Y2296D01*
G01X18118Y2287D02*
G01X18163Y2296D01*
G01X18091Y2269D02*
G01X18118Y2287D01*
G01X18082Y2241D02*
G01X18091Y2269D01*
G01X18082Y2223D02*
G01X18082Y2241D01*
G01X18145Y2369D02*
G01X18273Y2369D01*
G01X18154Y2396D02*
G01X18182Y2369D01*
G01X18145Y2414D02*
G01X18154Y2396D01*
G01X18145Y2441D02*
G01X18145Y2414D01*
G01X18145Y2441D02*
G01X18154Y2460D01*
G01X18154Y2460D02*
G01X18182Y2469D01*
G01X18182Y2469D02*
G01X18273Y2469D01*
G04 Draw part R3*
G04 draw part outline for part R3*
G04 draw value for part R3*
G01X13147Y1019D02*
G01X13129Y1010D01*
G01X13175Y1046D02*
G01X13147Y1019D01*
G01X13175Y1046D02*
G01X13175Y856D01*
G01X13302Y1046D02*
G01X13275Y1037D01*
G01X13275Y1037D02*
G01X13256Y1010D01*
G01X13256Y1010D02*
G01X13247Y965D01*
G01X13247Y965D02*
G01X13247Y937D01*
G01X13247Y937D02*
G01X13256Y892D01*
G01X13256Y892D02*
G01X13275Y865D01*
G01X13275Y865D02*
G01X13302Y856D01*
G01X13320Y856D02*
G01X13302Y856D01*
G01X13347Y865D02*
G01X13320Y856D01*
G01X13365Y892D02*
G01X13347Y865D01*
G01X13375Y937D02*
G01X13365Y892D01*
G01X13375Y965D02*
G01X13375Y937D01*
G01X13365Y1010D02*
G01X13375Y965D01*
G01X13347Y1037D02*
G01X13365Y1010D01*
G01X13320Y1046D02*
G01X13347Y1037D01*
G01X13302Y1046D02*
G01X13320Y1046D01*
G01X13447Y1046D02*
G01X13447Y856D01*
G01X13538Y983D02*
G01X13447Y892D01*
G01X13484Y928D02*
G01X13547Y856D01*
G04 Draw part R4*
G04 draw part outline for part R4*
G04 draw value for part R4*
G01X12678Y1014D02*
G01X12659Y1005D01*
G01X12705Y1041D02*
G01X12678Y1014D01*
G01X12705Y1041D02*
G01X12705Y851D01*
G01X12832Y1041D02*
G01X12805Y1032D01*
G01X12805Y1032D02*
G01X12787Y1005D01*
G01X12787Y1005D02*
G01X12778Y960D01*
G01X12778Y960D02*
G01X12778Y932D01*
G01X12778Y932D02*
G01X12787Y887D01*
G01X12787Y887D02*
G01X12805Y860D01*
G01X12805Y860D02*
G01X12832Y851D01*
G01X12850Y851D02*
G01X12832Y851D01*
G01X12878Y860D02*
G01X12850Y851D01*
G01X12896Y887D02*
G01X12878Y860D01*
G01X12905Y932D02*
G01X12896Y887D01*
G01X12905Y960D02*
G01X12905Y932D01*
G01X12896Y1005D02*
G01X12905Y960D01*
G01X12878Y1032D02*
G01X12896Y1005D01*
G01X12850Y1041D02*
G01X12878Y1032D01*
G01X12832Y1041D02*
G01X12850Y1041D01*
G01X12978Y1041D02*
G01X12978Y851D01*
G01X13069Y978D02*
G01X12978Y887D01*
G01X13014Y923D02*
G01X13078Y851D01*
G04 Draw part Q4*
G04 draw part outline for part Q4*
G54D12*
G01X9226Y6402D02*
G01X9226Y7612D01*
G01X9226Y7612D02*
G01X8726Y7612D01*
G01X8726Y7612D02*
G01X8726Y6402D01*
G01X8726Y6402D02*
G01X9226Y6402D01*
G04 draw value for part Q4*
G54D11*
G01X8116Y6270D02*
G01X8116Y6080D01*
G01X8188Y6270D02*
G01X8188Y6080D01*
G01X8270Y6270D02*
G01X8188Y6270D01*
G01X8270Y6270D02*
G01X8297Y6261D01*
G01X8297Y6261D02*
G01X8306Y6252D01*
G01X8306Y6252D02*
G01X8316Y6234D01*
G01X8316Y6234D02*
G01X8316Y6216D01*
G01X8316Y6216D02*
G01X8306Y6198D01*
G01X8306Y6198D02*
G01X8297Y6189D01*
G01X8297Y6189D02*
G01X8270Y6180D01*
G01X8188Y6180D02*
G01X8270Y6180D01*
G01X8252Y6180D02*
G01X8316Y6080D01*
G01X8388Y6270D02*
G01X8388Y6080D01*
G01X8497Y6080D02*
G01X8388Y6080D01*
G01X8570Y6270D02*
G01X8570Y6080D01*
G01X8570Y6270D02*
G01X8643Y6080D01*
G01X8716Y6270D02*
G01X8643Y6080D01*
G01X8716Y6270D02*
G01X8716Y6080D01*
G01X8788Y6270D02*
G01X8788Y6080D01*
G01X8897Y6080D02*
G01X8788Y6080D01*
G01X8979Y6234D02*
G01X8979Y6225D01*
G01X8988Y6252D02*
G01X8979Y6234D01*
G01X8997Y6261D02*
G01X8988Y6252D01*
G01X9016Y6270D02*
G01X8997Y6261D01*
G01X9052Y6270D02*
G01X9016Y6270D01*
G01X9052Y6270D02*
G01X9070Y6261D01*
G01X9070Y6261D02*
G01X9079Y6252D01*
G01X9079Y6252D02*
G01X9088Y6234D01*
G01X9088Y6234D02*
G01X9088Y6216D01*
G01X9088Y6216D02*
G01X9079Y6198D01*
G01X9079Y6198D02*
G01X9061Y6170D01*
G01X9061Y6170D02*
G01X8970Y6080D01*
G01X9097Y6080D02*
G01X8970Y6080D01*
G01X9188Y6270D02*
G01X9279Y6270D01*
G01X9188Y6270D02*
G01X9179Y6189D01*
G01X9188Y6198D02*
G01X9179Y6189D01*
G01X9216Y6207D02*
G01X9188Y6198D01*
G01X9243Y6207D02*
G01X9216Y6207D01*
G01X9243Y6207D02*
G01X9270Y6198D01*
G01X9270Y6198D02*
G01X9288Y6180D01*
G01X9288Y6180D02*
G01X9297Y6152D01*
G01X9297Y6152D02*
G01X9297Y6134D01*
G01X9297Y6134D02*
G01X9288Y6107D01*
G01X9288Y6107D02*
G01X9270Y6089D01*
G01X9270Y6089D02*
G01X9243Y6080D01*
G01X9216Y6080D02*
G01X9243Y6080D01*
G01X9188Y6089D02*
G01X9216Y6080D01*
G01X9179Y6098D02*
G01X9188Y6089D01*
G01X9170Y6116D02*
G01X9179Y6098D01*
G01X9425Y6270D02*
G01X9397Y6261D01*
G01X9397Y6261D02*
G01X9379Y6234D01*
G01X9379Y6234D02*
G01X9370Y6189D01*
G01X9370Y6189D02*
G01X9370Y6161D01*
G01X9370Y6161D02*
G01X9379Y6116D01*
G01X9379Y6116D02*
G01X9397Y6089D01*
G01X9397Y6089D02*
G01X9425Y6080D01*
G01X9443Y6080D02*
G01X9425Y6080D01*
G01X9470Y6089D02*
G01X9443Y6080D01*
G01X9488Y6116D02*
G01X9470Y6089D01*
G01X9497Y6161D02*
G01X9488Y6116D01*
G01X9497Y6189D02*
G01X9497Y6161D01*
G01X9488Y6234D02*
G01X9497Y6189D01*
G01X9470Y6261D02*
G01X9488Y6234D01*
G01X9443Y6270D02*
G01X9470Y6261D01*
G01X9425Y6270D02*
G01X9443Y6270D01*
G01X9579Y6234D02*
G01X9579Y6225D01*
G01X9588Y6252D02*
G01X9579Y6234D01*
G01X9597Y6261D02*
G01X9588Y6252D01*
G01X9616Y6270D02*
G01X9597Y6261D01*
G01X9652Y6270D02*
G01X9616Y6270D01*
G01X9652Y6270D02*
G01X9670Y6261D01*
G01X9670Y6261D02*
G01X9679Y6252D01*
G01X9679Y6252D02*
G01X9688Y6234D01*
G01X9688Y6234D02*
G01X9688Y6216D01*
G01X9688Y6216D02*
G01X9679Y6198D01*
G01X9679Y6198D02*
G01X9661Y6170D01*
G01X9661Y6170D02*
G01X9570Y6080D01*
G01X9697Y6080D02*
G01X9570Y6080D01*
G04 Draw part R8*
G04 draw part outline for part R8*
G04 draw value for part R8*
G01X7527Y6516D02*
G01X7536Y6498D01*
G01X7500Y6543D02*
G01X7527Y6516D01*
G01X7500Y6543D02*
G01X7691Y6543D01*
G01X7500Y6634D02*
G01X7500Y6725D01*
G01X7500Y6634D02*
G01X7581Y6625D01*
G01X7572Y6634D02*
G01X7581Y6625D01*
G01X7563Y6661D02*
G01X7572Y6634D01*
G01X7563Y6688D02*
G01X7563Y6661D01*
G01X7563Y6688D02*
G01X7572Y6716D01*
G01X7572Y6716D02*
G01X7591Y6734D01*
G01X7591Y6734D02*
G01X7618Y6743D01*
G01X7618Y6743D02*
G01X7636Y6743D01*
G01X7636Y6743D02*
G01X7663Y6734D01*
G01X7663Y6734D02*
G01X7681Y6716D01*
G01X7681Y6716D02*
G01X7691Y6688D01*
G01X7691Y6661D02*
G01X7691Y6688D01*
G01X7681Y6634D02*
G01X7691Y6661D01*
G01X7672Y6625D02*
G01X7681Y6634D01*
G01X7654Y6616D02*
G01X7672Y6625D01*
G01X7500Y6816D02*
G01X7691Y6816D01*
G01X7563Y6907D02*
G01X7654Y6816D01*
G01X7618Y6852D02*
G01X7691Y6916D01*
G04 Draw part D4*
G04 draw part outline for part D4*
G01X7086Y7086D02*
G01X7086Y7401D01*
G04 draw value for part D4*
G01X7510Y7032D02*
G01X7701Y7032D01*
G01X7510Y7113D02*
G01X7510Y7032D01*
G01X7510Y7113D02*
G01X7519Y7141D01*
G01X7519Y7141D02*
G01X7528Y7150D01*
G01X7528Y7150D02*
G01X7546Y7159D01*
G01X7546Y7159D02*
G01X7564Y7159D01*
G01X7564Y7159D02*
G01X7582Y7150D01*
G01X7582Y7150D02*
G01X7591Y7141D01*
G01X7591Y7141D02*
G01X7601Y7113D01*
G01X7601Y7113D02*
G01X7601Y7032D01*
G01X7601Y7113D02*
G01X7610Y7141D01*
G01X7610Y7141D02*
G01X7619Y7150D01*
G01X7619Y7150D02*
G01X7637Y7159D01*
G01X7637Y7159D02*
G01X7664Y7159D01*
G01X7664Y7159D02*
G01X7682Y7150D01*
G01X7682Y7150D02*
G01X7691Y7141D01*
G01X7691Y7141D02*
G01X7701Y7113D01*
G01X7701Y7032D02*
G01X7701Y7113D01*
G01X7510Y7232D02*
G01X7701Y7232D01*
G01X7573Y7304D02*
G01X7664Y7304D01*
G01X7664Y7304D02*
G01X7691Y7313D01*
G01X7691Y7313D02*
G01X7701Y7332D01*
G01X7701Y7359D02*
G01X7701Y7332D01*
G01X7691Y7377D02*
G01X7701Y7359D01*
G01X7664Y7404D02*
G01X7691Y7377D01*
G01X7573Y7404D02*
G01X7701Y7404D01*
G01X7628Y7586D02*
G01X7628Y7477D01*
G01X7610Y7586D02*
G01X7628Y7586D01*
G01X7591Y7577D02*
G01X7610Y7586D01*
G01X7582Y7568D02*
G01X7591Y7577D01*
G01X7573Y7550D02*
G01X7582Y7568D01*
G01X7573Y7522D02*
G01X7573Y7550D01*
G01X7573Y7522D02*
G01X7582Y7504D01*
G01X7582Y7504D02*
G01X7601Y7486D01*
G01X7601Y7486D02*
G01X7628Y7477D01*
G01X7628Y7477D02*
G01X7646Y7477D01*
G01X7646Y7477D02*
G01X7673Y7486D01*
G01X7673Y7486D02*
G01X7691Y7504D01*
G01X7691Y7504D02*
G01X7701Y7522D01*
G01X7701Y7550D02*
G01X7701Y7522D01*
G01X7691Y7568D02*
G01X7701Y7550D01*
G01X7673Y7586D02*
G01X7691Y7568D01*
G04 Draw part J3*
G04 draw part outline for part J3*
G04 Draw part J4*
G04 draw part outline for part J4*
G04 Draw part Q5*
G04 draw part outline for part Q5*
G54D12*
G01X9226Y8410D02*
G01X9226Y9620D01*
G01X9226Y9620D02*
G01X8726Y9620D01*
G01X8726Y9620D02*
G01X8726Y8410D01*
G01X8726Y8410D02*
G01X9226Y8410D01*
G04 draw value for part Q5*
G54D11*
G01X8113Y8273D02*
G01X8113Y8083D01*
G01X8185Y8273D02*
G01X8185Y8083D01*
G01X8267Y8273D02*
G01X8185Y8273D01*
G01X8267Y8273D02*
G01X8294Y8264D01*
G01X8294Y8264D02*
G01X8303Y8255D01*
G01X8303Y8255D02*
G01X8313Y8237D01*
G01X8313Y8237D02*
G01X8313Y8219D01*
G01X8313Y8219D02*
G01X8303Y8201D01*
G01X8303Y8201D02*
G01X8294Y8192D01*
G01X8294Y8192D02*
G01X8267Y8183D01*
G01X8185Y8183D02*
G01X8267Y8183D01*
G01X8249Y8183D02*
G01X8313Y8083D01*
G01X8385Y8273D02*
G01X8385Y8083D01*
G01X8494Y8083D02*
G01X8385Y8083D01*
G01X8567Y8273D02*
G01X8567Y8083D01*
G01X8567Y8273D02*
G01X8640Y8083D01*
G01X8713Y8273D02*
G01X8640Y8083D01*
G01X8713Y8273D02*
G01X8713Y8083D01*
G01X8785Y8273D02*
G01X8785Y8083D01*
G01X8894Y8083D02*
G01X8785Y8083D01*
G01X8976Y8237D02*
G01X8976Y8228D01*
G01X8985Y8255D02*
G01X8976Y8237D01*
G01X8994Y8264D02*
G01X8985Y8255D01*
G01X9013Y8273D02*
G01X8994Y8264D01*
G01X9049Y8273D02*
G01X9013Y8273D01*
G01X9049Y8273D02*
G01X9067Y8264D01*
G01X9067Y8264D02*
G01X9076Y8255D01*
G01X9076Y8255D02*
G01X9085Y8237D01*
G01X9085Y8237D02*
G01X9085Y8219D01*
G01X9085Y8219D02*
G01X9076Y8201D01*
G01X9076Y8201D02*
G01X9058Y8173D01*
G01X9058Y8173D02*
G01X8967Y8083D01*
G01X9094Y8083D02*
G01X8967Y8083D01*
G01X9185Y8273D02*
G01X9276Y8273D01*
G01X9185Y8273D02*
G01X9176Y8192D01*
G01X9185Y8201D02*
G01X9176Y8192D01*
G01X9213Y8210D02*
G01X9185Y8201D01*
G01X9240Y8210D02*
G01X9213Y8210D01*
G01X9240Y8210D02*
G01X9267Y8201D01*
G01X9267Y8201D02*
G01X9285Y8183D01*
G01X9285Y8183D02*
G01X9294Y8155D01*
G01X9294Y8155D02*
G01X9294Y8137D01*
G01X9294Y8137D02*
G01X9285Y8110D01*
G01X9285Y8110D02*
G01X9267Y8092D01*
G01X9267Y8092D02*
G01X9240Y8083D01*
G01X9213Y8083D02*
G01X9240Y8083D01*
G01X9185Y8092D02*
G01X9213Y8083D01*
G01X9176Y8101D02*
G01X9185Y8092D01*
G01X9167Y8119D02*
G01X9176Y8101D01*
G01X9422Y8273D02*
G01X9394Y8264D01*
G01X9394Y8264D02*
G01X9376Y8237D01*
G01X9376Y8237D02*
G01X9367Y8192D01*
G01X9367Y8192D02*
G01X9367Y8164D01*
G01X9367Y8164D02*
G01X9376Y8119D01*
G01X9376Y8119D02*
G01X9394Y8092D01*
G01X9394Y8092D02*
G01X9422Y8083D01*
G01X9440Y8083D02*
G01X9422Y8083D01*
G01X9467Y8092D02*
G01X9440Y8083D01*
G01X9485Y8119D02*
G01X9467Y8092D01*
G01X9494Y8164D02*
G01X9485Y8119D01*
G01X9494Y8192D02*
G01X9494Y8164D01*
G01X9485Y8237D02*
G01X9494Y8192D01*
G01X9467Y8264D02*
G01X9485Y8237D01*
G01X9440Y8273D02*
G01X9467Y8264D01*
G01X9422Y8273D02*
G01X9440Y8273D01*
G01X9576Y8237D02*
G01X9576Y8228D01*
G01X9585Y8255D02*
G01X9576Y8237D01*
G01X9594Y8264D02*
G01X9585Y8255D01*
G01X9613Y8273D02*
G01X9594Y8264D01*
G01X9649Y8273D02*
G01X9613Y8273D01*
G01X9649Y8273D02*
G01X9667Y8264D01*
G01X9667Y8264D02*
G01X9676Y8255D01*
G01X9676Y8255D02*
G01X9685Y8237D01*
G01X9685Y8237D02*
G01X9685Y8219D01*
G01X9685Y8219D02*
G01X9676Y8201D01*
G01X9676Y8201D02*
G01X9658Y8173D01*
G01X9658Y8173D02*
G01X9567Y8083D01*
G01X9694Y8083D02*
G01X9567Y8083D01*
G04 Draw part R9*
G04 draw part outline for part R9*
G04 draw value for part R9*
G01X7533Y8511D02*
G01X7542Y8493D01*
G01X7506Y8538D02*
G01X7533Y8511D01*
G01X7506Y8538D02*
G01X7697Y8538D01*
G01X7506Y8629D02*
G01X7506Y8720D01*
G01X7506Y8629D02*
G01X7587Y8620D01*
G01X7578Y8629D02*
G01X7587Y8620D01*
G01X7569Y8656D02*
G01X7578Y8629D01*
G01X7569Y8683D02*
G01X7569Y8656D01*
G01X7569Y8683D02*
G01X7578Y8711D01*
G01X7578Y8711D02*
G01X7597Y8729D01*
G01X7597Y8729D02*
G01X7624Y8738D01*
G01X7624Y8738D02*
G01X7642Y8738D01*
G01X7642Y8738D02*
G01X7669Y8729D01*
G01X7669Y8729D02*
G01X7687Y8711D01*
G01X7687Y8711D02*
G01X7697Y8683D01*
G01X7697Y8656D02*
G01X7697Y8683D01*
G01X7687Y8629D02*
G01X7697Y8656D01*
G01X7678Y8620D02*
G01X7687Y8629D01*
G01X7660Y8611D02*
G01X7678Y8620D01*
G01X7506Y8811D02*
G01X7697Y8811D01*
G01X7569Y8902D02*
G01X7660Y8811D01*
G01X7624Y8847D02*
G01X7697Y8911D01*
G04 Draw part D5*
G04 draw part outline for part D5*
G01X7086Y9094D02*
G01X7086Y9409D01*
G04 draw value for part D5*
G01X7506Y9038D02*
G01X7697Y9038D01*
G01X7506Y9119D02*
G01X7506Y9038D01*
G01X7506Y9119D02*
G01X7515Y9147D01*
G01X7515Y9147D02*
G01X7524Y9156D01*
G01X7524Y9156D02*
G01X7542Y9165D01*
G01X7542Y9165D02*
G01X7560Y9165D01*
G01X7560Y9165D02*
G01X7578Y9156D01*
G01X7578Y9156D02*
G01X7587Y9147D01*
G01X7587Y9147D02*
G01X7597Y9119D01*
G01X7597Y9119D02*
G01X7597Y9038D01*
G01X7597Y9119D02*
G01X7606Y9147D01*
G01X7606Y9147D02*
G01X7615Y9156D01*
G01X7615Y9156D02*
G01X7633Y9165D01*
G01X7633Y9165D02*
G01X7660Y9165D01*
G01X7660Y9165D02*
G01X7678Y9156D01*
G01X7678Y9156D02*
G01X7687Y9147D01*
G01X7687Y9147D02*
G01X7697Y9119D01*
G01X7697Y9038D02*
G01X7697Y9119D01*
G01X7506Y9238D02*
G01X7697Y9238D01*
G01X7569Y9310D02*
G01X7660Y9310D01*
G01X7660Y9310D02*
G01X7687Y9319D01*
G01X7687Y9319D02*
G01X7697Y9338D01*
G01X7697Y9365D02*
G01X7697Y9338D01*
G01X7687Y9383D02*
G01X7697Y9365D01*
G01X7660Y9410D02*
G01X7687Y9383D01*
G01X7569Y9410D02*
G01X7697Y9410D01*
G01X7624Y9592D02*
G01X7624Y9483D01*
G01X7606Y9592D02*
G01X7624Y9592D01*
G01X7587Y9583D02*
G01X7606Y9592D01*
G01X7578Y9574D02*
G01X7587Y9583D01*
G01X7569Y9556D02*
G01X7578Y9574D01*
G01X7569Y9528D02*
G01X7569Y9556D01*
G01X7569Y9528D02*
G01X7578Y9510D01*
G01X7578Y9510D02*
G01X7597Y9492D01*
G01X7597Y9492D02*
G01X7624Y9483D01*
G01X7624Y9483D02*
G01X7642Y9483D01*
G01X7642Y9483D02*
G01X7669Y9492D01*
G01X7669Y9492D02*
G01X7687Y9510D01*
G01X7687Y9510D02*
G01X7697Y9528D01*
G01X7697Y9556D02*
G01X7697Y9528D01*
G01X7687Y9574D02*
G01X7697Y9556D01*
G01X7669Y9592D02*
G01X7687Y9574D01*
G04 Draw part Q6*
G04 draw part outline for part Q6*
G54D12*
G01X9226Y10418D02*
G01X9226Y11628D01*
G01X9226Y11628D02*
G01X8726Y11628D01*
G01X8726Y11628D02*
G01X8726Y10418D01*
G01X8726Y10418D02*
G01X9226Y10418D01*
G04 draw value for part Q6*
G54D11*
G01X8106Y10303D02*
G01X8106Y10113D01*
G01X8178Y10303D02*
G01X8178Y10113D01*
G01X8260Y10303D02*
G01X8178Y10303D01*
G01X8260Y10303D02*
G01X8287Y10294D01*
G01X8287Y10294D02*
G01X8296Y10285D01*
G01X8296Y10285D02*
G01X8306Y10267D01*
G01X8306Y10267D02*
G01X8306Y10249D01*
G01X8306Y10249D02*
G01X8296Y10231D01*
G01X8296Y10231D02*
G01X8287Y10222D01*
G01X8287Y10222D02*
G01X8260Y10213D01*
G01X8178Y10213D02*
G01X8260Y10213D01*
G01X8242Y10213D02*
G01X8306Y10113D01*
G01X8378Y10303D02*
G01X8378Y10113D01*
G01X8487Y10113D02*
G01X8378Y10113D01*
G01X8560Y10303D02*
G01X8560Y10113D01*
G01X8560Y10303D02*
G01X8633Y10113D01*
G01X8706Y10303D02*
G01X8633Y10113D01*
G01X8706Y10303D02*
G01X8706Y10113D01*
G01X8778Y10303D02*
G01X8778Y10113D01*
G01X8887Y10113D02*
G01X8778Y10113D01*
G01X8969Y10267D02*
G01X8969Y10258D01*
G01X8978Y10285D02*
G01X8969Y10267D01*
G01X8987Y10294D02*
G01X8978Y10285D01*
G01X9006Y10303D02*
G01X8987Y10294D01*
G01X9042Y10303D02*
G01X9006Y10303D01*
G01X9042Y10303D02*
G01X9060Y10294D01*
G01X9060Y10294D02*
G01X9069Y10285D01*
G01X9069Y10285D02*
G01X9078Y10267D01*
G01X9078Y10267D02*
G01X9078Y10249D01*
G01X9078Y10249D02*
G01X9069Y10231D01*
G01X9069Y10231D02*
G01X9051Y10203D01*
G01X9051Y10203D02*
G01X8960Y10113D01*
G01X9087Y10113D02*
G01X8960Y10113D01*
G01X9178Y10303D02*
G01X9269Y10303D01*
G01X9178Y10303D02*
G01X9169Y10222D01*
G01X9178Y10231D02*
G01X9169Y10222D01*
G01X9206Y10240D02*
G01X9178Y10231D01*
G01X9233Y10240D02*
G01X9206Y10240D01*
G01X9233Y10240D02*
G01X9260Y10231D01*
G01X9260Y10231D02*
G01X9278Y10213D01*
G01X9278Y10213D02*
G01X9287Y10185D01*
G01X9287Y10185D02*
G01X9287Y10167D01*
G01X9287Y10167D02*
G01X9278Y10140D01*
G01X9278Y10140D02*
G01X9260Y10122D01*
G01X9260Y10122D02*
G01X9233Y10113D01*
G01X9206Y10113D02*
G01X9233Y10113D01*
G01X9178Y10122D02*
G01X9206Y10113D01*
G01X9169Y10131D02*
G01X9178Y10122D01*
G01X9160Y10149D02*
G01X9169Y10131D01*
G01X9415Y10303D02*
G01X9387Y10294D01*
G01X9387Y10294D02*
G01X9369Y10267D01*
G01X9369Y10267D02*
G01X9360Y10222D01*
G01X9360Y10222D02*
G01X9360Y10194D01*
G01X9360Y10194D02*
G01X9369Y10149D01*
G01X9369Y10149D02*
G01X9387Y10122D01*
G01X9387Y10122D02*
G01X9415Y10113D01*
G01X9433Y10113D02*
G01X9415Y10113D01*
G01X9460Y10122D02*
G01X9433Y10113D01*
G01X9478Y10149D02*
G01X9460Y10122D01*
G01X9487Y10194D02*
G01X9478Y10149D01*
G01X9487Y10222D02*
G01X9487Y10194D01*
G01X9478Y10267D02*
G01X9487Y10222D01*
G01X9460Y10294D02*
G01X9478Y10267D01*
G01X9433Y10303D02*
G01X9460Y10294D01*
G01X9415Y10303D02*
G01X9433Y10303D01*
G01X9569Y10267D02*
G01X9569Y10258D01*
G01X9578Y10285D02*
G01X9569Y10267D01*
G01X9587Y10294D02*
G01X9578Y10285D01*
G01X9606Y10303D02*
G01X9587Y10294D01*
G01X9642Y10303D02*
G01X9606Y10303D01*
G01X9642Y10303D02*
G01X9660Y10294D01*
G01X9660Y10294D02*
G01X9669Y10285D01*
G01X9669Y10285D02*
G01X9678Y10267D01*
G01X9678Y10267D02*
G01X9678Y10249D01*
G01X9678Y10249D02*
G01X9669Y10231D01*
G01X9669Y10231D02*
G01X9651Y10203D01*
G01X9651Y10203D02*
G01X9560Y10113D01*
G01X9687Y10113D02*
G01X9560Y10113D01*
G04 Draw part R10*
G04 draw part outline for part R10*
G04 draw value for part R10*
G01X7526Y10533D02*
G01X7535Y10515D01*
G01X7499Y10560D02*
G01X7526Y10533D01*
G01X7499Y10560D02*
G01X7690Y10560D01*
G01X7499Y10651D02*
G01X7499Y10742D01*
G01X7499Y10651D02*
G01X7580Y10642D01*
G01X7571Y10651D02*
G01X7580Y10642D01*
G01X7562Y10678D02*
G01X7571Y10651D01*
G01X7562Y10705D02*
G01X7562Y10678D01*
G01X7562Y10705D02*
G01X7571Y10733D01*
G01X7571Y10733D02*
G01X7590Y10751D01*
G01X7590Y10751D02*
G01X7617Y10760D01*
G01X7617Y10760D02*
G01X7635Y10760D01*
G01X7635Y10760D02*
G01X7662Y10751D01*
G01X7662Y10751D02*
G01X7680Y10733D01*
G01X7680Y10733D02*
G01X7690Y10705D01*
G01X7690Y10678D02*
G01X7690Y10705D01*
G01X7680Y10651D02*
G01X7690Y10678D01*
G01X7671Y10642D02*
G01X7680Y10651D01*
G01X7653Y10633D02*
G01X7671Y10642D01*
G01X7499Y10833D02*
G01X7690Y10833D01*
G01X7562Y10924D02*
G01X7653Y10833D01*
G01X7617Y10869D02*
G01X7690Y10933D01*
G04 Draw part D6*
G04 draw part outline for part D6*
G01X7086Y11102D02*
G01X7086Y11417D01*
G04 draw value for part D6*
G01X7503Y11053D02*
G01X7694Y11053D01*
G01X7503Y11134D02*
G01X7503Y11053D01*
G01X7503Y11134D02*
G01X7512Y11162D01*
G01X7512Y11162D02*
G01X7521Y11171D01*
G01X7521Y11171D02*
G01X7539Y11180D01*
G01X7539Y11180D02*
G01X7557Y11180D01*
G01X7557Y11180D02*
G01X7575Y11171D01*
G01X7575Y11171D02*
G01X7584Y11162D01*
G01X7584Y11162D02*
G01X7594Y11134D01*
G01X7594Y11134D02*
G01X7594Y11053D01*
G01X7594Y11134D02*
G01X7603Y11162D01*
G01X7603Y11162D02*
G01X7612Y11171D01*
G01X7612Y11171D02*
G01X7630Y11180D01*
G01X7630Y11180D02*
G01X7657Y11180D01*
G01X7657Y11180D02*
G01X7675Y11171D01*
G01X7675Y11171D02*
G01X7684Y11162D01*
G01X7684Y11162D02*
G01X7694Y11134D01*
G01X7694Y11053D02*
G01X7694Y11134D01*
G01X7503Y11253D02*
G01X7694Y11253D01*
G01X7566Y11325D02*
G01X7657Y11325D01*
G01X7657Y11325D02*
G01X7684Y11334D01*
G01X7684Y11334D02*
G01X7694Y11353D01*
G01X7694Y11380D02*
G01X7694Y11353D01*
G01X7684Y11398D02*
G01X7694Y11380D01*
G01X7657Y11425D02*
G01X7684Y11398D01*
G01X7566Y11425D02*
G01X7694Y11425D01*
G01X7621Y11607D02*
G01X7621Y11498D01*
G01X7603Y11607D02*
G01X7621Y11607D01*
G01X7584Y11598D02*
G01X7603Y11607D01*
G01X7575Y11589D02*
G01X7584Y11598D01*
G01X7566Y11571D02*
G01X7575Y11589D01*
G01X7566Y11543D02*
G01X7566Y11571D01*
G01X7566Y11543D02*
G01X7575Y11525D01*
G01X7575Y11525D02*
G01X7594Y11507D01*
G01X7594Y11507D02*
G01X7621Y11498D01*
G01X7621Y11498D02*
G01X7639Y11498D01*
G01X7639Y11498D02*
G01X7666Y11507D01*
G01X7666Y11507D02*
G01X7684Y11525D01*
G01X7684Y11525D02*
G01X7694Y11543D01*
G01X7694Y11571D02*
G01X7694Y11543D01*
G01X7684Y11589D02*
G01X7694Y11571D01*
G01X7666Y11607D02*
G01X7684Y11589D01*
G04 Draw part Q1*
G04 draw part outline for part Q1*
G54D12*
G01X9226Y418D02*
G01X9226Y1628D01*
G01X9226Y1628D02*
G01X8726Y1628D01*
G01X8726Y1628D02*
G01X8726Y418D01*
G01X8726Y418D02*
G01X9226Y418D01*
G04 draw value for part Q1*
G54D11*
G01X8150Y291D02*
G01X8150Y101D01*
G01X8222Y291D02*
G01X8222Y101D01*
G01X8304Y291D02*
G01X8222Y291D01*
G01X8304Y291D02*
G01X8331Y282D01*
G01X8331Y282D02*
G01X8340Y273D01*
G01X8340Y273D02*
G01X8350Y255D01*
G01X8350Y255D02*
G01X8350Y237D01*
G01X8350Y237D02*
G01X8340Y219D01*
G01X8340Y219D02*
G01X8331Y210D01*
G01X8331Y210D02*
G01X8304Y201D01*
G01X8222Y201D02*
G01X8304Y201D01*
G01X8286Y201D02*
G01X8350Y101D01*
G01X8422Y291D02*
G01X8422Y101D01*
G01X8531Y101D02*
G01X8422Y101D01*
G01X8604Y291D02*
G01X8604Y101D01*
G01X8604Y291D02*
G01X8677Y101D01*
G01X8750Y291D02*
G01X8677Y101D01*
G01X8750Y291D02*
G01X8750Y101D01*
G01X8822Y291D02*
G01X8822Y101D01*
G01X8931Y101D02*
G01X8822Y101D01*
G01X9013Y255D02*
G01X9013Y246D01*
G01X9022Y273D02*
G01X9013Y255D01*
G01X9031Y282D02*
G01X9022Y273D01*
G01X9050Y291D02*
G01X9031Y282D01*
G01X9086Y291D02*
G01X9050Y291D01*
G01X9086Y291D02*
G01X9104Y282D01*
G01X9104Y282D02*
G01X9113Y273D01*
G01X9113Y273D02*
G01X9122Y255D01*
G01X9122Y255D02*
G01X9122Y237D01*
G01X9122Y237D02*
G01X9113Y219D01*
G01X9113Y219D02*
G01X9095Y191D01*
G01X9095Y191D02*
G01X9004Y101D01*
G01X9131Y101D02*
G01X9004Y101D01*
G01X9222Y291D02*
G01X9313Y291D01*
G01X9222Y291D02*
G01X9213Y210D01*
G01X9222Y219D02*
G01X9213Y210D01*
G01X9250Y228D02*
G01X9222Y219D01*
G01X9277Y228D02*
G01X9250Y228D01*
G01X9277Y228D02*
G01X9304Y219D01*
G01X9304Y219D02*
G01X9322Y201D01*
G01X9322Y201D02*
G01X9331Y173D01*
G01X9331Y173D02*
G01X9331Y155D01*
G01X9331Y155D02*
G01X9322Y128D01*
G01X9322Y128D02*
G01X9304Y110D01*
G01X9304Y110D02*
G01X9277Y101D01*
G01X9250Y101D02*
G01X9277Y101D01*
G01X9222Y110D02*
G01X9250Y101D01*
G01X9213Y119D02*
G01X9222Y110D01*
G01X9204Y137D02*
G01X9213Y119D01*
G01X9459Y291D02*
G01X9431Y282D01*
G01X9431Y282D02*
G01X9413Y255D01*
G01X9413Y255D02*
G01X9404Y210D01*
G01X9404Y210D02*
G01X9404Y182D01*
G01X9404Y182D02*
G01X9413Y137D01*
G01X9413Y137D02*
G01X9431Y110D01*
G01X9431Y110D02*
G01X9459Y101D01*
G01X9477Y101D02*
G01X9459Y101D01*
G01X9504Y110D02*
G01X9477Y101D01*
G01X9522Y137D02*
G01X9504Y110D01*
G01X9531Y182D02*
G01X9522Y137D01*
G01X9531Y210D02*
G01X9531Y182D01*
G01X9522Y255D02*
G01X9531Y210D01*
G01X9504Y282D02*
G01X9522Y255D01*
G01X9477Y291D02*
G01X9504Y282D01*
G01X9459Y291D02*
G01X9477Y291D01*
G01X9613Y255D02*
G01X9613Y246D01*
G01X9622Y273D02*
G01X9613Y255D01*
G01X9631Y282D02*
G01X9622Y273D01*
G01X9650Y291D02*
G01X9631Y282D01*
G01X9686Y291D02*
G01X9650Y291D01*
G01X9686Y291D02*
G01X9704Y282D01*
G01X9704Y282D02*
G01X9713Y273D01*
G01X9713Y273D02*
G01X9722Y255D01*
G01X9722Y255D02*
G01X9722Y237D01*
G01X9722Y237D02*
G01X9713Y219D01*
G01X9713Y219D02*
G01X9695Y191D01*
G01X9695Y191D02*
G01X9604Y101D01*
G01X9731Y101D02*
G01X9604Y101D01*
G04 Draw part R5*
G04 draw part outline for part R5*
G04 draw value for part R5*
G01X7527Y512D02*
G01X7536Y494D01*
G01X7500Y539D02*
G01X7527Y512D01*
G01X7500Y539D02*
G01X7691Y539D01*
G01X7500Y630D02*
G01X7500Y721D01*
G01X7500Y630D02*
G01X7581Y621D01*
G01X7572Y630D02*
G01X7581Y621D01*
G01X7563Y657D02*
G01X7572Y630D01*
G01X7563Y684D02*
G01X7563Y657D01*
G01X7563Y684D02*
G01X7572Y712D01*
G01X7572Y712D02*
G01X7591Y730D01*
G01X7591Y730D02*
G01X7618Y739D01*
G01X7618Y739D02*
G01X7636Y739D01*
G01X7636Y739D02*
G01X7663Y730D01*
G01X7663Y730D02*
G01X7681Y712D01*
G01X7681Y712D02*
G01X7691Y684D01*
G01X7691Y657D02*
G01X7691Y684D01*
G01X7681Y630D02*
G01X7691Y657D01*
G01X7672Y621D02*
G01X7681Y630D01*
G01X7654Y612D02*
G01X7672Y621D01*
G01X7500Y812D02*
G01X7691Y812D01*
G01X7563Y903D02*
G01X7654Y812D01*
G01X7618Y848D02*
G01X7691Y912D01*
G04 Draw part D1*
G04 draw part outline for part D1*
G01X7086Y1102D02*
G01X7086Y1417D01*
G04 draw value for part D1*
G01X7507Y1039D02*
G01X7698Y1039D01*
G01X7507Y1120D02*
G01X7507Y1039D01*
G01X7507Y1120D02*
G01X7516Y1148D01*
G01X7516Y1148D02*
G01X7525Y1157D01*
G01X7525Y1157D02*
G01X7543Y1166D01*
G01X7543Y1166D02*
G01X7561Y1166D01*
G01X7561Y1166D02*
G01X7579Y1157D01*
G01X7579Y1157D02*
G01X7588Y1148D01*
G01X7588Y1148D02*
G01X7598Y1120D01*
G01X7598Y1120D02*
G01X7598Y1039D01*
G01X7598Y1120D02*
G01X7607Y1148D01*
G01X7607Y1148D02*
G01X7616Y1157D01*
G01X7616Y1157D02*
G01X7634Y1166D01*
G01X7634Y1166D02*
G01X7661Y1166D01*
G01X7661Y1166D02*
G01X7679Y1157D01*
G01X7679Y1157D02*
G01X7688Y1148D01*
G01X7688Y1148D02*
G01X7698Y1120D01*
G01X7698Y1039D02*
G01X7698Y1120D01*
G01X7507Y1239D02*
G01X7698Y1239D01*
G01X7570Y1311D02*
G01X7661Y1311D01*
G01X7661Y1311D02*
G01X7688Y1320D01*
G01X7688Y1320D02*
G01X7698Y1339D01*
G01X7698Y1366D02*
G01X7698Y1339D01*
G01X7688Y1384D02*
G01X7698Y1366D01*
G01X7661Y1411D02*
G01X7688Y1384D01*
G01X7570Y1411D02*
G01X7698Y1411D01*
G01X7625Y1593D02*
G01X7625Y1484D01*
G01X7607Y1593D02*
G01X7625Y1593D01*
G01X7588Y1584D02*
G01X7607Y1593D01*
G01X7579Y1575D02*
G01X7588Y1584D01*
G01X7570Y1557D02*
G01X7579Y1575D01*
G01X7570Y1529D02*
G01X7570Y1557D01*
G01X7570Y1529D02*
G01X7579Y1511D01*
G01X7579Y1511D02*
G01X7598Y1493D01*
G01X7598Y1493D02*
G01X7625Y1484D01*
G01X7625Y1484D02*
G01X7643Y1484D01*
G01X7643Y1484D02*
G01X7670Y1493D01*
G01X7670Y1493D02*
G01X7688Y1511D01*
G01X7688Y1511D02*
G01X7698Y1529D01*
G01X7698Y1557D02*
G01X7698Y1529D01*
G01X7688Y1575D02*
G01X7698Y1557D01*
G01X7670Y1593D02*
G01X7688Y1575D01*
G04 Draw part Q2*
G04 draw part outline for part Q2*
G54D12*
G01X9226Y2387D02*
G01X9226Y3597D01*
G01X9226Y3597D02*
G01X8726Y3597D01*
G01X8726Y3597D02*
G01X8726Y2387D01*
G01X8726Y2387D02*
G01X9226Y2387D01*
G04 draw value for part Q2*
G54D11*
G01X8100Y2244D02*
G01X8100Y2054D01*
G01X8172Y2244D02*
G01X8172Y2054D01*
G01X8254Y2244D02*
G01X8172Y2244D01*
G01X8254Y2244D02*
G01X8281Y2235D01*
G01X8281Y2235D02*
G01X8290Y2226D01*
G01X8290Y2226D02*
G01X8300Y2208D01*
G01X8300Y2208D02*
G01X8300Y2190D01*
G01X8300Y2190D02*
G01X8290Y2172D01*
G01X8290Y2172D02*
G01X8281Y2163D01*
G01X8281Y2163D02*
G01X8254Y2154D01*
G01X8172Y2154D02*
G01X8254Y2154D01*
G01X8236Y2154D02*
G01X8300Y2054D01*
G01X8372Y2244D02*
G01X8372Y2054D01*
G01X8481Y2054D02*
G01X8372Y2054D01*
G01X8554Y2244D02*
G01X8554Y2054D01*
G01X8554Y2244D02*
G01X8627Y2054D01*
G01X8700Y2244D02*
G01X8627Y2054D01*
G01X8700Y2244D02*
G01X8700Y2054D01*
G01X8772Y2244D02*
G01X8772Y2054D01*
G01X8881Y2054D02*
G01X8772Y2054D01*
G01X8963Y2208D02*
G01X8963Y2199D01*
G01X8972Y2226D02*
G01X8963Y2208D01*
G01X8981Y2235D02*
G01X8972Y2226D01*
G01X9000Y2244D02*
G01X8981Y2235D01*
G01X9036Y2244D02*
G01X9000Y2244D01*
G01X9036Y2244D02*
G01X9054Y2235D01*
G01X9054Y2235D02*
G01X9063Y2226D01*
G01X9063Y2226D02*
G01X9072Y2208D01*
G01X9072Y2208D02*
G01X9072Y2190D01*
G01X9072Y2190D02*
G01X9063Y2172D01*
G01X9063Y2172D02*
G01X9045Y2144D01*
G01X9045Y2144D02*
G01X8954Y2054D01*
G01X9081Y2054D02*
G01X8954Y2054D01*
G01X9172Y2244D02*
G01X9263Y2244D01*
G01X9172Y2244D02*
G01X9163Y2163D01*
G01X9172Y2172D02*
G01X9163Y2163D01*
G01X9200Y2181D02*
G01X9172Y2172D01*
G01X9227Y2181D02*
G01X9200Y2181D01*
G01X9227Y2181D02*
G01X9254Y2172D01*
G01X9254Y2172D02*
G01X9272Y2154D01*
G01X9272Y2154D02*
G01X9281Y2126D01*
G01X9281Y2126D02*
G01X9281Y2108D01*
G01X9281Y2108D02*
G01X9272Y2081D01*
G01X9272Y2081D02*
G01X9254Y2063D01*
G01X9254Y2063D02*
G01X9227Y2054D01*
G01X9200Y2054D02*
G01X9227Y2054D01*
G01X9172Y2063D02*
G01X9200Y2054D01*
G01X9163Y2072D02*
G01X9172Y2063D01*
G01X9154Y2090D02*
G01X9163Y2072D01*
G01X9409Y2244D02*
G01X9381Y2235D01*
G01X9381Y2235D02*
G01X9363Y2208D01*
G01X9363Y2208D02*
G01X9354Y2163D01*
G01X9354Y2163D02*
G01X9354Y2135D01*
G01X9354Y2135D02*
G01X9363Y2090D01*
G01X9363Y2090D02*
G01X9381Y2063D01*
G01X9381Y2063D02*
G01X9409Y2054D01*
G01X9427Y2054D02*
G01X9409Y2054D01*
G01X9454Y2063D02*
G01X9427Y2054D01*
G01X9472Y2090D02*
G01X9454Y2063D01*
G01X9481Y2135D02*
G01X9472Y2090D01*
G01X9481Y2163D02*
G01X9481Y2135D01*
G01X9472Y2208D02*
G01X9481Y2163D01*
G01X9454Y2235D02*
G01X9472Y2208D01*
G01X9427Y2244D02*
G01X9454Y2235D01*
G01X9409Y2244D02*
G01X9427Y2244D01*
G01X9563Y2208D02*
G01X9563Y2199D01*
G01X9572Y2226D02*
G01X9563Y2208D01*
G01X9581Y2235D02*
G01X9572Y2226D01*
G01X9600Y2244D02*
G01X9581Y2235D01*
G01X9636Y2244D02*
G01X9600Y2244D01*
G01X9636Y2244D02*
G01X9654Y2235D01*
G01X9654Y2235D02*
G01X9663Y2226D01*
G01X9663Y2226D02*
G01X9672Y2208D01*
G01X9672Y2208D02*
G01X9672Y2190D01*
G01X9672Y2190D02*
G01X9663Y2172D01*
G01X9663Y2172D02*
G01X9645Y2144D01*
G01X9645Y2144D02*
G01X9554Y2054D01*
G01X9681Y2054D02*
G01X9554Y2054D01*
G04 Draw part R6*
G04 draw part outline for part R6*
G04 draw value for part R6*
G01X7531Y2514D02*
G01X7540Y2496D01*
G01X7504Y2541D02*
G01X7531Y2514D01*
G01X7504Y2541D02*
G01X7695Y2541D01*
G01X7504Y2632D02*
G01X7504Y2723D01*
G01X7504Y2632D02*
G01X7585Y2623D01*
G01X7576Y2632D02*
G01X7585Y2623D01*
G01X7567Y2659D02*
G01X7576Y2632D01*
G01X7567Y2686D02*
G01X7567Y2659D01*
G01X7567Y2686D02*
G01X7576Y2714D01*
G01X7576Y2714D02*
G01X7595Y2732D01*
G01X7595Y2732D02*
G01X7622Y2741D01*
G01X7622Y2741D02*
G01X7640Y2741D01*
G01X7640Y2741D02*
G01X7667Y2732D01*
G01X7667Y2732D02*
G01X7685Y2714D01*
G01X7685Y2714D02*
G01X7695Y2686D01*
G01X7695Y2659D02*
G01X7695Y2686D01*
G01X7685Y2632D02*
G01X7695Y2659D01*
G01X7676Y2623D02*
G01X7685Y2632D01*
G01X7658Y2614D02*
G01X7676Y2623D01*
G01X7504Y2814D02*
G01X7695Y2814D01*
G01X7567Y2905D02*
G01X7658Y2814D01*
G01X7622Y2850D02*
G01X7695Y2914D01*
G04 Draw part D2*
G04 draw part outline for part D2*
G01X7086Y3070D02*
G01X7086Y3385D01*
G04 draw value for part D2*
G01X7506Y2994D02*
G01X7697Y2994D01*
G01X7506Y3075D02*
G01X7506Y2994D01*
G01X7506Y3075D02*
G01X7515Y3103D01*
G01X7515Y3103D02*
G01X7524Y3112D01*
G01X7524Y3112D02*
G01X7542Y3121D01*
G01X7542Y3121D02*
G01X7560Y3121D01*
G01X7560Y3121D02*
G01X7578Y3112D01*
G01X7578Y3112D02*
G01X7587Y3103D01*
G01X7587Y3103D02*
G01X7597Y3075D01*
G01X7597Y3075D02*
G01X7597Y2994D01*
G01X7597Y3075D02*
G01X7606Y3103D01*
G01X7606Y3103D02*
G01X7615Y3112D01*
G01X7615Y3112D02*
G01X7633Y3121D01*
G01X7633Y3121D02*
G01X7660Y3121D01*
G01X7660Y3121D02*
G01X7678Y3112D01*
G01X7678Y3112D02*
G01X7687Y3103D01*
G01X7687Y3103D02*
G01X7697Y3075D01*
G01X7697Y2994D02*
G01X7697Y3075D01*
G01X7506Y3194D02*
G01X7697Y3194D01*
G01X7569Y3266D02*
G01X7660Y3266D01*
G01X7660Y3266D02*
G01X7687Y3275D01*
G01X7687Y3275D02*
G01X7697Y3294D01*
G01X7697Y3321D02*
G01X7697Y3294D01*
G01X7687Y3339D02*
G01X7697Y3321D01*
G01X7660Y3366D02*
G01X7687Y3339D01*
G01X7569Y3366D02*
G01X7697Y3366D01*
G01X7624Y3548D02*
G01X7624Y3439D01*
G01X7606Y3548D02*
G01X7624Y3548D01*
G01X7587Y3539D02*
G01X7606Y3548D01*
G01X7578Y3530D02*
G01X7587Y3539D01*
G01X7569Y3512D02*
G01X7578Y3530D01*
G01X7569Y3484D02*
G01X7569Y3512D01*
G01X7569Y3484D02*
G01X7578Y3466D01*
G01X7578Y3466D02*
G01X7597Y3448D01*
G01X7597Y3448D02*
G01X7624Y3439D01*
G01X7624Y3439D02*
G01X7642Y3439D01*
G01X7642Y3439D02*
G01X7669Y3448D01*
G01X7669Y3448D02*
G01X7687Y3466D01*
G01X7687Y3466D02*
G01X7697Y3484D01*
G01X7697Y3512D02*
G01X7697Y3484D01*
G01X7687Y3530D02*
G01X7697Y3512D01*
G01X7669Y3548D02*
G01X7687Y3530D01*
G04 Draw part Q3*
G04 draw part outline for part Q3*
G54D12*
G01X9226Y4395D02*
G01X9226Y5605D01*
G01X9226Y5605D02*
G01X8726Y5605D01*
G01X8726Y5605D02*
G01X8726Y4395D01*
G01X8726Y4395D02*
G01X9226Y4395D01*
G04 draw value for part Q3*
G54D11*
G01X8102Y4262D02*
G01X8102Y4072D01*
G01X8174Y4262D02*
G01X8174Y4072D01*
G01X8256Y4262D02*
G01X8174Y4262D01*
G01X8256Y4262D02*
G01X8283Y4253D01*
G01X8283Y4253D02*
G01X8292Y4244D01*
G01X8292Y4244D02*
G01X8302Y4226D01*
G01X8302Y4226D02*
G01X8302Y4208D01*
G01X8302Y4208D02*
G01X8292Y4190D01*
G01X8292Y4190D02*
G01X8283Y4181D01*
G01X8283Y4181D02*
G01X8256Y4172D01*
G01X8174Y4172D02*
G01X8256Y4172D01*
G01X8238Y4172D02*
G01X8302Y4072D01*
G01X8374Y4262D02*
G01X8374Y4072D01*
G01X8483Y4072D02*
G01X8374Y4072D01*
G01X8556Y4262D02*
G01X8556Y4072D01*
G01X8556Y4262D02*
G01X8629Y4072D01*
G01X8702Y4262D02*
G01X8629Y4072D01*
G01X8702Y4262D02*
G01X8702Y4072D01*
G01X8774Y4262D02*
G01X8774Y4072D01*
G01X8883Y4072D02*
G01X8774Y4072D01*
G01X8965Y4226D02*
G01X8965Y4217D01*
G01X8974Y4244D02*
G01X8965Y4226D01*
G01X8983Y4253D02*
G01X8974Y4244D01*
G01X9002Y4262D02*
G01X8983Y4253D01*
G01X9038Y4262D02*
G01X9002Y4262D01*
G01X9038Y4262D02*
G01X9056Y4253D01*
G01X9056Y4253D02*
G01X9065Y4244D01*
G01X9065Y4244D02*
G01X9074Y4226D01*
G01X9074Y4226D02*
G01X9074Y4208D01*
G01X9074Y4208D02*
G01X9065Y4190D01*
G01X9065Y4190D02*
G01X9047Y4162D01*
G01X9047Y4162D02*
G01X8956Y4072D01*
G01X9083Y4072D02*
G01X8956Y4072D01*
G01X9174Y4262D02*
G01X9265Y4262D01*
G01X9174Y4262D02*
G01X9165Y4181D01*
G01X9174Y4190D02*
G01X9165Y4181D01*
G01X9202Y4199D02*
G01X9174Y4190D01*
G01X9229Y4199D02*
G01X9202Y4199D01*
G01X9229Y4199D02*
G01X9256Y4190D01*
G01X9256Y4190D02*
G01X9274Y4172D01*
G01X9274Y4172D02*
G01X9283Y4144D01*
G01X9283Y4144D02*
G01X9283Y4126D01*
G01X9283Y4126D02*
G01X9274Y4099D01*
G01X9274Y4099D02*
G01X9256Y4081D01*
G01X9256Y4081D02*
G01X9229Y4072D01*
G01X9202Y4072D02*
G01X9229Y4072D01*
G01X9174Y4081D02*
G01X9202Y4072D01*
G01X9165Y4090D02*
G01X9174Y4081D01*
G01X9156Y4108D02*
G01X9165Y4090D01*
G01X9411Y4262D02*
G01X9383Y4253D01*
G01X9383Y4253D02*
G01X9365Y4226D01*
G01X9365Y4226D02*
G01X9356Y4181D01*
G01X9356Y4181D02*
G01X9356Y4153D01*
G01X9356Y4153D02*
G01X9365Y4108D01*
G01X9365Y4108D02*
G01X9383Y4081D01*
G01X9383Y4081D02*
G01X9411Y4072D01*
G01X9429Y4072D02*
G01X9411Y4072D01*
G01X9456Y4081D02*
G01X9429Y4072D01*
G01X9474Y4108D02*
G01X9456Y4081D01*
G01X9483Y4153D02*
G01X9474Y4108D01*
G01X9483Y4181D02*
G01X9483Y4153D01*
G01X9474Y4226D02*
G01X9483Y4181D01*
G01X9456Y4253D02*
G01X9474Y4226D01*
G01X9429Y4262D02*
G01X9456Y4253D01*
G01X9411Y4262D02*
G01X9429Y4262D01*
G01X9565Y4226D02*
G01X9565Y4217D01*
G01X9574Y4244D02*
G01X9565Y4226D01*
G01X9583Y4253D02*
G01X9574Y4244D01*
G01X9602Y4262D02*
G01X9583Y4253D01*
G01X9638Y4262D02*
G01X9602Y4262D01*
G01X9638Y4262D02*
G01X9656Y4253D01*
G01X9656Y4253D02*
G01X9665Y4244D01*
G01X9665Y4244D02*
G01X9674Y4226D01*
G01X9674Y4226D02*
G01X9674Y4208D01*
G01X9674Y4208D02*
G01X9665Y4190D01*
G01X9665Y4190D02*
G01X9647Y4162D01*
G01X9647Y4162D02*
G01X9556Y4072D01*
G01X9683Y4072D02*
G01X9556Y4072D01*
G04 Draw part R7*
G04 draw part outline for part R7*
G04 draw value for part R7*
G01X7527Y4511D02*
G01X7536Y4493D01*
G01X7500Y4538D02*
G01X7527Y4511D01*
G01X7500Y4538D02*
G01X7691Y4538D01*
G01X7500Y4629D02*
G01X7500Y4720D01*
G01X7500Y4629D02*
G01X7581Y4620D01*
G01X7572Y4629D02*
G01X7581Y4620D01*
G01X7563Y4656D02*
G01X7572Y4629D01*
G01X7563Y4683D02*
G01X7563Y4656D01*
G01X7563Y4683D02*
G01X7572Y4711D01*
G01X7572Y4711D02*
G01X7591Y4729D01*
G01X7591Y4729D02*
G01X7618Y4738D01*
G01X7618Y4738D02*
G01X7636Y4738D01*
G01X7636Y4738D02*
G01X7663Y4729D01*
G01X7663Y4729D02*
G01X7681Y4711D01*
G01X7681Y4711D02*
G01X7691Y4683D01*
G01X7691Y4656D02*
G01X7691Y4683D01*
G01X7681Y4629D02*
G01X7691Y4656D01*
G01X7672Y4620D02*
G01X7681Y4629D01*
G01X7654Y4611D02*
G01X7672Y4620D01*
G01X7500Y4811D02*
G01X7691Y4811D01*
G01X7563Y4902D02*
G01X7654Y4811D01*
G01X7618Y4847D02*
G01X7691Y4911D01*
G04 Draw part D3*
G04 draw part outline for part D3*
G01X7086Y5078D02*
G01X7086Y5393D01*
G04 draw value for part D3*
G01X7512Y5045D02*
G01X7703Y5045D01*
G01X7512Y5126D02*
G01X7512Y5045D01*
G01X7512Y5126D02*
G01X7521Y5154D01*
G01X7521Y5154D02*
G01X7530Y5163D01*
G01X7530Y5163D02*
G01X7548Y5172D01*
G01X7548Y5172D02*
G01X7566Y5172D01*
G01X7566Y5172D02*
G01X7584Y5163D01*
G01X7584Y5163D02*
G01X7593Y5154D01*
G01X7593Y5154D02*
G01X7603Y5126D01*
G01X7603Y5126D02*
G01X7603Y5045D01*
G01X7603Y5126D02*
G01X7612Y5154D01*
G01X7612Y5154D02*
G01X7621Y5163D01*
G01X7621Y5163D02*
G01X7639Y5172D01*
G01X7639Y5172D02*
G01X7666Y5172D01*
G01X7666Y5172D02*
G01X7684Y5163D01*
G01X7684Y5163D02*
G01X7693Y5154D01*
G01X7693Y5154D02*
G01X7703Y5126D01*
G01X7703Y5045D02*
G01X7703Y5126D01*
G01X7512Y5245D02*
G01X7703Y5245D01*
G01X7575Y5317D02*
G01X7666Y5317D01*
G01X7666Y5317D02*
G01X7693Y5326D01*
G01X7693Y5326D02*
G01X7703Y5345D01*
G01X7703Y5372D02*
G01X7703Y5345D01*
G01X7693Y5390D02*
G01X7703Y5372D01*
G01X7666Y5417D02*
G01X7693Y5390D01*
G01X7575Y5417D02*
G01X7703Y5417D01*
G01X7630Y5599D02*
G01X7630Y5490D01*
G01X7612Y5599D02*
G01X7630Y5599D01*
G01X7593Y5590D02*
G01X7612Y5599D01*
G01X7584Y5581D02*
G01X7593Y5590D01*
G01X7575Y5563D02*
G01X7584Y5581D01*
G01X7575Y5535D02*
G01X7575Y5563D01*
G01X7575Y5535D02*
G01X7584Y5517D01*
G01X7584Y5517D02*
G01X7603Y5499D01*
G01X7603Y5499D02*
G01X7630Y5490D01*
G01X7630Y5490D02*
G01X7648Y5490D01*
G01X7648Y5490D02*
G01X7675Y5499D01*
G01X7675Y5499D02*
G01X7693Y5517D01*
G01X7693Y5517D02*
G01X7703Y5535D01*
G01X7703Y5563D02*
G01X7703Y5535D01*
G01X7693Y5581D02*
G01X7703Y5563D01*
G01X7675Y5599D02*
G01X7693Y5581D01*
G04 Draw part U1*
G04 draw part outline for part U1*
G54D13*
G01X12960Y15079D02*
G01X12210Y15079D01*
G01X12210Y15079D02*
G01X12210Y12479D01*
G01X12210Y12479D02*
G01X12960Y12479D01*
G04 draw value for part U1*
G54D11*
G01X12523Y12972D02*
G01X12714Y12972D01*
G01X12523Y13036D02*
G01X12523Y12909D01*
G01X12523Y13109D02*
G01X12714Y13109D01*
G01X12714Y13218D02*
G01X12714Y13109D01*
G01X12523Y13290D02*
G01X12714Y13363D01*
G01X12523Y13436D02*
G01X12714Y13363D01*
G01X12550Y13527D02*
G01X12559Y13509D01*
G01X12523Y13554D02*
G01X12550Y13527D01*
G01X12523Y13554D02*
G01X12714Y13554D01*
G01X12550Y13645D02*
G01X12559Y13627D01*
G01X12523Y13672D02*
G01X12550Y13645D01*
G01X12523Y13672D02*
G01X12714Y13672D01*
G01X12550Y13763D02*
G01X12559Y13745D01*
G01X12523Y13790D02*
G01X12550Y13763D01*
G01X12523Y13790D02*
G01X12714Y13790D01*
G01X12523Y13990D02*
G01X12714Y13899D01*
G01X12523Y13990D02*
G01X12523Y13863D01*
G01X12632Y14227D02*
G01X12632Y14063D01*
G01X12523Y14318D02*
G01X12523Y14409D01*
G01X12523Y14318D02*
G01X12605Y14309D01*
G01X12596Y14318D02*
G01X12605Y14309D01*
G01X12587Y14345D02*
G01X12596Y14318D01*
G01X12587Y14372D02*
G01X12587Y14345D01*
G01X12587Y14372D02*
G01X12596Y14399D01*
G01X12596Y14399D02*
G01X12614Y14418D01*
G01X12614Y14418D02*
G01X12641Y14427D01*
G01X12641Y14427D02*
G01X12659Y14427D01*
G01X12659Y14427D02*
G01X12687Y14418D01*
G01X12687Y14418D02*
G01X12705Y14399D01*
G01X12705Y14399D02*
G01X12714Y14372D01*
G01X12714Y14345D02*
G01X12714Y14372D01*
G01X12705Y14318D02*
G01X12714Y14345D01*
G01X12696Y14309D02*
G01X12705Y14318D01*
G01X12677Y14299D02*
G01X12696Y14309D01*
G01X12523Y14554D02*
G01X12532Y14527D01*
G01X12532Y14527D02*
G01X12559Y14509D01*
G01X12559Y14509D02*
G01X12605Y14499D01*
G01X12605Y14499D02*
G01X12632Y14499D01*
G01X12632Y14499D02*
G01X12677Y14509D01*
G01X12677Y14509D02*
G01X12705Y14527D01*
G01X12705Y14527D02*
G01X12714Y14554D01*
G01X12714Y14572D02*
G01X12714Y14554D01*
G01X12705Y14599D02*
G01X12714Y14572D01*
G01X12677Y14618D02*
G01X12705Y14599D01*
G01X12632Y14627D02*
G01X12677Y14618D01*
G01X12605Y14627D02*
G01X12632Y14627D01*
G01X12559Y14618D02*
G01X12605Y14627D01*
G01X12532Y14599D02*
G01X12559Y14618D01*
G01X12523Y14572D02*
G01X12532Y14599D01*
G01X12523Y14554D02*
G01X12523Y14572D01*
G04 Draw part C2*
G04 draw part outline for part C2*
G54D13*
G01X16830Y12500D02*
G01X16437Y12500D01*
G01X16437Y12500D02*
G01X15846Y13090D01*
G01X15846Y13090D02*
G01X15846Y15059D01*
G01X15846Y15059D02*
G01X16830Y15059D01*
G01X17421Y12500D02*
G01X17814Y12500D01*
G01X17814Y12500D02*
G01X18405Y13090D01*
G01X18405Y13090D02*
G01X18405Y15059D01*
G01X18405Y15059D02*
G01X17421Y15059D01*
G04 draw value for part C2*
G54D11*
G01X16937Y13888D02*
G01X16847Y13761D01*
G01X16983Y13761D02*
G01X16847Y13761D01*
G01X16937Y13888D02*
G01X16937Y13698D01*
G01X17183Y13888D02*
G01X17092Y13698D01*
G01X17183Y13888D02*
G01X17056Y13888D01*
G01X17256Y13825D02*
G01X17256Y13734D01*
G01X17256Y13734D02*
G01X17265Y13707D01*
G01X17265Y13707D02*
G01X17283Y13698D01*
G01X17310Y13698D02*
G01X17283Y13698D01*
G01X17328Y13707D02*
G01X17310Y13698D01*
G01X17356Y13734D02*
G01X17328Y13707D01*
G01X17356Y13825D02*
G01X17356Y13698D01*
G04 Draw part C1*
G04 draw part outline for part C1*
G54D13*
G01X8956Y12500D02*
G01X8562Y12500D01*
G01X8562Y12500D02*
G01X7972Y13090D01*
G01X7972Y13090D02*
G01X7972Y15059D01*
G01X7972Y15059D02*
G01X8956Y15059D01*
G01X9547Y12500D02*
G01X9940Y12500D01*
G01X9940Y12500D02*
G01X10531Y13090D01*
G01X10531Y13090D02*
G01X10531Y15059D01*
G01X10531Y15059D02*
G01X9547Y15059D01*
G04 draw value for part C1*
G54D11*
G01X9063Y13891D02*
G01X8973Y13764D01*
G01X9109Y13764D02*
G01X8973Y13764D01*
G01X9063Y13891D02*
G01X9063Y13701D01*
G01X9309Y13891D02*
G01X9218Y13701D01*
G01X9309Y13891D02*
G01X9182Y13891D01*
G01X9382Y13828D02*
G01X9382Y13737D01*
G01X9382Y13737D02*
G01X9391Y13710D01*
G01X9391Y13710D02*
G01X9409Y13701D01*
G01X9436Y13701D02*
G01X9409Y13701D01*
G01X9454Y13710D02*
G01X9436Y13701D01*
G01X9482Y13737D02*
G01X9454Y13710D01*
G01X9482Y13828D02*
G01X9482Y13701D01*
G04 Draw part U4*
G04 draw part outline for part U4*
G54D13*
G01X23242Y10592D02*
G01X11242Y10592D01*
G01X11242Y10592D02*
G01X11242Y5092D01*
G01X11242Y5092D02*
G01X23242Y5092D01*
G01X23242Y5092D02*
G01X23242Y10592D01*
G01X16492Y6342D02*
G01X15242Y7592D01*
G01X15242Y7592D02*
G01X16492Y8842D01*
G01X16492Y8842D02*
G01X17742Y7592D01*
G01X17742Y7592D02*
G01X16492Y6342D01*
G01X20492Y9342D02*
G01X20492Y10342D01*
G01X20492Y10342D02*
G01X21992Y10342D01*
G01X21992Y10342D02*
G01X21992Y9342D01*
G01X21992Y9342D02*
G01X20492Y9342D01*
G04 draw value for part U4*
G54D11*
G01X13113Y9178D02*
G01X13131Y9141D01*
G01X13076Y9214D02*
G01X13113Y9178D01*
G01X13040Y9232D02*
G01X13076Y9214D01*
G01X12967Y9232D02*
G01X13040Y9232D01*
G01X12967Y9232D02*
G01X12931Y9214D01*
G01X12931Y9214D02*
G01X12894Y9178D01*
G01X12894Y9178D02*
G01X12876Y9141D01*
G01X12876Y9141D02*
G01X12858Y9087D01*
G01X12858Y9087D02*
G01X12858Y8996D01*
G01X12858Y8996D02*
G01X12876Y8941D01*
G01X12876Y8941D02*
G01X12894Y8905D01*
G01X12894Y8905D02*
G01X12931Y8869D01*
G01X12931Y8869D02*
G01X12967Y8851D01*
G01X13040Y8851D02*
G01X12967Y8851D01*
G01X13076Y8869D02*
G01X13040Y8851D01*
G01X13113Y8905D02*
G01X13076Y8869D01*
G01X13131Y8941D02*
G01X13113Y8905D01*
G01X13294Y9160D02*
G01X13294Y9141D01*
G01X13313Y9196D02*
G01X13294Y9160D01*
G01X13331Y9214D02*
G01X13313Y9196D01*
G01X13367Y9232D02*
G01X13331Y9214D01*
G01X13440Y9232D02*
G01X13367Y9232D01*
G01X13440Y9232D02*
G01X13476Y9214D01*
G01X13476Y9214D02*
G01X13494Y9196D01*
G01X13494Y9196D02*
G01X13513Y9160D01*
G01X13513Y9160D02*
G01X13513Y9123D01*
G01X13513Y9123D02*
G01X13494Y9087D01*
G01X13494Y9087D02*
G01X13458Y9032D01*
G01X13458Y9032D02*
G01X13276Y8851D01*
G01X13531Y8851D02*
G01X13276Y8851D01*
G01X13713Y9178D02*
G01X13676Y9160D01*
G01X13767Y9232D02*
G01X13713Y9178D01*
G01X13767Y9232D02*
G01X13767Y8851D01*
G01X14003Y9232D02*
G01X13949Y9214D01*
G01X13949Y9214D02*
G01X13931Y9178D01*
G01X13931Y9178D02*
G01X13931Y9141D01*
G01X13931Y9141D02*
G01X13949Y9105D01*
G01X13949Y9105D02*
G01X13985Y9087D01*
G01X13985Y9087D02*
G01X14058Y9069D01*
G01X14058Y9069D02*
G01X14113Y9051D01*
G01X14113Y9051D02*
G01X14149Y9014D01*
G01X14149Y9014D02*
G01X14167Y8978D01*
G01X14167Y8978D02*
G01X14167Y8923D01*
G01X14167Y8923D02*
G01X14149Y8887D01*
G01X14149Y8887D02*
G01X14131Y8869D01*
G01X14131Y8869D02*
G01X14076Y8851D01*
G01X14003Y8851D02*
G01X14076Y8851D01*
G01X13949Y8869D02*
G01X14003Y8851D01*
G01X13931Y8887D02*
G01X13949Y8869D01*
G01X13913Y8923D02*
G01X13931Y8887D01*
G01X13913Y8978D02*
G01X13913Y8923D01*
G01X13931Y9014D02*
G01X13913Y8978D01*
G01X13967Y9051D02*
G01X13931Y9014D01*
G01X14022Y9069D02*
G01X13967Y9051D01*
G01X14094Y9087D02*
G01X14022Y9069D01*
G01X14131Y9105D02*
G01X14094Y9087D01*
G01X14149Y9141D02*
G01X14131Y9105D01*
G01X14149Y9178D02*
G01X14149Y9141D01*
G01X14131Y9214D02*
G01X14149Y9178D01*
G01X14076Y9232D02*
G01X14131Y9214D01*
G01X14003Y9232D02*
G01X14076Y9232D01*
G01X14313Y9232D02*
G01X14313Y8851D01*
G01X14440Y9232D02*
G01X14313Y9232D01*
G01X14440Y9232D02*
G01X14494Y9214D01*
G01X14494Y9214D02*
G01X14531Y9178D01*
G01X14531Y9178D02*
G01X14549Y9141D01*
G01X14549Y9141D02*
G01X14567Y9087D01*
G01X14567Y9087D02*
G01X14567Y8996D01*
G01X14567Y8996D02*
G01X14549Y8941D01*
G01X14549Y8941D02*
G01X14531Y8905D01*
G01X14531Y8905D02*
G01X14494Y8869D01*
G01X14494Y8869D02*
G01X14440Y8851D01*
G01X14313Y8851D02*
G01X14440Y8851D01*
G01X14822Y9232D02*
G01X14767Y9214D01*
G01X14767Y9214D02*
G01X14731Y9160D01*
G01X14731Y9160D02*
G01X14713Y9069D01*
G01X14713Y9069D02*
G01X14713Y9014D01*
G01X14713Y9014D02*
G01X14731Y8923D01*
G01X14731Y8923D02*
G01X14767Y8869D01*
G01X14767Y8869D02*
G01X14822Y8851D01*
G01X14858Y8851D02*
G01X14822Y8851D01*
G01X14913Y8869D02*
G01X14858Y8851D01*
G01X14949Y8923D02*
G01X14913Y8869D01*
G01X14967Y9014D02*
G01X14949Y8923D01*
G01X14967Y9069D02*
G01X14967Y9014D01*
G01X14949Y9160D02*
G01X14967Y9069D01*
G01X14913Y9214D02*
G01X14949Y9160D01*
G01X14858Y9232D02*
G01X14913Y9214D01*
G01X14822Y9232D02*
G01X14858Y9232D01*
G01X15222Y9232D02*
G01X15167Y9214D01*
G01X15167Y9214D02*
G01X15131Y9160D01*
G01X15131Y9160D02*
G01X15113Y9069D01*
G01X15113Y9069D02*
G01X15113Y9014D01*
G01X15113Y9014D02*
G01X15131Y8923D01*
G01X15131Y8923D02*
G01X15167Y8869D01*
G01X15167Y8869D02*
G01X15222Y8851D01*
G01X15258Y8851D02*
G01X15222Y8851D01*
G01X15313Y8869D02*
G01X15258Y8851D01*
G01X15349Y8923D02*
G01X15313Y8869D01*
G01X15367Y9014D02*
G01X15349Y8923D01*
G01X15367Y9069D02*
G01X15367Y9014D01*
G01X15349Y9160D02*
G01X15367Y9069D01*
G01X15313Y9214D02*
G01X15349Y9160D01*
G01X15258Y9232D02*
G01X15313Y9214D01*
G01X15222Y9232D02*
G01X15258Y9232D01*
G01X15549Y9178D02*
G01X15513Y9160D01*
G01X15603Y9232D02*
G01X15549Y9178D01*
G01X15603Y9232D02*
G01X15603Y8851D01*
G01X16003Y9178D02*
G01X16022Y9141D01*
G01X15967Y9214D02*
G01X16003Y9178D01*
G01X15931Y9232D02*
G01X15967Y9214D01*
G01X15858Y9232D02*
G01X15931Y9232D01*
G01X15858Y9232D02*
G01X15822Y9214D01*
G01X15822Y9214D02*
G01X15785Y9178D01*
G01X15785Y9178D02*
G01X15767Y9141D01*
G01X15767Y9141D02*
G01X15749Y9087D01*
G01X15749Y9087D02*
G01X15749Y8996D01*
G01X15749Y8996D02*
G01X15767Y8941D01*
G01X15767Y8941D02*
G01X15785Y8905D01*
G01X15785Y8905D02*
G01X15822Y8869D01*
G01X15822Y8869D02*
G01X15858Y8851D01*
G01X15931Y8851D02*
G01X15858Y8851D01*
G01X15967Y8869D02*
G01X15931Y8851D01*
G01X16003Y8905D02*
G01X15967Y8869D01*
G01X16022Y8941D02*
G01X16003Y8905D01*
G04 Draw part R11*
G04 draw part outline for part R11*
G04 draw value for part R11*
G01X13512Y10799D02*
G01X13521Y10781D01*
G01X13485Y10826D02*
G01X13512Y10799D01*
G01X13485Y10826D02*
G01X13676Y10826D01*
G01X13485Y10953D02*
G01X13494Y10926D01*
G01X13494Y10926D02*
G01X13521Y10908D01*
G01X13521Y10908D02*
G01X13566Y10899D01*
G01X13566Y10899D02*
G01X13594Y10899D01*
G01X13594Y10899D02*
G01X13639Y10908D01*
G01X13639Y10908D02*
G01X13666Y10926D01*
G01X13666Y10926D02*
G01X13676Y10953D01*
G01X13676Y10971D02*
G01X13676Y10953D01*
G01X13666Y10999D02*
G01X13676Y10971D01*
G01X13639Y11017D02*
G01X13666Y10999D01*
G01X13594Y11026D02*
G01X13639Y11017D01*
G01X13566Y11026D02*
G01X13594Y11026D01*
G01X13521Y11017D02*
G01X13566Y11026D01*
G01X13494Y10999D02*
G01X13521Y11017D01*
G01X13485Y10971D02*
G01X13494Y10999D01*
G01X13485Y10953D02*
G01X13485Y10971D01*
G01X13485Y11099D02*
G01X13676Y11099D01*
G01X13548Y11190D02*
G01X13639Y11099D01*
G01X13603Y11135D02*
G01X13676Y11199D01*
G04 Draw part C6*
G04 draw part outline for part C6*
G04 draw value for part C6*
G01X13519Y11392D02*
G01X13528Y11374D01*
G01X13491Y11420D02*
G01X13519Y11392D01*
G01X13491Y11420D02*
G01X13682Y11420D01*
G01X13491Y11547D02*
G01X13500Y11520D01*
G01X13500Y11520D02*
G01X13528Y11502D01*
G01X13528Y11502D02*
G01X13573Y11492D01*
G01X13573Y11492D02*
G01X13600Y11492D01*
G01X13600Y11492D02*
G01X13646Y11502D01*
G01X13646Y11502D02*
G01X13673Y11520D01*
G01X13673Y11520D02*
G01X13682Y11547D01*
G01X13682Y11565D02*
G01X13682Y11547D01*
G01X13673Y11592D02*
G01X13682Y11565D01*
G01X13646Y11611D02*
G01X13673Y11592D01*
G01X13600Y11620D02*
G01X13646Y11611D01*
G01X13573Y11620D02*
G01X13600Y11620D01*
G01X13528Y11611D02*
G01X13573Y11620D01*
G01X13500Y11592D02*
G01X13528Y11611D01*
G01X13491Y11565D02*
G01X13500Y11592D01*
G01X13491Y11547D02*
G01X13491Y11565D01*
G01X13555Y11692D02*
G01X13682Y11692D01*
G01X13564Y11720D02*
G01X13591Y11692D01*
G01X13555Y11738D02*
G01X13564Y11720D01*
G01X13555Y11765D02*
G01X13555Y11738D01*
G01X13555Y11765D02*
G01X13564Y11783D01*
G01X13564Y11783D02*
G01X13591Y11792D01*
G01X13591Y11792D02*
G01X13682Y11792D01*
G04 Draw part R2*
G04 draw part outline for part R2*
G04 draw value for part R2*
G01X19106Y2454D02*
G01X19233Y2364D01*
G01X19233Y2500D02*
G01X19233Y2364D01*
G01X19106Y2454D02*
G01X19297Y2454D01*
G01X19106Y2700D02*
G01X19297Y2609D01*
G01X19106Y2700D02*
G01X19106Y2573D01*
G01X19106Y2827D02*
G01X19115Y2800D01*
G01X19115Y2800D02*
G01X19142Y2782D01*
G01X19142Y2782D02*
G01X19187Y2773D01*
G01X19187Y2773D02*
G01X19215Y2773D01*
G01X19215Y2773D02*
G01X19260Y2782D01*
G01X19260Y2782D02*
G01X19287Y2800D01*
G01X19287Y2800D02*
G01X19297Y2827D01*
G01X19297Y2845D02*
G01X19297Y2827D01*
G01X19287Y2873D02*
G01X19297Y2845D01*
G01X19260Y2891D02*
G01X19287Y2873D01*
G01X19215Y2900D02*
G01X19260Y2891D01*
G01X19187Y2900D02*
G01X19215Y2900D01*
G01X19142Y2891D02*
G01X19187Y2900D01*
G01X19115Y2873D02*
G01X19142Y2891D01*
G01X19106Y2845D02*
G01X19115Y2873D01*
G01X19106Y2827D02*
G01X19106Y2845D01*
G01X19224Y3082D02*
G01X19224Y2973D01*
G01X19206Y3082D02*
G01X19224Y3082D01*
G01X19187Y3073D02*
G01X19206Y3082D01*
G01X19178Y3064D02*
G01X19187Y3073D01*
G01X19169Y3045D02*
G01X19178Y3064D01*
G01X19169Y3018D02*
G01X19169Y3045D01*
G01X19169Y3018D02*
G01X19178Y3000D01*
G01X19178Y3000D02*
G01X19197Y2982D01*
G01X19197Y2982D02*
G01X19224Y2973D01*
G01X19224Y2973D02*
G01X19242Y2973D01*
G01X19242Y2973D02*
G01X19269Y2982D01*
G01X19269Y2982D02*
G01X19287Y3000D01*
G01X19287Y3000D02*
G01X19297Y3018D01*
G01X19297Y3045D02*
G01X19297Y3018D01*
G01X19287Y3064D02*
G01X19297Y3045D01*
G01X19269Y3082D02*
G01X19287Y3064D01*
G04 Draw part C5*
G04 draw part outline for part C5*
G04 draw value for part C5*
G01X19141Y3216D02*
G01X19150Y3198D01*
G01X19114Y3243D02*
G01X19141Y3216D01*
G01X19114Y3243D02*
G01X19305Y3243D01*
G01X19114Y3370D02*
G01X19123Y3343D01*
G01X19123Y3343D02*
G01X19150Y3325D01*
G01X19150Y3325D02*
G01X19195Y3316D01*
G01X19195Y3316D02*
G01X19223Y3316D01*
G01X19223Y3316D02*
G01X19268Y3325D01*
G01X19268Y3325D02*
G01X19295Y3343D01*
G01X19295Y3343D02*
G01X19305Y3370D01*
G01X19305Y3388D02*
G01X19305Y3370D01*
G01X19295Y3416D02*
G01X19305Y3388D01*
G01X19268Y3434D02*
G01X19295Y3416D01*
G01X19223Y3443D02*
G01X19268Y3434D01*
G01X19195Y3443D02*
G01X19223Y3443D01*
G01X19150Y3434D02*
G01X19195Y3443D01*
G01X19123Y3416D02*
G01X19150Y3434D01*
G01X19114Y3388D02*
G01X19123Y3416D01*
G01X19114Y3370D02*
G01X19114Y3388D01*
G01X19114Y3570D02*
G01X19123Y3543D01*
G01X19123Y3543D02*
G01X19150Y3525D01*
G01X19150Y3525D02*
G01X19195Y3516D01*
G01X19195Y3516D02*
G01X19223Y3516D01*
G01X19223Y3516D02*
G01X19268Y3525D01*
G01X19268Y3525D02*
G01X19295Y3543D01*
G01X19295Y3543D02*
G01X19305Y3570D01*
G01X19305Y3588D02*
G01X19305Y3570D01*
G01X19295Y3616D02*
G01X19305Y3588D01*
G01X19268Y3634D02*
G01X19295Y3616D01*
G01X19223Y3643D02*
G01X19268Y3634D01*
G01X19195Y3643D02*
G01X19223Y3643D01*
G01X19150Y3634D02*
G01X19195Y3643D01*
G01X19123Y3616D02*
G01X19150Y3634D01*
G01X19114Y3588D02*
G01X19123Y3616D01*
G01X19114Y3570D02*
G01X19114Y3588D01*
G01X19177Y3716D02*
G01X19305Y3716D01*
G01X19186Y3743D02*
G01X19214Y3716D01*
G01X19177Y3761D02*
G01X19186Y3743D01*
G01X19177Y3788D02*
G01X19177Y3761D01*
G01X19177Y3788D02*
G01X19186Y3807D01*
G01X19186Y3807D02*
G01X19214Y3816D01*
G01X19214Y3816D02*
G01X19305Y3816D01*
G04 Draw part J1*
G04 draw part outline for part J1*
G54D13*
G01X2913Y10826D02*
G01X3700Y10826D01*
G01X3700Y10826D02*
G01X3700Y11811D01*
G01X1417Y10826D02*
G01X-2007Y10826D01*
G01X-2007Y10826D02*
G01X-2007Y14370D01*
G01X-2007Y14370D02*
G01X3700Y14370D01*
G01X3700Y14370D02*
G01X3700Y13385D01*
G04 draw value for part J1*
G54D11*
G01X1926Y14937D02*
G01X1926Y14556D01*
G01X2089Y14937D02*
G01X1926Y14937D01*
G01X2089Y14937D02*
G01X2144Y14919D01*
G01X2144Y14919D02*
G01X2162Y14901D01*
G01X2162Y14901D02*
G01X2180Y14865D01*
G01X2180Y14865D02*
G01X2180Y14810D01*
G01X2180Y14810D02*
G01X2162Y14774D01*
G01X2162Y14774D02*
G01X2144Y14756D01*
G01X2144Y14756D02*
G01X2089Y14737D01*
G01X1926Y14737D02*
G01X2089Y14737D01*
G01X2416Y14810D02*
G01X2380Y14792D01*
G01X2380Y14792D02*
G01X2344Y14756D01*
G01X2344Y14756D02*
G01X2326Y14701D01*
G01X2326Y14701D02*
G01X2326Y14665D01*
G01X2326Y14665D02*
G01X2344Y14610D01*
G01X2344Y14610D02*
G01X2380Y14574D01*
G01X2380Y14574D02*
G01X2416Y14556D01*
G01X2471Y14556D02*
G01X2416Y14556D01*
G01X2507Y14574D02*
G01X2471Y14556D01*
G01X2544Y14610D02*
G01X2507Y14574D01*
G01X2562Y14665D02*
G01X2544Y14610D01*
G01X2562Y14701D02*
G01X2562Y14665D01*
G01X2544Y14756D02*
G01X2562Y14701D01*
G01X2507Y14792D02*
G01X2544Y14756D01*
G01X2471Y14810D02*
G01X2507Y14792D01*
G01X2416Y14810D02*
G01X2471Y14810D01*
G01X2707Y14810D02*
G01X2780Y14556D01*
G01X2853Y14810D02*
G01X2780Y14556D01*
G01X2853Y14810D02*
G01X2926Y14556D01*
G01X2998Y14810D02*
G01X2926Y14556D01*
G01X3362Y14701D02*
G01X3144Y14701D01*
G01X3362Y14737D02*
G01X3362Y14701D01*
G01X3344Y14774D02*
G01X3362Y14737D01*
G01X3326Y14792D02*
G01X3344Y14774D01*
G01X3289Y14810D02*
G01X3326Y14792D01*
G01X3235Y14810D02*
G01X3289Y14810D01*
G01X3235Y14810D02*
G01X3198Y14792D01*
G01X3198Y14792D02*
G01X3162Y14756D01*
G01X3162Y14756D02*
G01X3144Y14701D01*
G01X3144Y14701D02*
G01X3144Y14665D01*
G01X3144Y14665D02*
G01X3162Y14610D01*
G01X3162Y14610D02*
G01X3198Y14574D01*
G01X3198Y14574D02*
G01X3235Y14556D01*
G01X3289Y14556D02*
G01X3235Y14556D01*
G01X3326Y14574D02*
G01X3289Y14556D01*
G01X3362Y14610D02*
G01X3326Y14574D01*
G01X3507Y14810D02*
G01X3507Y14556D01*
G01X3526Y14756D02*
G01X3507Y14701D01*
G01X3562Y14792D02*
G01X3526Y14756D01*
G01X3598Y14810D02*
G01X3562Y14792D01*
G01X3653Y14810D02*
G01X3598Y14810D01*
G04 Draw part J2*
G04 draw part outline for part J2*
G54D13*
G01X2468Y9692D02*
G01X5968Y9692D01*
G01X5968Y9692D02*
G01X5968Y3692D01*
G01X5968Y3692D02*
G01X2468Y3692D01*
G01X1468Y9692D02*
G01X-781Y9692D01*
G01X-781Y9692D02*
G01X-781Y10192D01*
G01X-781Y10192D02*
G01X-1281Y10192D01*
G01X-1281Y10192D02*
G01X-1281Y9692D01*
G01X-1281Y9692D02*
G01X-2031Y9692D01*
G01X-2031Y9692D02*
G01X-2031Y3692D01*
G01X-2031Y3692D02*
G01X-1281Y3692D01*
G01X-1281Y3692D02*
G01X-1281Y3192D01*
G01X-1281Y3192D02*
G01X-781Y3192D01*
G01X-781Y3192D02*
G01X-781Y3692D01*
G01X-781Y3692D02*
G01X1468Y3692D01*
G04 draw value for part J2*
G54D11*
G01X4111Y3372D02*
G01X4074Y3354D01*
G01X4074Y3354D02*
G01X4038Y3318D01*
G01X4038Y3318D02*
G01X4020Y3281D01*
G01X4020Y3281D02*
G01X4002Y3227D01*
G01X4002Y3227D02*
G01X4002Y3136D01*
G01X4002Y3136D02*
G01X4020Y3081D01*
G01X4020Y3081D02*
G01X4038Y3045D01*
G01X4038Y3045D02*
G01X4074Y3009D01*
G01X4074Y3009D02*
G01X4111Y2990D01*
G01X4183Y2990D02*
G01X4111Y2990D01*
G01X4220Y3009D02*
G01X4183Y2990D01*
G01X4256Y3045D02*
G01X4220Y3009D01*
G01X4274Y3081D02*
G01X4256Y3045D01*
G01X4292Y3136D02*
G01X4274Y3081D01*
G01X4292Y3227D02*
G01X4292Y3136D01*
G01X4274Y3281D02*
G01X4292Y3227D01*
G01X4256Y3318D02*
G01X4274Y3281D01*
G01X4220Y3354D02*
G01X4256Y3318D01*
G01X4183Y3372D02*
G01X4220Y3354D01*
G01X4111Y3372D02*
G01X4183Y3372D01*
G01X4438Y3245D02*
G01X4438Y3063D01*
G01X4438Y3063D02*
G01X4456Y3009D01*
G01X4456Y3009D02*
G01X4492Y2990D01*
G01X4547Y2990D02*
G01X4492Y2990D01*
G01X4583Y3009D02*
G01X4547Y2990D01*
G01X4638Y3063D02*
G01X4583Y3009D01*
G01X4638Y3245D02*
G01X4638Y2990D01*
G01X4838Y3372D02*
G01X4838Y3063D01*
G01X4838Y3063D02*
G01X4856Y3009D01*
G01X4856Y3009D02*
G01X4892Y2990D01*
G01X4929Y2990D02*
G01X4892Y2990D01*
G01X4911Y3245D02*
G01X4783Y3245D01*
G01X5074Y3245D02*
G01X5074Y2863D01*
G01X5111Y3227D02*
G01X5074Y3190D01*
G01X5147Y3245D02*
G01X5111Y3227D01*
G01X5202Y3245D02*
G01X5147Y3245D01*
G01X5202Y3245D02*
G01X5238Y3227D01*
G01X5238Y3227D02*
G01X5274Y3190D01*
G01X5274Y3190D02*
G01X5292Y3136D01*
G01X5292Y3136D02*
G01X5292Y3099D01*
G01X5292Y3099D02*
G01X5274Y3045D01*
G01X5274Y3045D02*
G01X5238Y3009D01*
G01X5238Y3009D02*
G01X5202Y2990D01*
G01X5147Y2990D02*
G01X5202Y2990D01*
G01X5111Y3009D02*
G01X5147Y2990D01*
G01X5074Y3045D02*
G01X5111Y3009D01*
G01X5438Y3245D02*
G01X5438Y3063D01*
G01X5438Y3063D02*
G01X5456Y3009D01*
G01X5456Y3009D02*
G01X5492Y2990D01*
G01X5547Y2990D02*
G01X5492Y2990D01*
G01X5583Y3009D02*
G01X5547Y2990D01*
G01X5638Y3063D02*
G01X5583Y3009D01*
G01X5638Y3245D02*
G01X5638Y2990D01*
G01X5838Y3372D02*
G01X5838Y3063D01*
G01X5838Y3063D02*
G01X5856Y3009D01*
G01X5856Y3009D02*
G01X5892Y2990D01*
G01X5929Y2990D02*
G01X5892Y2990D01*
G01X5911Y3245D02*
G01X5783Y3245D01*
G04 Draw part J7*
G04 draw part outline for part J7*
G04 draw value for part J7*
G01X14555Y12142D02*
G01X14555Y11855D01*
G01X14678Y12142D02*
G01X14555Y12142D01*
G01X14678Y12142D02*
G01X14719Y12128D01*
G01X14719Y12128D02*
G01X14733Y12114D01*
G01X14733Y12114D02*
G01X14746Y12087D01*
G01X14746Y12087D02*
G01X14746Y12060D01*
G01X14746Y12060D02*
G01X14733Y12033D01*
G01X14733Y12033D02*
G01X14719Y12019D01*
G01X14719Y12019D02*
G01X14678Y12005D01*
G01X14555Y12005D02*
G01X14678Y12005D01*
G01X14651Y12005D02*
G01X14746Y11855D01*
G01X14855Y12046D02*
G01X15005Y11855D01*
G01X15005Y12046D02*
G01X14855Y11855D01*
G04 Draw part J8*
G04 draw part outline for part J8*
G04 draw value for part J8*
G01X11999Y12142D02*
G01X11999Y11855D01*
G01X12122Y12142D02*
G01X11999Y12142D01*
G01X12122Y12142D02*
G01X12163Y12128D01*
G01X12163Y12128D02*
G01X12177Y12114D01*
G01X12177Y12114D02*
G01X12190Y12087D01*
G01X12190Y12087D02*
G01X12190Y12060D01*
G01X12190Y12060D02*
G01X12177Y12033D01*
G01X12177Y12033D02*
G01X12163Y12019D01*
G01X12163Y12019D02*
G01X12122Y12005D01*
G01X11999Y12005D02*
G01X12122Y12005D01*
G01X12095Y12005D02*
G01X12190Y11855D01*
G01X12299Y12046D02*
G01X12449Y11855D01*
G01X12449Y12046D02*
G01X12299Y11855D01*
G01X12558Y12142D02*
G01X12558Y11855D01*
G01X12736Y12142D02*
G01X12558Y12142D01*
G01X12668Y12005D02*
G01X12558Y12005D01*
G04 Draw part D7*
G04 draw part outline for part D7*
G01X18700Y14370D02*
G01X19488Y14370D01*
G04 draw value for part D7*
G01X19049Y13250D02*
G01X19058Y13232D01*
G01X19021Y13277D02*
G01X19049Y13250D01*
G01X19021Y13277D02*
G01X19212Y13277D01*
G01X19021Y13350D02*
G01X19212Y13350D01*
G01X19021Y13350D02*
G01X19212Y13477D01*
G01X19021Y13477D02*
G01X19212Y13477D01*
G01X19021Y13641D02*
G01X19149Y13550D01*
G01X19149Y13687D02*
G01X19149Y13550D01*
G01X19021Y13641D02*
G01X19212Y13641D01*
G01X19049Y13777D02*
G01X19058Y13759D01*
G01X19021Y13805D02*
G01X19049Y13777D01*
G01X19021Y13805D02*
G01X19212Y13805D01*
G01X19021Y13968D02*
G01X19149Y13877D01*
G01X19149Y14014D02*
G01X19149Y13877D01*
G01X19021Y13968D02*
G01X19212Y13968D01*
G01X19021Y14132D02*
G01X19031Y14105D01*
G01X19031Y14105D02*
G01X19049Y14096D01*
G01X19049Y14096D02*
G01X19067Y14096D01*
G01X19067Y14096D02*
G01X19085Y14105D01*
G01X19085Y14105D02*
G01X19094Y14123D01*
G01X19094Y14123D02*
G01X19103Y14159D01*
G01X19103Y14159D02*
G01X19112Y14187D01*
G01X19112Y14187D02*
G01X19131Y14205D01*
G01X19131Y14205D02*
G01X19149Y14214D01*
G01X19149Y14214D02*
G01X19176Y14214D01*
G01X19176Y14214D02*
G01X19194Y14205D01*
G01X19194Y14205D02*
G01X19203Y14196D01*
G01X19203Y14196D02*
G01X19212Y14168D01*
G01X19212Y14132D02*
G01X19212Y14168D01*
G01X19203Y14105D02*
G01X19212Y14132D01*
G01X19194Y14096D02*
G01X19203Y14105D01*
G01X19176Y14087D02*
G01X19194Y14096D01*
G01X19149Y14087D02*
G01X19176Y14087D01*
G01X19131Y14096D02*
G01X19149Y14087D01*
G01X19112Y14114D02*
G01X19131Y14096D01*
G01X19103Y14141D02*
G01X19112Y14114D01*
G01X19094Y14177D02*
G01X19103Y14141D01*
G01X19085Y14196D02*
G01X19094Y14177D01*
G01X19067Y14205D02*
G01X19085Y14196D01*
G01X19049Y14205D02*
G01X19067Y14205D01*
G01X19031Y14196D02*
G01X19049Y14205D01*
G01X19021Y14168D02*
G01X19031Y14196D01*
G01X19021Y14132D02*
G01X19021Y14168D01*

G04 Draw traces*

G04 Draw Text*
G01X15490Y4420D02*
G01X15490Y4202D01*
G01X15490Y4202D02*
G01X15477Y4161D01*
G01X15477Y4161D02*
G01X15463Y4147D01*
G01X15463Y4147D02*
G01X15436Y4133D01*
G01X15436Y4133D02*
G01X15408Y4133D01*
G01X15408Y4133D02*
G01X15381Y4147D01*
G01X15381Y4147D02*
G01X15367Y4161D01*
G01X15367Y4161D02*
G01X15354Y4202D01*
G01X15354Y4202D02*
G01X15354Y4229D01*
G01X15913Y4420D02*
G01X15913Y4133D01*
G01X15817Y4420D02*
G01X16008Y4420D01*
G01X16281Y4324D02*
G01X16281Y4133D01*
G01X16281Y4283D02*
G01X16254Y4311D01*
G01X16254Y4311D02*
G01X16227Y4324D01*
G01X16227Y4324D02*
G01X16186Y4324D01*
G01X16186Y4324D02*
G01X16158Y4311D01*
G01X16158Y4311D02*
G01X16131Y4283D01*
G01X16131Y4283D02*
G01X16117Y4242D01*
G01X16117Y4242D02*
G01X16117Y4215D01*
G01X16117Y4215D02*
G01X16131Y4174D01*
G01X16131Y4174D02*
G01X16158Y4147D01*
G01X16158Y4147D02*
G01X16186Y4133D01*
G01X16186Y4133D02*
G01X16227Y4133D01*
G01X16227Y4133D02*
G01X16254Y4147D01*
G01X16254Y4147D02*
G01X16281Y4174D01*
G01X16404Y4324D02*
G01X16486Y4133D01*
G01X16567Y4324D02*
G01X16486Y4133D01*
G01X16486Y4133D02*
G01X16458Y4079D01*
G01X16458Y4079D02*
G01X16431Y4052D01*
G01X16431Y4052D02*
G01X16404Y4038D01*
G01X16404Y4038D02*
G01X16390Y4038D01*
G01X16677Y4420D02*
G01X16677Y4133D01*
G01X16854Y4324D02*
G01X16827Y4311D01*
G01X16827Y4311D02*
G01X16799Y4283D01*
G01X16799Y4283D02*
G01X16786Y4242D01*
G01X16786Y4242D02*
G01X16786Y4215D01*
G01X16786Y4215D02*
G01X16799Y4174D01*
G01X16799Y4174D02*
G01X16827Y4147D01*
G01X16827Y4147D02*
G01X16854Y4133D01*
G01X16854Y4133D02*
G01X16895Y4133D01*
G01X16895Y4133D02*
G01X16922Y4147D01*
G01X16922Y4147D02*
G01X16949Y4174D01*
G01X16949Y4174D02*
G01X16963Y4215D01*
G01X16963Y4215D02*
G01X16963Y4242D01*
G01X16963Y4242D02*
G01X16949Y4283D01*
G01X16949Y4283D02*
G01X16922Y4311D01*
G01X16922Y4311D02*
G01X16895Y4324D01*
G01X16895Y4324D02*
G01X16854Y4324D01*
G01X17072Y4324D02*
G01X17072Y4133D01*
G01X17072Y4242D02*
G01X17086Y4283D01*
G01X17086Y4283D02*
G01X17113Y4311D01*
G01X17113Y4311D02*
G01X17140Y4324D01*
G01X17140Y4324D02*
G01X17181Y4324D01*
G01X15354Y3829D02*
G01X15354Y3543D01*
G01X15354Y3543D02*
G01X15517Y3543D01*
G01X15627Y3829D02*
G01X15627Y3543D01*
G01X15627Y3829D02*
G01X15804Y3829D01*
G01X15627Y3693D02*
G01X15736Y3693D01*
G01X15627Y3543D02*
G01X15804Y3543D01*
G01X15913Y3829D02*
G01X15913Y3543D01*
G01X15913Y3829D02*
G01X16008Y3829D01*
G01X16008Y3829D02*
G01X16049Y3816D01*
G01X16049Y3816D02*
G01X16077Y3788D01*
G01X16077Y3788D02*
G01X16090Y3761D01*
G01X16090Y3761D02*
G01X16104Y3720D01*
G01X16104Y3720D02*
G01X16104Y3652D01*
G01X16104Y3652D02*
G01X16090Y3611D01*
G01X16090Y3611D02*
G01X16077Y3584D01*
G01X16077Y3584D02*
G01X16049Y3556D01*
G01X16049Y3556D02*
G01X16008Y3543D01*
G01X16008Y3543D02*
G01X15913Y3543D01*
G01X16431Y3829D02*
G01X16431Y3543D01*
G01X16431Y3829D02*
G01X16527Y3829D01*
G01X16527Y3829D02*
G01X16567Y3816D01*
G01X16567Y3816D02*
G01X16595Y3788D01*
G01X16595Y3788D02*
G01X16608Y3761D01*
G01X16608Y3761D02*
G01X16622Y3720D01*
G01X16622Y3720D02*
G01X16622Y3652D01*
G01X16622Y3652D02*
G01X16608Y3611D01*
G01X16608Y3611D02*
G01X16595Y3584D01*
G01X16595Y3584D02*
G01X16567Y3556D01*
G01X16567Y3556D02*
G01X16527Y3543D01*
G01X16527Y3543D02*
G01X16431Y3543D01*
G01X16731Y3734D02*
G01X16731Y3543D01*
G01X16731Y3652D02*
G01X16745Y3693D01*
G01X16745Y3693D02*
G01X16772Y3720D01*
G01X16772Y3720D02*
G01X16799Y3734D01*
G01X16799Y3734D02*
G01X16840Y3734D01*
G01X16949Y3829D02*
G01X16963Y3816D01*
G01X16963Y3816D02*
G01X16977Y3829D01*
G01X16977Y3829D02*
G01X16963Y3843D01*
G01X16963Y3843D02*
G01X16949Y3829D01*
G01X16963Y3734D02*
G01X16963Y3543D01*
G01X17086Y3734D02*
G01X17167Y3543D01*
G01X17249Y3734D02*
G01X17167Y3543D01*
G01X17358Y3652D02*
G01X17522Y3652D01*
G01X17522Y3652D02*
G01X17522Y3679D01*
G01X17522Y3679D02*
G01X17508Y3706D01*
G01X17508Y3706D02*
G01X17495Y3720D01*
G01X17495Y3720D02*
G01X17467Y3734D01*
G01X17467Y3734D02*
G01X17427Y3734D01*
G01X17427Y3734D02*
G01X17399Y3720D01*
G01X17399Y3720D02*
G01X17372Y3693D01*
G01X17372Y3693D02*
G01X17358Y3652D01*
G01X17358Y3652D02*
G01X17358Y3625D01*
G01X17358Y3625D02*
G01X17372Y3584D01*
G01X17372Y3584D02*
G01X17399Y3556D01*
G01X17399Y3556D02*
G01X17427Y3543D01*
G01X17427Y3543D02*
G01X17467Y3543D01*
G01X17467Y3543D02*
G01X17495Y3556D01*
G01X17495Y3556D02*
G01X17522Y3584D01*
G01X17631Y3734D02*
G01X17631Y3543D01*
G01X17631Y3652D02*
G01X17645Y3693D01*
G01X17645Y3693D02*
G01X17672Y3720D01*
G01X17672Y3720D02*
G01X17699Y3734D01*
G01X17699Y3734D02*
G01X17740Y3734D01*
G01X15367Y3170D02*
G01X15367Y3184D01*
G01X15367Y3184D02*
G01X15381Y3211D01*
G01X15381Y3211D02*
G01X15395Y3225D01*
G01X15395Y3225D02*
G01X15422Y3239D01*
G01X15422Y3239D02*
G01X15477Y3239D01*
G01X15477Y3239D02*
G01X15504Y3225D01*
G01X15504Y3225D02*
G01X15517Y3211D01*
G01X15517Y3211D02*
G01X15531Y3184D01*
G01X15531Y3184D02*
G01X15531Y3157D01*
G01X15531Y3157D02*
G01X15517Y3130D01*
G01X15517Y3130D02*
G01X15490Y3089D01*
G01X15490Y3089D02*
G01X15354Y2952D01*
G01X15354Y2952D02*
G01X15545Y2952D01*
G01X15736Y3239D02*
G01X15695Y3225D01*
G01X15695Y3225D02*
G01X15667Y3184D01*
G01X15667Y3184D02*
G01X15654Y3116D01*
G01X15654Y3116D02*
G01X15654Y3075D01*
G01X15654Y3075D02*
G01X15667Y3007D01*
G01X15667Y3007D02*
G01X15695Y2966D01*
G01X15695Y2966D02*
G01X15736Y2952D01*
G01X15736Y2952D02*
G01X15763Y2952D01*
G01X15763Y2952D02*
G01X15804Y2966D01*
G01X15804Y2966D02*
G01X15831Y3007D01*
G01X15831Y3007D02*
G01X15845Y3075D01*
G01X15845Y3075D02*
G01X15845Y3116D01*
G01X15845Y3116D02*
G01X15831Y3184D01*
G01X15831Y3184D02*
G01X15804Y3225D01*
G01X15804Y3225D02*
G01X15763Y3239D01*
G01X15763Y3239D02*
G01X15736Y3239D01*
G01X15954Y3184D02*
G01X15981Y3198D01*
G01X15981Y3198D02*
G01X16022Y3239D01*
G01X16022Y3239D02*
G01X16022Y2952D01*
G01X16308Y3143D02*
G01X16295Y3102D01*
G01X16295Y3102D02*
G01X16267Y3075D01*
G01X16267Y3075D02*
G01X16227Y3061D01*
G01X16227Y3061D02*
G01X16213Y3061D01*
G01X16213Y3061D02*
G01X16172Y3075D01*
G01X16172Y3075D02*
G01X16145Y3102D01*
G01X16145Y3102D02*
G01X16131Y3143D01*
G01X16131Y3143D02*
G01X16131Y3157D01*
G01X16131Y3157D02*
G01X16145Y3198D01*
G01X16145Y3198D02*
G01X16172Y3225D01*
G01X16172Y3225D02*
G01X16213Y3239D01*
G01X16213Y3239D02*
G01X16227Y3239D01*
G01X16227Y3239D02*
G01X16267Y3225D01*
G01X16267Y3225D02*
G01X16295Y3198D01*
G01X16295Y3198D02*
G01X16308Y3143D01*
G01X16308Y3143D02*
G01X16308Y3075D01*
G01X16308Y3075D02*
G01X16295Y3007D01*
G01X16295Y3007D02*
G01X16267Y2966D01*
G01X16267Y2966D02*
G01X16227Y2952D01*
G01X16227Y2952D02*
G01X16199Y2952D01*
G01X16199Y2952D02*
G01X16158Y2966D01*
G01X16158Y2966D02*
G01X16145Y2993D01*
G01X16417Y3075D02*
G01X16663Y3075D01*
G01X16772Y3184D02*
G01X16799Y3198D01*
G01X16799Y3198D02*
G01X16840Y3239D01*
G01X16840Y3239D02*
G01X16840Y2952D01*
G01X17031Y3239D02*
G01X16990Y3225D01*
G01X16990Y3225D02*
G01X16963Y3184D01*
G01X16963Y3184D02*
G01X16949Y3116D01*
G01X16949Y3116D02*
G01X16949Y3075D01*
G01X16949Y3075D02*
G01X16963Y3007D01*
G01X16963Y3007D02*
G01X16990Y2966D01*
G01X16990Y2966D02*
G01X17031Y2952D01*
G01X17031Y2952D02*
G01X17058Y2952D01*
G01X17058Y2952D02*
G01X17099Y2966D01*
G01X17099Y2966D02*
G01X17127Y3007D01*
G01X17127Y3007D02*
G01X17140Y3075D01*
G01X17140Y3075D02*
G01X17140Y3116D01*
G01X17140Y3116D02*
G01X17127Y3184D01*
G01X17127Y3184D02*
G01X17099Y3225D01*
G01X17099Y3225D02*
G01X17058Y3239D01*
G01X17058Y3239D02*
G01X17031Y3239D01*
G01X17249Y3075D02*
G01X17495Y3075D01*
G01X17617Y3170D02*
G01X17617Y3184D01*
G01X17617Y3184D02*
G01X17631Y3211D01*
G01X17631Y3211D02*
G01X17645Y3225D01*
G01X17645Y3225D02*
G01X17672Y3239D01*
G01X17672Y3239D02*
G01X17727Y3239D01*
G01X17727Y3239D02*
G01X17754Y3225D01*
G01X17754Y3225D02*
G01X17767Y3211D01*
G01X17767Y3211D02*
G01X17781Y3184D01*
G01X17781Y3184D02*
G01X17781Y3157D01*
G01X17781Y3157D02*
G01X17767Y3130D01*
G01X17767Y3130D02*
G01X17740Y3089D01*
G01X17740Y3089D02*
G01X17604Y2952D01*
G01X17604Y2952D02*
G01X17795Y2952D01*
G01X18095Y3239D02*
G01X17958Y2952D01*
G01X17904Y3239D02*
G01X18095Y3239D01*
M00*
M02*
